<?xml version="1.0" encoding="UTF-8" standalone="no"?>
<!-- Created with Inkscape (http://www.inkscape.org/) -->

<svg
   xmlns:dc="http://purl.org/dc/elements/1.1/"
   xmlns:cc="http://creativecommons.org/ns#"
   xmlns:rdf="http://www.w3.org/1999/02/22-rdf-syntax-ns#"
   xmlns:svg="http://www.w3.org/2000/svg"
   xmlns="http://www.w3.org/2000/svg"
   xmlns:sodipodi="http://sodipodi.sourceforge.net/DTD/sodipodi-0.dtd"
   xmlns:inkscape="http://www.inkscape.org/namespaces/inkscape"
   width="45"
   height="380"
   viewBox="0 0 11.90625 100.54167"
   version="1.1"
   id="svg8"
   inkscape:version="0.92.2 5c3e80d, 2017-08-06"
   sodipodi:docname="1x8.svg"
   inkscape:export-filename="E:\Users\Martin\Documents\Rack_Source\rack\plugins\ML_modules\res\TrigBuf.png"
   inkscape:export-xdpi="96"
   inkscape:export-ydpi="96">
  <defs
     id="defs2">
    <inkscape:perspective
       sodipodi:type="inkscape:persp3d"
       inkscape:vp_x="0 : 50.270835 : 1"
       inkscape:vp_y="0 : 1000 : 0"
       inkscape:vp_z="31.75 : 50.270835 : 1"
       inkscape:persp3d-origin="15.875 : 33.51389 : 1"
       id="perspective4742" />
  </defs>
  <sodipodi:namedview
     id="base"
     pagecolor="#ffffff"
     bordercolor="#666666"
     borderopacity="1.0"
     inkscape:pageopacity="0.0"
     inkscape:pageshadow="2"
     inkscape:zoom="1.9999999"
     inkscape:cx="-65.476179"
     inkscape:cy="189.7077"
     inkscape:document-units="px"
     inkscape:current-layer="layer1"
     showgrid="true"
     units="px"
     fit-margin-top="0"
     fit-margin-left="0"
     fit-margin-right="0"
     fit-margin-bottom="0"
     showguides="false"
     inkscape:snap-to-guides="false"
     objecttolerance="20"
     inkscape:window-width="1066"
     inkscape:window-height="1006"
     inkscape:window-x="580"
     inkscape:window-y="29"
     inkscape:window-maximized="0"
     gridtolerance="17"
     inkscape:snap-perpendicular="false"
     inkscape:pagecheckerboard="true"
     inkscape:snap-page="true"
     inkscape:snap-text-baseline="true"
     showborder="true">
    <inkscape:grid
       type="xygrid"
       id="grid43"
       originx="0"
       originy="100.54167"
       spacingx="0.52916668"
       spacingy="0.52916668"
       dotted="false"
       empspacing="20" />
  </sodipodi:namedview>
  <metadata
     id="metadata5">
    <rdf:RDF>
      <cc:Work
         rdf:about="">
        <dc:format>image/svg+xml</dc:format>
        <dc:type
           rdf:resource="http://purl.org/dc/dcmitype/StillImage" />
        <dc:title></dc:title>
      </cc:Work>
    </rdf:RDF>
  </metadata>
  <g
     inkscape:groupmode="layer"
     id="layer2"
     inkscape:label="Layer 2"
     transform="translate(0.26458305,6.2806193e-6)">
    <g
       aria-label="M"
       style="font-style:normal;font-variant:normal;font-weight:bold;font-stretch:normal;font-size:19.75555611px;line-height:1.25;font-family:Arial;-inkscape-font-specification:'Arial, Bold';font-variant-ligatures:normal;font-variant-caps:normal;font-variant-numeric:normal;font-feature-settings:normal;text-align:start;letter-spacing:0px;word-spacing:0px;writing-mode:lr-tb;text-anchor:start;fill:#000000;fill-opacity:1;stroke:none;stroke-width:0.26458335"
       id="text4720" />
  </g>
  <g
     inkscape:label="Layer 1"
     inkscape:groupmode="layer"
     id="layer1"
     transform="translate(0.26458305,-196.45831)">
    <rect
       style="fill:#f0f0f0;fill-opacity:1;stroke-width:0.18708867"
       id="rect4689"
       width="11.90625"
       height="100.54166"
       x="-0.26458284"
       y="196.45831" />
    <g
       transform="translate(16.721667,-0.31751099)"
       aria-label="SK"
       style="font-style:normal;font-variant:normal;font-weight:normal;font-stretch:normal;font-size:4.93888855px;line-height:1.25;font-family:Chalkboard;-inkscape-font-specification:Chalkboard;letter-spacing:0px;word-spacing:0px;fill:#000000;fill-opacity:1;stroke:none;stroke-width:0.26458332"
       id="text5546">
      <path
         inkscape:connector-curvature="0"
         d="m -13.582641,292.25599 q -0.03274,-0.0764 -0.03274,-0.14189 0,-0.0928 0.05457,-0.14735 0.06003,-0.06 0.147348,-0.06 0.08732,0 0.169177,0.06 0.09277,0.10915 0.212837,0.18555 0.125518,0.0709 0.261952,0.1146 0.14189,0.0382 0.283781,0.0546 0.147348,0.0164 0.283782,0.0164 0.09277,-0.0328 0.125518,-0.0382 0.0382,-0.0109 0.06003,-0.0218 0.02183,-0.0109 0.04912,-0.0328 0.02729,-0.0218 0.103689,-0.0764 0.02729,-0.0382 0.04912,-0.0709 0.02183,-0.0328 0.04912,-0.071 l 0.04912,-0.14735 q 0,-0.0382 0,-0.0709 0,-0.0382 -0.0055,-0.0819 -0.01091,-0.0382 -0.02729,-0.0709 -0.01637,-0.0382 -0.03274,-0.0764 -0.03274,-0.0382 -0.06549,-0.0709 -0.02729,-0.0327 -0.06003,-0.0709 -0.04912,-0.0273 -0.09823,-0.06 -0.04912,-0.0328 -0.109147,-0.0491 -0.223751,-0.0764 -0.414758,-0.10369 -0.185549,-0.0327 -0.354726,-0.0764 -0.16372,-0.0491 -0.311068,-0.14735 -0.147349,-0.0982 -0.289239,-0.31652 -0.02729,-0.0437 -0.03274,-0.0655 -0.0055,-0.0218 -0.01091,-0.0764 -0.0055,-0.0437 -0.01092,-0.0819 0,-0.0437 0,-0.0819 0,-0.0982 0.01637,-0.17463 0.02183,-0.0764 0.06003,-0.14735 0.0382,-0.0709 0.09823,-0.14189 0.06003,-0.0764 0.141891,-0.16372 0.09277,-0.0982 0.212836,-0.15826 0.120061,-0.0655 0.251037,-0.0982 0.130976,-0.0382 0.26741,-0.0491 0.14189,-0.0164 0.272867,-0.0164 0.04366,0 0.0764,0 0.0382,0 0.0764,0.005 0.125519,0.0109 0.234665,0.06 0.114604,0.0491 0.234666,0.0819 0.125518,0.0873 0.125518,0.21283 0,0.0819 -0.06549,0.14735 -0.06003,0.06 -0.174634,0.06 -0.01092,0 -0.02729,0 -0.01092,-0.005 -0.02183,-0.005 -0.174635,-0.0546 -0.311068,-0.0819 -0.130976,-0.0327 -0.256495,-0.0327 -0.130976,0 -0.26741,0.0437 -0.136433,0.0437 -0.316525,0.14735 -0.03274,0.0437 -0.06549,0.0819 -0.03274,0.0327 -0.06549,0.0709 -0.01637,0.0328 -0.03274,0.0655 -0.01092,0.0327 -0.02183,0.0655 0,0.0327 0,0.0655 0.0055,0.0327 0.01091,0.06 0.02183,0.0273 0.0382,0.0546 0.01637,0.0273 0.0382,0.0546 l 0.229208,0.13098 q 0.16372,0.0382 0.305611,0.0655 0.14189,0.0273 0.272867,0.0655 0.130976,0.0327 0.256494,0.0819 0.130976,0.0491 0.278324,0.13097 0.0764,0.0437 0.130976,0.11461 0.05457,0.0655 0.10369,0.12551 0.08732,0.10369 0.125519,0.23467 0.04366,0.13098 0.04366,0.27287 0,0.19646 -0.0764,0.38201 -0.0764,0.18555 -0.218294,0.30561 -0.04912,0.0437 -0.103689,0.0819 -0.04912,0.0328 -0.09823,0.0655 -0.114604,0.0764 -0.256495,0.1146 -0.141891,0.0382 -0.300153,0.0382 -0.180093,0 -0.365642,-0.0437 -0.180092,-0.0382 -0.349269,-0.10915 -0.169178,-0.0764 -0.311069,-0.17464 -0.14189,-0.0982 -0.240122,-0.21283 z"
         style="stroke-width:0.26458332"
         id="path5567" />
      <path
         inkscape:connector-curvature="0"
         d="m -10.351675,292.45245 q -0.0055,0.12552 -0.0764,0.19101 -0.06549,0.06 -0.147348,0.06 -0.0764,0 -0.147348,-0.06 -0.07095,-0.06 -0.08732,-0.18009 0.0055,-0.70946 0.0055,-1.408 0,-0.69853 -0.0055,-1.4571 0.02729,-0.10915 0.08732,-0.16372 0.06003,-0.0546 0.136434,-0.0546 0.07095,0 0.130976,0.0491 0.06549,0.0491 0.09277,0.1528 0,0.31107 -0.0055,0.59485 0,0.28379 0,0.60031 0.240123,-0.10369 0.4093003,-0.23466 0.1746347,-0.13098 0.3219828,-0.28924 0.147348,-0.16372 0.2946961,-0.35473 0.147348,-0.19646 0.3383548,-0.42022 0.087317,-0.0709 0.180092,-0.0709 0.087317,0 0.1473481,0.06 0.060031,0.06 0.060031,0.15281 0,0.0491 -0.027287,0.12006 -0.1637201,0.191 -0.2946961,0.36018 -0.1309761,0.16372 -0.2564948,0.31107 -0.1255187,0.14735 -0.2564947,0.27832 -0.1255188,0.12552 -0.2783241,0.23467 0.3219827,0.34381 0.6385082,0.68217 0.3165255,0.33289 0.6330509,0.67671 0.060031,0.0764 0.060031,0.16917 0,0.0928 -0.060031,0.15281 -0.060031,0.0546 -0.147348,0.0546 -0.043659,0 -0.098232,-0.0164 -0.049116,-0.0218 -0.092775,-0.0709 -0.038201,-0.0437 -0.1418907,-0.1528 -0.1036894,-0.10915 -0.2401228,-0.25104 -0.130976,-0.14735 -0.2837814,-0.30561 -0.1473481,-0.16372 -0.2837814,-0.30561 -0.1309761,-0.14735 -0.2346655,-0.2565 -0.1036887,-0.10914 -0.1418907,-0.1528 -0.103689,0.0491 -0.251037,0.10369 0,0.31652 0.0055,0.60576 0.0055,0.28378 0.01637,0.59485 z"
         style="stroke-width:0.26458332"
         id="path5569" />
    </g>
    <rect
       style="fill:#916f6f;stroke-width:0.26458332"
       id="rect5563"
       width="8.4666662"
       height="73.660011"
       x="1.4816663"
       y="214.13248" />
    <rect
       style="fill:#91b06f;fill-opacity:1;stroke-width:0.26458332"
       id="rect5565"
       width="8.4666662"
       height="6.7733335"
       x="1.4816663"
       y="205.24248" />
    <g
       transform="translate(16.721667,-0.31751099)"
       aria-label="1x8"
       style="font-style:normal;font-variant:normal;font-weight:normal;font-stretch:normal;font-size:4.23333311px;line-height:1.25;font-family:Chalkboard;-inkscape-font-specification:Chalkboard;letter-spacing:0px;word-spacing:0px;fill:#000000;fill-opacity:1;stroke:none;stroke-width:0.26458332"
       id="text5574">
      <path
         inkscape:connector-curvature="0"
         d="m -13.042876,203.38276 q 0.08888,0.0234 0.130976,0.0795 0.0421,0.0515 0.0421,0.11227 0,0.0655 -0.04678,0.11694 -0.04678,0.0515 -0.140331,0.0748 h -0.720368 q -0.10291,-0.009 -0.154365,-0.0655 -0.04678,-0.0608 -0.04678,-0.12629 0,-0.0655 0.05146,-0.1263 0.05613,-0.0655 0.16372,-0.0655 h 0.135653 v -1.9319 q -0.06549,0.0468 -0.140331,0.0468 -0.07952,0 -0.130976,-0.0514 -0.04678,-0.0561 -0.04678,-0.1263 0,-0.0421 0.01871,-0.0889 0.02339,-0.0468 0.07016,-0.0842 l 0.322763,-0.2105 q 0.06081,-0.0234 0.10291,-0.0234 0.145009,0 0.187108,0.16372 v 2.30611 h 0.201142 z"
         style="stroke-width:0.26458332"
         id="path5576" />
      <path
         inkscape:connector-curvature="0"
         d="m -10.812355,201.68007 q 0.07952,-0.0655 0.154365,-0.0608 0.07952,0.005 0.126298,0.0515 0.04678,0.0468 0.05145,0.12629 0.0047,0.0748 -0.06081,0.15437 -0.173076,0.1684 -0.341473,0.34147 -0.16372,0.17308 -0.322763,0.35083 0.196464,0.22453 0.36954,0.46309 0.177753,0.23389 0.332118,0.48649 0.02807,0.0889 0,0.15436 -0.02339,0.0655 -0.07484,0.0936 -0.05146,0.0327 -0.12162,0.0234 -0.06549,-0.009 -0.130976,-0.0748 -0.135654,-0.22453 -0.294697,-0.43503 -0.159042,-0.21517 -0.332117,-0.41631 -0.30873,0.37889 -0.589393,0.80924 -0.06549,0.0795 -0.145009,0.0889 -0.07484,0.009 -0.130976,-0.0327 -0.05613,-0.0374 -0.07484,-0.11226 -0.01403,-0.0795 0.0421,-0.1684 0.145009,-0.22921 0.304052,-0.44906 0.16372,-0.21985 0.336795,-0.43035 -0.149687,-0.16372 -0.308729,-0.32276 -0.154365,-0.16372 -0.313407,-0.32744 -0.07484,-0.0748 -0.07952,-0.14969 0,-0.0795 0.0421,-0.1263 0.04678,-0.0514 0.121621,-0.0608 0.07952,-0.014 0.16372,0.0468 0.159042,0.16372 0.318085,0.32744 0.159042,0.15904 0.308729,0.32276 0.154365,-0.17307 0.318085,-0.34147 0.16372,-0.1684 0.332117,-0.33212 z"
         style="stroke-width:0.26458332"
         id="path5578" />
      <path
         inkscape:connector-curvature="0"
         d="m -9.9902003,203.06467 q 0.032744,-0.14033 0.065488,-0.26662 0.032744,-0.1263 0.1496869,-0.24325 0.079521,-0.0935 0.1777532,-0.15904 0.1029098,-0.0702 0.2104972,-0.13565 -0.1964641,-0.14501 -0.3321178,-0.3368 -0.1309761,-0.19646 -0.1309761,-0.44906 0,-0.17775 0.088877,-0.29469 0.088877,-0.12163 0.2292081,-0.19647 0.1403315,-0.0748 0.3087293,-0.10291 0.1683978,-0.0327 0.3274401,-0.0327 0.1309761,0 0.2666298,0.0327 0.1403315,0.0281 0.2525967,0.0982 0.1169429,0.0655 0.1871087,0.17776 0.074843,0.11226 0.074843,0.27598 0,0.14969 -0.042099,0.26663 -0.037422,0.11694 -0.1122652,0.21518 -0.074844,0.0982 -0.1871087,0.18243 -0.1075874,0.0842 -0.2479189,0.1684 0.1216206,0.0748 0.2385635,0.16372 0.1216206,0.0842 0.2151749,0.1871 0.098232,0.0982 0.1543647,0.21518 0.06081,0.11226 0.06081,0.2526 0,0.12629 -0.070166,0.25259 -0.070166,0.12162 -0.1824309,0.22453 -0.1075875,0.0982 -0.2432412,0.1684 -0.1309761,0.0655 -0.2525967,0.0842 -0.1777532,0.0327 -0.3321178,0.0327 -0.1730755,0 -0.3274402,-0.0515 -0.1496869,-0.0468 -0.3134069,-0.1684 -0.1356538,-0.0982 -0.1683978,-0.22921 -0.032744,-0.13097 -0.056133,-0.2713 z m 0.4350276,-0.14033 q -0.00936,0.0374 -0.018711,0.0795 -0.00936,0.0374 -0.018711,0.0748 0.00936,0.0421 0.014033,0.0842 0.00468,0.0421 0.014033,0.0795 0.051455,0.0842 0.1122652,0.13565 0.06081,0.0468 0.1262983,0.0748 0.070166,0.0234 0.1356538,0.0281 0.065488,0.005 0.1216206,0.005 0.084199,0 0.182431,-0.0187 0.1029097,-0.0234 0.1917863,-0.0748 0.088877,-0.0514 0.1543646,-0.13565 0.070166,-0.0842 0.098232,-0.2105 -0.014033,-0.0889 -0.084199,-0.16839 -0.070166,-0.0795 -0.1637201,-0.14969 -0.088877,-0.0748 -0.1917863,-0.13565 -0.098232,-0.0655 -0.182431,-0.11695 -0.1730755,0.11227 -0.2853406,0.20582 -0.1122652,0.0889 -0.2058196,0.24324 z m 0.1075875,-1.31443 q 0.079521,0.13565 0.1824309,0.23856 0.1075875,0.10291 0.2385636,0.19646 0.1496869,-0.0889 0.2713075,-0.19178 0.1262983,-0.10291 0.2198527,-0.2526 0.00936,-0.0374 0.014033,-0.0748 0.00468,-0.0374 0.014033,-0.0702 -0.00936,-0.0234 -0.014033,-0.0468 0,-0.0281 -0.00936,-0.0514 -0.079521,-0.0936 -0.1824309,-0.12162 -0.098232,-0.0281 -0.215175,-0.0281 -0.070166,0 -0.1590423,0.014 -0.084199,0.014 -0.1637201,0.0468 -0.079521,0.0281 -0.1403315,0.0795 -0.06081,0.0515 -0.074843,0.1263 0.00468,0.0327 0.00936,0.0702 0.00468,0.0327 0.00936,0.0655 z"
         style="stroke-width:0.26458332"
         id="path5580" />
    </g>
  </g>
</svg>
