<?xml version="1.0" encoding="UTF-8" standalone="no"?>
<!-- Created with Inkscape (http://www.inkscape.org/) -->

<svg
   xmlns:dc="http://purl.org/dc/elements/1.1/"
   xmlns:cc="http://creativecommons.org/ns#"
   xmlns:rdf="http://www.w3.org/1999/02/22-rdf-syntax-ns#"
   xmlns:svg="http://www.w3.org/2000/svg"
   xmlns="http://www.w3.org/2000/svg"
   xmlns:sodipodi="http://sodipodi.sourceforge.net/DTD/sodipodi-0.dtd"
   xmlns:inkscape="http://www.inkscape.org/namespaces/inkscape"
   width="90"
   height="380"
   viewBox="0 0 23.812501 100.54167"
   version="1.1"
   id="svg8"
   inkscape:version="0.92.2 5c3e80d, 2017-08-06"
   sodipodi:docname="1x8CV.svg">
  <defs
     id="defs2" />
  <sodipodi:namedview
     id="base"
     pagecolor="#ffffff"
     bordercolor="#666666"
     borderopacity="1.0"
     inkscape:pageopacity="0.0"
     inkscape:pageshadow="2"
     inkscape:zoom="2.5567492"
     inkscape:cx="32.042162"
     inkscape:cy="117.64059"
     inkscape:document-units="mm"
     inkscape:current-layer="layer1"
     showgrid="true"
     units="px"
     inkscape:snap-bbox="true"
     inkscape:snap-page="true"
     inkscape:bbox-nodes="true"
     inkscape:snap-bbox-edge-midpoints="true"
     inkscape:window-width="738"
     inkscape:window-height="906"
     inkscape:window-x="788"
     inkscape:window-y="0"
     inkscape:window-maximized="0"
     showguides="true"
     gridtolerance="4"
     objecttolerance="4"
     guidetolerance="4"
     inkscape:snap-grids="true">
    <inkscape:grid
       type="xygrid"
       id="grid406"
       spacingx="0.052916669"
       spacingy="0.052916669"
       empspacing="3" />
  </sodipodi:namedview>
  <metadata
     id="metadata5">
    <rdf:RDF>
      <cc:Work
         rdf:about="">
        <dc:format>image/svg+xml</dc:format>
        <dc:type
           rdf:resource="http://purl.org/dc/dcmitype/StillImage" />
        <dc:title></dc:title>
      </cc:Work>
    </rdf:RDF>
  </metadata>
  <g
     inkscape:label="Layer 1"
     inkscape:groupmode="layer"
     id="layer1"
     transform="translate(0,-196.45832)">
    <path
       style="opacity:1;vector-effect:none;fill:#f0f0f0;fill-opacity:1;fill-rule:evenodd;stroke:none;stroke-width:0.48607069;stroke-linecap:butt;stroke-linejoin:round;stroke-miterlimit:4;stroke-dasharray:none;stroke-dashoffset:0;stroke-opacity:1;paint-order:normal"
       d="M -4.3000001e-7,196.45832 H 23.8125 V 297 H -4.3000001e-7 Z"
       id="rect817"
       inkscape:connector-curvature="0" />
    <g
       aria-label="SynthKit"
       transform="matrix(1.0800115,0,0,0.87871075,0.5563696,84.392939)"
       style="font-style:normal;font-variant:normal;font-weight:normal;font-stretch:normal;font-size:5.62060785px;line-height:1.25;font-family:Chalkboard;-inkscape-font-specification:Chalkboard;letter-spacing:0px;word-spacing:0px;fill:#000000;fill-opacity:1;stroke:none;stroke-width:0.30110401"
       id="text153">
      <path
         d="M 0.03726369,235.95931 Q 0,235.87236 0,235.79784 q 0,-0.10558 0.06210616,-0.16769 0.06831678,-0.0683 0.16768664,-0.0683 0.0993699,0 0.19252911,0.0683 0.10558048,0.12421 0.24221404,0.21116 0.14284418,0.0807 0.29810959,0.13042 0.16147606,0.0435 0.32295206,0.0621 0.1676866,0.0186 0.322952,0.0186 0.1055805,-0.0373 0.1428442,-0.0435 0.043474,-0.0124 0.068317,-0.0248 0.024842,-0.0124 0.055895,-0.0373 0.031053,-0.0248 0.1180018,-0.087 0.031053,-0.0435 0.055895,-0.0807 0.024843,-0.0373 0.055896,-0.0807 l 0.055896,-0.16769 q 0,-0.0435 0,-0.0807 0,-0.0435 -0.00621,-0.0932 -0.012421,-0.0435 -0.031053,-0.0807 -0.018632,-0.0435 -0.037264,-0.087 -0.037264,-0.0435 -0.074527,-0.0807 -0.031053,-0.0373 -0.068317,-0.0807 -0.055896,-0.031 -0.1117911,-0.0683 -0.055895,-0.0373 -0.1242123,-0.0559 -0.2546353,-0.087 -0.4720068,-0.118 -0.211161,-0.0373 -0.40369011,-0.087 -0.18631849,-0.0559 -0.35400513,-0.16769 -0.16768665,-0.11179 -0.32916267,-0.36021 -0.0310531,-0.0497 -0.0372637,-0.0745 -0.006211,-0.0248 -0.01242123,-0.087 -0.0062106,-0.0497 -0.01242124,-0.0932 0,-0.0497 0,-0.0932 0,-0.11179 0.01863185,-0.19874 0.0248425,-0.087 0.0683168,-0.16769 0.0434743,-0.0807 0.1117911,-0.16147 0.0683168,-0.087 0.16147603,-0.18632 0.10558047,-0.11179 0.24221404,-0.18011 0.13663356,-0.0745 0.28568835,-0.11179 0.14905481,-0.0435 0.30432021,-0.0559 0.161476,-0.0186 0.3105308,-0.0186 0.049685,0 0.086949,0 0.043474,0 0.086949,0.006 0.1428441,0.0124 0.2670565,0.0683 0.1304229,0.0559 0.2670565,0.0932 0.1428441,0.0994 0.1428441,0.24221 0,0.0932 -0.074527,0.16769 -0.068317,0.0683 -0.1987397,0.0683 -0.012421,0 -0.031053,0 -0.012421,-0.006 -0.024842,-0.006 -0.1987398,-0.0621 -0.3540052,-0.0932 -0.1490548,-0.0373 -0.2918989,-0.0373 -0.1490548,0 -0.3043202,0.0497 -0.1552654,0.0497 -0.36021577,0.16769 -0.0372637,0.0497 -0.0745274,0.0932 -0.0372637,0.0373 -0.0745274,0.0807 -0.0186319,0.0373 -0.0372637,0.0745 -0.0124212,0.0373 -0.0248425,0.0745 0,0.0373 0,0.0745 0.006211,0.0373 0.0124212,0.0683 0.0248425,0.0311 0.0434743,0.0621 0.0186319,0.031 0.0434743,0.0621 l 0.26084588,0.14906 q 0.18631849,0.0435 0.34779449,0.0745 0.1614761,0.031 0.3105308,0.0745 0.1490548,0.0373 0.291899,0.0932 0.1490548,0.0559 0.3167415,0.14906 0.086949,0.0497 0.1490547,0.13042 0.062106,0.0745 0.1180018,0.14285 0.09937,0.118 0.1428441,0.26705 0.049685,0.14906 0.049685,0.31053 0,0.22358 -0.086949,0.43475 -0.086949,0.21116 -0.2484246,0.34779 -0.055896,0.0497 -0.1180017,0.0932 -0.055896,0.0373 -0.1117911,0.0745 -0.130423,0.087 -0.291899,0.13042 -0.161476,0.0435 -0.3415839,0.0435 -0.2049503,0 -0.4161113,-0.0497 -0.20495033,-0.0435 -0.39747944,-0.12421 -0.19252911,-0.087 -0.35400514,-0.19874 Q 0.1490567,236.0895 0.0372656,235.95907 Z"
         style="stroke-width:0.30110401"
         id="path155"
         inkscape:connector-curvature="0" />
      <path
         d="m 5.2854893,233.77318 q 0.049685,-0.087 0.1117911,-0.12422 0.062106,-0.0373 0.130423,-0.0373 0.1055804,0 0.1738972,0.0807 0.068317,0.0807 0.068317,0.22358 -0.1304229,0.50306 -0.3291627,0.97507 -0.1987397,0.472 -0.4347431,0.92538 -0.2360034,0.45337 -0.4968493,0.89433 -0.2608459,0.44716 -0.5092706,0.90054 -0.049685,0.0683 -0.1117911,0.0932 -0.062106,0.031 -0.1180017,0.031 -0.093159,0 -0.161476,-0.0683 -0.068317,-0.0683 -0.068317,-0.19253 0,-0.0186 0,-0.0435 0,-0.0186 0.00621,-0.0435 0.2049504,-0.37885 0.4223219,-0.74528 0.2173716,-0.36643 0.422322,-0.73906 -0.2484247,-0.19874 -0.4471644,-0.40369 -0.1987397,-0.21116 -0.3602158,-0.44096 -0.1552654,-0.236 -0.2732671,-0.50306 -0.1180017,-0.27326 -0.2049503,-0.59 0,-0.16148 0.062106,-0.24222 0.068317,-0.087 0.1801079,-0.087 0.080738,0 0.1490548,0.0559 0.074527,0.0497 0.1055805,0.16768 0.068317,0.26085 0.161476,0.48443 0.09937,0.21737 0.2235822,0.4099 0.1304229,0.18632 0.2856883,0.36022 0.1614761,0.16769 0.3540052,0.32916 0.2049503,-0.40369 0.372637,-0.81359 0.1738972,-0.4099 0.2856883,-0.85706 z"
         style="stroke-width:0.30110401"
         id="path157"
         inkscape:connector-curvature="0" />
      <path
         d="m 8.4983432,236.245 q -0.00621,0.14285 -0.086949,0.21116 -0.074527,0.0745 -0.1676866,0.0745 -0.086949,0 -0.1614761,-0.0683 -0.074527,-0.0621 -0.093159,-0.19874 0,-0.28568 -0.00621,-0.56516 0,-0.28569 0,-0.57138 0,-0.20495 0,-0.4099 0.00621,-0.20495 -0.024843,-0.4099 -0.049685,-0.0932 -0.1117911,-0.11179 -0.055895,-0.0248 -0.1366335,-0.0248 -0.211161,0 -0.4161113,0.10558 -0.2049504,0.0994 -0.3229521,0.27947 -0.068317,0.10558 -0.1117911,0.18011 -0.037264,0.0683 -0.049685,0.20495 0,0.31674 0,0.63349 0,0.31674 0.00621,0.63348 -0.00621,0.14284 -0.086949,0.21737 -0.074527,0.0683 -0.1676867,0.0683 -0.086949,0 -0.161476,-0.0621 -0.074527,-0.0683 -0.093159,-0.20495 0,-0.29811 0,-0.57759 0,-0.27948 -0.00621,-0.55274 0,-0.27327 0,-0.55275 0,-0.28569 0,-0.5838 0.031053,-0.12421 0.09937,-0.18631 0.068317,-0.0621 0.1552654,-0.0621 0.080738,0 0.1490548,0.0559 0.074527,0.0559 0.1055805,0.17389 v 0.0497 q 0.1801079,-0.15527 0.40369,-0.24222 0.2297928,-0.0932 0.4595857,-0.0932 0.2297928,0 0.4285325,0.10559 0.2049503,0.10558 0.3291627,0.34158 0.043474,0.0807 0.055896,0.20495 0.018632,0.118 0.018632,0.25463 0.00621,0.13043 0,0.27327 -0.00621,0.13664 -0.00621,0.26085 v 0.73285 0.41611 z"
         style="stroke-width:0.30110401"
         id="path159"
         inkscape:connector-curvature="0" />
      <path
         d="m 9.3096832,234.24518 q -0.1366336,-0.0186 -0.2049503,-0.0932 -0.062106,-0.0745 -0.062106,-0.16147 0,-0.087 0.068317,-0.16769 0.074527,-0.087 0.2173716,-0.087 H 9.67611 v -0.98127 q 0.031053,-0.12422 0.09937,-0.18632 0.068317,-0.0621 0.1552654,-0.0621 0.080738,0 0.1490556,0.0559 0.07453,0.0559 0.10558,0.17389 v 0.99991 H 10.7816 q 0.118002,0.0311 0.173898,0.10558 0.0559,0.0683 0.0559,0.14906 0,0.0869 -0.06211,0.15526 -0.06211,0.0683 -0.186319,0.0994 H 10.18538 q -0.0062,0.47822 0,0.98749 0.0062,0.50306 0.0062,0.98128 0,0.14284 -0.08695,0.21737 -0.08074,0.0683 -0.1676865,0.0683 -0.086949,0 -0.1614761,-0.0683 -0.074527,-0.0621 -0.093159,-0.19874 0,-0.48443 -0.00621,-0.9937 0,-0.50927 0,-0.9937 H 9.3096832 Z"
         style="stroke-width:0.30110401"
         id="path161"
         inkscape:connector-curvature="0" />
      <path
         d="m 12.070284,236.23879 q -0.0062,0.13663 -0.08074,0.20495 -0.07453,0.0745 -0.167686,0.0745 -0.08695,0.006 -0.167687,-0.0621 -0.07453,-0.0621 -0.09316,-0.19874 v -3.4531 q 0.02484,-0.118 0.09316,-0.18011 0.07453,-0.0621 0.149055,-0.0621 0.08074,-0.006 0.155265,0.0497 0.07453,0.0559 0.111791,0.1739 v 1.45949 q 0.09316,-0.0932 0.173898,-0.14905 0.124212,-0.087 0.229792,-0.13664 0.111792,-0.0559 0.254636,-0.0869 0.111791,-0.0311 0.223582,-0.0124 0.118002,0.0186 0.229793,0.0497 0.186318,0.0559 0.316741,0.18011 0.136634,0.12421 0.223582,0.2919 0.09316,0.16147 0.136634,0.34779 0.04347,0.18632 0.04968,0.36022 0.0062,0.29811 0,0.59001 0,0.28568 0.0062,0.58379 -0.0062,0.13664 -0.08074,0.20495 -0.07453,0.0745 -0.167686,0.0745 -0.08695,0.006 -0.167687,-0.0621 -0.07453,-0.0621 -0.09316,-0.19874 0,-0.29811 0,-0.5838 0,-0.2919 -0.0062,-0.59001 -0.0062,-0.22358 -0.08695,-0.40369 -0.07453,-0.18011 -0.267057,-0.30432 -0.161476,-0.0435 -0.291899,0 -0.130423,0.0435 -0.242214,0.13663 -0.10558,0.087 -0.19874,0.20495 -0.09316,0.118 -0.180107,0.2298 -0.01242,0.0186 -0.03105,0.0373 -0.01863,0.0124 -0.03105,0.0248 v 1.20486 z"
         style="stroke-width:0.30110401"
         id="path163"
         inkscape:connector-curvature="0" />
      <path
         d="m 15.010307,236.1829 q -0.0062,0.14284 -0.08695,0.21737 -0.07453,0.0683 -0.167687,0.0683 -0.08695,0 -0.167687,-0.0683 -0.08074,-0.0683 -0.09937,-0.20495 0.0062,-0.80738 0.0062,-1.60234 0,-0.79496 -0.0062,-1.65824 0.03105,-0.12421 0.09937,-0.18632 0.06832,-0.0621 0.155266,-0.0621 0.08074,0 0.149055,0.0559 0.07453,0.0559 0.10558,0.1739 0,0.35401 -0.0062,0.67696 0,0.32295 0,0.68317 0.273268,-0.11801 0.465797,-0.26706 0.198739,-0.14906 0.366426,-0.32916 0.167687,-0.18632 0.335373,-0.40369 0.167687,-0.22359 0.385059,-0.47822 0.09937,-0.0807 0.20495,-0.0807 0.09937,0 0.167687,0.0683 0.06832,0.0683 0.06832,0.1739 0,0.0559 -0.03105,0.13663 -0.186318,0.21737 -0.335373,0.4099 -0.149055,0.18632 -0.291899,0.354 -0.142844,0.16769 -0.291899,0.31675 -0.142844,0.14284 -0.316741,0.26705 0.366426,0.39127 0.726642,0.77633 0.360215,0.37885 0.720431,0.77012 0.06832,0.0869 0.06832,0.19253 0,0.10558 -0.06832,0.17389 -0.06832,0.0621 -0.167686,0.0621 -0.04969,0 -0.111792,-0.0186 -0.05589,-0.0249 -0.10558,-0.0807 -0.04347,-0.0497 -0.161476,-0.1739 -0.118002,-0.12421 -0.273267,-0.28569 -0.149055,-0.16768 -0.322952,-0.34779 -0.167687,-0.18632 -0.322952,-0.3478 -0.149055,-0.16768 -0.267057,-0.29189 -0.118001,-0.12422 -0.161476,-0.1739 -0.118001,0.0559 -0.285688,0.118 0,0.36022 0.0062,0.68938 0.0062,0.32295 0.01863,0.67696 z"
         style="stroke-width:0.30110401"
         id="path165"
         inkscape:connector-curvature="0" />
      <path
         d="m 18.429288,236.23258 q -0.0062,0.14284 -0.08695,0.21116 -0.07453,0.0745 -0.167687,0.0745 -0.08695,0 -0.161476,-0.0683 -0.07453,-0.0621 -0.09316,-0.19874 -0.0062,-0.5838 -0.01242,-1.19244 0,-0.60864 -0.0062,-1.19243 0.03105,-0.12422 0.09937,-0.18632 0.06832,-0.0621 0.155265,-0.0621 0.08074,0 0.149055,0.0559 0.07453,0.0559 0.105581,0.17389 0.0062,0.5838 0.0062,1.19244 0.0062,0.60864 0.01242,1.19244 z m -0.571377,-3.37857 q 0,-0.13664 0.08695,-0.2298 0.08695,-0.0994 0.21116,-0.0994 0.124213,0 0.211161,0.0994 0.09316,0.0932 0.09316,0.2298 0,0.13042 -0.09316,0.22979 -0.08695,0.0932 -0.211161,0.0932 -0.124212,0 -0.21116,-0.0932 -0.08695,-0.0994 -0.08695,-0.22979 z"
         style="stroke-width:0.30110401"
         id="path167"
         inkscape:connector-curvature="0" />
      <path
         d="m 19.222592,234.24518 q -0.136634,-0.0186 -0.204951,-0.0932 -0.06211,-0.0745 -0.06211,-0.16147 0,-0.087 0.06832,-0.16769 0.07453,-0.087 0.217372,-0.087 h 0.347794 v -0.98127 q 0.03105,-0.12422 0.09937,-0.18632 0.06832,-0.0621 0.155265,-0.0621 0.08074,0 0.149055,0.0559 0.07453,0.0559 0.105581,0.17389 v 0.99991 h 0.596219 q 0.118002,0.0311 0.173897,0.10558 0.0559,0.0683 0.0559,0.14906 0,0.0869 -0.06211,0.15526 -0.06211,0.0683 -0.186318,0.0994 h -0.577587 q -0.0062,0.47822 0,0.98749 0.0062,0.50306 0.0062,0.98128 0,0.14284 -0.08695,0.21737 -0.08074,0.0683 -0.167687,0.0683 -0.08695,0 -0.161476,-0.0683 -0.07453,-0.0621 -0.09316,-0.19874 0,-0.48443 -0.0062,-0.9937 0,-0.50927 0,-0.9937 H 19.22259 Z"
         style="stroke-width:0.30110401"
         id="path169"
         inkscape:connector-curvature="0" />
    </g>
    <g
       transform="translate(6.7533246,0.86081247)"
       aria-label="1x8CV"
       style="font-style:normal;font-variant:normal;font-weight:normal;font-stretch:normal;font-size:4.23333359px;line-height:1.25;font-family:Chalkboard;-inkscape-font-specification:Chalkboard;letter-spacing:0px;word-spacing:0px;fill:#000000;fill-opacity:1;stroke:none;stroke-width:0.26458335"
       id="text5867">
      <path
         inkscape:connector-curvature="0"
         d="m 0.90484612,202.3205 q 0.0888766,0.0234 0.13097608,0.0795 0.042099,0.0515 0.042099,0.11227 0,0.0655 -0.046777,0.11694 -0.0467772,0.0515 -0.14033153,0.0748 H 0.1704446 q -0.10290977,-0.009 -0.15436465,-0.0655 -0.04677717,-0.0608 -0.04677717,-0.1263 0,-0.0655 0.05145489,-0.1263 0.0561326,-0.0655 0.16372008,-0.0655 h 0.13565378 v -1.93189 q -0.065488,0.0468 -0.1403315,0.0468 -0.0795212,0 -0.13097606,-0.0515 -0.04677717,-0.0561 -0.04677717,-0.1263 0,-0.0421 0.01871087,-0.0889 0.02338858,-0.0468 0.07016575,-0.0842 l 0.32276245,-0.2105 q 0.0608103,-0.0234 0.10290976,-0.0234 0.14500922,0 0.18710867,0.16372 v 2.30611 h 0.20114182 z"
         style="stroke-width:0.26458335"
         id="path5869" />
      <path
         inkscape:connector-curvature="0"
         d="m 3.1353678,200.61781 q 0.079521,-0.0655 0.1543646,-0.0608 0.079521,0.005 0.1262984,0.0515 0.046777,0.0468 0.051455,0.1263 0.00468,0.0748 -0.06081,0.15436 -0.1730756,0.1684 -0.3414734,0.34148 -0.16372,0.17307 -0.3227624,0.35082 0.1964641,0.22453 0.3695396,0.4631 0.1777532,0.23388 0.3321179,0.48648 0.028066,0.0889 0,0.15437 -0.023389,0.0655 -0.074844,0.0935 -0.051455,0.0327 -0.1216206,0.0234 -0.065488,-0.009 -0.1309761,-0.0748 -0.1356538,-0.22454 -0.2946961,-0.43503 -0.1590424,-0.21518 -0.3321179,-0.41632 -0.3087293,0.3789 -0.5893923,0.80925 -0.065488,0.0795 -0.1450092,0.0889 -0.074844,0.009 -0.1309761,-0.0327 -0.056133,-0.0374 -0.074844,-0.11227 -0.014033,-0.0795 0.042099,-0.16839 0.1450092,-0.22921 0.3040516,-0.44907 0.1637201,-0.21985 0.3367956,-0.43035 -0.149687,-0.16372 -0.3087293,-0.32276 -0.1543647,-0.16372 -0.313407,-0.32744 -0.074844,-0.0748 -0.079521,-0.14969 0,-0.0795 0.042099,-0.12629 0.046777,-0.0515 0.1216207,-0.0608 0.079521,-0.014 0.16372,0.0468 0.1590424,0.16372 0.3180848,0.32744 0.1590423,0.15905 0.3087293,0.32277 0.1543646,-0.17308 0.3180847,-0.34148 0.1637201,-0.1684 0.3321179,-0.33212 z"
         style="stroke-width:0.26458335"
         id="path5871" />
      <path
         inkscape:connector-curvature="0"
         d="m 3.9575223,202.00242 q 0.032744,-0.14033 0.065488,-0.26663 0.032744,-0.1263 0.1496869,-0.24324 0.079521,-0.0936 0.1777533,-0.15904 0.1029097,-0.0702 0.2104972,-0.13566 -0.1964641,-0.14501 -0.3321179,-0.33679 -0.130976,-0.19647 -0.130976,-0.44906 0,-0.17776 0.088877,-0.2947 0.088877,-0.12162 0.2292081,-0.19646 0.1403315,-0.0748 0.3087293,-0.10291 0.1683978,-0.0327 0.3274402,-0.0327 0.130976,0 0.2666298,0.0327 0.1403315,0.0281 0.2525967,0.0982 0.1169429,0.0655 0.1871087,0.17775 0.074844,0.11227 0.074844,0.27599 0,0.14968 -0.042099,0.26663 -0.037422,0.11694 -0.1122652,0.21517 -0.074844,0.0982 -0.1871087,0.18243 -0.1075874,0.0842 -0.2479189,0.1684 0.1216206,0.0748 0.2385635,0.16372 0.1216206,0.0842 0.215175,0.18711 0.098232,0.0982 0.1543646,0.21517 0.06081,0.11227 0.06081,0.2526 0,0.1263 -0.070166,0.2526 -0.070166,0.12162 -0.182431,0.22453 -0.1075874,0.0982 -0.2432412,0.16839 -0.1309761,0.0655 -0.2525967,0.0842 -0.1777533,0.0327 -0.3321179,0.0327 -0.1730755,0 -0.3274402,-0.0515 -0.1496869,-0.0468 -0.313407,-0.1684 -0.1356538,-0.0982 -0.1683978,-0.2292 -0.032744,-0.13098 -0.056133,-0.27131 z m 0.4350276,-0.14033 q -0.00936,0.0374 -0.018711,0.0795 -0.00936,0.0374 -0.018711,0.0748 0.00936,0.0421 0.014033,0.0842 0.00468,0.0421 0.014033,0.0795 0.051455,0.0842 0.1122652,0.13566 0.06081,0.0468 0.1262983,0.0748 0.070166,0.0234 0.1356538,0.0281 0.065488,0.005 0.1216207,0.005 0.084199,0 0.1824309,-0.0187 0.1029098,-0.0234 0.1917864,-0.0748 0.088877,-0.0515 0.1543646,-0.13565 0.070166,-0.0842 0.098232,-0.2105 -0.014033,-0.0889 -0.084199,-0.1684 -0.070166,-0.0795 -0.1637201,-0.14969 -0.088877,-0.0748 -0.1917864,-0.13565 -0.098232,-0.0655 -0.1824309,-0.11694 -0.1730755,0.11226 -0.2853407,0.20582 -0.1122652,0.0889 -0.2058196,0.24324 z m 0.1075875,-1.31444 q 0.079521,0.13565 0.182431,0.23856 0.1075874,0.10291 0.2385635,0.19647 0.1496869,-0.0889 0.2713076,-0.19179 0.1262983,-0.10291 0.2198527,-0.2526 0.00936,-0.0374 0.014033,-0.0748 0.00468,-0.0374 0.014033,-0.0702 -0.00936,-0.0234 -0.014033,-0.0468 0,-0.0281 -0.00936,-0.0515 -0.079521,-0.0935 -0.182431,-0.12162 -0.098232,-0.0281 -0.2151749,-0.0281 -0.070166,0 -0.1590424,0.014 -0.084199,0.014 -0.1637201,0.0468 -0.079521,0.0281 -0.1403315,0.0795 -0.06081,0.0515 -0.074843,0.1263 0.00468,0.0327 0.00936,0.0702 0.00468,0.0327 0.00936,0.0655 z"
         style="stroke-width:0.26458335"
         id="path5873" />
      <path
         inkscape:connector-curvature="0"
         d="m 8.0428771,201.91354 q 0.074843,-0.0608 0.1543646,-0.0608 0.074844,0 0.1262984,0.0515 0.051455,0.0514 0.051455,0.13097 0,0.0421 -0.023389,0.10291 -0.079521,0.12162 -0.1777533,0.23857 -0.093554,0.11226 -0.2104972,0.20114 -0.1169429,0.0842 -0.2572744,0.13565 -0.1356538,0.0561 -0.3040516,0.0561 -0.2525967,0 -0.463094,-0.10291 -0.2058195,-0.10291 -0.3601842,-0.28066 -0.1496869,-0.17775 -0.2338858,-0.41632 -0.079521,-0.24324 -0.079521,-0.51922 0,-0.19647 0.051455,-0.36486 0.070166,-0.22453 0.1637201,-0.39293 0.093554,-0.1684 0.2198527,-0.2947 0.130976,-0.13097 0.2946961,-0.22921 0.1683978,-0.10291 0.3835728,-0.19178 0.1403315,-0.0608 0.2572744,-0.0936 0.1216206,-0.0327 0.2292081,-0.0327 0.1637201,0 0.2946962,0.0935 0.130976,0.0936 0.247919,0.31809 0.014033,0.0421 0.014033,0.0842 0,0.0842 -0.051455,0.13565 -0.051455,0.0515 -0.1262983,0.0515 -0.088877,0 -0.1637201,-0.0749 -0.065488,-0.1263 -0.1169429,-0.17775 -0.051455,-0.0515 -0.1169429,-0.0515 -0.051455,0 -0.1216207,0.0281 -0.070166,0.0234 -0.1777532,0.0608 -0.1777532,0.0702 -0.3414733,0.17308 -0.1637201,0.0982 -0.2900185,0.24324 -0.1216206,0.14033 -0.1964641,0.32744 -0.070166,0.18711 -0.070166,0.42567 0,0.1684 0.051455,0.33212 0.051455,0.15904 0.1450092,0.29002 0.098232,0.12629 0.2385635,0.20582 0.1403315,0.0748 0.3227625,0.0748 0.1075875,0 0.2011418,-0.0421 0.093554,-0.0421 0.1730755,-0.11227 0.079521,-0.0702 0.1450092,-0.15436 0.065488,-0.0842 0.116943,-0.1684 z"
         style="stroke-width:0.26458335"
         id="path5875" />
      <path
         inkscape:connector-curvature="0"
         d="m 10.766587,199.94422 q 0.07484,-0.12162 0.182431,-0.12162 0.07017,0 0.126298,0.0515 0.05613,0.0515 0.05613,0.13565 0,0.0421 -0.02339,0.10291 -0.332117,0.58472 -0.59407,1.22556 -0.257274,0.64085 -0.495838,1.26766 -0.028066,0.0748 -0.079521,0.11227 -0.051455,0.0374 -0.1075875,0.0374 -0.051455,0 -0.1029097,-0.0327 -0.046777,-0.0327 -0.079521,-0.0982 -0.247919,-0.64085 -0.4911603,-1.27702 -0.2385635,-0.63617 -0.4818048,-1.27702 0,-0.009 -0.00468,-0.0187 0,-0.014 0,-0.0234 0,-0.0982 0.051455,-0.14968 0.056133,-0.0561 0.1262983,-0.0561 0.1075875,0 0.182431,0.10759 0.1216206,0.31341 0.2198527,0.58004 0.098232,0.26663 0.1917864,0.51922 0.093554,0.24792 0.1871086,0.49584 0.093554,0.24324 0.1964641,0.52391 0.051455,-0.13566 0.1075875,-0.27131 0.06081,-0.14033 0.1169427,-0.27599 0.163721,-0.3976 0.332118,-0.79053 0.168398,-0.39293 0.383573,-0.76715 z"
         style="stroke-width:0.26458335"
         id="path5877" />
    </g>
    <rect
       style="fill:#916f6f;stroke-width:0.26458332"
       id="rect5563"
       width="8.4666662"
       height="73.660004"
       x="13.123334"
       y="214.02666" />
    <rect
       style="fill:#91b06f;fill-opacity:1;stroke-width:0.26458332"
       id="rect5565"
       width="8.4666662"
       height="6.7733335"
       x="8.043334"
       y="205.13666" />
    <rect
       style="fill:#bd7370;fill-opacity:1;stroke-width:0.26458332"
       id="rect5563-1"
       width="8.4666662"
       height="73.660004"
       x="2.539999"
       y="214.02666" />
    <g
       aria-label="CV In"
       style="font-style:normal;font-variant:normal;font-weight:normal;font-stretch:normal;font-size:2.82222223px;line-height:1.25;font-family:'Source Code Pro';-inkscape-font-specification:'Source Code Pro';letter-spacing:0px;word-spacing:0px;fill:#000000;fill-opacity:1;stroke:none;stroke-width:0.26458332"
       id="text6488"
       transform="translate(-0.16196901,0.86922611)">
      <path
         d="m 3.5406546,283.665 q -0.1721556,0 -0.3189112,-0.0649 -0.1467555,-0.0649 -0.2568222,-0.18627 -0.1072444,-0.12417 -0.1693333,-0.30197 -0.062089,-0.18063 -0.062089,-0.4064 0,-0.22296 0.062089,-0.40076 0.062089,-0.1778 0.1721555,-0.30198 0.1100667,-0.12418 0.2624667,-0.18909 0.1524,-0.0677 0.3330222,-0.0677 0.1665111,0 0.2935111,0.0677 0.1298223,0.0677 0.2116667,0.15805 l -0.1326444,0.14958 q -0.073378,-0.0762 -0.1636889,-0.12136 -0.090311,-0.048 -0.2088445,-0.048 -0.1326444,0 -0.2427111,0.0536 -0.1072444,0.0508 -0.1834444,0.14958 -0.0762,0.096 -0.1185334,0.23425 -0.042333,0.13829 -0.042333,0.31044 0,0.17498 0.042333,0.31609 0.042333,0.13829 0.1185334,0.23707 0.0762,0.0988 0.1834444,0.1524 0.1100667,0.0536 0.2427111,0.0536 0.127,0 0.2257778,-0.0536 0.1016,-0.0536 0.1919111,-0.1524 l 0.1326445,0.14393 q -0.1100667,0.127 -0.2483556,0.19756 -0.1382889,0.0706 -0.3245555,0.0706 z"
         style="font-style:normal;font-variant:normal;font-weight:normal;font-stretch:normal;font-size:2.82222223px;font-family:'Source Code Pro';-inkscape-font-specification:'Source Code Pro';stroke-width:0.26458332"
         id="path6498"
         inkscape:connector-curvature="0" />
      <path
         d="M 4.9534855,283.63113 4.363641,281.77976 h 0.2483556 l 0.2991556,0.99906 q 0.047978,0.16651 0.087489,0.30763 0.039511,0.14111 0.090311,0.3048 h 0.011289 q 0.0254,-0.0819 0.047978,-0.15523 0.022578,-0.0762 0.042333,-0.14957 0.022578,-0.0734 0.042333,-0.14958 0.022578,-0.0762 0.045155,-0.15805 l 0.2963334,-0.99906 h 0.2398889 l -0.5870223,1.85137 z"
         style="font-style:normal;font-variant:normal;font-weight:normal;font-stretch:normal;font-size:2.82222223px;font-family:'Source Code Pro';-inkscape-font-specification:'Source Code Pro';stroke-width:0.26458332"
         id="path6500"
         inkscape:connector-curvature="0" />
      <path
         d="m 7.8948582,283.63113 v -0.20037 h 0.4600223 v -1.45345 H 7.8948582 v -0.19755 h 1.1571112 v 0.19755 H 8.5919471 v 1.45345 h 0.4600223 v 0.20037 z"
         style="font-style:normal;font-variant:normal;font-weight:normal;font-stretch:normal;font-size:2.82222223px;font-family:'Source Code Pro';-inkscape-font-specification:'Source Code Pro';stroke-width:0.26458332"
         id="path6502"
         inkscape:connector-curvature="0" />
      <path
         d="m 9.581445,283.63113 v -1.3716 h 0.1919111 l 0.019755,0.23425 h 0.011289 q 0.1072445,-0.11571 0.2314229,-0.19191 0.124178,-0.0762 0.285044,-0.0762 0.245534,0 0.358422,0.14111 0.115712,0.13829 0.115712,0.41204 v 0.85231 h -0.231423 v -0.82126 q 0,-0.19474 -0.07338,-0.28787 -0.07338,-0.096 -0.242712,-0.096 -0.06209,0 -0.115711,0.0169 -0.0508,0.0141 -0.1016,0.0452 -0.0508,0.031 -0.1044223,0.079 -0.053622,0.0451 -0.1128889,0.10724 v 0.95673 z"
         style="font-style:normal;font-variant:normal;font-weight:normal;font-stretch:normal;font-size:2.82222223px;font-family:'Source Code Pro';-inkscape-font-specification:'Source Code Pro';stroke-width:0.26458332"
         id="path6504"
         inkscape:connector-curvature="0" />
    </g>
    <g
       aria-label="Out"
       style="font-style:normal;font-variant:normal;font-weight:normal;font-stretch:normal;font-size:2.82222223px;line-height:1.25;font-family:'Source Code Pro';-inkscape-font-specification:'Source Code Pro';letter-spacing:0px;word-spacing:0px;fill:#000000;fill-opacity:1;stroke:none;stroke-width:0.26458332"
       id="text6496"
       transform="translate(-0.39793722,0.65482611)">
      <path
         d="m 16.096237,283.6791 q -0.158045,0 -0.287867,-0.0649 -0.129822,-0.0677 -0.225778,-0.19191 -0.09313,-0.12418 -0.146755,-0.30198 -0.0508,-0.18062 -0.0508,-0.40922 0,-0.22296 0.0508,-0.40076 0.05362,-0.1778 0.146755,-0.29915 0.09596,-0.12136 0.225778,-0.18627 0.129822,-0.0649 0.287867,-0.0649 0.155222,0 0.285044,0.0649 0.132644,0.0649 0.225778,0.18627 0.09596,0.12135 0.146755,0.29915 0.05362,0.1778 0.05362,0.40076 0,0.2286 -0.05362,0.40922 -0.0508,0.1778 -0.146755,0.30198 -0.09313,0.12418 -0.225778,0.19191 -0.129822,0.0649 -0.285044,0.0649 z m 0,-0.20602 q 0.104422,0 0.191911,-0.0508 0.08749,-0.0536 0.146755,-0.1524 0.06209,-0.0988 0.09596,-0.23989 0.03387,-0.14111 0.03387,-0.31891 0,-0.17498 -0.03387,-0.31327 -0.03387,-0.13829 -0.09596,-0.23424 -0.05927,-0.096 -0.146755,-0.14676 -0.08749,-0.0508 -0.191911,-0.0508 -0.107245,0 -0.194734,0.0508 -0.08467,0.0508 -0.146755,0.14676 -0.05927,0.096 -0.09313,0.23424 -0.03387,0.13829 -0.03387,0.31327 0,0.1778 0.03387,0.31891 0.03387,0.14111 0.09313,0.23989 0.06209,0.0988 0.146755,0.1524 0.08749,0.0508 0.194734,0.0508 z"
         style="font-style:normal;font-variant:normal;font-weight:normal;font-stretch:normal;font-size:2.82222223px;font-family:'Source Code Pro';-inkscape-font-specification:'Source Code Pro';stroke-width:0.26458332"
         id="path6507"
         inkscape:connector-curvature="0" />
      <path
         d="m 17.636068,283.6791 q -0.248356,0 -0.364067,-0.13829 -0.112889,-0.14111 -0.112889,-0.41487 v -0.85231 h 0.234244 v 0.82127 q 0,0.19473 0.07056,0.29069 0.07338,0.0931 0.245533,0.0931 0.118534,0 0.214489,-0.0593 0.09596,-0.0621 0.211667,-0.19474 v -0.95109 h 0.231422 v 1.3716 h -0.189089 l -0.01975,-0.23989 h -0.01129 q -0.104422,0.12136 -0.2286,0.19756 -0.121356,0.0762 -0.282222,0.0762 z"
         style="font-style:normal;font-variant:normal;font-weight:normal;font-stretch:normal;font-size:2.82222223px;font-family:'Source Code Pro';-inkscape-font-specification:'Source Code Pro';stroke-width:0.26458332"
         id="path6509"
         inkscape:connector-curvature="0" />
      <path
         d="m 19.745987,283.6791 q -0.149577,0 -0.251177,-0.0395 -0.1016,-0.0423 -0.163689,-0.11571 -0.06209,-0.0762 -0.09031,-0.18062 -0.0254,-0.10443 -0.0254,-0.23143 v -0.64911 h -0.386645 v -0.17498 l 0.395111,-0.0141 0.03104,-0.44026 h 0.191911 v 0.44026 h 0.674511 v 0.18909 h -0.674511 v 0.65194 q 0,0.0931 0.01693,0.16368 0.01693,0.0677 0.05645,0.11572 0.03951,0.048 0.107244,0.0734 0.06773,0.0226 0.166511,0.0226 0.09878,0 0.1778,-0.0169 0.07902,-0.0169 0.1524,-0.0452 l 0.0508,0.16934 q -0.09313,0.0339 -0.197555,0.0564 -0.1016,0.0254 -0.231423,0.0254 z"
         style="font-style:normal;font-variant:normal;font-weight:normal;font-stretch:normal;font-size:2.82222223px;font-family:'Source Code Pro';-inkscape-font-specification:'Source Code Pro';stroke-width:0.26458332"
         id="path6511"
         inkscape:connector-curvature="0" />
    </g>
  </g>
</svg>
