<?xml version="1.0" encoding="UTF-8" standalone="no"?>
<!-- Created with Inkscape (http://www.inkscape.org/) -->

<svg
   xmlns:dc="http://purl.org/dc/elements/1.1/"
   xmlns:cc="http://creativecommons.org/ns#"
   xmlns:rdf="http://www.w3.org/1999/02/22-rdf-syntax-ns#"
   xmlns:svg="http://www.w3.org/2000/svg"
   xmlns="http://www.w3.org/2000/svg"
   xmlns:sodipodi="http://sodipodi.sourceforge.net/DTD/sodipodi-0.dtd"
   xmlns:inkscape="http://www.inkscape.org/namespaces/inkscape"
   width="90"
   height="380"
   viewBox="0 0 23.812501 100.54167"
   version="1.1"
   id="svg8"
   inkscape:version="0.92.2 5c3e80d, 2017-08-06"
   sodipodi:docname="Addition.svg">
  <defs
     id="defs2" />
  <sodipodi:namedview
     id="base"
     pagecolor="#ffffff"
     bordercolor="#666666"
     borderopacity="1.0"
     inkscape:pageopacity="0.0"
     inkscape:pageshadow="2"
     inkscape:zoom="5.1134984"
     inkscape:cx="29.355133"
     inkscape:cy="322.98137"
     inkscape:document-units="mm"
     inkscape:current-layer="layer1"
     showgrid="true"
     units="px"
     inkscape:snap-bbox="true"
     inkscape:snap-page="true"
     inkscape:bbox-nodes="true"
     inkscape:snap-bbox-edge-midpoints="true"
     inkscape:window-width="1600"
     inkscape:window-height="900"
     inkscape:window-x="0"
     inkscape:window-y="0"
     inkscape:window-maximized="0"
     showguides="true"
     gridtolerance="5"
     objecttolerance="5"
     guidetolerance="5"
     inkscape:snap-grids="true">
    <inkscape:grid
       type="xygrid"
       id="grid406"
       spacingx="0.052916669"
       spacingy="0.052916669"
       empspacing="2" />
  </sodipodi:namedview>
  <metadata
     id="metadata5">
    <rdf:RDF>
      <cc:Work
         rdf:about="">
        <dc:format>image/svg+xml</dc:format>
        <dc:type
           rdf:resource="http://purl.org/dc/dcmitype/StillImage" />
        <dc:title />
      </cc:Work>
    </rdf:RDF>
  </metadata>
  <g
     inkscape:label="Layer 1"
     inkscape:groupmode="layer"
     id="layer1"
     transform="translate(0,-196.45832)">
    <path
       style="opacity:1;vector-effect:none;fill:#f0f0f0;fill-opacity:1;fill-rule:evenodd;stroke:none;stroke-width:0.48607069;stroke-linecap:butt;stroke-linejoin:round;stroke-miterlimit:4;stroke-dasharray:none;stroke-dashoffset:0;stroke-opacity:1;paint-order:normal"
       d="M -0.05291614,196.66998 H 23.759584 V 297.21166 H -0.05291614 Z"
       id="rect817"
       inkscape:connector-curvature="0" />
    <g
       aria-label="SynthKit"
       transform="matrix(1.0800115,0,0,0.87871075,0.5563696,84.392939)"
       style="font-style:normal;font-variant:normal;font-weight:normal;font-stretch:normal;font-size:5.62060785px;line-height:1.25;font-family:Chalkboard;-inkscape-font-specification:Chalkboard;letter-spacing:0px;word-spacing:0px;fill:#000000;fill-opacity:1;stroke:none;stroke-width:0.30110401"
       id="text153">
      <path
         d="M 0.03726369,235.95931 Q 0,235.87236 0,235.79784 q 0,-0.10558 0.06210616,-0.16769 0.06831678,-0.0683 0.16768664,-0.0683 0.0993699,0 0.19252911,0.0683 0.10558048,0.12421 0.24221404,0.21116 0.14284418,0.0807 0.29810959,0.13042 0.16147606,0.0435 0.32295206,0.0621 0.1676866,0.0186 0.322952,0.0186 0.1055805,-0.0373 0.1428442,-0.0435 0.043474,-0.0124 0.068317,-0.0248 0.024842,-0.0124 0.055895,-0.0373 0.031053,-0.0248 0.1180018,-0.087 0.031053,-0.0435 0.055895,-0.0807 0.024843,-0.0373 0.055896,-0.0807 l 0.055896,-0.16769 q 0,-0.0435 0,-0.0807 0,-0.0435 -0.00621,-0.0932 -0.012421,-0.0435 -0.031053,-0.0807 -0.018632,-0.0435 -0.037264,-0.087 -0.037264,-0.0435 -0.074527,-0.0807 -0.031053,-0.0373 -0.068317,-0.0807 -0.055896,-0.031 -0.1117911,-0.0683 -0.055895,-0.0373 -0.1242123,-0.0559 -0.2546353,-0.087 -0.4720068,-0.118 -0.211161,-0.0373 -0.40369011,-0.087 -0.18631849,-0.0559 -0.35400513,-0.16769 -0.16768665,-0.11179 -0.32916267,-0.36021 -0.0310531,-0.0497 -0.0372637,-0.0745 -0.006211,-0.0248 -0.01242123,-0.087 -0.0062106,-0.0497 -0.01242124,-0.0932 0,-0.0497 0,-0.0932 0,-0.11179 0.01863185,-0.19874 0.0248425,-0.087 0.0683168,-0.16769 0.0434743,-0.0807 0.1117911,-0.16147 0.0683168,-0.087 0.16147603,-0.18632 0.10558047,-0.11179 0.24221404,-0.18011 0.13663356,-0.0745 0.28568835,-0.11179 0.14905481,-0.0435 0.30432021,-0.0559 0.161476,-0.0186 0.3105308,-0.0186 0.049685,0 0.086949,0 0.043474,0 0.086949,0.006 0.1428441,0.0124 0.2670565,0.0683 0.1304229,0.0559 0.2670565,0.0932 0.1428441,0.0994 0.1428441,0.24221 0,0.0932 -0.074527,0.16769 -0.068317,0.0683 -0.1987397,0.0683 -0.012421,0 -0.031053,0 -0.012421,-0.006 -0.024842,-0.006 -0.1987398,-0.0621 -0.3540052,-0.0932 -0.1490548,-0.0373 -0.2918989,-0.0373 -0.1490548,0 -0.3043202,0.0497 -0.1552654,0.0497 -0.36021577,0.16769 -0.0372637,0.0497 -0.0745274,0.0932 -0.0372637,0.0373 -0.0745274,0.0807 -0.0186319,0.0373 -0.0372637,0.0745 -0.0124212,0.0373 -0.0248425,0.0745 0,0.0373 0,0.0745 0.006211,0.0373 0.0124212,0.0683 0.0248425,0.0311 0.0434743,0.0621 0.0186319,0.031 0.0434743,0.0621 l 0.26084588,0.14906 q 0.18631849,0.0435 0.34779449,0.0745 0.1614761,0.031 0.3105308,0.0745 0.1490548,0.0373 0.291899,0.0932 0.1490548,0.0559 0.3167415,0.14906 0.086949,0.0497 0.1490547,0.13042 0.062106,0.0745 0.1180018,0.14285 0.09937,0.118 0.1428441,0.26705 0.049685,0.14906 0.049685,0.31053 0,0.22358 -0.086949,0.43475 -0.086949,0.21116 -0.2484246,0.34779 -0.055896,0.0497 -0.1180017,0.0932 -0.055896,0.0373 -0.1117911,0.0745 -0.130423,0.087 -0.291899,0.13042 -0.161476,0.0435 -0.3415839,0.0435 -0.2049503,0 -0.4161113,-0.0497 -0.20495033,-0.0435 -0.39747944,-0.12421 -0.19252911,-0.087 -0.35400514,-0.19874 Q 0.1490567,236.0895 0.0372656,235.95907 Z"
         style="stroke-width:0.30110401"
         id="path155"
         inkscape:connector-curvature="0" />
      <path
         d="m 5.2854893,233.77318 q 0.049685,-0.087 0.1117911,-0.12422 0.062106,-0.0373 0.130423,-0.0373 0.1055804,0 0.1738972,0.0807 0.068317,0.0807 0.068317,0.22358 -0.1304229,0.50306 -0.3291627,0.97507 -0.1987397,0.472 -0.4347431,0.92538 -0.2360034,0.45337 -0.4968493,0.89433 -0.2608459,0.44716 -0.5092706,0.90054 -0.049685,0.0683 -0.1117911,0.0932 -0.062106,0.031 -0.1180017,0.031 -0.093159,0 -0.161476,-0.0683 -0.068317,-0.0683 -0.068317,-0.19253 0,-0.0186 0,-0.0435 0,-0.0186 0.00621,-0.0435 0.2049504,-0.37885 0.4223219,-0.74528 0.2173716,-0.36643 0.422322,-0.73906 -0.2484247,-0.19874 -0.4471644,-0.40369 -0.1987397,-0.21116 -0.3602158,-0.44096 -0.1552654,-0.236 -0.2732671,-0.50306 -0.1180017,-0.27326 -0.2049503,-0.59 0,-0.16148 0.062106,-0.24222 0.068317,-0.087 0.1801079,-0.087 0.080738,0 0.1490548,0.0559 0.074527,0.0497 0.1055805,0.16768 0.068317,0.26085 0.161476,0.48443 0.09937,0.21737 0.2235822,0.4099 0.1304229,0.18632 0.2856883,0.36022 0.1614761,0.16769 0.3540052,0.32916 0.2049503,-0.40369 0.372637,-0.81359 0.1738972,-0.4099 0.2856883,-0.85706 z"
         style="stroke-width:0.30110401"
         id="path157"
         inkscape:connector-curvature="0" />
      <path
         d="m 8.4983432,236.245 q -0.00621,0.14285 -0.086949,0.21116 -0.074527,0.0745 -0.1676866,0.0745 -0.086949,0 -0.1614761,-0.0683 -0.074527,-0.0621 -0.093159,-0.19874 0,-0.28568 -0.00621,-0.56516 0,-0.28569 0,-0.57138 0,-0.20495 0,-0.4099 0.00621,-0.20495 -0.024843,-0.4099 -0.049685,-0.0932 -0.1117911,-0.11179 -0.055895,-0.0248 -0.1366335,-0.0248 -0.211161,0 -0.4161113,0.10558 -0.2049504,0.0994 -0.3229521,0.27947 -0.068317,0.10558 -0.1117911,0.18011 -0.037264,0.0683 -0.049685,0.20495 0,0.31674 0,0.63349 0,0.31674 0.00621,0.63348 -0.00621,0.14284 -0.086949,0.21737 -0.074527,0.0683 -0.1676867,0.0683 -0.086949,0 -0.161476,-0.0621 -0.074527,-0.0683 -0.093159,-0.20495 0,-0.29811 0,-0.57759 0,-0.27948 -0.00621,-0.55274 0,-0.27327 0,-0.55275 0,-0.28569 0,-0.5838 0.031053,-0.12421 0.09937,-0.18631 0.068317,-0.0621 0.1552654,-0.0621 0.080738,0 0.1490548,0.0559 0.074527,0.0559 0.1055805,0.17389 v 0.0497 q 0.1801079,-0.15527 0.40369,-0.24222 0.2297928,-0.0932 0.4595857,-0.0932 0.2297928,0 0.4285325,0.10559 0.2049503,0.10558 0.3291627,0.34158 0.043474,0.0807 0.055896,0.20495 0.018632,0.118 0.018632,0.25463 0.00621,0.13043 0,0.27327 -0.00621,0.13664 -0.00621,0.26085 v 0.73285 0.41611 z"
         style="stroke-width:0.30110401"
         id="path159"
         inkscape:connector-curvature="0" />
      <path
         d="m 9.3096832,234.24518 q -0.1366336,-0.0186 -0.2049503,-0.0932 -0.062106,-0.0745 -0.062106,-0.16147 0,-0.087 0.068317,-0.16769 0.074527,-0.087 0.2173716,-0.087 H 9.67611 v -0.98127 q 0.031053,-0.12422 0.09937,-0.18632 0.068317,-0.0621 0.1552654,-0.0621 0.080738,0 0.1490556,0.0559 0.07453,0.0559 0.10558,0.17389 v 0.99991 H 10.7816 q 0.118002,0.0311 0.173898,0.10558 0.0559,0.0683 0.0559,0.14906 0,0.0869 -0.06211,0.15526 -0.06211,0.0683 -0.186319,0.0994 H 10.18538 q -0.0062,0.47822 0,0.98749 0.0062,0.50306 0.0062,0.98128 0,0.14284 -0.08695,0.21737 -0.08074,0.0683 -0.1676865,0.0683 -0.086949,0 -0.1614761,-0.0683 -0.074527,-0.0621 -0.093159,-0.19874 0,-0.48443 -0.00621,-0.9937 0,-0.50927 0,-0.9937 H 9.3096832 Z"
         style="stroke-width:0.30110401"
         id="path161"
         inkscape:connector-curvature="0" />
      <path
         d="m 12.070284,236.23879 q -0.0062,0.13663 -0.08074,0.20495 -0.07453,0.0745 -0.167686,0.0745 -0.08695,0.006 -0.167687,-0.0621 -0.07453,-0.0621 -0.09316,-0.19874 v -3.4531 q 0.02484,-0.118 0.09316,-0.18011 0.07453,-0.0621 0.149055,-0.0621 0.08074,-0.006 0.155265,0.0497 0.07453,0.0559 0.111791,0.1739 v 1.45949 q 0.09316,-0.0932 0.173898,-0.14905 0.124212,-0.087 0.229792,-0.13664 0.111792,-0.0559 0.254636,-0.0869 0.111791,-0.0311 0.223582,-0.0124 0.118002,0.0186 0.229793,0.0497 0.186318,0.0559 0.316741,0.18011 0.136634,0.12421 0.223582,0.2919 0.09316,0.16147 0.136634,0.34779 0.04347,0.18632 0.04968,0.36022 0.0062,0.29811 0,0.59001 0,0.28568 0.0062,0.58379 -0.0062,0.13664 -0.08074,0.20495 -0.07453,0.0745 -0.167686,0.0745 -0.08695,0.006 -0.167687,-0.0621 -0.07453,-0.0621 -0.09316,-0.19874 0,-0.29811 0,-0.5838 0,-0.2919 -0.0062,-0.59001 -0.0062,-0.22358 -0.08695,-0.40369 -0.07453,-0.18011 -0.267057,-0.30432 -0.161476,-0.0435 -0.291899,0 -0.130423,0.0435 -0.242214,0.13663 -0.10558,0.087 -0.19874,0.20495 -0.09316,0.118 -0.180107,0.2298 -0.01242,0.0186 -0.03105,0.0373 -0.01863,0.0124 -0.03105,0.0248 v 1.20486 z"
         style="stroke-width:0.30110401"
         id="path163"
         inkscape:connector-curvature="0" />
      <path
         d="m 15.010307,236.1829 q -0.0062,0.14284 -0.08695,0.21737 -0.07453,0.0683 -0.167687,0.0683 -0.08695,0 -0.167687,-0.0683 -0.08074,-0.0683 -0.09937,-0.20495 0.0062,-0.80738 0.0062,-1.60234 0,-0.79496 -0.0062,-1.65824 0.03105,-0.12421 0.09937,-0.18632 0.06832,-0.0621 0.155266,-0.0621 0.08074,0 0.149055,0.0559 0.07453,0.0559 0.10558,0.1739 0,0.35401 -0.0062,0.67696 0,0.32295 0,0.68317 0.273268,-0.11801 0.465797,-0.26706 0.198739,-0.14906 0.366426,-0.32916 0.167687,-0.18632 0.335373,-0.40369 0.167687,-0.22359 0.385059,-0.47822 0.09937,-0.0807 0.20495,-0.0807 0.09937,0 0.167687,0.0683 0.06832,0.0683 0.06832,0.1739 0,0.0559 -0.03105,0.13663 -0.186318,0.21737 -0.335373,0.4099 -0.149055,0.18632 -0.291899,0.354 -0.142844,0.16769 -0.291899,0.31675 -0.142844,0.14284 -0.316741,0.26705 0.366426,0.39127 0.726642,0.77633 0.360215,0.37885 0.720431,0.77012 0.06832,0.0869 0.06832,0.19253 0,0.10558 -0.06832,0.17389 -0.06832,0.0621 -0.167686,0.0621 -0.04969,0 -0.111792,-0.0186 -0.05589,-0.0249 -0.10558,-0.0807 -0.04347,-0.0497 -0.161476,-0.1739 -0.118002,-0.12421 -0.273267,-0.28569 -0.149055,-0.16768 -0.322952,-0.34779 -0.167687,-0.18632 -0.322952,-0.3478 -0.149055,-0.16768 -0.267057,-0.29189 -0.118001,-0.12422 -0.161476,-0.1739 -0.118001,0.0559 -0.285688,0.118 0,0.36022 0.0062,0.68938 0.0062,0.32295 0.01863,0.67696 z"
         style="stroke-width:0.30110401"
         id="path165"
         inkscape:connector-curvature="0" />
      <path
         d="m 18.429288,236.23258 q -0.0062,0.14284 -0.08695,0.21116 -0.07453,0.0745 -0.167687,0.0745 -0.08695,0 -0.161476,-0.0683 -0.07453,-0.0621 -0.09316,-0.19874 -0.0062,-0.5838 -0.01242,-1.19244 0,-0.60864 -0.0062,-1.19243 0.03105,-0.12422 0.09937,-0.18632 0.06832,-0.0621 0.155265,-0.0621 0.08074,0 0.149055,0.0559 0.07453,0.0559 0.105581,0.17389 0.0062,0.5838 0.0062,1.19244 0.0062,0.60864 0.01242,1.19244 z m -0.571377,-3.37857 q 0,-0.13664 0.08695,-0.2298 0.08695,-0.0994 0.21116,-0.0994 0.124213,0 0.211161,0.0994 0.09316,0.0932 0.09316,0.2298 0,0.13042 -0.09316,0.22979 -0.08695,0.0932 -0.211161,0.0932 -0.124212,0 -0.21116,-0.0932 -0.08695,-0.0994 -0.08695,-0.22979 z"
         style="stroke-width:0.30110401"
         id="path167"
         inkscape:connector-curvature="0" />
      <path
         d="m 19.222592,234.24518 q -0.136634,-0.0186 -0.204951,-0.0932 -0.06211,-0.0745 -0.06211,-0.16147 0,-0.087 0.06832,-0.16769 0.07453,-0.087 0.217372,-0.087 h 0.347794 v -0.98127 q 0.03105,-0.12422 0.09937,-0.18632 0.06832,-0.0621 0.155265,-0.0621 0.08074,0 0.149055,0.0559 0.07453,0.0559 0.105581,0.17389 v 0.99991 h 0.596219 q 0.118002,0.0311 0.173897,0.10558 0.0559,0.0683 0.0559,0.14906 0,0.0869 -0.06211,0.15526 -0.06211,0.0683 -0.186318,0.0994 h -0.577587 q -0.0062,0.47822 0,0.98749 0.0062,0.50306 0.0062,0.98128 0,0.14284 -0.08695,0.21737 -0.08074,0.0683 -0.167687,0.0683 -0.08695,0 -0.161476,-0.0683 -0.07453,-0.0621 -0.09316,-0.19874 0,-0.48443 -0.0062,-0.9937 0,-0.50927 0,-0.9937 H 19.22259 Z"
         style="stroke-width:0.30110401"
         id="path169"
         inkscape:connector-curvature="0" />
    </g>
    <g
       aria-label="Addition"
       style="font-style:normal;font-variant:normal;font-weight:normal;font-stretch:normal;font-size:4.23333311px;line-height:1.25;font-family:Chalkboard;-inkscape-font-specification:Chalkboard;letter-spacing:0px;word-spacing:0px;fill:#000000;fill-opacity:1;stroke:none;stroke-width:0.26458332"
       id="text266"
       transform="translate(-0.2101655,2.0707892)">
      <path
         d="m 7.2834126,201.97361 q -0.00468,0.0889 -0.046777,0.14501 -0.042099,0.0561 -0.1029098,0.0655 -0.06081,0.014 -0.1216206,-0.0187 -0.06081,-0.0327 -0.1029098,-0.11227 -0.028066,-0.21985 -0.079521,-0.43035 -0.051455,-0.21517 -0.1216206,-0.42567 l -1.2395948,0.009 q -0.00936,0 -0.023389,0 -0.00936,-0.005 -0.018711,-0.005 -0.1169429,0.3976 -0.2104972,0.82328 -0.037422,0.0982 -0.1075875,0.13097 -0.070166,0.0328 -0.1356538,0.014 -0.06081,-0.0187 -0.1029097,-0.0842 -0.037422,-0.0655 -0.018711,-0.1684 0.1543647,-0.67827 0.3695396,-1.3238 0.2198527,-0.6502 0.5472928,-1.26766 0.028066,-0.0889 0.130976,-0.11226 0.051455,-0.0187 0.098232,-0.005 0.046777,0.009 0.079521,0.0421 0.00468,0 0.00468,0.005 0,0 0.00468,0 0.2432412,0.23388 0.4069613,0.52858 0.16372,0.2947 0.2993738,0.59875 0.051455,0.10758 0.093554,0.21517 0.046777,0.10759 0.088877,0.21518 l 0.247919,-0.005 q 0.088877,0.0281 0.1309761,0.0842 0.042099,0.0561 0.037422,0.11694 0,0.0561 -0.046777,0.11227 -0.046777,0.0515 -0.1356537,0.0702 h -0.098232 q 0.06081,0.19179 0.1029098,0.38825 0.046777,0.19179 0.070166,0.39293 z M 5.992363,199.72363 q -0.1309761,0.26663 -0.2432413,0.54261 -0.1075875,0.27599 -0.2011418,0.55665 l 1.0197421,-0.009 q -0.06081,-0.14033 -0.1262983,-0.27599 -0.06081,-0.13565 -0.1262983,-0.27131 -0.074844,-0.13565 -0.1496869,-0.27598 -0.074843,-0.14033 -0.1730755,-0.26663 z"
         style="stroke-width:0.26458332"
         id="path294"
         inkscape:connector-curvature="0" />
      <path
         d="m 9.3664032,201.79586 q 0.06081,0.0842 0.046777,0.16372 -0.00936,0.0748 -0.06081,0.12162 -0.046777,0.0421 -0.1262983,0.0421 -0.074844,-0.005 -0.1496869,-0.0795 -0.023389,-0.0234 -0.042099,-0.0468 -0.018711,-0.0281 -0.028066,-0.0515 -0.1403315,0.12163 -0.3274401,0.18711 -0.1824309,0.0702 -0.3742173,0.0702 -0.1871086,0 -0.3601841,-0.0748 -0.1730755,-0.0795 -0.2900184,-0.24325 -0.088877,-0.12629 -0.1309761,-0.28066 -0.037422,-0.15904 -0.037422,-0.31808 0,-0.16372 0.037422,-0.31809 0.042099,-0.15904 0.1029098,-0.29469 0.056133,-0.12162 0.1590423,-0.21986 0.1075875,-0.0982 0.2245304,-0.15904 0.1075875,-0.0608 0.2385635,-0.0982 0.1356538,-0.0421 0.2572744,-0.0468 0.1122652,0 0.2245304,0.005 0.1122652,0.005 0.2198526,0.0374 -0.00468,-0.33679 -0.00936,-0.566 0,-0.23389 0,-0.31341 0.018711,-0.0889 0.070166,-0.13565 0.056133,-0.0468 0.1122652,-0.0468 0.06081,-0.005 0.1169429,0.0374 0.056133,0.0421 0.084199,0.13098 v 2.44644 q 0.00936,0.014 0.018711,0.0281 0.014033,0.009 0.023389,0.0234 z m -0.411639,-0.3368 v -0.0655 q 0,-0.17307 0,-0.37889 0,-0.2105 -0.00468,-0.39761 l -0.028066,-0.014 q -0.014033,-0.009 -0.028066,-0.0187 -0.00936,-0.009 -0.023388,-0.0187 -0.1403315,-0.0421 -0.2946962,-0.0374 -0.1543646,0.005 -0.2900184,0.0608 -0.1356537,0.0514 -0.2432412,0.15436 -0.1029098,0.10291 -0.1450092,0.26195 -0.037422,0.14501 -0.028066,0.2526 0.00936,0.10759 0.028066,0.2526 0.018711,0.0374 0.032744,0.0748 0.018711,0.0374 0.037422,0.0748 l 0.093554,0.0936 q 0.056133,0.0187 0.1075874,0.0468 0.1871087,0.0187 0.3414733,-0.0187 0.1590424,-0.0374 0.3040516,-0.16372 0.00468,-0.009 0.018711,-0.0234 0.018711,-0.0187 0.037422,-0.0374 0.018711,-0.0187 0.032744,-0.0327 0.018711,-0.0187 0.023389,-0.0234 z"
         style="stroke-width:0.26458332"
         id="path296"
         inkscape:connector-curvature="0" />
      <path
         d="m 11.640166,201.79586 q 0.06081,0.0842 0.04678,0.16372 -0.0094,0.0748 -0.06081,0.12162 -0.04678,0.0421 -0.126298,0.0421 -0.07484,-0.005 -0.149687,-0.0795 -0.02339,-0.0234 -0.0421,-0.0468 -0.01871,-0.0281 -0.02807,-0.0515 -0.140332,0.12163 -0.32744,0.18711 -0.182431,0.0702 -0.374217,0.0702 -0.187109,0 -0.360185,-0.0748 -0.173075,-0.0795 -0.290018,-0.24325 -0.088877,-0.12629 -0.130976,-0.28066 -0.037422,-0.15904 -0.037422,-0.31808 0,-0.16372 0.037422,-0.31809 0.042099,-0.15904 0.1029097,-0.29469 0.056133,-0.12162 0.1590423,-0.21986 0.107588,-0.0982 0.22453,-0.15904 0.107588,-0.0608 0.238564,-0.0982 0.135654,-0.0421 0.257274,-0.0468 0.112266,0 0.224531,0.005 0.112265,0.005 0.219852,0.0374 -0.0047,-0.33679 -0.0094,-0.566 0,-0.23389 0,-0.31341 0.01871,-0.0889 0.07017,-0.13565 0.05613,-0.0468 0.112265,-0.0468 0.06081,-0.005 0.116943,0.0374 0.05613,0.0421 0.0842,0.13098 v 2.44644 q 0.0094,0.014 0.01871,0.0281 0.01403,0.009 0.02339,0.0234 z m -0.411639,-0.3368 v -0.0655 q 0,-0.17307 0,-0.37889 0,-0.2105 -0.0047,-0.39761 l -0.02807,-0.014 q -0.01403,-0.009 -0.02807,-0.0187 -0.0094,-0.009 -0.02339,-0.0187 -0.140331,-0.0421 -0.294696,-0.0374 -0.154365,0.005 -0.290018,0.0608 -0.135654,0.0514 -0.243242,0.15436 -0.102909,0.10291 -0.145009,0.26195 -0.03742,0.14501 -0.02807,0.2526 0.0094,0.10759 0.02807,0.2526 0.01871,0.0374 0.03274,0.0748 0.01871,0.0374 0.03742,0.0748 l 0.09355,0.0936 q 0.05613,0.0187 0.107588,0.0468 0.187108,0.0187 0.341473,-0.0187 0.159042,-0.0374 0.304052,-0.16372 0.0047,-0.009 0.01871,-0.0234 0.01871,-0.0187 0.03742,-0.0374 0.01871,-0.0187 0.03274,-0.0327 0.01871,-0.0187 0.02339,-0.0234 z"
         style="stroke-width:0.26458332"
         id="path298"
         inkscape:connector-curvature="0" />
      <path
         d="m 12.603182,201.97829 q -0.0047,0.10759 -0.06549,0.15904 -0.05613,0.0561 -0.126298,0.0561 -0.06549,0 -0.121621,-0.0514 -0.05613,-0.0468 -0.07017,-0.14969 -0.0047,-0.4397 -0.0094,-0.89812 0,-0.45842 -0.0047,-0.89812 0.02339,-0.0936 0.07484,-0.14033 0.05145,-0.0468 0.116942,-0.0468 0.06081,0 0.112266,0.0421 0.05613,0.0421 0.07952,0.13098 0.0047,0.4397 0.0047,0.89812 0.0047,0.45841 0.0094,0.89812 z m -0.43035,-2.54468 q 0,-0.10291 0.06549,-0.17307 0.06549,-0.0748 0.159042,-0.0748 0.09356,0 0.159043,0.0748 0.07017,0.0702 0.07017,0.17307 0,0.0982 -0.07017,0.17308 -0.06549,0.0702 -0.159043,0.0702 -0.09355,0 -0.159042,-0.0702 -0.06549,-0.0748 -0.06549,-0.17308 z"
         style="stroke-width:0.26458332"
         id="path300"
         inkscape:connector-curvature="0" />
      <path
         d="m 13.200682,200.48142 q -0.102909,-0.014 -0.154364,-0.0702 -0.04678,-0.0561 -0.04678,-0.12162 0,-0.0655 0.05145,-0.1263 0.05613,-0.0655 0.16372,-0.0655 h 0.261953 v -0.73908 q 0.02339,-0.0936 0.07484,-0.14033 0.05146,-0.0468 0.116943,-0.0468 0.06081,0 0.112265,0.0421 0.05613,0.0421 0.07952,0.13097 v 0.75312 h 0.449061 q 0.08888,0.0234 0.130976,0.0795 0.0421,0.0515 0.0421,0.11226 0,0.0655 -0.04678,0.11695 -0.04678,0.0515 -0.140331,0.0748 H 13.86024 q -0.0047,0.36018 0,0.74376 0.0047,0.37889 0.0047,0.73908 0,0.10758 -0.06549,0.16372 -0.06081,0.0514 -0.126298,0.0514 -0.06549,0 -0.121621,-0.0514 -0.05613,-0.0468 -0.07017,-0.14969 0,-0.36486 -0.0047,-0.74844 0,-0.38357 0,-0.74843 h -0.275986 z"
         style="stroke-width:0.26458332"
         id="path302"
         inkscape:connector-curvature="0" />
      <path
         d="m 15.319295,201.97829 q -0.0047,0.10759 -0.06549,0.15904 -0.05613,0.0561 -0.126298,0.0561 -0.06549,0 -0.121621,-0.0514 -0.05613,-0.0468 -0.07017,-0.14969 -0.0047,-0.4397 -0.0094,-0.89812 0,-0.45842 -0.0047,-0.89812 0.02339,-0.0936 0.07484,-0.14033 0.05146,-0.0468 0.116943,-0.0468 0.06081,0 0.112265,0.0421 0.05613,0.0421 0.07952,0.13098 0.0047,0.4397 0.0047,0.89812 0.0047,0.45841 0.0094,0.89812 z m -0.43035,-2.54468 q 0,-0.10291 0.06549,-0.17307 0.06549,-0.0748 0.159043,-0.0748 0.09355,0 0.159042,0.0748 0.07017,0.0702 0.07017,0.17307 0,0.0982 -0.07017,0.17308 -0.06549,0.0702 -0.159042,0.0702 -0.09356,0 -0.159043,-0.0702 -0.06549,-0.0748 -0.06549,-0.17308 z"
         style="stroke-width:0.26458332"
         id="path304"
         inkscape:connector-curvature="0" />
      <path
         d="m 15.867214,200.98194 q 0.05145,-0.14969 0.126298,-0.29002 0.07484,-0.14501 0.177753,-0.26196 0.10291,-0.11694 0.233886,-0.20114 0.135654,-0.0842 0.299374,-0.12162 0.271308,-0.0608 0.472449,0.0421 0.20582,0.10291 0.327441,0.2947 0.12162,0.19178 0.159042,0.4397 0.0421,0.24324 -0.01871,0.46777 -0.07017,0.27599 -0.247919,0.51455 -0.177753,0.23857 -0.449061,0.34615 -0.201142,0.0795 -0.38825,0.0561 -0.182431,-0.0187 -0.332118,-0.11695 -0.145009,-0.0982 -0.247919,-0.25727 -0.10291,-0.15904 -0.140331,-0.36018 -0.02339,-0.1263 -0.01871,-0.24792 0.0094,-0.12162 0.03274,-0.24324 z m 0.364862,0.10758 q -0.01871,0.0982 -0.02807,0.18243 -0.0047,0.0795 0.0094,0.18243 0.01403,0.1263 0.07952,0.22921 0.06549,0.0982 0.159042,0.15437 0.09356,0.0514 0.20582,0.0514 0.116943,-0.005 0.233886,-0.0748 0.154364,-0.0936 0.243241,-0.24324 0.09355,-0.14969 0.140331,-0.32277 0.03742,-0.14033 0.01403,-0.29937 -0.01871,-0.15904 -0.09355,-0.28066 -0.07484,-0.12162 -0.201142,-0.17308 -0.126298,-0.0561 -0.299373,0.014 -0.187109,0.0795 -0.294697,0.23856 -0.107587,0.15904 -0.168397,0.34147 z"
         style="stroke-width:0.26458332"
         id="path306"
         inkscape:connector-curvature="0" />
      <path
         d="m 19.795357,201.98764 q -0.0047,0.10759 -0.06549,0.15905 -0.05613,0.0561 -0.126298,0.0561 -0.06549,0 -0.121621,-0.0515 -0.05613,-0.0468 -0.07017,-0.14968 0,-0.21518 -0.0047,-0.42568 0,-0.21517 0,-0.43034 0,-0.15437 0,-0.30873 0.0047,-0.15437 -0.01871,-0.30873 -0.03742,-0.0702 -0.0842,-0.0842 -0.0421,-0.0187 -0.10291,-0.0187 -0.159042,0 -0.313407,0.0795 -0.154364,0.0748 -0.243241,0.2105 -0.05146,0.0795 -0.0842,0.13565 -0.02807,0.0515 -0.03742,0.15436 0,0.23857 0,0.47713 0,0.23856 0.0047,0.47713 -0.0047,0.10759 -0.06549,0.16372 -0.05613,0.0514 -0.126298,0.0514 -0.06549,0 -0.121621,-0.0468 -0.05613,-0.0515 -0.07017,-0.15437 0,-0.22453 0,-0.43503 0,-0.21049 -0.0047,-0.41631 0,-0.20582 0,-0.41632 0,-0.21518 0,-0.43971 0.02339,-0.0936 0.07484,-0.14033 0.05146,-0.0468 0.116943,-0.0468 0.06081,0 0.112265,0.0421 0.05613,0.0421 0.07952,0.13097 v 0.0374 q 0.135654,-0.11694 0.304052,-0.18243 0.173076,-0.0702 0.346151,-0.0702 0.173076,0 0.322762,0.0795 0.154365,0.0795 0.247919,0.25727 0.03274,0.0608 0.0421,0.15437 0.01403,0.0889 0.01403,0.19178 0.0047,0.0982 0,0.20582 -0.0047,0.10291 -0.0047,0.19647 v 0.55197 0.3134 z"
         style="stroke-width:0.26458332"
         id="path308"
         inkscape:connector-curvature="0" />
    </g>
    <rect
       style="fill:#916f6f;stroke-width:0.27006435"
       id="rect349"
       width="16.933334"
       height="36.663689"
       x="3.4399574"
       y="248.41832" />
    <g
       aria-label="Output"
       style="font-style:normal;font-variant:normal;font-weight:normal;font-stretch:normal;font-size:2.82222223px;line-height:1.25;font-family:Chalkboard;-inkscape-font-specification:Chalkboard;letter-spacing:0px;word-spacing:0px;fill:#000000;fill-opacity:1;stroke:none;stroke-width:0.26458332"
       id="text254"
       transform="translate(-0.70266133,3.140596)">
      <path
         d="m 8.5951785,280.02493 q -0.1580445,0 -0.2878667,-0.0649 -0.1298222,-0.0677 -0.2257778,-0.19191 -0.093133,-0.12417 -0.1467555,-0.30197 -0.0508,-0.18063 -0.0508,-0.40923 0,-0.22295 0.0508,-0.40075 0.053622,-0.1778 0.1467555,-0.29916 0.095956,-0.12135 0.2257778,-0.18626 0.1298222,-0.0649 0.2878667,-0.0649 0.1552222,0 0.2850444,0.0649 0.1326445,0.0649 0.2257778,0.18626 0.095956,0.12136 0.1467555,0.29916 0.053622,0.1778 0.053622,0.40075 0,0.2286 -0.053622,0.40923 -0.0508,0.1778 -0.1467555,0.30197 -0.093133,0.12418 -0.2257778,0.19191 -0.1298222,0.0649 -0.2850444,0.0649 z m 0,-0.20603 q 0.1044222,0 0.1919111,-0.0508 0.087489,-0.0536 0.1467555,-0.1524 0.062089,-0.0988 0.095956,-0.23989 0.033867,-0.14111 0.033867,-0.31891 0,-0.17497 -0.033867,-0.31326 -0.033867,-0.13829 -0.095956,-0.23425 -0.059267,-0.096 -0.1467555,-0.14675 -0.087489,-0.0508 -0.1919111,-0.0508 -0.1072445,0 -0.1947334,0.0508 -0.084667,0.0508 -0.1467555,0.14675 -0.059267,0.096 -0.093133,0.23425 -0.033867,0.13829 -0.033867,0.31326 0,0.1778 0.033867,0.31891 0.033867,0.14112 0.093133,0.23989 0.062089,0.0988 0.1467555,0.1524 0.087489,0.0508 0.1947334,0.0508 z"
         style="font-style:normal;font-variant:normal;font-weight:normal;font-stretch:normal;font-family:'Source Code Pro';-inkscape-font-specification:'Source Code Pro';stroke-width:0.26458332"
         id="path311"
         inkscape:connector-curvature="0" />
      <path
         d="m 10.135009,280.02493 q -0.2483552,0 -0.3640663,-0.13829 -0.1128889,-0.14111 -0.1128889,-0.41487 v -0.85231 h 0.2342445 v 0.82127 q 0,0.19473 0.070555,0.29068 0.073378,0.0931 0.2455337,0.0931 0.118534,0 0.214489,-0.0593 0.09596,-0.0621 0.211667,-0.19473 v -0.95109 h 0.231422 v 1.3716 h -0.189089 l -0.01975,-0.23989 h -0.01129 q -0.104423,0.12136 -0.2286,0.19756 -0.121356,0.0762 -0.282223,0.0762 z"
         style="font-style:normal;font-variant:normal;font-weight:normal;font-stretch:normal;font-family:'Source Code Pro';-inkscape-font-specification:'Source Code Pro';stroke-width:0.26458332"
         id="path313"
         inkscape:connector-curvature="0" />
      <path
         d="m 12.244929,280.02493 q -0.149578,0 -0.251178,-0.0395 -0.1016,-0.0423 -0.163688,-0.11571 -0.06209,-0.0762 -0.09031,-0.18062 -0.0254,-0.10442 -0.0254,-0.23142 v -0.64911 h -0.386644 v -0.17498 l 0.395111,-0.0141 0.03105,-0.44027 h 0.191911 v 0.44027 h 0.674511 v 0.18909 h -0.674511 v 0.65193 q 0,0.0931 0.01693,0.16369 0.01693,0.0677 0.05644,0.11571 0.03951,0.048 0.107245,0.0734 0.06773,0.0226 0.166511,0.0226 0.09878,0 0.1778,-0.0169 0.07902,-0.0169 0.1524,-0.0451 l 0.0508,0.16933 q -0.09313,0.0339 -0.197556,0.0564 -0.1016,0.0254 -0.231422,0.0254 z"
         style="font-style:normal;font-variant:normal;font-weight:normal;font-stretch:normal;font-family:'Source Code Pro';-inkscape-font-specification:'Source Code Pro';stroke-width:0.26458332"
         id="path315"
         inkscape:connector-curvature="0" />
      <path
         d="m 13.087671,280.56961 v -1.95015 h 0.191911 l 0.01976,0.17498 h 0.0085 q 0.09596,-0.0903 0.220134,-0.14958 0.127,-0.0593 0.254,-0.0593 0.138289,0 0.242711,0.0508 0.107244,0.048 0.1778,0.14111 0.07338,0.0903 0.110066,0.22014 0.03669,0.127 0.03669,0.28786 0,0.17498 -0.0508,0.31327 -0.0508,0.13547 -0.138289,0.23142 -0.08467,0.096 -0.197555,0.14676 -0.112889,0.048 -0.237067,0.048 -0.09596,0 -0.208844,-0.0452 -0.110067,-0.048 -0.200378,-0.13264 h -0.0085 l 0.01129,0.25964 v 0.46284 z m 0.598311,-0.73942 q 0.186267,0 0.3048,-0.14393 0.118533,-0.14393 0.118533,-0.40076 0,-0.11289 -0.02258,-0.20602 -0.02258,-0.0931 -0.07056,-0.15804 -0.04516,-0.0677 -0.118533,-0.10443 -0.07338,-0.0367 -0.174978,-0.0367 -0.09031,0 -0.194733,0.0508 -0.1016,0.048 -0.208845,0.15522 v 0.68298 q 0.09878,0.0875 0.197556,0.12417 0.09878,0.0367 0.169333,0.0367 z"
         style="font-style:normal;font-variant:normal;font-weight:normal;font-stretch:normal;font-family:'Source Code Pro';-inkscape-font-specification:'Source Code Pro';stroke-width:0.26458332"
         id="path317"
         inkscape:connector-curvature="0" />
      <path
         d="m 15.211702,280.02493 q -0.248355,0 -0.364066,-0.13829 -0.112889,-0.14111 -0.112889,-0.41487 v -0.85231 h 0.234244 v 0.82127 q 0,0.19473 0.07056,0.29068 0.07338,0.0931 0.245533,0.0931 0.118533,0 0.214489,-0.0593 0.09596,-0.0621 0.211667,-0.19473 v -0.95109 h 0.231422 v 1.3716 h -0.189089 l -0.01976,-0.23989 h -0.01129 q -0.104422,0.12136 -0.2286,0.19756 -0.121355,0.0762 -0.282222,0.0762 z"
         style="font-style:normal;font-variant:normal;font-weight:normal;font-stretch:normal;font-family:'Source Code Pro';-inkscape-font-specification:'Source Code Pro';stroke-width:0.26458332"
         id="path319"
         inkscape:connector-curvature="0" />
      <path
         d="m 17.321622,280.02493 q -0.149577,0 -0.251177,-0.0395 -0.1016,-0.0423 -0.163689,-0.11571 -0.06209,-0.0762 -0.09031,-0.18062 -0.0254,-0.10442 -0.0254,-0.23142 v -0.64911 H 16.4044 v -0.17498 l 0.395111,-0.0141 0.03105,-0.44027 h 0.191911 v 0.44027 h 0.674511 v 0.18909 h -0.674511 v 0.65193 q 0,0.0931 0.01693,0.16369 0.01693,0.0677 0.05645,0.11571 0.03951,0.048 0.107244,0.0734 0.06773,0.0226 0.166511,0.0226 0.09878,0 0.1778,-0.0169 0.07902,-0.0169 0.1524,-0.0451 l 0.0508,0.16933 q -0.09313,0.0339 -0.197555,0.0564 -0.1016,0.0254 -0.231423,0.0254 z"
         style="font-style:normal;font-variant:normal;font-weight:normal;font-stretch:normal;font-family:'Source Code Pro';-inkscape-font-specification:'Source Code Pro';stroke-width:0.26458332"
         id="path321"
         inkscape:connector-curvature="0" />
    </g>
    <g
       aria-label="Input"
       style="font-style:normal;font-variant:normal;font-weight:normal;font-stretch:normal;font-size:2.82222223px;line-height:1.25;font-family:'Source Code Pro';-inkscape-font-specification:'Source Code Pro';letter-spacing:0px;word-spacing:0px;fill:#000000;fill-opacity:1;stroke:none;stroke-width:0.26458332"
       id="text4099"
       transform="translate(0.05329074,4.4635114)">
      <path
         d="m 7.8324608,266.67804 v -0.20038 H 8.292483 v -1.45344 H 7.8324608 v -0.19756 h 1.1571111 v 0.19756 H 8.5295497 v 1.45344 h 0.4600222 v 0.20038 z"
         style="stroke-width:0.26458332"
         id="path4109"
         inkscape:connector-curvature="0" />
      <path
         d="m 9.5190473,266.67804 v -1.3716 h 0.1919111 l 0.019755,0.23424 h 0.011289 q 0.1072445,-0.11571 0.2314222,-0.19191 0.1241784,-0.0762 0.2850444,-0.0762 0.245534,0 0.358423,0.14111 0.115711,0.13829 0.115711,0.41205 v 0.85231 h -0.231422 v -0.82127 q 0,-0.19473 -0.07338,-0.28786 -0.07338,-0.096 -0.242711,-0.096 -0.06209,0 -0.115711,0.0169 -0.0508,0.0141 -0.1016008,0.0452 -0.0508,0.031 -0.1044222,0.079 -0.053622,0.0452 -0.1128889,0.10725 v 0.95673 z"
         style="stroke-width:0.26458332"
         id="path4111"
         inkscape:connector-curvature="0" />
      <path
         d="m 11.211278,267.2566 v -1.95016 h 0.191911 l 0.01976,0.17498 h 0.0085 q 0.09596,-0.0903 0.220133,-0.14958 0.127,-0.0593 0.254,-0.0593 0.138289,0 0.242711,0.0508 0.107244,0.048 0.1778,0.14111 0.07338,0.0903 0.110067,0.22014 0.03669,0.127 0.03669,0.28786 0,0.17498 -0.0508,0.31327 -0.0508,0.13547 -0.138289,0.23142 -0.08467,0.096 -0.197556,0.14676 -0.112889,0.048 -0.237067,0.048 -0.09596,0 -0.208844,-0.0452 -0.110067,-0.048 -0.200378,-0.13264 h -0.0085 l 0.01129,0.25964 v 0.46285 z m 0.598311,-0.73943 q 0.186267,0 0.3048,-0.14393 0.118534,-0.14393 0.118534,-0.40076 0,-0.11288 -0.02258,-0.20602 -0.02258,-0.0931 -0.07056,-0.15804 -0.04516,-0.0677 -0.118533,-0.10442 -0.07338,-0.0367 -0.174978,-0.0367 -0.09031,0 -0.194733,0.0508 -0.1016,0.048 -0.208845,0.15522 v 0.68298 q 0.09878,0.0875 0.197556,0.12417 0.09878,0.0367 0.169333,0.0367 z"
         style="stroke-width:0.26458332"
         id="path4113"
         inkscape:connector-curvature="0" />
      <path
         d="m 13.335309,266.71191 q -0.248356,0 -0.364067,-0.13829 -0.112889,-0.14111 -0.112889,-0.41487 v -0.85231 h 0.234245 v 0.82127 q 0,0.19473 0.07055,0.29069 0.07338,0.0931 0.245534,0.0931 0.118533,0 0.214489,-0.0593 0.09596,-0.0621 0.211666,-0.19473 v -0.95109 h 0.231422 v 1.3716 h -0.189088 l -0.01976,-0.23989 h -0.01129 q -0.104422,0.12136 -0.2286,0.19756 -0.121355,0.0762 -0.282222,0.0762 z"
         style="stroke-width:0.26458332"
         id="path4115"
         inkscape:connector-curvature="0" />
      <path
         d="m 15.445229,266.71191 q -0.149578,0 -0.251178,-0.0395 -0.1016,-0.0423 -0.163689,-0.11572 -0.06209,-0.0762 -0.09031,-0.18062 -0.0254,-0.10442 -0.0254,-0.23142 v -0.64911 h -0.386644 v -0.17498 l 0.395111,-0.0141 0.03104,-0.44027 h 0.191911 v 0.44027 h 0.674512 v 0.18909 H 15.14607 v 0.65193 q 0,0.0931 0.01693,0.16369 0.01693,0.0677 0.05644,0.11571 0.03951,0.048 0.107245,0.0734 0.06773,0.0226 0.166511,0.0226 0.09878,0 0.1778,-0.0169 0.07902,-0.0169 0.1524,-0.0451 l 0.0508,0.16933 q -0.09313,0.0339 -0.197556,0.0564 -0.1016,0.0254 -0.231422,0.0254 z"
         style="stroke-width:0.26458332"
         id="path4117"
         inkscape:connector-curvature="0" />
    </g>
    <g
       aria-label="Input"
       style="font-style:normal;font-variant:normal;font-weight:normal;font-stretch:normal;font-size:2.82222223px;line-height:1.25;font-family:'Source Code Pro';-inkscape-font-specification:'Source Code Pro';letter-spacing:0px;word-spacing:0px;fill:#000000;fill-opacity:1;stroke:none;stroke-width:0.26458332"
       id="text374-4"
       transform="translate(-0.15242282,5.1521329)">
      <path
         d="m 7.8324608,253.97803 v -0.20038 H 8.292483 v -1.45344 H 7.8324608 v -0.19756 h 1.1571111 v 0.19756 H 8.5295497 v 1.45344 h 0.4600222 v 0.20038 z"
         style="stroke-width:0.26458332"
         id="path4120"
         inkscape:connector-curvature="0" />
      <path
         d="m 9.5190473,253.97803 v -1.3716 h 0.1919111 l 0.019755,0.23424 h 0.011289 q 0.1072445,-0.11571 0.2314222,-0.19191 0.1241784,-0.0762 0.2850444,-0.0762 0.245534,0 0.358423,0.14111 0.115711,0.13829 0.115711,0.41205 v 0.85231 h -0.231422 v -0.82127 q 0,-0.19473 -0.07338,-0.28787 -0.07338,-0.0959 -0.242711,-0.0959 -0.06209,0 -0.115711,0.0169 -0.0508,0.0141 -0.1016008,0.0452 -0.0508,0.031 -0.1044222,0.079 -0.053622,0.0452 -0.1128889,0.10724 v 0.95674 z"
         style="stroke-width:0.26458332"
         id="path4122"
         inkscape:connector-curvature="0" />
      <path
         d="m 11.211278,254.55658 v -1.95015 h 0.191911 l 0.01976,0.17498 h 0.0085 q 0.09596,-0.0903 0.220133,-0.14958 0.127,-0.0593 0.254,-0.0593 0.138289,0 0.242711,0.0508 0.107244,0.048 0.1778,0.14111 0.07338,0.0903 0.110067,0.22014 0.03669,0.127 0.03669,0.28786 0,0.17498 -0.0508,0.31327 -0.0508,0.13547 -0.138289,0.23142 -0.08467,0.096 -0.197556,0.14676 -0.112889,0.048 -0.237067,0.048 -0.09596,0 -0.208844,-0.0452 -0.110067,-0.048 -0.200378,-0.13265 h -0.0085 l 0.01129,0.25965 v 0.46284 z m 0.598311,-0.73942 q 0.186267,0 0.3048,-0.14393 0.118534,-0.14394 0.118534,-0.40076 0,-0.11289 -0.02258,-0.20602 -0.02258,-0.0931 -0.07056,-0.15804 -0.04516,-0.0677 -0.118533,-0.10443 -0.07338,-0.0367 -0.174978,-0.0367 -0.09031,0 -0.194733,0.0508 -0.1016,0.048 -0.208845,0.15523 v 0.68297 q 0.09878,0.0875 0.197556,0.12418 0.09878,0.0367 0.169333,0.0367 z"
         style="stroke-width:0.26458332"
         id="path4124"
         inkscape:connector-curvature="0" />
      <path
         d="m 13.335309,254.01189 q -0.248356,0 -0.364067,-0.13828 -0.112889,-0.14112 -0.112889,-0.41487 v -0.85231 h 0.234245 v 0.82126 q 0,0.19474 0.07055,0.29069 0.07338,0.0931 0.245534,0.0931 0.118533,0 0.214489,-0.0593 0.09596,-0.0621 0.211666,-0.19473 v -0.95109 h 0.231422 v 1.3716 h -0.189088 l -0.01976,-0.23989 h -0.01129 q -0.104422,0.12135 -0.2286,0.19755 -0.121355,0.0762 -0.282222,0.0762 z"
         style="stroke-width:0.26458332"
         id="path4126"
         inkscape:connector-curvature="0" />
      <path
         d="m 15.445229,254.01189 q -0.149578,0 -0.251178,-0.0395 -0.1016,-0.0423 -0.163689,-0.11571 -0.06209,-0.0762 -0.09031,-0.18062 -0.0254,-0.10442 -0.0254,-0.23142 v -0.64911 h -0.386644 v -0.17498 l 0.395111,-0.0141 0.03104,-0.44027 h 0.191911 v 0.44027 h 0.674512 v 0.18909 H 15.14607 v 0.65193 q 0,0.0931 0.01693,0.16369 0.01693,0.0677 0.05644,0.11571 0.03951,0.048 0.107245,0.0734 0.06773,0.0226 0.166511,0.0226 0.09878,0 0.1778,-0.0169 0.07902,-0.0169 0.1524,-0.0452 l 0.0508,0.16933 q -0.09313,0.0339 -0.197556,0.0564 -0.1016,0.0254 -0.231422,0.0254 z"
         style="stroke-width:0.26458332"
         id="path4128"
         inkscape:connector-curvature="0" />
    </g>
    <rect
       style="fill:#916f6f;stroke-width:0.27006435"
       id="rect349-8"
       width="16.933336"
       height="36.663689"
       x="3.3756609"
       y="207.7782" />
    <g
       aria-label="Output"
       style="font-style:normal;font-variant:normal;font-weight:normal;font-stretch:normal;font-size:2.82222223px;line-height:1.25;font-family:Chalkboard;-inkscape-font-specification:Chalkboard;letter-spacing:0px;word-spacing:0px;fill:#000000;fill-opacity:1;stroke:none;stroke-width:0.26458332"
       id="text254-1"
       transform="translate(-0.76695814,-37.499506)">
      <path
         d="m 8.5951785,280.02493 q -0.1580445,0 -0.2878667,-0.0649 -0.1298222,-0.0677 -0.2257778,-0.19191 -0.093133,-0.12417 -0.1467555,-0.30197 -0.0508,-0.18063 -0.0508,-0.40923 0,-0.22295 0.0508,-0.40075 0.053622,-0.1778 0.1467555,-0.29916 0.095956,-0.12135 0.2257778,-0.18626 0.1298222,-0.0649 0.2878667,-0.0649 0.1552222,0 0.2850444,0.0649 0.1326445,0.0649 0.2257778,0.18626 0.095956,0.12136 0.1467555,0.29916 0.053622,0.1778 0.053622,0.40075 0,0.2286 -0.053622,0.40923 -0.0508,0.1778 -0.1467555,0.30197 -0.093133,0.12418 -0.2257778,0.19191 -0.1298222,0.0649 -0.2850444,0.0649 z m 0,-0.20603 q 0.1044222,0 0.1919111,-0.0508 0.087489,-0.0536 0.1467555,-0.1524 0.062089,-0.0988 0.095956,-0.23989 0.033867,-0.14111 0.033867,-0.31891 0,-0.17497 -0.033867,-0.31326 -0.033867,-0.13829 -0.095956,-0.23425 -0.059267,-0.096 -0.1467555,-0.14675 -0.087489,-0.0508 -0.1919111,-0.0508 -0.1072445,0 -0.1947334,0.0508 -0.084667,0.0508 -0.1467555,0.14675 -0.059267,0.096 -0.093133,0.23425 -0.033867,0.13829 -0.033867,0.31326 0,0.1778 0.033867,0.31891 0.033867,0.14112 0.093133,0.23989 0.062089,0.0988 0.1467555,0.1524 0.087489,0.0508 0.1947334,0.0508 z"
         style="font-style:normal;font-variant:normal;font-weight:normal;font-stretch:normal;font-family:'Source Code Pro';-inkscape-font-specification:'Source Code Pro';stroke-width:0.26458332"
         id="path311-7"
         inkscape:connector-curvature="0" />
      <path
         d="m 10.135009,280.02493 q -0.2483552,0 -0.3640663,-0.13829 -0.1128889,-0.14111 -0.1128889,-0.41487 v -0.85231 h 0.2342445 v 0.82127 q 0,0.19473 0.070555,0.29068 0.073378,0.0931 0.2455337,0.0931 0.118534,0 0.214489,-0.0593 0.09596,-0.0621 0.211667,-0.19473 v -0.95109 h 0.231422 v 1.3716 h -0.189089 l -0.01975,-0.23989 h -0.01129 q -0.104423,0.12136 -0.2286,0.19756 -0.121356,0.0762 -0.282223,0.0762 z"
         style="font-style:normal;font-variant:normal;font-weight:normal;font-stretch:normal;font-family:'Source Code Pro';-inkscape-font-specification:'Source Code Pro';stroke-width:0.26458332"
         id="path313-1"
         inkscape:connector-curvature="0" />
      <path
         d="m 12.244929,280.02493 q -0.149578,0 -0.251178,-0.0395 -0.1016,-0.0423 -0.163688,-0.11571 -0.06209,-0.0762 -0.09031,-0.18062 -0.0254,-0.10442 -0.0254,-0.23142 v -0.64911 h -0.386644 v -0.17498 l 0.395111,-0.0141 0.03105,-0.44027 h 0.191911 v 0.44027 h 0.674511 v 0.18909 h -0.674511 v 0.65193 q 0,0.0931 0.01693,0.16369 0.01693,0.0677 0.05644,0.11571 0.03951,0.048 0.107245,0.0734 0.06773,0.0226 0.166511,0.0226 0.09878,0 0.1778,-0.0169 0.07902,-0.0169 0.1524,-0.0451 l 0.0508,0.16933 q -0.09313,0.0339 -0.197556,0.0564 -0.1016,0.0254 -0.231422,0.0254 z"
         style="font-style:normal;font-variant:normal;font-weight:normal;font-stretch:normal;font-family:'Source Code Pro';-inkscape-font-specification:'Source Code Pro';stroke-width:0.26458332"
         id="path315-3"
         inkscape:connector-curvature="0" />
      <path
         d="m 13.087671,280.56961 v -1.95015 h 0.191911 l 0.01976,0.17498 h 0.0085 q 0.09596,-0.0903 0.220134,-0.14958 0.127,-0.0593 0.254,-0.0593 0.138289,0 0.242711,0.0508 0.107244,0.048 0.1778,0.14111 0.07338,0.0903 0.110066,0.22014 0.03669,0.127 0.03669,0.28786 0,0.17498 -0.0508,0.31327 -0.0508,0.13547 -0.138289,0.23142 -0.08467,0.096 -0.197555,0.14676 -0.112889,0.048 -0.237067,0.048 -0.09596,0 -0.208844,-0.0452 -0.110067,-0.048 -0.200378,-0.13264 h -0.0085 l 0.01129,0.25964 v 0.46284 z m 0.598311,-0.73942 q 0.186267,0 0.3048,-0.14393 0.118533,-0.14393 0.118533,-0.40076 0,-0.11289 -0.02258,-0.20602 -0.02258,-0.0931 -0.07056,-0.15804 -0.04516,-0.0677 -0.118533,-0.10443 -0.07338,-0.0367 -0.174978,-0.0367 -0.09031,0 -0.194733,0.0508 -0.1016,0.048 -0.208845,0.15522 v 0.68298 q 0.09878,0.0875 0.197556,0.12417 0.09878,0.0367 0.169333,0.0367 z"
         style="font-style:normal;font-variant:normal;font-weight:normal;font-stretch:normal;font-family:'Source Code Pro';-inkscape-font-specification:'Source Code Pro';stroke-width:0.26458332"
         id="path317-0"
         inkscape:connector-curvature="0" />
      <path
         d="m 15.211702,280.02493 q -0.248355,0 -0.364066,-0.13829 -0.112889,-0.14111 -0.112889,-0.41487 v -0.85231 h 0.234244 v 0.82127 q 0,0.19473 0.07056,0.29068 0.07338,0.0931 0.245533,0.0931 0.118533,0 0.214489,-0.0593 0.09596,-0.0621 0.211667,-0.19473 v -0.95109 h 0.231422 v 1.3716 h -0.189089 l -0.01976,-0.23989 h -0.01129 q -0.104422,0.12136 -0.2286,0.19756 -0.121355,0.0762 -0.282222,0.0762 z"
         style="font-style:normal;font-variant:normal;font-weight:normal;font-stretch:normal;font-family:'Source Code Pro';-inkscape-font-specification:'Source Code Pro';stroke-width:0.26458332"
         id="path319-8"
         inkscape:connector-curvature="0" />
      <path
         d="m 17.321622,280.02493 q -0.149577,0 -0.251177,-0.0395 -0.1016,-0.0423 -0.163689,-0.11571 -0.06209,-0.0762 -0.09031,-0.18062 -0.0254,-0.10442 -0.0254,-0.23142 v -0.64911 H 16.4044 v -0.17498 l 0.395111,-0.0141 0.03105,-0.44027 h 0.191911 v 0.44027 h 0.674511 v 0.18909 h -0.674511 v 0.65193 q 0,0.0931 0.01693,0.16369 0.01693,0.0677 0.05645,0.11571 0.03951,0.048 0.107244,0.0734 0.06773,0.0226 0.166511,0.0226 0.09878,0 0.1778,-0.0169 0.07902,-0.0169 0.1524,-0.0451 l 0.0508,0.16933 q -0.09313,0.0339 -0.197555,0.0564 -0.1016,0.0254 -0.231423,0.0254 z"
         style="font-style:normal;font-variant:normal;font-weight:normal;font-stretch:normal;font-family:'Source Code Pro';-inkscape-font-specification:'Source Code Pro';stroke-width:0.26458332"
         id="path321-5"
         inkscape:connector-curvature="0" />
    </g>
    <g
       transform="translate(-0.01100624,-36.176589)"
       aria-label="Input"
       style="font-style:normal;font-variant:normal;font-weight:normal;font-stretch:normal;font-size:2.82222223px;line-height:1.25;font-family:'Source Code Pro';-inkscape-font-specification:'Source Code Pro';letter-spacing:0px;word-spacing:0px;fill:#000000;fill-opacity:1;stroke:none;stroke-width:0.26458332"
       id="text4099-6">
      <path
         inkscape:connector-curvature="0"
         d="m 7.8324608,266.67804 v -0.20038 H 8.292483 v -1.45344 H 7.8324608 v -0.19756 h 1.1571111 v 0.19756 H 8.5295497 v 1.45344 h 0.4600222 v 0.20038 z"
         style="stroke-width:0.26458332"
         id="path4109-4" />
      <path
         inkscape:connector-curvature="0"
         d="m 9.5190473,266.67804 v -1.3716 h 0.1919111 l 0.019755,0.23424 h 0.011289 q 0.1072445,-0.11571 0.2314222,-0.19191 0.1241784,-0.0762 0.2850444,-0.0762 0.245534,0 0.358423,0.14111 0.115711,0.13829 0.115711,0.41205 v 0.85231 h -0.231422 v -0.82127 q 0,-0.19473 -0.07338,-0.28786 -0.07338,-0.096 -0.242711,-0.096 -0.06209,0 -0.115711,0.0169 -0.0508,0.0141 -0.1016008,0.0452 -0.0508,0.031 -0.1044222,0.079 -0.053622,0.0452 -0.1128889,0.10725 v 0.95673 z"
         style="stroke-width:0.26458332"
         id="path4111-3" />
      <path
         inkscape:connector-curvature="0"
         d="m 11.211278,267.2566 v -1.95016 h 0.191911 l 0.01976,0.17498 h 0.0085 q 0.09596,-0.0903 0.220133,-0.14958 0.127,-0.0593 0.254,-0.0593 0.138289,0 0.242711,0.0508 0.107244,0.048 0.1778,0.14111 0.07338,0.0903 0.110067,0.22014 0.03669,0.127 0.03669,0.28786 0,0.17498 -0.0508,0.31327 -0.0508,0.13547 -0.138289,0.23142 -0.08467,0.096 -0.197556,0.14676 -0.112889,0.048 -0.237067,0.048 -0.09596,0 -0.208844,-0.0452 -0.110067,-0.048 -0.200378,-0.13264 h -0.0085 l 0.01129,0.25964 v 0.46285 z m 0.598311,-0.73943 q 0.186267,0 0.3048,-0.14393 0.118534,-0.14393 0.118534,-0.40076 0,-0.11288 -0.02258,-0.20602 -0.02258,-0.0931 -0.07056,-0.15804 -0.04516,-0.0677 -0.118533,-0.10442 -0.07338,-0.0367 -0.174978,-0.0367 -0.09031,0 -0.194733,0.0508 -0.1016,0.048 -0.208845,0.15522 v 0.68298 q 0.09878,0.0875 0.197556,0.12417 0.09878,0.0367 0.169333,0.0367 z"
         style="stroke-width:0.26458332"
         id="path4113-4" />
      <path
         inkscape:connector-curvature="0"
         d="m 13.335309,266.71191 q -0.248356,0 -0.364067,-0.13829 -0.112889,-0.14111 -0.112889,-0.41487 v -0.85231 h 0.234245 v 0.82127 q 0,0.19473 0.07055,0.29069 0.07338,0.0931 0.245534,0.0931 0.118533,0 0.214489,-0.0593 0.09596,-0.0621 0.211666,-0.19473 v -0.95109 h 0.231422 v 1.3716 h -0.189088 l -0.01976,-0.23989 h -0.01129 q -0.104422,0.12136 -0.2286,0.19756 -0.121355,0.0762 -0.282222,0.0762 z"
         style="stroke-width:0.26458332"
         id="path4115-7" />
      <path
         inkscape:connector-curvature="0"
         d="m 15.445229,266.71191 q -0.149578,0 -0.251178,-0.0395 -0.1016,-0.0423 -0.163689,-0.11572 -0.06209,-0.0762 -0.09031,-0.18062 -0.0254,-0.10442 -0.0254,-0.23142 v -0.64911 h -0.386644 v -0.17498 l 0.395111,-0.0141 0.03104,-0.44027 h 0.191911 v 0.44027 h 0.674512 v 0.18909 H 15.14607 v 0.65193 q 0,0.0931 0.01693,0.16369 0.01693,0.0677 0.05644,0.11571 0.03951,0.048 0.107245,0.0734 0.06773,0.0226 0.166511,0.0226 0.09878,0 0.1778,-0.0169 0.07902,-0.0169 0.1524,-0.0451 l 0.0508,0.16933 q -0.09313,0.0339 -0.197556,0.0564 -0.1016,0.0254 -0.231422,0.0254 z"
         style="stroke-width:0.26458332"
         id="path4117-5" />
    </g>
    <g
       aria-label="Input"
       style="font-style:normal;font-variant:normal;font-weight:normal;font-stretch:normal;font-size:2.82222223px;line-height:1.25;font-family:'Source Code Pro';-inkscape-font-specification:'Source Code Pro';letter-spacing:0px;word-spacing:0px;fill:#000000;fill-opacity:1;stroke:none;stroke-width:0.26458332"
       id="text374-4-9"
       transform="translate(-0.21671984,-35.487969)">
      <path
         d="m 7.8324608,253.97803 v -0.20038 H 8.292483 v -1.45344 H 7.8324608 v -0.19756 h 1.1571111 v 0.19756 H 8.5295497 v 1.45344 h 0.4600222 v 0.20038 z"
         style="stroke-width:0.26458332"
         id="path4120-3"
         inkscape:connector-curvature="0" />
      <path
         d="m 9.5190473,253.97803 v -1.3716 h 0.1919111 l 0.019755,0.23424 h 0.011289 q 0.1072445,-0.11571 0.2314222,-0.19191 0.1241784,-0.0762 0.2850444,-0.0762 0.245534,0 0.358423,0.14111 0.115711,0.13829 0.115711,0.41205 v 0.85231 h -0.231422 v -0.82127 q 0,-0.19473 -0.07338,-0.28787 -0.07338,-0.0959 -0.242711,-0.0959 -0.06209,0 -0.115711,0.0169 -0.0508,0.0141 -0.1016008,0.0452 -0.0508,0.031 -0.1044222,0.079 -0.053622,0.0452 -0.1128889,0.10724 v 0.95674 z"
         style="stroke-width:0.26458332"
         id="path4122-6"
         inkscape:connector-curvature="0" />
      <path
         d="m 11.211278,254.55658 v -1.95015 h 0.191911 l 0.01976,0.17498 h 0.0085 q 0.09596,-0.0903 0.220133,-0.14958 0.127,-0.0593 0.254,-0.0593 0.138289,0 0.242711,0.0508 0.107244,0.048 0.1778,0.14111 0.07338,0.0903 0.110067,0.22014 0.03669,0.127 0.03669,0.28786 0,0.17498 -0.0508,0.31327 -0.0508,0.13547 -0.138289,0.23142 -0.08467,0.096 -0.197556,0.14676 -0.112889,0.048 -0.237067,0.048 -0.09596,0 -0.208844,-0.0452 -0.110067,-0.048 -0.200378,-0.13265 h -0.0085 l 0.01129,0.25965 v 0.46284 z m 0.598311,-0.73942 q 0.186267,0 0.3048,-0.14393 0.118534,-0.14394 0.118534,-0.40076 0,-0.11289 -0.02258,-0.20602 -0.02258,-0.0931 -0.07056,-0.15804 -0.04516,-0.0677 -0.118533,-0.10443 -0.07338,-0.0367 -0.174978,-0.0367 -0.09031,0 -0.194733,0.0508 -0.1016,0.048 -0.208845,0.15523 v 0.68297 q 0.09878,0.0875 0.197556,0.12418 0.09878,0.0367 0.169333,0.0367 z"
         style="stroke-width:0.26458332"
         id="path4124-5"
         inkscape:connector-curvature="0" />
      <path
         d="m 13.335309,254.01189 q -0.248356,0 -0.364067,-0.13828 -0.112889,-0.14112 -0.112889,-0.41487 v -0.85231 h 0.234245 v 0.82126 q 0,0.19474 0.07055,0.29069 0.07338,0.0931 0.245534,0.0931 0.118533,0 0.214489,-0.0593 0.09596,-0.0621 0.211666,-0.19473 v -0.95109 h 0.231422 v 1.3716 h -0.189088 l -0.01976,-0.23989 h -0.01129 q -0.104422,0.12135 -0.2286,0.19755 -0.121355,0.0762 -0.282222,0.0762 z"
         style="stroke-width:0.26458332"
         id="path4126-1"
         inkscape:connector-curvature="0" />
      <path
         d="m 15.445229,254.01189 q -0.149578,0 -0.251178,-0.0395 -0.1016,-0.0423 -0.163689,-0.11571 -0.06209,-0.0762 -0.09031,-0.18062 -0.0254,-0.10442 -0.0254,-0.23142 v -0.64911 h -0.386644 v -0.17498 l 0.395111,-0.0141 0.03104,-0.44027 h 0.191911 v 0.44027 h 0.674512 v 0.18909 H 15.14607 v 0.65193 q 0,0.0931 0.01693,0.16369 0.01693,0.0677 0.05644,0.11571 0.03951,0.048 0.107245,0.0734 0.06773,0.0226 0.166511,0.0226 0.09878,0 0.1778,-0.0169 0.07902,-0.0169 0.1524,-0.0452 l 0.0508,0.16933 q -0.09313,0.0339 -0.197556,0.0564 -0.1016,0.0254 -0.231422,0.0254 z"
         style="stroke-width:0.26458332"
         id="path4128-8"
         inkscape:connector-curvature="0" />
    </g>
  </g>
</svg>
