<?xml version="1.0" encoding="UTF-8" standalone="no"?>
<!-- Created with Inkscape (http://www.inkscape.org/) -->

<svg
   xmlns:dc="http://purl.org/dc/elements/1.1/"
   xmlns:cc="http://creativecommons.org/ns#"
   xmlns:rdf="http://www.w3.org/1999/02/22-rdf-syntax-ns#"
   xmlns:svg="http://www.w3.org/2000/svg"
   xmlns="http://www.w3.org/2000/svg"
   xmlns:sodipodi="http://sodipodi.sourceforge.net/DTD/sodipodi-0.dtd"
   xmlns:inkscape="http://www.inkscape.org/namespaces/inkscape"
   width="45"
   height="380"
   viewBox="0 0 11.90625 100.54167"
   version="1.1"
   id="svg8"
   inkscape:version="0.92.2 5c3e80d, 2017-08-06"
   sodipodi:docname="ClockDivider.svg"
   inkscape:export-filename="E:\Users\Martin\Documents\Rack_Source\rack\plugins\ML_modules\res\TrigBuf.png"
   inkscape:export-xdpi="96"
   inkscape:export-ydpi="96">
  <defs
     id="defs2">
    <inkscape:perspective
       sodipodi:type="inkscape:persp3d"
       inkscape:vp_x="0 : 50.270835 : 1"
       inkscape:vp_y="0 : 1000 : 0"
       inkscape:vp_z="31.75 : 50.270835 : 1"
       inkscape:persp3d-origin="15.875 : 33.51389 : 1"
       id="perspective4742" />
  </defs>
  <sodipodi:namedview
     id="base"
     pagecolor="#ffffff"
     bordercolor="#666666"
     borderopacity="1.0"
     inkscape:pageopacity="0.0"
     inkscape:pageshadow="2"
     inkscape:zoom="2"
     inkscape:cx="-22.053401"
     inkscape:cy="188.1026"
     inkscape:document-units="px"
     inkscape:current-layer="layer1"
     showgrid="true"
     units="px"
     fit-margin-top="0"
     fit-margin-left="0"
     fit-margin-right="0"
     fit-margin-bottom="0"
     showguides="false"
     inkscape:snap-to-guides="false"
     objecttolerance="5"
     inkscape:window-width="1066"
     inkscape:window-height="1006"
     inkscape:window-x="580"
     inkscape:window-y="29"
     inkscape:window-maximized="0"
     gridtolerance="5"
     inkscape:snap-perpendicular="false"
     inkscape:pagecheckerboard="true"
     inkscape:snap-page="true"
     inkscape:snap-text-baseline="true"
     showborder="true"
     inkscape:snap-nodes="false"
     guidetolerance="5">
    <inkscape:grid
       type="xygrid"
       id="grid43"
       originx="0"
       originy="100.54167"
       spacingx="1"
       spacingy="1"
       dotted="false"
       empspacing="5"
       units="cm" />
  </sodipodi:namedview>
  <metadata
     id="metadata5">
    <rdf:RDF>
      <cc:Work
         rdf:about="">
        <dc:format>image/svg+xml</dc:format>
        <dc:type
           rdf:resource="http://purl.org/dc/dcmitype/StillImage" />
        <dc:title></dc:title>
      </cc:Work>
    </rdf:RDF>
  </metadata>
  <g
     inkscape:groupmode="layer"
     id="layer2"
     inkscape:label="Layer 2"
     transform="translate(0.26458305,6.2806193e-6)">
    <g
       aria-label="M"
       style="font-style:normal;font-variant:normal;font-weight:bold;font-stretch:normal;font-size:19.75555611px;line-height:1.25;font-family:Arial;-inkscape-font-specification:'Arial, Bold';font-variant-ligatures:normal;font-variant-caps:normal;font-variant-numeric:normal;font-feature-settings:normal;text-align:start;letter-spacing:0px;word-spacing:0px;writing-mode:lr-tb;text-anchor:start;fill:#000000;fill-opacity:1;stroke:none;stroke-width:0.26458335"
       id="text4720" />
  </g>
  <g
     inkscape:label="Layer 1"
     inkscape:groupmode="layer"
     id="layer1"
     transform="translate(0.26458305,-196.45831)">
    <rect
       style="fill:#f0f0f0;fill-opacity:1;stroke-width:0.18708867"
       id="rect4689"
       width="11.90625"
       height="100.54166"
       x="-0.26458284"
       y="196.45831" />
    <g
       transform="translate(16.721667,-0.31751099)"
       aria-label="SK"
       style="font-style:normal;font-variant:normal;font-weight:normal;font-stretch:normal;font-size:4.93888855px;line-height:1.25;font-family:Chalkboard;-inkscape-font-specification:Chalkboard;letter-spacing:0px;word-spacing:0px;fill:#000000;fill-opacity:1;stroke:none;stroke-width:0.26458332"
       id="text5546">
      <path
         inkscape:connector-curvature="0"
         d="m -13.582641,292.25599 q -0.03274,-0.0764 -0.03274,-0.14189 0,-0.0928 0.05457,-0.14735 0.06003,-0.06 0.147348,-0.06 0.08732,0 0.169177,0.06 0.09277,0.10915 0.212837,0.18555 0.125518,0.0709 0.261952,0.1146 0.14189,0.0382 0.283781,0.0546 0.147348,0.0164 0.283782,0.0164 0.09277,-0.0328 0.125518,-0.0382 0.0382,-0.0109 0.06003,-0.0218 0.02183,-0.0109 0.04912,-0.0328 0.02729,-0.0218 0.103689,-0.0764 0.02729,-0.0382 0.04912,-0.0709 0.02183,-0.0328 0.04912,-0.071 l 0.04912,-0.14735 q 0,-0.0382 0,-0.0709 0,-0.0382 -0.0055,-0.0819 -0.01091,-0.0382 -0.02729,-0.0709 -0.01637,-0.0382 -0.03274,-0.0764 -0.03274,-0.0382 -0.06549,-0.0709 -0.02729,-0.0327 -0.06003,-0.0709 -0.04912,-0.0273 -0.09823,-0.06 -0.04912,-0.0328 -0.109147,-0.0491 -0.223751,-0.0764 -0.414758,-0.10369 -0.185549,-0.0327 -0.354726,-0.0764 -0.16372,-0.0491 -0.311068,-0.14735 -0.147349,-0.0982 -0.289239,-0.31652 -0.02729,-0.0437 -0.03274,-0.0655 -0.0055,-0.0218 -0.01091,-0.0764 -0.0055,-0.0437 -0.01092,-0.0819 0,-0.0437 0,-0.0819 0,-0.0982 0.01637,-0.17463 0.02183,-0.0764 0.06003,-0.14735 0.0382,-0.0709 0.09823,-0.14189 0.06003,-0.0764 0.141891,-0.16372 0.09277,-0.0982 0.212836,-0.15826 0.120061,-0.0655 0.251037,-0.0982 0.130976,-0.0382 0.26741,-0.0491 0.14189,-0.0164 0.272867,-0.0164 0.04366,0 0.0764,0 0.0382,0 0.0764,0.005 0.125519,0.0109 0.234665,0.06 0.114604,0.0491 0.234666,0.0819 0.125518,0.0873 0.125518,0.21283 0,0.0819 -0.06549,0.14735 -0.06003,0.06 -0.174634,0.06 -0.01092,0 -0.02729,0 -0.01092,-0.005 -0.02183,-0.005 -0.174635,-0.0546 -0.311068,-0.0819 -0.130976,-0.0327 -0.256495,-0.0327 -0.130976,0 -0.26741,0.0437 -0.136433,0.0437 -0.316525,0.14735 -0.03274,0.0437 -0.06549,0.0819 -0.03274,0.0327 -0.06549,0.0709 -0.01637,0.0328 -0.03274,0.0655 -0.01092,0.0327 -0.02183,0.0655 0,0.0327 0,0.0655 0.0055,0.0327 0.01091,0.06 0.02183,0.0273 0.0382,0.0546 0.01637,0.0273 0.0382,0.0546 l 0.229208,0.13098 q 0.16372,0.0382 0.305611,0.0655 0.14189,0.0273 0.272867,0.0655 0.130976,0.0327 0.256494,0.0819 0.130976,0.0491 0.278324,0.13097 0.0764,0.0437 0.130976,0.11461 0.05457,0.0655 0.10369,0.12551 0.08732,0.10369 0.125519,0.23467 0.04366,0.13098 0.04366,0.27287 0,0.19646 -0.0764,0.38201 -0.0764,0.18555 -0.218294,0.30561 -0.04912,0.0437 -0.103689,0.0819 -0.04912,0.0328 -0.09823,0.0655 -0.114604,0.0764 -0.256495,0.1146 -0.141891,0.0382 -0.300153,0.0382 -0.180093,0 -0.365642,-0.0437 -0.180092,-0.0382 -0.349269,-0.10915 -0.169178,-0.0764 -0.311069,-0.17464 -0.14189,-0.0982 -0.240122,-0.21283 z"
         style="stroke-width:0.26458332"
         id="path5567" />
      <path
         inkscape:connector-curvature="0"
         d="m -10.351675,292.45245 q -0.0055,0.12552 -0.0764,0.19101 -0.06549,0.06 -0.147348,0.06 -0.0764,0 -0.147348,-0.06 -0.07095,-0.06 -0.08732,-0.18009 0.0055,-0.70946 0.0055,-1.408 0,-0.69853 -0.0055,-1.4571 0.02729,-0.10915 0.08732,-0.16372 0.06003,-0.0546 0.136434,-0.0546 0.07095,0 0.130976,0.0491 0.06549,0.0491 0.09277,0.1528 0,0.31107 -0.0055,0.59485 0,0.28379 0,0.60031 0.240123,-0.10369 0.4093003,-0.23466 0.1746347,-0.13098 0.3219828,-0.28924 0.147348,-0.16372 0.2946961,-0.35473 0.147348,-0.19646 0.3383548,-0.42022 0.087317,-0.0709 0.180092,-0.0709 0.087317,0 0.1473481,0.06 0.060031,0.06 0.060031,0.15281 0,0.0491 -0.027287,0.12006 -0.1637201,0.191 -0.2946961,0.36018 -0.1309761,0.16372 -0.2564948,0.31107 -0.1255187,0.14735 -0.2564947,0.27832 -0.1255188,0.12552 -0.2783241,0.23467 0.3219827,0.34381 0.6385082,0.68217 0.3165255,0.33289 0.6330509,0.67671 0.060031,0.0764 0.060031,0.16917 0,0.0928 -0.060031,0.15281 -0.060031,0.0546 -0.147348,0.0546 -0.043659,0 -0.098232,-0.0164 -0.049116,-0.0218 -0.092775,-0.0709 -0.038201,-0.0437 -0.1418907,-0.1528 -0.1036894,-0.10915 -0.2401228,-0.25104 -0.130976,-0.14735 -0.2837814,-0.30561 -0.1473481,-0.16372 -0.2837814,-0.30561 -0.1309761,-0.14735 -0.2346655,-0.2565 -0.1036887,-0.10914 -0.1418907,-0.1528 -0.103689,0.0491 -0.251037,0.10369 0,0.31652 0.0055,0.60576 0.0055,0.28378 0.01637,0.59485 z"
         style="stroke-width:0.26458332"
         id="path5569" />
    </g>
    <rect
       style="fill:#91b06f;fill-opacity:1;stroke-width:0.26458332"
       id="rect5565"
       width="8.4666662"
       height="6.7733335"
       x="1.4816663"
       y="205.24248" />
    <ellipse
       style="fill:#5373cd;fill-opacity:1;stroke-width:0.33530772"
       id="path6573"
       cx="5.9805241"
       cy="219.00238"
       rx="5.8208342"
       ry="3.505728" />
    <ellipse
       style="fill:#bd7370;fill-opacity:1;stroke-width:0.34157568"
       id="path6573-1"
       cx="5.8176556"
       cy="227.948"
       rx="5.8208342"
       ry="3.63802"
       inkscape:transform-center-x="0.13229167"
       inkscape:transform-center-y="-1.9521075" />
    <ellipse
       style="fill:#4d9270;fill-opacity:1;stroke-width:0.33212936"
       id="path6573-2"
       cx="5.809485"
       cy="236.67914"
       rx="5.8208342"
       ry="3.4395823" />
    <flowRoot
       xml:space="preserve"
       id="flowRoot6610"
       style="fill:black;fill-opacity:1;stroke:none;font-family:'Source Code Pro';font-style:normal;font-weight:normal;font-size:5.33333333px;line-height:1.25;letter-spacing:0px;word-spacing:0px;-inkscape-font-specification:'Source Code Pro';font-stretch:normal;font-variant:normal"><flowRegion
         id="flowRegion6612"><rect
           id="rect6614"
           width="66.5"
           height="34"
           x="-63.75"
           y="133.75" /></flowRegion><flowPara
         id="flowPara6616"></flowPara></flowRoot>    <ellipse
       style="fill:#bd7370;fill-opacity:1;stroke-width:0.33530772"
       id="path6573-8"
       cx="6.0079226"
       cy="245.33278"
       rx="5.8208342"
       ry="3.5057282"
       inkscape:transform-center-x="0.13229167"
       inkscape:transform-center-y="-2.7781251" />
    <ellipse
       style="fill:#5373cd;fill-opacity:1;stroke-width:0.33530772"
       id="path6573-9"
       cx="6.0740695"
       cy="254.44945"
       rx="5.8208342"
       ry="3.5057282" />
    <ellipse
       style="fill:#4d9270;fill-opacity:1;stroke-width:0.33845618"
       id="path6573-6"
       cx="5.9531255"
       cy="263.89685"
       rx="5.8208342"
       ry="3.5718739" />
    <ellipse
       style="fill:#5373cd;fill-opacity:1;stroke-width:0.3289203"
       id="path6573-80"
       cx="5.9531255"
       cy="273.60886"
       rx="5.8208342"
       ry="3.3734367" />
    <ellipse
       style="fill:#bd7370;fill-opacity:1;stroke-width:0.33530769"
       id="path6573-7"
       cx="5.949069"
       cy="282.72552"
       rx="5.8208342"
       ry="3.5057282" />
    <g
       aria-label="Clock In"
       style="font-style:normal;font-variant:normal;font-weight:normal;font-stretch:normal;font-size:1.41111124px;line-height:1.25;font-family:'Source Code Pro';-inkscape-font-specification:'Source Code Pro';letter-spacing:0px;word-spacing:0px;fill:#000000;fill-opacity:1;stroke:none;stroke-width:0.26458335"
       id="text6670">
      <path
         d="m 2.7442589,213.47525 q -0.086078,0 -0.1594556,-0.0325 -0.073378,-0.0325 -0.1284111,-0.0931 -0.053622,-0.0621 -0.084667,-0.15099 -0.031044,-0.0903 -0.031044,-0.2032 0,-0.11148 0.031044,-0.20038 0.031044,-0.0889 0.086078,-0.15099 0.055033,-0.0621 0.1312333,-0.0945 0.0762,-0.0339 0.1665112,-0.0339 0.083255,0 0.1467555,0.0339 0.064911,0.0339 0.1058334,0.079 l -0.066322,0.0748 q -0.036689,-0.0381 -0.081844,-0.0607 -0.045156,-0.024 -0.1044222,-0.024 -0.066322,0 -0.1213556,0.0268 -0.053622,0.0254 -0.091722,0.0748 -0.0381,0.048 -0.059267,0.11712 -0.021167,0.0691 -0.021167,0.15523 0,0.0875 0.021167,0.15804 0.021167,0.0692 0.059267,0.11853 0.0381,0.0494 0.091722,0.0762 0.055033,0.0268 0.1213556,0.0268 0.0635,0 0.1128889,-0.0268 0.0508,-0.0268 0.095955,-0.0762 l 0.066322,0.072 q -0.055033,0.0635 -0.1241778,0.0988 -0.069145,0.0353 -0.1622778,0.0353 z"
         style="stroke-width:0.26458335"
         id="path7273" />
      <path
         d="m 3.6693966,213.47525 q -0.1100666,0 -0.1679222,-0.0621 -0.057856,-0.0621 -0.057856,-0.18486 v -0.68015 H 3.1994966 v -0.0945 H 3.55933 v 0.78317 q 0,0.0762 0.036689,0.11007 0.036689,0.0325 0.098778,0.0325 0.060678,0 0.1284112,-0.031 l 0.029633,0.0861 q -0.047978,0.0198 -0.087489,0.0296 -0.039511,0.0113 -0.095956,0.0113 z"
         style="stroke-width:0.26458335"
         id="path7275" />
      <path
         d="m 4.3645233,213.47525 q -0.067733,0 -0.1298223,-0.024 -0.060678,-0.024 -0.1072444,-0.0691 -0.046567,-0.0466 -0.074789,-0.11289 -0.026811,-0.0677 -0.026811,-0.1524 0,-0.0861 0.026811,-0.1524 0.028222,-0.0677 0.074789,-0.1143 0.046567,-0.0466 0.1072444,-0.0705 0.062089,-0.024 0.1298223,-0.024 0.067733,0 0.1284111,0.024 0.062089,0.024 0.1086555,0.0705 0.046567,0.0466 0.073378,0.1143 0.028222,0.0663 0.028222,0.1524 0,0.0847 -0.028222,0.1524 -0.026811,0.0663 -0.073378,0.11289 -0.046567,0.0452 -0.1086555,0.0691 -0.060678,0.024 -0.1284111,0.024 z m 0,-0.096 q 0.049389,0 0.0889,-0.0183 0.040922,-0.0198 0.069144,-0.0536 0.029633,-0.0353 0.045156,-0.0832 0.015522,-0.048 0.015522,-0.10725 0,-0.0593 -0.015522,-0.10724 -0.015522,-0.0494 -0.045156,-0.0847 -0.028222,-0.0353 -0.069144,-0.0536 -0.039511,-0.0197 -0.0889,-0.0197 -0.049389,0 -0.090311,0.0197 -0.039511,0.0184 -0.069144,0.0536 -0.028222,0.0353 -0.043744,0.0847 -0.015522,0.048 -0.015522,0.10724 0,0.0593 0.015522,0.10725 0.015522,0.048 0.043744,0.0832 0.029633,0.0339 0.069144,0.0536 0.040922,0.0183 0.090311,0.0183 z"
         style="stroke-width:0.26458335"
         id="path7277" />
      <path
         d="m 5.2755498,213.47525 q -0.080433,0 -0.1495777,-0.024 -0.067733,-0.024 -0.1185334,-0.0691 -0.0508,-0.0466 -0.079022,-0.11289 -0.028222,-0.0677 -0.028222,-0.1524 0,-0.0861 0.029633,-0.1524 0.031044,-0.0677 0.083256,-0.1143 0.052211,-0.0466 0.1213555,-0.0705 0.070556,-0.024 0.1481667,-0.024 0.084667,0 0.1453445,0.0296 0.062089,0.0296 0.1044222,0.0706 l -0.057856,0.0748 q -0.042333,-0.0367 -0.0889,-0.0579 -0.045155,-0.0212 -0.098778,-0.0212 -0.059267,0 -0.1086555,0.0197 -0.049389,0.0184 -0.084667,0.0536 -0.033867,0.0353 -0.053622,0.0847 -0.019756,0.048 -0.019756,0.10724 0,0.0593 0.018344,0.10725 0.019756,0.048 0.053622,0.0832 0.035278,0.0339 0.083255,0.0536 0.049389,0.0183 0.1086556,0.0183 0.0635,0 0.1157111,-0.024 0.053622,-0.0254 0.095956,-0.0621 l 0.052211,0.0748 q -0.057856,0.0508 -0.127,0.079 -0.069144,0.0282 -0.1453445,0.0282 z"
         style="stroke-width:0.26458335"
         id="path7279" />
      <path
         d="m 5.7829987,213.45831 v -1.00471 h 0.1157112 v 0.68016 h 0.00564 l 0.3697111,-0.36125 h 0.1326445 l -0.2737556,0.26953 0.3104445,0.41627 H 6.3135766 l -0.252589,-0.34572 -0.1622777,0.15946 v 0.18626 z"
         style="stroke-width:0.26458335"
         id="path7281" />
      <path
         d="m 7.4597075,213.45831 v -0.10019 H 7.6897186 V 212.6314 H 7.4597075 v -0.0988 h 0.5785556 v 0.0988 H 7.8082519 v 0.72672 h 0.2300112 v 0.10019 z"
         style="stroke-width:0.26458335"
         id="path7283" />
      <path
         d="m 8.3030008,213.45831 v -0.6858 h 0.095956 l 0.00988,0.11713 h 0.00564 q 0.053622,-0.0579 0.1157111,-0.096 0.062089,-0.0381 0.1425223,-0.0381 0.1227666,0 0.1792111,0.0706 0.057855,0.0691 0.057855,0.20602 v 0.42615 H 8.7940675 v -0.41063 q 0,-0.0974 -0.036689,-0.14393 -0.036689,-0.048 -0.1213555,-0.048 -0.031044,0 -0.057856,0.008 -0.0254,0.007 -0.0508,0.0226 -0.0254,0.0155 -0.052211,0.0395 -0.026811,0.0226 -0.056444,0.0536 v 0.47836 z"
         style="stroke-width:0.26458335"
         id="path7285" />
    </g>
    <text
       xml:space="preserve"
       style="font-style:normal;font-variant:normal;font-weight:normal;font-stretch:normal;font-size:3.88055563px;line-height:1.25;font-family:Chalkboard;-inkscape-font-specification:Chalkboard;letter-spacing:0px;word-spacing:0px;fill:#000000;fill-opacity:1;stroke:none;stroke-width:0.26458335"
       x="-25.4"
       y="210.48123"
       id="text7223"><tspan
         sodipodi:role="line"
         id="tspan7221"
         x="-25.4"
         y="210.48123"
         style="stroke-width:0.26458335">    </tspan></text>
    <g
       aria-label="Clock"
       style="font-style:normal;font-variant:normal;font-weight:normal;font-stretch:normal;font-size:3.88055563px;line-height:1.25;font-family:Chalkboard;-inkscape-font-specification:Chalkboard;letter-spacing:0px;word-spacing:0px;fill:#000000;fill-opacity:1;stroke:none;stroke-width:0.26458335"
       id="text7227">
      <path
         d="m 3.2002887,200.88646 q 0.056133,-0.0456 0.1157735,-0.0456 0.056133,0 0.094724,0.0386 0.038591,0.0386 0.038591,0.0982 0,0.0316 -0.017541,0.0772 -0.059641,0.0912 -0.1333149,0.17892 -0.070166,0.0842 -0.1578729,0.15086 -0.087707,0.0632 -0.1929558,0.10174 -0.1017404,0.0421 -0.2280387,0.0421 -0.1894475,0 -0.3473204,-0.0772 -0.1543647,-0.0772 -0.2701382,-0.2105 -0.1122652,-0.13332 -0.1754143,-0.31224 -0.059641,-0.18243 -0.059641,-0.38942 0,-0.14735 0.038591,-0.27364 0.052624,-0.1684 0.12279,-0.2947 0.070166,-0.1263 0.1648895,-0.22102 0.098232,-0.0982 0.2210221,-0.17191 0.1262983,-0.0772 0.2876796,-0.14384 0.1052486,-0.0456 0.1929558,-0.0702 0.091215,-0.0246 0.171906,-0.0246 0.1227901,0 0.2210221,0.0702 0.098232,0.0702 0.1859393,0.23857 0.010525,0.0316 0.010525,0.0631 0,0.0632 -0.038591,0.10174 -0.038591,0.0386 -0.094724,0.0386 -0.066658,0 -0.1227901,-0.0561 -0.049116,-0.0947 -0.087707,-0.13331 -0.038591,-0.0386 -0.087707,-0.0386 -0.038591,0 -0.091216,0.0211 -0.052624,0.0175 -0.1333149,0.0456 -0.1333149,0.0526 -0.256105,0.1298 -0.12279,0.0737 -0.2175138,0.18243 -0.091215,0.10525 -0.147348,0.24558 -0.052624,0.14034 -0.052624,0.31926 0,0.1263 0.038591,0.24909 0.038591,0.11928 0.1087569,0.21751 0.073674,0.0947 0.1789227,0.15436 0.1052486,0.0561 0.2420718,0.0561 0.080691,0 0.1508563,-0.0316 0.070166,-0.0316 0.1298067,-0.0842 0.059641,-0.0526 0.1087569,-0.11577 0.049116,-0.0631 0.087707,-0.1263 z"
         style="font-size:3.17499995px;stroke-width:0.26458335"
         id="path7303" />
      <path
         d="m 4.1730436,201.28992 q 0.063149,0.0456 0.073674,0.10524 0.010525,0.0561 -0.017541,0.0982 -0.024558,0.0421 -0.080691,0.0596 -0.052624,0.0175 -0.12279,-0.0175 -0.031575,-0.0211 -0.063149,-0.0421 -0.031575,-0.0211 -0.066657,-0.0421 -0.031575,-0.0281 -0.042099,-0.0526 -0.010525,-0.0246 -0.017541,-0.0702 v -1.9471 q 0.014033,-0.0667 0.052624,-0.10174 0.042099,-0.0351 0.084199,-0.0351 0.045608,-0.004 0.087707,0.0281 0.042099,0.0316 0.063149,0.0982 v 1.88746 q 0.010525,0.007 0.02105,0.0175 0.014033,0.007 0.028066,0.014 z"
         style="font-size:3.17499995px;stroke-width:0.26458335"
         id="path7305" />
      <path
         d="m 4.5514315,200.59878 q 0.038591,-0.11226 0.094724,-0.21751 0.056133,-0.10876 0.1333149,-0.19647 0.077182,-0.0877 0.1754144,-0.15085 0.1017403,-0.0632 0.2245303,-0.0912 0.2034807,-0.0456 0.354337,0.0316 0.1543647,0.0772 0.2455802,0.22102 0.091215,0.14384 0.1192817,0.32978 0.031575,0.18243 -0.014033,0.35083 -0.052624,0.20699 -0.1859393,0.38591 -0.1333149,0.17892 -0.3367955,0.25961 -0.1508564,0.0596 -0.2911879,0.0421 -0.1368232,-0.014 -0.2490884,-0.0877 -0.1087569,-0.0737 -0.1859392,-0.19295 -0.077182,-0.11928 -0.1052486,-0.27014 -0.017541,-0.0947 -0.014033,-0.18594 0.00702,-0.0912 0.024558,-0.18243 z m 0.2736464,0.0807 q -0.014033,0.0737 -0.02105,0.13683 -0.00351,0.0596 0.00702,0.13682 0.010525,0.0947 0.059641,0.17191 0.049116,0.0737 0.1192817,0.11577 0.070166,0.0386 0.1543647,0.0386 0.087707,-0.004 0.1754143,-0.0561 0.1157735,-0.0702 0.182431,-0.18243 0.070166,-0.11227 0.1052486,-0.24208 0.028066,-0.10524 0.010525,-0.22453 -0.014033,-0.11928 -0.070166,-0.21049 -0.056133,-0.0912 -0.1508564,-0.12981 -0.094724,-0.0421 -0.2245303,0.0105 -0.1403315,0.0596 -0.2210221,0.17892 -0.080691,0.11928 -0.1262984,0.2561 z"
         style="font-size:3.17499995px;stroke-width:0.26458335"
         id="path7307" />
      <path
         d="m 7.1196214,201.07942 q 0.059641,-0.0491 0.1157735,-0.0456 0.059641,0.004 0.094724,0.0386 0.035083,0.0351 0.038591,0.0947 0.00351,0.0561 -0.045608,0.11577 -0.1157735,0.1263 -0.2736464,0.17892 -0.1543647,0.0526 -0.3087293,0.0281 -0.1508563,-0.0211 -0.280663,-0.11928 -0.1298066,-0.0982 -0.1929558,-0.26663 -0.038591,-0.0947 -0.056133,-0.19998 -0.017541,-0.10525 -0.010525,-0.20699 0.010525,-0.16839 0.077182,-0.33679 0.070166,-0.17191 0.1859392,-0.29821 0.1192818,-0.12629 0.2771547,-0.18243 0.1613812,-0.0596 0.3508287,0 0.094724,0.0316 0.1719061,0.0772 0.077182,0.0456 0.1473481,0.11577 0.038591,0.0561 0.038591,0.10876 0,0.0526 -0.031575,0.0877 -0.028066,0.0316 -0.080691,0.0421 -0.049116,0.0105 -0.1122652,-0.0211 -0.1157734,-0.11577 -0.2245303,-0.13682 -0.1087569,-0.0246 -0.2034807,0.0175 -0.091216,0.0421 -0.1648895,0.13682 -0.070166,0.0912 -0.1087569,0.2105 -0.038591,0.11578 -0.038591,0.24558 0,0.1263 0.049116,0.23506 0.042099,0.0982 0.1122652,0.15085 0.073674,0.0526 0.1543646,0.0632 0.080691,0.007 0.1648895,-0.0246 0.087707,-0.0351 0.1543646,-0.10875 z"
         style="font-size:3.17499995px;stroke-width:0.26458335"
         id="path7309" />
      <path
         d="m 8.043315,201.33201 q -0.00351,0.0772 -0.045608,0.11929 -0.042099,0.0386 -0.094724,0.0386 -0.049116,0.004 -0.094724,-0.0316 -0.042099,-0.0386 -0.052624,-0.11577 v -1.99972 q 0.014033,-0.0667 0.052624,-0.10174 0.042099,-0.0351 0.084199,-0.0351 0.045608,-0.004 0.087707,0.0281 0.0421,0.0316 0.063149,0.0982 v 1.02793 q 0.091216,-0.0526 0.1613812,-0.10876 0.073674,-0.0561 0.1438398,-0.12279 0.070166,-0.0667 0.1403315,-0.14384 0.073674,-0.0807 0.1578729,-0.17541 0.059641,-0.0491 0.1157735,-0.0456 0.059641,0.004 0.094724,0.0386 0.035083,0.0351 0.038591,0.0947 0.00351,0.0561 -0.045608,0.11577 -0.1333149,0.15436 -0.2455801,0.27014 -0.1122652,0.11226 -0.2385636,0.20348 0.1789227,0.19997 0.3367956,0.37889 0.1613812,0.17542 0.3403039,0.37539 0.045608,0.0631 0.035083,0.12279 -0.00702,0.0561 -0.045608,0.0912 -0.035083,0.0316 -0.094724,0.0281 -0.056133,0 -0.1122652,-0.0561 -0.1859393,-0.20699 -0.3508288,-0.39293 -0.1648895,-0.18594 -0.3508287,-0.38942 -0.02105,0.0105 -0.042099,0.0211 -0.017542,0.0105 -0.038591,0.0211 v 0.64552 z"
         style="font-size:3.17499995px;stroke-width:0.26458335"
         id="path7311" />
    </g>
    <g
       aria-label="Divider"
       style="font-style:normal;font-variant:normal;font-weight:normal;font-stretch:normal;font-size:3.88055563px;line-height:1.25;font-family:Chalkboard;-inkscape-font-specification:Chalkboard;letter-spacing:0px;word-spacing:0px;fill:#000000;fill-opacity:1;stroke:none;stroke-width:0.26458335"
       id="text7231">
      <path
         d="m 1.2498276,203.9333 q -0.052624,-0.007 -0.087707,-0.0316 -0.035083,-0.0211 -0.052624,-0.0526 l -0.010525,-0.0211 q -0.00702,-0.0175 -0.014033,-0.0351 -0.00702,-0.0211 -0.00702,-0.0386 v -1.57522 q -0.031575,0.0105 -0.052624,0.0211 -0.017541,0.007 -0.0526243,0.007 -0.0666575,0 -0.10875691,-0.0386 -0.0385912,-0.0386 -0.0385912,-0.0912 0,-0.0772 0.0877072,-0.13331 0.0912154,-0.0561 0.21400555,-0.0912 0.12279,-0.0386 0.2561049,-0.0561 0.1368232,-0.0175 0.2245304,-0.0175 0.256105,0 0.4560774,0.0842 0.1999723,0.0842 0.3367955,0.22803 0.1368232,0.14034 0.206989,0.32978 0.073674,0.18945 0.073674,0.39644 0,0.2105 -0.077182,0.41398 -0.077182,0.19997 -0.2350552,0.35083 -0.1087569,0.10525 -0.2455801,0.16839 -0.133315,0.0597 -0.280663,0.0982 -0.1473481,0.0351 -0.2982044,0.0526 -0.1508564,0.0175 -0.2946962,0.0316 z m 0.354337,-1.86641 q -0.059641,0 -0.1192817,0.007 -0.059641,0.007 -0.1192818,0.0175 v 1.54365 q 0.1017403,-0.0105 0.2140055,-0.0246 0.1157735,-0.014 0.2245304,-0.0421 0.1087569,-0.0281 0.2034807,-0.0737 0.094724,-0.0456 0.1578729,-0.11577 0.1122652,-0.12279 0.1683978,-0.27716 0.059641,-0.15436 0.059641,-0.31574 0,-0.14034 -0.052624,-0.27014 -0.049116,-0.12981 -0.1508564,-0.22804 -0.098232,-0.10174 -0.2455801,-0.16138 -0.1473481,-0.0596 -0.3403039,-0.0596 z"
         style="font-size:3.17499995px;stroke-width:0.26458335"
         id="path7288" />
      <path
         d="m 3.3415753,203.75437 q -0.00351,0.0807 -0.049116,0.11928 -0.042099,0.0421 -0.094724,0.0421 -0.049116,0 -0.091215,-0.0386 -0.042099,-0.0351 -0.052624,-0.11226 -0.00351,-0.32978 -0.00702,-0.67359 0,-0.34382 -0.00351,-0.67359 0.017542,-0.0702 0.056133,-0.10525 0.038591,-0.0351 0.087707,-0.0351 0.045608,0 0.084199,0.0316 0.042099,0.0316 0.059641,0.0982 0.00351,0.32978 0.00351,0.67359 0.00351,0.34381 0.00702,0.67359 z m -0.3227625,-1.90851 q 0,-0.0772 0.049116,-0.1298 0.049116,-0.0561 0.1192817,-0.0561 0.070166,0 0.1192818,0.0561 0.052624,0.0526 0.052624,0.1298 0,0.0737 -0.052624,0.12981 -0.049116,0.0526 -0.1192818,0.0526 -0.070166,0 -0.1192817,-0.0526 -0.049116,-0.0561 -0.049116,-0.12981 z"
         style="font-size:3.17499995px;stroke-width:0.26458335"
         id="path7290" />
      <path
         d="m 4.7199861,202.39667 q 0.035083,-0.0597 0.080691,-0.0772 0.049116,-0.0211 0.091215,-0.007 0.045608,0.0105 0.073674,0.0561 0.031575,0.0421 0.028066,0.10876 -0.049116,0.18944 -0.1157735,0.37187 -0.063149,0.17893 -0.1262983,0.36136 -0.059641,0.1684 -0.1192818,0.33329 -0.056133,0.16138 -0.1262983,0.32276 -0.063149,0.0772 -0.1403315,0.0667 -0.077182,-0.0105 -0.1192818,-0.0982 -0.1262983,-0.33328 -0.2596133,-0.65955 -0.1298066,-0.32628 -0.2911878,-0.64202 -0.035083,-0.0702 -0.017541,-0.12279 0.017541,-0.0561 0.059641,-0.0807 0.042099,-0.0281 0.098232,-0.0175 0.059641,0.0105 0.1052486,0.0737 0.1227901,0.24558 0.231547,0.49818 0.1087569,0.25259 0.2104972,0.51221 0.024558,-0.0667 0.045608,-0.13332 0.024558,-0.0666 0.049116,-0.13331 0.063149,-0.18243 0.1262983,-0.36136 0.063149,-0.18243 0.1157735,-0.37187 z"
         style="font-size:3.17499995px;stroke-width:0.26458335"
         id="path7292" />
      <path
         d="m 5.6236066,203.75437 q -0.00351,0.0807 -0.049116,0.11928 -0.042099,0.0421 -0.094724,0.0421 -0.049116,0 -0.091216,-0.0386 -0.042099,-0.0351 -0.052624,-0.11226 -0.00351,-0.32978 -0.00702,-0.67359 0,-0.34382 -0.00351,-0.67359 0.017542,-0.0702 0.056133,-0.10525 0.038591,-0.0351 0.087707,-0.0351 0.045608,0 0.084199,0.0316 0.042099,0.0316 0.059641,0.0982 0.00351,0.32978 0.00351,0.67359 0.00351,0.34381 0.00702,0.67359 z m -0.3227625,-1.90851 q 0,-0.0772 0.049116,-0.1298 0.049116,-0.0561 0.1192817,-0.0561 0.070166,0 0.1192818,0.0561 0.052624,0.0526 0.052624,0.1298 0,0.0737 -0.052624,0.12981 -0.049116,0.0526 -0.1192818,0.0526 -0.070166,0 -0.1192817,-0.0526 -0.049116,-0.0561 -0.049116,-0.12981 z"
         style="font-size:3.17499995px;stroke-width:0.26458335"
         id="path7294" />
      <path
         d="m 7.4376241,203.61755 q 0.045608,0.0632 0.035083,0.12279 -0.00702,0.0561 -0.045608,0.0912 -0.035083,0.0316 -0.094724,0.0316 -0.056133,-0.004 -0.1122652,-0.0596 -0.017541,-0.0175 -0.031575,-0.0351 -0.014033,-0.0211 -0.02105,-0.0386 -0.1052486,0.0912 -0.2455801,0.14034 -0.1368232,0.0526 -0.280663,0.0526 -0.1403315,0 -0.2701381,-0.0561 -0.1298066,-0.0596 -0.2175138,-0.18243 -0.066657,-0.0947 -0.098232,-0.2105 -0.028066,-0.11928 -0.028066,-0.23856 0,-0.12279 0.028066,-0.23857 0.031575,-0.11928 0.077182,-0.22102 0.042099,-0.0912 0.1192818,-0.16489 0.080691,-0.0737 0.1683977,-0.11928 0.080691,-0.0456 0.1789227,-0.0737 0.1017403,-0.0316 0.1929558,-0.0351 0.084199,0 0.1683978,0.004 0.084199,0.004 0.1648895,0.0281 -0.00351,-0.2526 -0.00702,-0.42451 0,-0.17541 0,-0.23505 0.014033,-0.0667 0.052624,-0.10174 0.042099,-0.0351 0.084199,-0.0351 0.045608,-0.004 0.087707,0.0281 0.042099,0.0316 0.063149,0.0982 v 1.83484 q 0.00702,0.0105 0.014033,0.0211 0.010525,0.007 0.017541,0.0175 z m -0.3087292,-0.2526 v -0.0491 q 0,-0.12981 0,-0.28417 0,-0.15788 -0.00351,-0.29821 l -0.02105,-0.0105 q -0.010525,-0.007 -0.02105,-0.014 -0.00702,-0.007 -0.017541,-0.014 -0.1052486,-0.0316 -0.2210221,-0.0281 -0.1157735,0.004 -0.2175138,0.0456 -0.1017403,0.0386 -0.1824309,0.11578 -0.077182,0.0772 -0.108757,0.19646 -0.028066,0.10876 -0.02105,0.18945 0.00702,0.0807 0.02105,0.18944 0.014033,0.0281 0.024558,0.0561 0.014033,0.0281 0.028066,0.0561 l 0.070166,0.0702 q 0.042099,0.014 0.080691,0.0351 0.1403315,0.014 0.256105,-0.014 0.1192817,-0.0281 0.2280386,-0.12279 0.00351,-0.007 0.014033,-0.0175 0.014033,-0.014 0.028066,-0.0281 0.014033,-0.014 0.024558,-0.0246 0.014033,-0.014 0.017541,-0.0175 z"
         style="font-size:3.17499995px;stroke-width:0.26458335"
         id="path7296" />
      <path
         d="m 9.0123996,203.45617 q 0.073674,-0.0281 0.1262983,-0.007 0.052624,0.0211 0.073674,0.0667 0.024558,0.0456 0.00702,0.10174 -0.014033,0.0561 -0.080691,0.0947 -0.1157735,0.0667 -0.2490884,0.12279 -0.1333149,0.0561 -0.2701381,0.0772 -0.1368232,0.0211 -0.2701381,-0.004 -0.1333149,-0.0211 -0.256105,-0.10525 -0.1473481,-0.10174 -0.2245304,-0.27365 -0.077182,-0.17541 -0.080691,-0.36135 -0.00351,-0.18945 0.066657,-0.36135 0.073674,-0.17542 0.2280386,-0.28067 0.1613813,-0.10875 0.3508288,-0.16138 0.1894475,-0.0561 0.3824033,-0.014 0.094724,0.0211 0.171906,0.0912 0.077182,0.0667 0.1227901,0.15788 0.049116,0.0877 0.052624,0.18944 0.00351,0.0982 -0.049116,0.18594 -0.059641,0.0982 -0.1719061,0.1684 -0.1122652,0.0667 -0.2455801,0.11577 -0.1298066,0.0456 -0.2631215,0.0772 -0.1298067,0.0316 -0.2280387,0.0596 -0.042099,0.0105 -0.080691,0.004 0.052624,0.11226 0.1543646,0.18594 0.1052486,0.0702 0.2596133,0.0596 0.12279,-0.007 0.2455801,-0.0667 0.1262983,-0.0632 0.2280387,-0.12279 z M 8.3282835,202.7089 q -0.1298066,0.0667 -0.1929558,0.18945 -0.063149,0.11928 -0.063149,0.2526 0.024558,-0.0175 0.052624,-0.0281 0.063149,-0.0175 0.1262983,-0.0351 0.066657,-0.021 0.1333149,-0.0386 0.0421,-0.0105 0.1122652,-0.0316 0.073674,-0.0211 0.1508564,-0.0491 0.077182,-0.0281 0.1403315,-0.0632 0.063149,-0.0386 0.084199,-0.0842 0.00702,-0.11577 -0.056133,-0.15787 -0.063149,-0.0421 -0.1508564,-0.0421 -0.087707,0 -0.1824309,0.0316 -0.094724,0.0281 -0.1543647,0.0561 z"
         style="font-size:3.17499995px;stroke-width:0.26458335"
         id="path7298" />
      <path
         d="m 9.6361927,202.64575 q -0.052624,-0.0281 -0.077182,-0.0666 -0.024558,-0.0386 -0.024558,-0.0772 0,-0.0526 0.038591,-0.0912 0.038591,-0.0421 0.1052486,-0.0421 0.049116,0 0.12279,0.0351 0.073674,0.0351 0.1157735,0.0772 0.1087573,-0.0912 0.2245303,-0.15085 0.115774,-0.0596 0.235055,-0.0596 0.03508,0 0.101741,0.0175 0.06666,0.0175 0.129806,0.0526 0.06666,0.0351 0.115774,0.0912 0.04912,0.0561 0.04912,0.12981 0,0.0596 -0.03859,0.0982 -0.03859,0.0351 -0.09472,0.0351 -0.03859,0 -0.07017,-0.0211 -0.02807,-0.0246 -0.05964,-0.0491 -0.02807,-0.0281 -0.06315,-0.0491 -0.03157,-0.0211 -0.07367,-0.0211 -0.04912,0 -0.108757,0.0316 -0.05613,0.0281 -0.115773,0.0702 -0.05613,0.0421 -0.108757,0.0912 -0.052624,0.0491 -0.091216,0.0877 v 0.93321 q -0.00351,0.0807 -0.049116,0.11928 -0.0421,0.0421 -0.094724,0.0421 -0.049116,0 -0.091215,-0.0386 -0.0421,-0.0351 -0.052624,-0.11227 v -0.95776 q 0,-0.007 -0.00351,-0.014 0,-0.0105 0,-0.0175 0,-0.007 0,-0.014 0.00351,-0.0105 0.00351,-0.0175 v -0.10174 q -0.014033,-0.007 -0.024558,-0.0105 z"
         style="font-size:3.17499995px;stroke-width:0.26458335"
         id="path7300" />
    </g>
  </g>
</svg>
