<?xml version="1.0" encoding="UTF-8" standalone="no"?>
<!-- Created with Inkscape (http://www.inkscape.org/) -->

<svg
   xmlns:dc="http://purl.org/dc/elements/1.1/"
   xmlns:cc="http://creativecommons.org/ns#"
   xmlns:rdf="http://www.w3.org/1999/02/22-rdf-syntax-ns#"
   xmlns:svg="http://www.w3.org/2000/svg"
   xmlns="http://www.w3.org/2000/svg"
   xmlns:sodipodi="http://sodipodi.sourceforge.net/DTD/sodipodi-0.dtd"
   xmlns:inkscape="http://www.inkscape.org/namespaces/inkscape"
   width="90"
   height="380"
   viewBox="0 0 23.812501 100.54167"
   version="1.1"
   id="svg8"
   inkscape:version="0.92.2 5c3e80d, 2017-08-06"
   sodipodi:docname="DevKit.svg">
  <defs
     id="defs2" />
  <sodipodi:namedview
     id="base"
     pagecolor="#ffffff"
     bordercolor="#666666"
     borderopacity="1.0"
     inkscape:pageopacity="0.0"
     inkscape:pageshadow="2"
     inkscape:zoom="1.8078947"
     inkscape:cx="21.5327"
     inkscape:cy="198.98532"
     inkscape:document-units="mm"
     inkscape:current-layer="layer1"
     showgrid="true"
     units="px"
     inkscape:snap-bbox="true"
     inkscape:snap-page="true"
     inkscape:bbox-nodes="true"
     inkscape:snap-bbox-edge-midpoints="true"
     inkscape:window-width="1600"
     inkscape:window-height="900"
     inkscape:window-x="0"
     inkscape:window-y="0"
     inkscape:window-maximized="0"
     showguides="true"
     gridtolerance="5"
     objecttolerance="5"
     guidetolerance="5"
     inkscape:snap-grids="true">
    <inkscape:grid
       type="xygrid"
       id="grid406"
       spacingx="0.052916669"
       spacingy="0.052916669"
       empspacing="2" />
  </sodipodi:namedview>
  <metadata
     id="metadata5">
    <rdf:RDF>
      <cc:Work
         rdf:about="">
        <dc:format>image/svg+xml</dc:format>
        <dc:type
           rdf:resource="http://purl.org/dc/dcmitype/StillImage" />
        <dc:title />
      </cc:Work>
    </rdf:RDF>
  </metadata>
  <g
     inkscape:label="Layer 1"
     inkscape:groupmode="layer"
     id="layer1"
     transform="translate(0,-196.45832)">
    <path
       style="opacity:1;vector-effect:none;fill:#f0f0f0;fill-opacity:1;fill-rule:evenodd;stroke:none;stroke-width:0.48607069;stroke-linecap:butt;stroke-linejoin:round;stroke-miterlimit:4;stroke-dasharray:none;stroke-dashoffset:0;stroke-opacity:1;paint-order:normal"
       d="M -0.05291614,196.66998 H 23.759584 V 297.21166 H -0.05291614 Z"
       id="rect817"
       inkscape:connector-curvature="0" />
    <g
       aria-label="SynthKit"
       transform="matrix(1.0800115,0,0,0.87871075,0.5563696,84.392939)"
       style="font-style:normal;font-variant:normal;font-weight:normal;font-stretch:normal;font-size:5.62060785px;line-height:1.25;font-family:Chalkboard;-inkscape-font-specification:Chalkboard;letter-spacing:0px;word-spacing:0px;fill:#000000;fill-opacity:1;stroke:none;stroke-width:0.30110401"
       id="text153">
      <path
         d="M 0.03726369,235.95931 Q 0,235.87236 0,235.79784 q 0,-0.10558 0.06210616,-0.16769 0.06831678,-0.0683 0.16768664,-0.0683 0.0993699,0 0.19252911,0.0683 0.10558048,0.12421 0.24221404,0.21116 0.14284418,0.0807 0.29810959,0.13042 0.16147606,0.0435 0.32295206,0.0621 0.1676866,0.0186 0.322952,0.0186 0.1055805,-0.0373 0.1428442,-0.0435 0.043474,-0.0124 0.068317,-0.0248 0.024842,-0.0124 0.055895,-0.0373 0.031053,-0.0248 0.1180018,-0.087 0.031053,-0.0435 0.055895,-0.0807 0.024843,-0.0373 0.055896,-0.0807 l 0.055896,-0.16769 q 0,-0.0435 0,-0.0807 0,-0.0435 -0.00621,-0.0932 -0.012421,-0.0435 -0.031053,-0.0807 -0.018632,-0.0435 -0.037264,-0.087 -0.037264,-0.0435 -0.074527,-0.0807 -0.031053,-0.0373 -0.068317,-0.0807 -0.055896,-0.031 -0.1117911,-0.0683 -0.055895,-0.0373 -0.1242123,-0.0559 -0.2546353,-0.087 -0.4720068,-0.118 -0.211161,-0.0373 -0.40369011,-0.087 -0.18631849,-0.0559 -0.35400513,-0.16769 -0.16768665,-0.11179 -0.32916267,-0.36021 -0.0310531,-0.0497 -0.0372637,-0.0745 -0.006211,-0.0248 -0.01242123,-0.087 -0.0062106,-0.0497 -0.01242124,-0.0932 0,-0.0497 0,-0.0932 0,-0.11179 0.01863185,-0.19874 0.0248425,-0.087 0.0683168,-0.16769 0.0434743,-0.0807 0.1117911,-0.16147 0.0683168,-0.087 0.16147603,-0.18632 0.10558047,-0.11179 0.24221404,-0.18011 0.13663356,-0.0745 0.28568835,-0.11179 0.14905481,-0.0435 0.30432021,-0.0559 0.161476,-0.0186 0.3105308,-0.0186 0.049685,0 0.086949,0 0.043474,0 0.086949,0.006 0.1428441,0.0124 0.2670565,0.0683 0.1304229,0.0559 0.2670565,0.0932 0.1428441,0.0994 0.1428441,0.24221 0,0.0932 -0.074527,0.16769 -0.068317,0.0683 -0.1987397,0.0683 -0.012421,0 -0.031053,0 -0.012421,-0.006 -0.024842,-0.006 -0.1987398,-0.0621 -0.3540052,-0.0932 -0.1490548,-0.0373 -0.2918989,-0.0373 -0.1490548,0 -0.3043202,0.0497 -0.1552654,0.0497 -0.36021577,0.16769 -0.0372637,0.0497 -0.0745274,0.0932 -0.0372637,0.0373 -0.0745274,0.0807 -0.0186319,0.0373 -0.0372637,0.0745 -0.0124212,0.0373 -0.0248425,0.0745 0,0.0373 0,0.0745 0.006211,0.0373 0.0124212,0.0683 0.0248425,0.0311 0.0434743,0.0621 0.0186319,0.031 0.0434743,0.0621 l 0.26084588,0.14906 q 0.18631849,0.0435 0.34779449,0.0745 0.1614761,0.031 0.3105308,0.0745 0.1490548,0.0373 0.291899,0.0932 0.1490548,0.0559 0.3167415,0.14906 0.086949,0.0497 0.1490547,0.13042 0.062106,0.0745 0.1180018,0.14285 0.09937,0.118 0.1428441,0.26705 0.049685,0.14906 0.049685,0.31053 0,0.22358 -0.086949,0.43475 -0.086949,0.21116 -0.2484246,0.34779 -0.055896,0.0497 -0.1180017,0.0932 -0.055896,0.0373 -0.1117911,0.0745 -0.130423,0.087 -0.291899,0.13042 -0.161476,0.0435 -0.3415839,0.0435 -0.2049503,0 -0.4161113,-0.0497 -0.20495033,-0.0435 -0.39747944,-0.12421 -0.19252911,-0.087 -0.35400514,-0.19874 Q 0.1490567,236.0895 0.0372656,235.95907 Z"
         style="stroke-width:0.30110401"
         id="path155"
         inkscape:connector-curvature="0" />
      <path
         d="m 5.2854893,233.77318 q 0.049685,-0.087 0.1117911,-0.12422 0.062106,-0.0373 0.130423,-0.0373 0.1055804,0 0.1738972,0.0807 0.068317,0.0807 0.068317,0.22358 -0.1304229,0.50306 -0.3291627,0.97507 -0.1987397,0.472 -0.4347431,0.92538 -0.2360034,0.45337 -0.4968493,0.89433 -0.2608459,0.44716 -0.5092706,0.90054 -0.049685,0.0683 -0.1117911,0.0932 -0.062106,0.031 -0.1180017,0.031 -0.093159,0 -0.161476,-0.0683 -0.068317,-0.0683 -0.068317,-0.19253 0,-0.0186 0,-0.0435 0,-0.0186 0.00621,-0.0435 0.2049504,-0.37885 0.4223219,-0.74528 0.2173716,-0.36643 0.422322,-0.73906 -0.2484247,-0.19874 -0.4471644,-0.40369 -0.1987397,-0.21116 -0.3602158,-0.44096 -0.1552654,-0.236 -0.2732671,-0.50306 -0.1180017,-0.27326 -0.2049503,-0.59 0,-0.16148 0.062106,-0.24222 0.068317,-0.087 0.1801079,-0.087 0.080738,0 0.1490548,0.0559 0.074527,0.0497 0.1055805,0.16768 0.068317,0.26085 0.161476,0.48443 0.09937,0.21737 0.2235822,0.4099 0.1304229,0.18632 0.2856883,0.36022 0.1614761,0.16769 0.3540052,0.32916 0.2049503,-0.40369 0.372637,-0.81359 0.1738972,-0.4099 0.2856883,-0.85706 z"
         style="stroke-width:0.30110401"
         id="path157"
         inkscape:connector-curvature="0" />
      <path
         d="m 8.4983432,236.245 q -0.00621,0.14285 -0.086949,0.21116 -0.074527,0.0745 -0.1676866,0.0745 -0.086949,0 -0.1614761,-0.0683 -0.074527,-0.0621 -0.093159,-0.19874 0,-0.28568 -0.00621,-0.56516 0,-0.28569 0,-0.57138 0,-0.20495 0,-0.4099 0.00621,-0.20495 -0.024843,-0.4099 -0.049685,-0.0932 -0.1117911,-0.11179 -0.055895,-0.0248 -0.1366335,-0.0248 -0.211161,0 -0.4161113,0.10558 -0.2049504,0.0994 -0.3229521,0.27947 -0.068317,0.10558 -0.1117911,0.18011 -0.037264,0.0683 -0.049685,0.20495 0,0.31674 0,0.63349 0,0.31674 0.00621,0.63348 -0.00621,0.14284 -0.086949,0.21737 -0.074527,0.0683 -0.1676867,0.0683 -0.086949,0 -0.161476,-0.0621 -0.074527,-0.0683 -0.093159,-0.20495 0,-0.29811 0,-0.57759 0,-0.27948 -0.00621,-0.55274 0,-0.27327 0,-0.55275 0,-0.28569 0,-0.5838 0.031053,-0.12421 0.09937,-0.18631 0.068317,-0.0621 0.1552654,-0.0621 0.080738,0 0.1490548,0.0559 0.074527,0.0559 0.1055805,0.17389 v 0.0497 q 0.1801079,-0.15527 0.40369,-0.24222 0.2297928,-0.0932 0.4595857,-0.0932 0.2297928,0 0.4285325,0.10559 0.2049503,0.10558 0.3291627,0.34158 0.043474,0.0807 0.055896,0.20495 0.018632,0.118 0.018632,0.25463 0.00621,0.13043 0,0.27327 -0.00621,0.13664 -0.00621,0.26085 v 0.73285 0.41611 z"
         style="stroke-width:0.30110401"
         id="path159"
         inkscape:connector-curvature="0" />
      <path
         d="m 9.3096832,234.24518 q -0.1366336,-0.0186 -0.2049503,-0.0932 -0.062106,-0.0745 -0.062106,-0.16147 0,-0.087 0.068317,-0.16769 0.074527,-0.087 0.2173716,-0.087 H 9.67611 v -0.98127 q 0.031053,-0.12422 0.09937,-0.18632 0.068317,-0.0621 0.1552654,-0.0621 0.080738,0 0.1490556,0.0559 0.07453,0.0559 0.10558,0.17389 v 0.99991 H 10.7816 q 0.118002,0.0311 0.173898,0.10558 0.0559,0.0683 0.0559,0.14906 0,0.0869 -0.06211,0.15526 -0.06211,0.0683 -0.186319,0.0994 H 10.18538 q -0.0062,0.47822 0,0.98749 0.0062,0.50306 0.0062,0.98128 0,0.14284 -0.08695,0.21737 -0.08074,0.0683 -0.1676865,0.0683 -0.086949,0 -0.1614761,-0.0683 -0.074527,-0.0621 -0.093159,-0.19874 0,-0.48443 -0.00621,-0.9937 0,-0.50927 0,-0.9937 H 9.3096832 Z"
         style="stroke-width:0.30110401"
         id="path161"
         inkscape:connector-curvature="0" />
      <path
         d="m 12.070284,236.23879 q -0.0062,0.13663 -0.08074,0.20495 -0.07453,0.0745 -0.167686,0.0745 -0.08695,0.006 -0.167687,-0.0621 -0.07453,-0.0621 -0.09316,-0.19874 v -3.4531 q 0.02484,-0.118 0.09316,-0.18011 0.07453,-0.0621 0.149055,-0.0621 0.08074,-0.006 0.155265,0.0497 0.07453,0.0559 0.111791,0.1739 v 1.45949 q 0.09316,-0.0932 0.173898,-0.14905 0.124212,-0.087 0.229792,-0.13664 0.111792,-0.0559 0.254636,-0.0869 0.111791,-0.0311 0.223582,-0.0124 0.118002,0.0186 0.229793,0.0497 0.186318,0.0559 0.316741,0.18011 0.136634,0.12421 0.223582,0.2919 0.09316,0.16147 0.136634,0.34779 0.04347,0.18632 0.04968,0.36022 0.0062,0.29811 0,0.59001 0,0.28568 0.0062,0.58379 -0.0062,0.13664 -0.08074,0.20495 -0.07453,0.0745 -0.167686,0.0745 -0.08695,0.006 -0.167687,-0.0621 -0.07453,-0.0621 -0.09316,-0.19874 0,-0.29811 0,-0.5838 0,-0.2919 -0.0062,-0.59001 -0.0062,-0.22358 -0.08695,-0.40369 -0.07453,-0.18011 -0.267057,-0.30432 -0.161476,-0.0435 -0.291899,0 -0.130423,0.0435 -0.242214,0.13663 -0.10558,0.087 -0.19874,0.20495 -0.09316,0.118 -0.180107,0.2298 -0.01242,0.0186 -0.03105,0.0373 -0.01863,0.0124 -0.03105,0.0248 v 1.20486 z"
         style="stroke-width:0.30110401"
         id="path163"
         inkscape:connector-curvature="0" />
      <path
         d="m 15.010307,236.1829 q -0.0062,0.14284 -0.08695,0.21737 -0.07453,0.0683 -0.167687,0.0683 -0.08695,0 -0.167687,-0.0683 -0.08074,-0.0683 -0.09937,-0.20495 0.0062,-0.80738 0.0062,-1.60234 0,-0.79496 -0.0062,-1.65824 0.03105,-0.12421 0.09937,-0.18632 0.06832,-0.0621 0.155266,-0.0621 0.08074,0 0.149055,0.0559 0.07453,0.0559 0.10558,0.1739 0,0.35401 -0.0062,0.67696 0,0.32295 0,0.68317 0.273268,-0.11801 0.465797,-0.26706 0.198739,-0.14906 0.366426,-0.32916 0.167687,-0.18632 0.335373,-0.40369 0.167687,-0.22359 0.385059,-0.47822 0.09937,-0.0807 0.20495,-0.0807 0.09937,0 0.167687,0.0683 0.06832,0.0683 0.06832,0.1739 0,0.0559 -0.03105,0.13663 -0.186318,0.21737 -0.335373,0.4099 -0.149055,0.18632 -0.291899,0.354 -0.142844,0.16769 -0.291899,0.31675 -0.142844,0.14284 -0.316741,0.26705 0.366426,0.39127 0.726642,0.77633 0.360215,0.37885 0.720431,0.77012 0.06832,0.0869 0.06832,0.19253 0,0.10558 -0.06832,0.17389 -0.06832,0.0621 -0.167686,0.0621 -0.04969,0 -0.111792,-0.0186 -0.05589,-0.0249 -0.10558,-0.0807 -0.04347,-0.0497 -0.161476,-0.1739 -0.118002,-0.12421 -0.273267,-0.28569 -0.149055,-0.16768 -0.322952,-0.34779 -0.167687,-0.18632 -0.322952,-0.3478 -0.149055,-0.16768 -0.267057,-0.29189 -0.118001,-0.12422 -0.161476,-0.1739 -0.118001,0.0559 -0.285688,0.118 0,0.36022 0.0062,0.68938 0.0062,0.32295 0.01863,0.67696 z"
         style="stroke-width:0.30110401"
         id="path165"
         inkscape:connector-curvature="0" />
      <path
         d="m 18.429288,236.23258 q -0.0062,0.14284 -0.08695,0.21116 -0.07453,0.0745 -0.167687,0.0745 -0.08695,0 -0.161476,-0.0683 -0.07453,-0.0621 -0.09316,-0.19874 -0.0062,-0.5838 -0.01242,-1.19244 0,-0.60864 -0.0062,-1.19243 0.03105,-0.12422 0.09937,-0.18632 0.06832,-0.0621 0.155265,-0.0621 0.08074,0 0.149055,0.0559 0.07453,0.0559 0.105581,0.17389 0.0062,0.5838 0.0062,1.19244 0.0062,0.60864 0.01242,1.19244 z m -0.571377,-3.37857 q 0,-0.13664 0.08695,-0.2298 0.08695,-0.0994 0.21116,-0.0994 0.124213,0 0.211161,0.0994 0.09316,0.0932 0.09316,0.2298 0,0.13042 -0.09316,0.22979 -0.08695,0.0932 -0.211161,0.0932 -0.124212,0 -0.21116,-0.0932 -0.08695,-0.0994 -0.08695,-0.22979 z"
         style="stroke-width:0.30110401"
         id="path167"
         inkscape:connector-curvature="0" />
      <path
         d="m 19.222592,234.24518 q -0.136634,-0.0186 -0.204951,-0.0932 -0.06211,-0.0745 -0.06211,-0.16147 0,-0.087 0.06832,-0.16769 0.07453,-0.087 0.217372,-0.087 h 0.347794 v -0.98127 q 0.03105,-0.12422 0.09937,-0.18632 0.06832,-0.0621 0.155265,-0.0621 0.08074,0 0.149055,0.0559 0.07453,0.0559 0.105581,0.17389 v 0.99991 h 0.596219 q 0.118002,0.0311 0.173897,0.10558 0.0559,0.0683 0.0559,0.14906 0,0.0869 -0.06211,0.15526 -0.06211,0.0683 -0.186318,0.0994 h -0.577587 q -0.0062,0.47822 0,0.98749 0.0062,0.50306 0.0062,0.98128 0,0.14284 -0.08695,0.21737 -0.08074,0.0683 -0.167687,0.0683 -0.08695,0 -0.161476,-0.0683 -0.07453,-0.0621 -0.09316,-0.19874 0,-0.48443 -0.0062,-0.9937 0,-0.50927 0,-0.9937 H 19.22259 Z"
         style="stroke-width:0.30110401"
         id="path169"
         inkscape:connector-curvature="0" />
    </g>
    <rect
       style="fill:#7d4b8e;stroke-width:0.27006435"
       id="rect349"
       width="16.933334"
       height="36.663689"
       x="3.3866665"
       y="207.54814" />
    <g
       aria-label="Input"
       style="font-style:normal;font-variant:normal;font-weight:normal;font-stretch:normal;font-size:2.82222223px;line-height:1.25;font-family:'Source Code Pro';-inkscape-font-specification:'Source Code Pro';letter-spacing:0px;word-spacing:0px;fill:#000000;fill-opacity:1;stroke:none;stroke-width:0.26458332"
       id="text374-4-9"
       transform="translate(-0.21671984,-35.487969)">
      <path
         d="m 7.8324608,253.97803 v -0.20038 H 8.292483 v -1.45344 H 7.8324608 v -0.19756 h 1.1571111 v 0.19756 H 8.5295497 v 1.45344 h 0.4600222 v 0.20038 z"
         style="stroke-width:0.26458332"
         id="path4120-3"
         inkscape:connector-curvature="0" />
      <path
         d="m 9.5190473,253.97803 v -1.3716 h 0.1919111 l 0.019755,0.23424 h 0.011289 q 0.1072445,-0.11571 0.2314222,-0.19191 0.1241784,-0.0762 0.2850444,-0.0762 0.245534,0 0.358423,0.14111 0.115711,0.13829 0.115711,0.41205 v 0.85231 h -0.231422 v -0.82127 q 0,-0.19473 -0.07338,-0.28787 -0.07338,-0.0959 -0.242711,-0.0959 -0.06209,0 -0.115711,0.0169 -0.0508,0.0141 -0.1016008,0.0452 -0.0508,0.031 -0.1044222,0.079 -0.053622,0.0452 -0.1128889,0.10724 v 0.95674 z"
         style="stroke-width:0.26458332"
         id="path4122-6"
         inkscape:connector-curvature="0" />
      <path
         d="m 11.211278,254.55658 v -1.95015 h 0.191911 l 0.01976,0.17498 h 0.0085 q 0.09596,-0.0903 0.220133,-0.14958 0.127,-0.0593 0.254,-0.0593 0.138289,0 0.242711,0.0508 0.107244,0.048 0.1778,0.14111 0.07338,0.0903 0.110067,0.22014 0.03669,0.127 0.03669,0.28786 0,0.17498 -0.0508,0.31327 -0.0508,0.13547 -0.138289,0.23142 -0.08467,0.096 -0.197556,0.14676 -0.112889,0.048 -0.237067,0.048 -0.09596,0 -0.208844,-0.0452 -0.110067,-0.048 -0.200378,-0.13265 h -0.0085 l 0.01129,0.25965 v 0.46284 z m 0.598311,-0.73942 q 0.186267,0 0.3048,-0.14393 0.118534,-0.14394 0.118534,-0.40076 0,-0.11289 -0.02258,-0.20602 -0.02258,-0.0931 -0.07056,-0.15804 -0.04516,-0.0677 -0.118533,-0.10443 -0.07338,-0.0367 -0.174978,-0.0367 -0.09031,0 -0.194733,0.0508 -0.1016,0.048 -0.208845,0.15523 v 0.68297 q 0.09878,0.0875 0.197556,0.12418 0.09878,0.0367 0.169333,0.0367 z"
         style="stroke-width:0.26458332"
         id="path4124-5"
         inkscape:connector-curvature="0" />
      <path
         d="m 13.335309,254.01189 q -0.248356,0 -0.364067,-0.13828 -0.112889,-0.14112 -0.112889,-0.41487 v -0.85231 h 0.234245 v 0.82126 q 0,0.19474 0.07055,0.29069 0.07338,0.0931 0.245534,0.0931 0.118533,0 0.214489,-0.0593 0.09596,-0.0621 0.211666,-0.19473 v -0.95109 h 0.231422 v 1.3716 h -0.189088 l -0.01976,-0.23989 h -0.01129 q -0.104422,0.12135 -0.2286,0.19755 -0.121355,0.0762 -0.282222,0.0762 z"
         style="stroke-width:0.26458332"
         id="path4126-1"
         inkscape:connector-curvature="0" />
      <path
         d="m 15.445229,254.01189 q -0.149578,0 -0.251178,-0.0395 -0.1016,-0.0423 -0.163689,-0.11571 -0.06209,-0.0762 -0.09031,-0.18062 -0.0254,-0.10442 -0.0254,-0.23142 v -0.64911 h -0.386644 v -0.17498 l 0.395111,-0.0141 0.03104,-0.44027 h 0.191911 v 0.44027 h 0.674512 v 0.18909 H 15.14607 v 0.65193 q 0,0.0931 0.01693,0.16369 0.01693,0.0677 0.05644,0.11571 0.03951,0.048 0.107245,0.0734 0.06773,0.0226 0.166511,0.0226 0.09878,0 0.1778,-0.0169 0.07902,-0.0169 0.1524,-0.0452 l 0.0508,0.16933 q -0.09313,0.0339 -0.197556,0.0564 -0.1016,0.0254 -0.231422,0.0254 z"
         style="stroke-width:0.26458332"
         id="path4128-8"
         inkscape:connector-curvature="0" />
    </g>
    <g
       aria-label="DevKit"
       style="font-style:normal;font-variant:normal;font-weight:normal;font-stretch:normal;font-size:4.23333311px;line-height:1.25;font-family:Chalkboard;-inkscape-font-specification:Chalkboard;letter-spacing:0px;word-spacing:0px;fill:#000000;fill-opacity:1;stroke:none;stroke-width:0.26458332"
       id="text77">
      <path
         d="m 6.4990824,203.86497 q -0.070166,-0.009 -0.1169429,-0.0421 -0.046777,-0.0281 -0.070166,-0.0702 l -0.014033,-0.0281 q -0.00936,-0.0234 -0.018711,-0.0468 -0.00936,-0.0281 -0.00936,-0.0515 v -2.1003 q -0.042099,0.014 -0.070166,0.0281 -0.023389,0.009 -0.070166,0.009 -0.088877,0 -0.1450092,-0.0514 -0.051455,-0.0515 -0.051455,-0.12162 0,-0.10291 0.1169429,-0.17776 0.1216207,-0.0748 0.2853407,-0.12162 0.1637201,-0.0515 0.3414733,-0.0748 0.1824309,-0.0234 0.2993738,-0.0234 0.3414733,0 0.6081031,0.11227 0.2666299,0.11226 0.4490608,0.30405 0.1824309,0.18711 0.2759852,0.4397 0.098232,0.2526 0.098232,0.52859 0,0.28066 -0.1029098,0.55197 -0.1029097,0.26663 -0.313407,0.46777 -0.1450092,0.14033 -0.3274401,0.22453 -0.1777532,0.0795 -0.3742173,0.13097 -0.1964641,0.0468 -0.3976059,0.0702 -0.2011417,0.0234 -0.3929281,0.0421 z m 0.4724493,-2.48855 q -0.079521,0 -0.1590423,0.009 -0.079521,0.009 -0.1590424,0.0234 v 2.05819 q 0.1356538,-0.014 0.2853407,-0.0327 0.1543646,-0.0187 0.2993738,-0.0561 0.1450092,-0.0374 0.2713076,-0.0982 0.1262983,-0.0608 0.2104972,-0.15436 0.1496869,-0.16372 0.2245304,-0.36954 0.079521,-0.20582 0.079521,-0.42099 0,-0.18711 -0.070166,-0.36019 -0.065488,-0.17307 -0.2011418,-0.30405 -0.130976,-0.13565 -0.3274401,-0.21517 -0.1964641,-0.0795 -0.4537385,-0.0795 z"
         style="stroke-width:0.26458332"
         id="path79" />
      <path
         d="m 10.387557,203.2288 q 0.09823,-0.0374 0.168398,-0.009 0.07017,0.0281 0.09823,0.0889 0.03274,0.0608 0.0094,0.13565 -0.01871,0.0748 -0.107588,0.1263 -0.154365,0.0889 -0.332118,0.16372 -0.177753,0.0748 -0.3601839,0.10291 -0.182431,0.0281 -0.3601842,-0.005 -0.1777532,-0.0281 -0.3414732,-0.14034 -0.1964641,-0.13565 -0.2993739,-0.36486 -0.1029097,-0.23388 -0.1075874,-0.4818 -0.00468,-0.2526 0.088877,-0.48181 0.098232,-0.23388 0.3040515,-0.37422 0.2151749,-0.145 0.4677716,-0.21517 0.2525967,-0.0748 0.5098709,-0.0187 0.126299,0.0281 0.229208,0.12162 0.10291,0.0889 0.16372,0.2105 0.06549,0.11694 0.07017,0.25259 0.0047,0.13098 -0.06549,0.24792 -0.07952,0.13098 -0.229208,0.22453 -0.149687,0.0889 -0.3274402,0.15437 -0.1730755,0.0608 -0.3508287,0.10291 -0.1730755,0.0421 -0.3040515,0.0795 -0.056133,0.014 -0.1075875,0.005 0.070166,0.14968 0.2058195,0.24792 0.1403315,0.0935 0.346151,0.0795 0.1637201,-0.009 0.3274404,-0.0889 0.168398,-0.0842 0.304051,-0.16372 z m -0.9121544,-0.99635 q -0.1730755,0.0889 -0.2572744,0.25259 -0.084199,0.15905 -0.084199,0.3368 0.032744,-0.0234 0.070166,-0.0374 0.084199,-0.0234 0.1683978,-0.0468 0.088877,-0.0281 0.1777532,-0.0515 0.056133,-0.014 0.1496869,-0.0421 0.098232,-0.0281 0.2011418,-0.0655 0.1029102,-0.0374 0.1871082,-0.0842 0.0842,-0.0515 0.112266,-0.11227 0.0094,-0.15436 -0.07484,-0.21049 -0.0842,-0.0561 -0.2011416,-0.0561 -0.1169429,0 -0.2432413,0.0421 -0.1262983,0.0374 -0.2058195,0.0748 z"
         style="stroke-width:0.26458332"
         id="path81" />
      <path
         d="m 12.217367,201.81613 q 0.04678,-0.0795 0.107587,-0.10291 0.06549,-0.0281 0.121621,-0.009 0.06081,0.014 0.09823,0.0748 0.0421,0.0561 0.03742,0.14501 -0.06549,0.25259 -0.154364,0.49583 -0.0842,0.23857 -0.168398,0.48181 -0.07952,0.22453 -0.159042,0.44438 -0.07484,0.21518 -0.168398,0.43035 -0.0842,0.10291 -0.187109,0.0889 -0.102909,-0.014 -0.159042,-0.13098 -0.168398,-0.44438 -0.346151,-0.87941 -0.173076,-0.43503 -0.38825,-0.85602 -0.04678,-0.0935 -0.02339,-0.16372 0.02339,-0.0748 0.07952,-0.10759 0.05613,-0.0374 0.130976,-0.0234 0.07952,0.014 0.140332,0.0982 0.16372,0.32744 0.308729,0.66423 0.145009,0.3368 0.280663,0.68295 0.03274,-0.0889 0.06081,-0.17775 0.03274,-0.0889 0.06549,-0.17776 0.0842,-0.24324 0.168398,-0.4818 0.0842,-0.24324 0.154365,-0.49584 z"
         style="stroke-width:0.26458332"
         id="path83" />
      <path
         d="m 13.319284,203.58898 q -0.0047,0.10759 -0.06549,0.16372 -0.05613,0.0515 -0.126298,0.0515 -0.06549,0 -0.126299,-0.0515 -0.06081,-0.0515 -0.07484,-0.15436 0.0047,-0.6081 0.0047,-1.20685 0,-0.59875 -0.0047,-1.24895 0.02339,-0.0936 0.07484,-0.14033 0.05146,-0.0468 0.116943,-0.0468 0.06081,0 0.112265,0.0421 0.05613,0.0421 0.07952,0.13098 0,0.26663 -0.0047,0.50987 0,0.24324 0,0.51455 0.205819,-0.0889 0.350828,-0.20115 0.149687,-0.11226 0.275986,-0.24792 0.126298,-0.14033 0.252596,-0.30405 0.126299,-0.1684 0.290019,-0.36018 0.07484,-0.0608 0.154364,-0.0608 0.07484,0 0.126299,0.0514 0.05146,0.0515 0.05146,0.13098 0,0.0421 -0.02339,0.10291 -0.140331,0.16372 -0.252597,0.30873 -0.112265,0.14033 -0.219852,0.26663 -0.107588,0.1263 -0.219853,0.23856 -0.107587,0.10759 -0.238563,0.20114 0.275985,0.2947 0.547292,0.58472 0.271308,0.28534 0.542615,0.58003 0.05146,0.0655 0.05146,0.14501 0,0.0795 -0.05146,0.13098 -0.05145,0.0468 -0.126298,0.0468 -0.03742,0 -0.0842,-0.014 -0.0421,-0.0187 -0.07952,-0.0608 -0.03274,-0.0374 -0.121621,-0.13097 -0.08888,-0.0936 -0.205819,-0.21518 -0.112265,-0.1263 -0.243241,-0.26195 -0.126299,-0.14033 -0.243242,-0.26195 -0.112265,-0.1263 -0.201141,-0.21985 -0.08888,-0.0936 -0.121621,-0.13098 -0.08888,0.0421 -0.215175,0.0889 0,0.2713 0.0047,0.51922 0.0047,0.24324 0.01403,0.50987 z"
         style="stroke-width:0.26458332"
         id="path85" />
      <path
         d="m 15.894395,203.62641 q -0.0047,0.10758 -0.06549,0.15904 -0.05613,0.0561 -0.126298,0.0561 -0.06549,0 -0.12162,-0.0514 -0.05613,-0.0468 -0.07017,-0.14969 -0.0047,-0.43971 -0.0094,-0.89812 0,-0.45842 -0.0047,-0.89812 0.02339,-0.0936 0.07484,-0.14034 0.05146,-0.0468 0.116943,-0.0468 0.06081,0 0.112265,0.0421 0.05613,0.0421 0.07952,0.13097 0.0047,0.43971 0.0047,0.89812 0.0047,0.45842 0.0094,0.89813 z m -0.43035,-2.54468 q 0,-0.10291 0.06549,-0.17308 0.06549,-0.0748 0.159042,-0.0748 0.09355,0 0.159042,0.0748 0.07017,0.0702 0.07017,0.17308 0,0.0982 -0.07017,0.17307 -0.06549,0.0702 -0.159042,0.0702 -0.09355,0 -0.159042,-0.0702 -0.06549,-0.0748 -0.06549,-0.17307 z"
         style="stroke-width:0.26458332"
         id="path87" />
      <path
         d="m 16.491894,202.12954 q -0.102909,-0.014 -0.154364,-0.0702 -0.04678,-0.0561 -0.04678,-0.12162 0,-0.0655 0.05145,-0.1263 0.05613,-0.0655 0.163721,-0.0655 h 0.261952 v -0.73908 q 0.02339,-0.0935 0.07484,-0.14033 0.05146,-0.0468 0.116943,-0.0468 0.06081,0 0.112265,0.0421 0.05613,0.0421 0.07952,0.13097 v 0.75311 h 0.449061 q 0.08888,0.0234 0.130976,0.0795 0.0421,0.0515 0.0421,0.11227 0,0.0655 -0.04678,0.11694 -0.04678,0.0515 -0.140331,0.0748 h -0.435028 q -0.0047,0.36018 0,0.74375 0.0047,0.3789 0.0047,0.73908 0,0.10759 -0.06549,0.16372 -0.06081,0.0515 -0.126298,0.0515 -0.06549,0 -0.121621,-0.0515 -0.05613,-0.0468 -0.07017,-0.14968 0,-0.36487 -0.0047,-0.74844 0,-0.38357 0,-0.74843 h -0.275986 z"
         style="stroke-width:0.26458332"
         id="path89" />
    </g>
  </g>
</svg>
