<?xml version="1.0" encoding="UTF-8" standalone="no"?>
<svg id="SvgjsSvg1006" xmlns="http://www.w3.org/2000/svg" width="44.99" height="379.88" viewBox="0 0 44.99 379.88">
  <title>FibonacciClockDivider</title>
  <path id="SvgjsRect1008" d="M0,.07H45V380H0Z" transform="translate(0 -0.07)" style="fill: #222"/>
  <path id="SvgjsRect1009" d="M7.5,33.06h30v32H7.5Z" transform="translate(0 -0.07)" style="fill: #91b06f"/>
  <path id="SvgjsRect1010" d="M0,70H35v30H0Z" transform="translate(0 -0.07)" style="fill: #797979"/>
  <path id="SvgjsPolygon1011" d="M35,70,45,85,35,100Z" transform="translate(0 -0.07)" style="fill: #797979"/>
  <path id="SvgjsRect1012" d="M0,105H35v30H0Z" transform="translate(0 -0.07)" style="fill: #797979"/>
  <path id="SvgjsPolygon1013" d="M35,105l10,15L35,135Z" transform="translate(0 -0.07)" style="fill: #797979"/>
  <path id="SvgjsRect1014" d="M0,140H35v30H0Z" transform="translate(0 -0.07)" style="fill: #797979"/>
  <path id="SvgjsPolygon1015" d="M35,140l10,15L35,170Z" transform="translate(0 -0.07)" style="fill: #797979"/>
  <path id="SvgjsRect1016" d="M0,175H35v30H0Z" transform="translate(0 -0.07)" style="fill: #797979"/>
  <path id="SvgjsPolygon1017" d="M35,175l10,15L35,205Z" transform="translate(0 -0.07)" style="fill: #797979"/>
  <path id="SvgjsRect1018" d="M0,210H35v30H0Z" transform="translate(0 -0.07)" style="fill: #797979"/>
  <path id="SvgjsPolygon1019" d="M35,210l10,15L35,240Z" transform="translate(0 -0.07)" style="fill: #797979"/>
  <path id="SvgjsRect1020" d="M0,245H35v30H0Z" transform="translate(0 -0.07)" style="fill: #797979"/>
  <path id="SvgjsPolygon1021" d="M35,245l10,15L35,275Z" transform="translate(0 -0.07)" style="fill: #797979"/>
  <path id="SvgjsRect1022" d="M0,280H35v30H0Z" transform="translate(0 -0.07)" style="fill: #797979"/>
  <path id="SvgjsPolygon1023" d="M35,280l10,15L35,310Z" transform="translate(0 -0.07)" style="fill: #797979"/>
  <path id="SvgjsRect1024" d="M0,315H35v30H0Z" transform="translate(0 -0.07)" style="fill: #797979"/>
  <path id="SvgjsPolygon1025" d="M35,315l10,15L35,345Z" transform="translate(0 -0.07)" style="fill: #797979"/>
  <g id="text4650">
    <path id="path5271" d="M21,360.75a4.47,4.47,0,0,1-.21,1.45,4.32,4.32,0,0,1-.53,1.13,3.24,3.24,0,0,1-.78.83,4.6,4.6,0,0,1-.93.56,3.77,3.77,0,0,1-1,.32,4.06,4.06,0,0,1-.92.11H6.25v-2.71H16.69a1.53,1.53,0,0,0,1.2-.46,1.63,1.63,0,0,0,.44-1.23,2,2,0,0,0-.11-.68,1.58,1.58,0,0,0-.34-.55,1.17,1.17,0,0,0-.52-.35,1.7,1.7,0,0,0-.67-.13H10.47a4.58,4.58,0,0,1-1.42-.22,4.26,4.26,0,0,1-1.42-.77,4.1,4.1,0,0,1-1.08-1.36,5.13,5.13,0,0,1,0-4.1,4.07,4.07,0,0,1,2.5-2.13,4.86,4.86,0,0,1,1.42-.24h9.21V353H10.47a1.54,1.54,0,0,0-1.21.46,2,2,0,0,0,0,2.48,1.56,1.56,0,0,0,1.21.45h6.24a3.52,3.52,0,0,1,.92.12,4.19,4.19,0,0,1,1,.33,5.23,5.23,0,0,1,.93.59,3.19,3.19,0,0,1,.77.83,4.05,4.05,0,0,1,.54,1.13,4.66,4.66,0,0,1,.2,1.43Z" transform="translate(0 -0.07)" style="fill: #f0f0f0"/>
    <path id="path5273" d="M39,365.15H35.12L29,359H27.12v-2.72H29l6.09-6.1H39l-7.68,7.46Zm-12.93,0H23.33V350.22H26Z" transform="translate(0 -0.07)" style="fill: #f0f0f0"/>
  </g>
  <g id="text5205">
    <path id="path5340" d="M10,27.4a3.18,3.18,0,0,1-.89,2.24,3.14,3.14,0,0,1-1,.65,3.59,3.59,0,0,1-1.25.23H3.17a1.28,1.28,0,0,1-.27-.05.61.61,0,0,1-.36-.36.66.66,0,0,1-.06-.27v-6.1a.63.63,0,0,1,.06-.27.64.64,0,0,1,.14-.22.67.67,0,0,1,.22-.19.62.62,0,0,1,.27,0H6.82a3.35,3.35,0,0,1,1.25.24,2.83,2.83,0,0,1,1,.65,3.14,3.14,0,0,1,.65,1A3.45,3.45,0,0,1,10,26.18ZM8.59,26.18a2,2,0,0,0-.13-.73,1.62,1.62,0,0,0-.92-.91,1.8,1.8,0,0,0-.72-.13h-3v4.76h3a2,2,0,0,0,.72-.11,1.62,1.62,0,0,0,.92-.91,2,2,0,0,0,.13-.73Z" transform="translate(0 -0.07)" style="fill: #f0f0f0"/>
    <path id="path5342" d="M12.51,23.74H11.16V22.51h1.35Zm0,6.78H11.16V24.89h1.35Z" transform="translate(0 -0.07)" style="fill: #f0f0f0"/>
    <path id="path5344" d="M20.51,24.89A10.38,10.38,0,0,1,20,26.3a9.82,9.82,0,0,1-.7,1.32,8.38,8.38,0,0,1-.9,1.16,5.6,5.6,0,0,1-1.08.92,5.05,5.05,0,0,1-2.81.83.57.57,0,0,1-.26,0,.55.55,0,0,1-.22-.14.58.58,0,0,1-.15-.21,1.22,1.22,0,0,1,0-.27v-5h1.36v4.24a2.15,2.15,0,0,0,.93-.22,3.6,3.6,0,0,0,.87-.56,5.16,5.16,0,0,0,.75-.8,7.06,7.06,0,0,0,.62-.92,8,8,0,0,0,.46-.93,6.48,6.48,0,0,0,.28-.81Z" transform="translate(0 -0.07)" style="fill: #f0f0f0"/>
    <path id="path5346" d="M22.37,23.74H21V22.51h1.35Zm0,6.78H21V24.89h1.35Z" transform="translate(0 -0.07)" style="fill: #f0f0f0"/>
    <path id="path5348" d="M29.84,28.62a2.72,2.72,0,0,1-.08.63,2.47,2.47,0,0,1-.24.49,1.76,1.76,0,0,1-.74.6,2.16,2.16,0,0,1-.43.14H25.5a2.28,2.28,0,0,1-.63-.09,2.12,2.12,0,0,1-.48-.23,2,2,0,0,1-.36-.35,1.63,1.63,0,0,1-.24-.4,2.3,2.3,0,0,1-.14-.42,1.92,1.92,0,0,1,0-.41V26.79a1.89,1.89,0,0,1,.19-.88,1.84,1.84,0,0,1,.48-.59,1.86,1.86,0,0,1,.62-.33,2.11,2.11,0,0,1,.61-.1H28v1.36H25.51a.56.56,0,0,0-.41.14.53.53,0,0,0-.14.4v1.82a.64.64,0,0,0,.13.42.56.56,0,0,0,.41.14H28a.49.49,0,0,0,.55-.42.28.28,0,0,0,0-.13V22.51h1.35Z" transform="translate(0 -0.07)" style="fill: #f0f0f0"/>
    <path id="path5350" d="M37.2,26.76a2.16,2.16,0,0,1-.1.61,2,2,0,0,1-.32.6,2,2,0,0,1-.58.46,1.83,1.83,0,0,1-.86.19H32.9V27.33h2.44a.58.58,0,0,0,.43-.16.66.66,0,0,0,.15-.42.51.51,0,0,0-.18-.42.59.59,0,0,0-.4-.15H32.9a.54.54,0,0,0-.43.17.57.57,0,0,0-.15.42v1.89a.56.56,0,0,0,.16.42.66.66,0,0,0,.43.15h2.43v1.29H32.9a2.51,2.51,0,0,1-.61-.1,1.79,1.79,0,0,1-.61-.32A2,2,0,0,1,31,28.66v-1.9a2.11,2.11,0,0,1,.1-.61,1.93,1.93,0,0,1,.32-.6,1.53,1.53,0,0,1,.58-.49,1.76,1.76,0,0,1,.87-.19H35.3a2,2,0,0,1,1.21.42,2,2,0,0,1,.47.58A2.09,2.09,0,0,1,37.2,26.76Z" transform="translate(0 -0.07)" style="fill: #f0f0f0"/>
    <path id="path5352" d="M43.05,26.25H40a.5.5,0,0,0-.42.14.53.53,0,0,0-.14.4v3.73H38.09V26.79a2.18,2.18,0,0,1,.09-.63,2.16,2.16,0,0,1,.24-.48,1.29,1.29,0,0,1,.34-.36,2.06,2.06,0,0,1,.4-.25,2.13,2.13,0,0,1,.43-.13,1.75,1.75,0,0,1,.4-.05h3.06Z" transform="translate(0 -0.07)" style="fill: #f0f0f0"/>
  </g>
  <g id="text5209">
    <path id="path5317" d="M12.32,57.87h-1V57h1Zm0,5.09h-1V58.74h1Z" transform="translate(0 -0.07)" style="fill: #f0f0f0"/>
    <path id="path5319" d="M18,63H17V60.62a.73.73,0,0,0-.07-.36.8.8,0,0,0-.46-.44.77.77,0,0,0-.34-.07H14.31V63h-1V59.24a.6.6,0,0,1,0-.19.36.36,0,0,1,.11-.16.34.34,0,0,1,.17-.11h2.88a1.88,1.88,0,0,1,.42.14,1.47,1.47,0,0,1,.4.24,1.26,1.26,0,0,1,.33.36,1.74,1.74,0,0,1,.32,1.1Z" transform="translate(0 -0.07)" style="fill: #f0f0f0"/>
    <path id="path5321" d="M23.52,61.53a1.59,1.59,0,0,1-.07.48,1,1,0,0,1-.17.36,1.33,1.33,0,0,1-.26.27,1.49,1.49,0,0,1-.3.18,1.73,1.73,0,0,1-.32.11H20.26v-1H22.1a.45.45,0,0,0,.3-.1.45.45,0,0,0,.1-.31V60.17a.35.35,0,0,0-.1-.31.38.38,0,0,0-.3-.11H20.27a.41.41,0,0,0-.31.11.38.38,0,0,0-.11.3v4.12h-1V60.16a1.84,1.84,0,0,1,.06-.47,1.22,1.22,0,0,1,.18-.36,1,1,0,0,1,.26-.27,1.17,1.17,0,0,1,.3-.19,1.31,1.31,0,0,1,.32-.1h2.14a1.76,1.76,0,0,1,.46.06,2.1,2.1,0,0,1,.42.22,1.27,1.27,0,0,1,.27.25,1.57,1.57,0,0,1,.18.31,1.19,1.19,0,0,1,.1.32.76.76,0,0,1,0,.3Z" transform="translate(0 -0.07)" style="fill: #f0f0f0"/>
    <path id="path5323" d="M29,62.45a.34.34,0,0,1,0,.2.62.62,0,0,1-.11.17l-.16.1H25.83a3.45,3.45,0,0,1-.42-.14,1.63,1.63,0,0,1-.4-.24,1.46,1.46,0,0,1-.34-.36,1.77,1.77,0,0,1-.23-.48,2.16,2.16,0,0,1-.09-.62V58.74h1v2.31a1.13,1.13,0,0,0,.06.36,1,1,0,0,0,.19.27.79.79,0,0,0,.62.23H28v-3.2h1Z" transform="translate(0 -0.07)" style="fill: #f0f0f0"/>
    <path id="path5325" d="M33.81,59.75H32V63H31V59.75h-1.3v-1H31V57.36h1v1.38h1.77Z" transform="translate(0 -0.07)" style="fill: #f0f0f0"/>
  </g>
  <g id="text856">
    <path id="path875" d="M7.22,17.27H4v-1H7.22ZM7.68,15H3.61v4.59h-1V14.47a.34.34,0,0,1,0-.2.54.54,0,0,1,.1-.16A.5.5,0,0,1,2.88,14h4.8Z" transform="translate(0 -0.07)" style="fill: #f0f0f0"/>
    <path id="path877" d="M9.41,14.47h-1v-.92h1Zm0,5.09h-1V15.34h1Z" transform="translate(0 -0.07)" style="fill: #f0f0f0"/>
    <path id="path879" d="M15,18.13a1.61,1.61,0,0,1,0,.31,1.7,1.7,0,0,1-.1.32,1.49,1.49,0,0,1-.18.3,1.33,1.33,0,0,1-.27.26,1.54,1.54,0,0,1-.83.24H11.48a1.21,1.21,0,0,1-.32-.11.92.92,0,0,1-.3-.18A1.11,1.11,0,0,1,10.6,19a1.19,1.19,0,0,1-.17-.36,1.3,1.3,0,0,1-.07-.48V13.55h1v4.58a.4.4,0,0,0,.11.31.41.41,0,0,0,.3.1H13.6a.37.37,0,0,0,.29-.11.46.46,0,0,0,.11-.3V16.76a.46.46,0,0,0-.11-.3.46.46,0,0,0-.29-.11H11.79v-1h2.13a2,2,0,0,1,.32.1,1.37,1.37,0,0,1,.3.19,1.66,1.66,0,0,1,.26.27,1.49,1.49,0,0,1,.17.36,1.84,1.84,0,0,1,.07.47Z" transform="translate(0 -0.07)" style="fill: #f0f0f0"/>
    <path id="path881" d="M20.5,18.13a1.3,1.3,0,0,1-.07.48,1.19,1.19,0,0,1-.17.36,1,1,0,0,1-.26.27.83.83,0,0,1-.3.18,1.1,1.1,0,0,1-.32.11H17.24A1.38,1.38,0,0,1,16,18.77a1.41,1.41,0,0,1-.13-.67V16.76a1.56,1.56,0,0,1,.16-.7,1.38,1.38,0,0,1,1.28-.76H19.1a1.37,1.37,0,0,1,.67.14,1.09,1.09,0,0,1,.44.35,1.35,1.35,0,0,1,.24.46,1.26,1.26,0,0,1,.08.47Zm-1-1.36a.42.42,0,0,0-.1-.32.48.48,0,0,0-.31-.1H17.25a.41.41,0,0,0-.31.11.46.46,0,0,0-.11.3v1.37a.38.38,0,0,0,.32.41h1.92a.35.35,0,0,0,.41-.3.21.21,0,0,0,0-.11Z" transform="translate(0 -0.07)" style="fill: #f0f0f0"/>
    <path id="path883" d="M26,19.56H25V17.22a.73.73,0,0,0,0-.36.8.8,0,0,0-.18-.27.57.57,0,0,0-.28-.17.77.77,0,0,0-.34-.07H22.37v3.21h-1V15.84a.61.61,0,0,1,0-.19.55.55,0,0,1,.27-.27h2.89a1.88,1.88,0,0,1,.42.14,1.76,1.76,0,0,1,.74.6,1.77,1.77,0,0,1,.23.48,2.16,2.16,0,0,1,.09.62Z" transform="translate(0 -0.07)" style="fill: #f0f0f0"/>
    <path id="path885" d="M31.29,18.16a1.46,1.46,0,0,1-.3.9,1.24,1.24,0,0,1-.44.35,1.3,1.3,0,0,1-.64.14H28.06a1.41,1.41,0,0,1-.45-.07,1.35,1.35,0,0,1-.46-.24,1.34,1.34,0,0,1-.34-.44,1.32,1.32,0,0,1-.14-.65,1.43,1.43,0,0,1,.07-.46,1.31,1.31,0,0,1,.24-.45,1.21,1.21,0,0,1,.43-.35,1.46,1.46,0,0,1,.65-.14H29.9v1H28.06a.39.39,0,0,0-.32.13.51.51,0,0,0-.11.31.37.37,0,0,0,.13.31.51.51,0,0,0,.31.11H29.9a.47.47,0,0,0,.32-.12.52.52,0,0,0,.11-.32V16.74a.39.39,0,0,0-.13-.32.42.42,0,0,0-.3-.12H27.67v-1H29.9a1.37,1.37,0,0,1,.45.07,1.31,1.31,0,0,1,.45.24,1.35,1.35,0,0,1,.49,1.09Z" transform="translate(0 -0.07)" style="fill: #f0f0f0"/>
    <path id="path887" d="M36.26,19.56H33.51a1.49,1.49,0,0,1-.47-.07,1.29,1.29,0,0,1-.46-.25,1.39,1.39,0,0,1-.36-.44,1.42,1.42,0,0,1-.14-.67V16.76a1.61,1.61,0,0,1,0-.31,2.07,2.07,0,0,1,.29-.62,1.6,1.6,0,0,1,.27-.25A2.53,2.53,0,0,1,33,15.4a1.84,1.84,0,0,1,.47-.06h2.75v1H33.51a.45.45,0,0,0-.31.1.47.47,0,0,0-.1.32v1.36a.35.35,0,0,0,.3.41h2.86Z" transform="translate(0 -0.07)" style="fill: #f0f0f0"/>
    <path id="path889" d="M41.17,19.56H38.41a1.43,1.43,0,0,1-.46-.07,1.15,1.15,0,0,1-.46-.25,1.39,1.39,0,0,1-.36-.44,1.42,1.42,0,0,1-.14-.67V16.76a1.61,1.61,0,0,1,0-.31,1.15,1.15,0,0,1,.11-.31,1.24,1.24,0,0,1,.45-.56,1.29,1.29,0,0,1,.83-.24h2.76v1H38.41a.36.36,0,0,0-.4.31.2.2,0,0,0,0,.11v1.36a.35.35,0,0,0,.3.41h2.86Z" transform="translate(0 -0.07)" style="fill: #f0f0f0"/>
    <path id="path891" d="M43,14.47H42v-.92h1Zm0,5.09H42V15.34h1Z" transform="translate(0 -0.07)" style="fill: #f0f0f0"/>
  </g>
  <g id="_1" data-name=" 1">
    <path d="M3.15,77.27H2v-5.1H1V71H3.15Z" transform="translate(0 -0.07)" style="fill: #f0f0f0"/>
  </g>
  <g id="_2" data-name=" 2">
    <path d="M6.72,112.26H1v-2.09a1.93,1.93,0,0,1,0-.34,1.65,1.65,0,0,1,.11-.36,1.68,1.68,0,0,1,.2-.34,2,2,0,0,1,.3-.28,1.2,1.2,0,0,1,.41-.2,1.82,1.82,0,0,1,.52-.08H5.12a.4.4,0,0,0,.34-.11.42.42,0,0,0,.12-.34v-.5a.44.44,0,0,0-.12-.34.41.41,0,0,0-.33-.12H1.51V106H5.13a1.86,1.86,0,0,1,.52.07,3.11,3.11,0,0,1,.41.2,2.06,2.06,0,0,1,.3.29,1.38,1.38,0,0,1,.2.33,1.18,1.18,0,0,1,.12.36,1.82,1.82,0,0,1,0,.33v.51a1.57,1.57,0,0,1-.16.74,1.46,1.46,0,0,1-.4.49,1.5,1.5,0,0,1-.51.28,1.88,1.88,0,0,1-.52.08H2.58a.41.41,0,0,0-.22,0,.32.32,0,0,0-.13.1,1,1,0,0,0-.07.15v1.17H6.72Z" transform="translate(0 -0.07)" style="fill: #f0f0f0"/>
  </g>
  <g id="_3" data-name=" 3">
    <path d="M6.21,145.66a1.7,1.7,0,0,1-.16.74,1.46,1.46,0,0,1-.4.49,1.39,1.39,0,0,1-.51.27,1.54,1.54,0,0,1-.52.09H1v-1.13H4.62A.44.44,0,0,0,5,146a.47.47,0,0,0,.11-.34v-1H1v-1.14H5.07v-1a.4.4,0,0,0-.33-.46h0a.24.24,0,0,0-.12,0H1V141H4.62a1.86,1.86,0,0,1,.52.07,2.22,2.22,0,0,1,.41.2,1.51,1.51,0,0,1,.5.62,2.53,2.53,0,0,1,.12.36,1.82,1.82,0,0,1,0,.33Z" transform="translate(0 -0.07)" style="fill: #f0f0f0"/>
  </g>
  <g id="_5" data-name=" 5">
    <path d="M6.72,180.65a1.93,1.93,0,0,1,0,.34,1.12,1.12,0,0,1-.12.35,2.33,2.33,0,0,1-.2.34,1,1,0,0,1-.3.28,1.2,1.2,0,0,1-.41.2,1.81,1.81,0,0,1-.51.08H1v-1.13H5.14a.39.39,0,0,0,.32-.13.5.5,0,0,0,.12-.33v-.5a.47.47,0,0,0-.11-.34.44.44,0,0,0-.34-.12H2.58a1.57,1.57,0,0,1-.74-.16,1.48,1.48,0,0,1-.75-.91A1.54,1.54,0,0,1,1,178.1V176H6.2v1.13H2.13v1a.42.42,0,0,0,.12.34.44.44,0,0,0,.33.11H5.14a1.52,1.52,0,0,1,.51.09,1.67,1.67,0,0,1,.51.27,1.76,1.76,0,0,1,.4.5,1.57,1.57,0,0,1,.16.74Z" transform="translate(0 -0.07)" style="fill: #f0f0f0"/>
  </g>
  <g id="_8" data-name=" 8">
    <path d="M6.72,215.64a1.93,1.93,0,0,1,0,.34,1.12,1.12,0,0,1-.12.35,2.33,2.33,0,0,1-.2.34,2,2,0,0,1-.3.28,1.2,1.2,0,0,1-.41.2,1.88,1.88,0,0,1-.52.08H2.58a1.48,1.48,0,0,1-.51-.09,1.3,1.3,0,0,1-.52-.27,1.44,1.44,0,0,1-.39-.49,1.6,1.6,0,0,1-.16-.74v-.5a2,2,0,0,1,0-.35,1.37,1.37,0,0,1,.11-.36,2.39,2.39,0,0,1,.21-.34,1.58,1.58,0,0,1,.3-.28,1.65,1.65,0,0,1-.11-.36,2.16,2.16,0,0,1,0-.36v-.5a1.57,1.57,0,0,1,.16-.74,1.33,1.33,0,0,1,.39-.49,1.3,1.3,0,0,1,.52-.27,1.48,1.48,0,0,1,.51-.09H4.62a1.86,1.86,0,0,1,.52.07,2.22,2.22,0,0,1,.41.2,1.55,1.55,0,0,1,.61,1,1.93,1.93,0,0,1,0,.34v.5a1.59,1.59,0,0,1-.15.74,1.32,1.32,0,0,1,.26.22,1.46,1.46,0,0,1,.21.28,1.94,1.94,0,0,1,.15.36,1.7,1.7,0,0,1,0,.45Zm-1.14-.5a.42.42,0,0,0-.12-.34.45.45,0,0,0-.33-.12H2.58a.46.46,0,0,0-.33.13.5.5,0,0,0-.12.33v.5a.42.42,0,0,0,.13.33.39.39,0,0,0,.32.13H5.13a.42.42,0,0,0,.33-.13.5.5,0,0,0,.12-.33Zm-.51-2.55a.47.47,0,0,0-.11-.34.47.47,0,0,0-.34-.12H3.1a.42.42,0,0,0-.34.12.47.47,0,0,0-.11.34v.5a.48.48,0,0,0,.11.34.44.44,0,0,0,.33.11H4.62a.39.39,0,0,0,.45-.32h0a.29.29,0,0,0,0-.13Z" transform="translate(0 -0.07)" style="fill: #f0f0f0"/>
  </g>
  <g id="_13" data-name=" 13">
    <path d="M3.15,252.22H2v-5.1H1V246H3.15Z" transform="translate(0 -0.07)" style="fill: #f0f0f0"/>
    <path d="M9.63,250.63a1.73,1.73,0,0,1-.16.74,1.44,1.44,0,0,1-.91.76,1.52,1.52,0,0,1-.51.09H4.43v-1.13H8.05a.44.44,0,0,0,.34-.12.48.48,0,0,0,.11-.34v-1H4.43v-1.14H8.5v-1a.4.4,0,0,0-.33-.46H4.43V246H8.05a1.86,1.86,0,0,1,.52.07,1.36,1.36,0,0,1,.4.2,1.18,1.18,0,0,1,.3.29,1.15,1.15,0,0,1,.21.33,1.89,1.89,0,0,1,.11.36,1.82,1.82,0,0,1,0,.33Z" transform="translate(0 -0.07)" style="fill: #f0f0f0"/>
  </g>
  <g id="_21" data-name=" 21">
    <path d="M6.72,287.21H1v-2.09a1.93,1.93,0,0,1,0-.34,1.37,1.37,0,0,1,.11-.36,1.45,1.45,0,0,1,.2-.34,1.58,1.58,0,0,1,.3-.28,1,1,0,0,1,.41-.2,1.82,1.82,0,0,1,.52-.08H5.12a.4.4,0,0,0,.34-.11.44.44,0,0,0,.12-.34v-.5a.42.42,0,0,0-.12-.34.41.41,0,0,0-.33-.12H1.51V281H5.13a1.86,1.86,0,0,1,.52.07,2.22,2.22,0,0,1,.41.2,1.64,1.64,0,0,1,.3.29,1.38,1.38,0,0,1,.2.33,1.09,1.09,0,0,1,.12.36,1.93,1.93,0,0,1,0,.34v.5a1.6,1.6,0,0,1-.16.74,1.57,1.57,0,0,1-.4.49,1.7,1.7,0,0,1-.51.28,1.88,1.88,0,0,1-.52.08H2.36a.28.28,0,0,0-.13.11.61.61,0,0,0-.07.14v1.17H6.72Z" transform="translate(0 -0.07)" style="fill: #f0f0f0"/>
    <path d="M9.69,287.21H8.56v-5.1h-1V281H9.69Z" transform="translate(0 -0.07)" style="fill: #f0f0f0"/>
  </g>
  <g id="_34" data-name=" 34">
    <path d="M6.21,320.61a1.69,1.69,0,0,1-.16.73,1.37,1.37,0,0,1-.4.49,1.26,1.26,0,0,1-.51.27,1.54,1.54,0,0,1-.52.09H1v-1.12H4.62A.47.47,0,0,0,5,321a.48.48,0,0,0,.11-.34v-1H1v-1.14H5.07v-1a.4.4,0,0,0-.33-.46H1V316H4.62a1.55,1.55,0,0,1,.52.07,1.42,1.42,0,0,1,.41.2,1.45,1.45,0,0,1,.5.62,1.9,1.9,0,0,1,.12.36,1.82,1.82,0,0,1,0,.33Z" transform="translate(0 -0.07)" style="fill: #f0f0f0"/>
    <path d="M13,322.19H11.86v-2.54h-4a.41.41,0,0,1-.22,0,.59.59,0,0,1-.18-.13.36.36,0,0,1-.12-.18.41.41,0,0,1,0-.22V316H8.41v2.54h3.45V316H13Z" transform="translate(0 -0.07)" style="fill: #f0f0f0"/>
  </g>
</svg>
