<?xml version="1.0" encoding="UTF-8" standalone="no"?>
<svg id="SvgjsSvg1006" xmlns="http://www.w3.org/2000/svg" width="44.99" height="379.88" viewBox="0 0 44.99 379.88">
  <title>PrimeClockDivider</title>
  <path id="SvgjsRect1008" d="M0,.07H45V380H0Z" transform="translate(0 -0.07)" style="fill: #222"/>
  <rect id="SvgjsRect1009" x="7.5" y="32.99" width="29.99" height="31.99" style="fill: #91b06f"/>
  <rect id="SvgjsRect1010" y="69.98" width="34.99" height="29.99" style="fill: #797979"/>
  <polygon id="SvgjsPolygon1011" points="34.99 69.98 44.99 84.97 34.99 99.97 34.99 69.98" style="fill: #797979"/>
  <rect id="SvgjsRect1012" y="104.97" width="34.99" height="29.99" style="fill: #797979"/>
  <polygon id="SvgjsPolygon1013" points="34.99 104.97 44.99 119.96 34.99 134.96 34.99 104.97" style="fill: #797979"/>
  <rect id="SvgjsRect1014" y="139.96" width="34.99" height="29.99" style="fill: #797979"/>
  <polygon id="SvgjsPolygon1015" points="34.99 139.96 44.99 154.95 34.99 169.95 34.99 139.96" style="fill: #797979"/>
  <path id="SvgjsRect1016" d="M0,175H35v30H0Z" transform="translate(0 -0.07)" style="fill: #797979"/>
  <polygon id="SvgjsPolygon1017" points="34.99 174.94 44.99 189.94 34.99 204.94 34.99 174.94" style="fill: #797979"/>
  <rect id="SvgjsRect1018" y="209.93" width="34.99" height="29.99" style="fill: #797979"/>
  <polygon id="SvgjsPolygon1019" points="34.99 209.93 44.99 224.93 34.99 239.92 34.99 209.93" style="fill: #797979"/>
  <rect id="SvgjsRect1020" y="244.92" width="34.99" height="29.99" style="fill: #797979"/>
  <polygon id="SvgjsPolygon1021" points="34.99 244.92 44.99 259.92 34.99 274.91 34.99 244.92" style="fill: #797979"/>
  <rect id="SvgjsRect1022" y="279.91" width="34.99" height="29.99" style="fill: #797979"/>
  <polygon id="SvgjsPolygon1023" points="34.99 279.91 44.99 294.91 34.99 309.9 34.99 279.91" style="fill: #797979"/>
  <rect id="SvgjsRect1024" y="314.9" width="34.99" height="29.99" style="fill: #797979"/>
  <polygon id="SvgjsPolygon1025" points="34.99 314.9 44.99 329.9 34.99 344.89 34.99 314.9" style="fill: #797979"/>
  <g id="text4650">
    <path id="path5271" d="M21,360.75a4.47,4.47,0,0,1-.21,1.45,4.32,4.32,0,0,1-.53,1.13,3.24,3.24,0,0,1-.78.83,4.6,4.6,0,0,1-.93.56,3.77,3.77,0,0,1-1,.32,4.06,4.06,0,0,1-.92.11H6.25v-2.71H16.69a1.53,1.53,0,0,0,1.2-.46,1.63,1.63,0,0,0,.44-1.23,2,2,0,0,0-.11-.68,1.58,1.58,0,0,0-.34-.55,1.17,1.17,0,0,0-.52-.35,1.7,1.7,0,0,0-.67-.13H10.47a4.58,4.58,0,0,1-1.42-.22,4.26,4.26,0,0,1-1.42-.77,4.1,4.1,0,0,1-1.08-1.36,5.13,5.13,0,0,1,0-4.1,4.07,4.07,0,0,1,2.5-2.13,4.86,4.86,0,0,1,1.42-.24h9.21V353H10.47a1.54,1.54,0,0,0-1.21.46,2,2,0,0,0,0,2.48,1.56,1.56,0,0,0,1.21.45h6.24a3.52,3.52,0,0,1,.92.12,4.19,4.19,0,0,1,1,.33,5.23,5.23,0,0,1,.93.59,3.19,3.19,0,0,1,.77.83,4.05,4.05,0,0,1,.54,1.13,4.66,4.66,0,0,1,.2,1.43Z" transform="translate(0 -0.07)" style="fill: #f0f0f0"/>
    <path id="path5273" d="M39,365.15H35.12L29,359H27.12v-2.72H29l6.09-6.1H39l-7.68,7.46Zm-12.93,0H23.33V350.22H26Z" transform="translate(0 -0.07)" style="fill: #f0f0f0"/>
  </g>
  <g id="text5205">
    <path id="path5340" d="M10,27.4a3.18,3.18,0,0,1-.89,2.24,3.14,3.14,0,0,1-1,.65,3.59,3.59,0,0,1-1.25.23H3.17a1.28,1.28,0,0,1-.27-.05.61.61,0,0,1-.36-.36.66.66,0,0,1-.06-.27v-6.1a.63.63,0,0,1,.06-.27.64.64,0,0,1,.14-.22.67.67,0,0,1,.22-.19.62.62,0,0,1,.27,0H6.82a3.35,3.35,0,0,1,1.25.24,2.83,2.83,0,0,1,1,.65,3.14,3.14,0,0,1,.65,1A3.45,3.45,0,0,1,10,26.18ZM8.59,26.18a2,2,0,0,0-.13-.73,1.62,1.62,0,0,0-.92-.91,1.8,1.8,0,0,0-.72-.13h-3v4.76h3a2,2,0,0,0,.72-.11,1.62,1.62,0,0,0,.92-.91,2,2,0,0,0,.13-.73Z" transform="translate(0 -0.07)" style="fill: #f0f0f0"/>
    <path id="path5342" d="M12.51,23.74H11.16V22.51h1.35Zm0,6.78H11.16V24.89h1.35Z" transform="translate(0 -0.07)" style="fill: #f0f0f0"/>
    <path id="path5344" d="M20.51,24.89A10.38,10.38,0,0,1,20,26.3a9.82,9.82,0,0,1-.7,1.32,8.38,8.38,0,0,1-.9,1.16,5.6,5.6,0,0,1-1.08.92,5.05,5.05,0,0,1-2.81.83.57.57,0,0,1-.26,0,.55.55,0,0,1-.22-.14.58.58,0,0,1-.15-.21,1.22,1.22,0,0,1,0-.27v-5h1.36v4.24a2.15,2.15,0,0,0,.93-.22,3.6,3.6,0,0,0,.87-.56,5.16,5.16,0,0,0,.75-.8,7.06,7.06,0,0,0,.62-.92,8,8,0,0,0,.46-.93,6.48,6.48,0,0,0,.28-.81Z" transform="translate(0 -0.07)" style="fill: #f0f0f0"/>
    <path id="path5346" d="M22.37,23.74H21V22.51h1.35Zm0,6.78H21V24.89h1.35Z" transform="translate(0 -0.07)" style="fill: #f0f0f0"/>
    <path id="path5348" d="M29.84,28.62a2.72,2.72,0,0,1-.08.63,2.47,2.47,0,0,1-.24.49,1.76,1.76,0,0,1-.74.6,2.16,2.16,0,0,1-.43.14H25.5a2.28,2.28,0,0,1-.63-.09,2.12,2.12,0,0,1-.48-.23,2,2,0,0,1-.36-.35,1.63,1.63,0,0,1-.24-.4,2.3,2.3,0,0,1-.14-.42,1.92,1.92,0,0,1,0-.41V26.79a1.89,1.89,0,0,1,.19-.88,1.84,1.84,0,0,1,.48-.59,1.86,1.86,0,0,1,.62-.33,2.11,2.11,0,0,1,.61-.1H28v1.36H25.51a.56.56,0,0,0-.41.14.53.53,0,0,0-.14.4v1.82a.64.64,0,0,0,.13.42.56.56,0,0,0,.41.14H28a.49.49,0,0,0,.55-.42.28.28,0,0,0,0-.13V22.51h1.35Z" transform="translate(0 -0.07)" style="fill: #f0f0f0"/>
    <path id="path5350" d="M37.2,26.76a2.16,2.16,0,0,1-.1.61,2,2,0,0,1-.32.6,2,2,0,0,1-.58.46,1.83,1.83,0,0,1-.86.19H32.9V27.33h2.44a.58.58,0,0,0,.43-.16.66.66,0,0,0,.15-.42.51.51,0,0,0-.18-.42.59.59,0,0,0-.4-.15H32.9a.54.54,0,0,0-.43.17.57.57,0,0,0-.15.42v1.89a.56.56,0,0,0,.16.42.66.66,0,0,0,.43.15h2.43v1.29H32.9a2.51,2.51,0,0,1-.61-.1,1.79,1.79,0,0,1-.61-.32A2,2,0,0,1,31,28.66v-1.9a2.11,2.11,0,0,1,.1-.61,1.93,1.93,0,0,1,.32-.6,1.53,1.53,0,0,1,.58-.49,1.76,1.76,0,0,1,.87-.19H35.3a2,2,0,0,1,1.21.42,2,2,0,0,1,.47.58A2.09,2.09,0,0,1,37.2,26.76Z" transform="translate(0 -0.07)" style="fill: #f0f0f0"/>
    <path id="path5352" d="M43.05,26.25H40a.5.5,0,0,0-.42.14.53.53,0,0,0-.14.4v3.73H38.09V26.79a2.18,2.18,0,0,1,.09-.63,2.16,2.16,0,0,1,.24-.48,1.29,1.29,0,0,1,.34-.36,2.06,2.06,0,0,1,.4-.25,2.13,2.13,0,0,1,.43-.13,1.75,1.75,0,0,1,.4-.05h3.06Z" transform="translate(0 -0.07)" style="fill: #f0f0f0"/>
  </g>
  <g id="text5209">
    <path id="path5317" d="M12.32,57.87h-1V57h1Zm0,5.09h-1V58.74h1Z" transform="translate(0 -0.07)" style="fill: #f0f0f0"/>
    <path id="path5319" d="M18,63H17V60.62a.73.73,0,0,0-.07-.36.8.8,0,0,0-.46-.44.77.77,0,0,0-.34-.07H14.31V63h-1V59.24a.6.6,0,0,1,0-.19.36.36,0,0,1,.11-.16.34.34,0,0,1,.17-.11h2.88a1.88,1.88,0,0,1,.42.14,1.47,1.47,0,0,1,.4.24,1.26,1.26,0,0,1,.33.36,1.74,1.74,0,0,1,.32,1.1Z" transform="translate(0 -0.07)" style="fill: #f0f0f0"/>
    <path id="path5321" d="M23.52,61.53a1.59,1.59,0,0,1-.07.48,1,1,0,0,1-.17.36,1.33,1.33,0,0,1-.26.27,1.49,1.49,0,0,1-.3.18,1.73,1.73,0,0,1-.32.11H20.26v-1H22.1a.45.45,0,0,0,.3-.1.45.45,0,0,0,.1-.31V60.17a.35.35,0,0,0-.1-.31.38.38,0,0,0-.3-.11H20.27a.41.41,0,0,0-.31.11.38.38,0,0,0-.11.3v4.12h-1V60.16a1.84,1.84,0,0,1,.06-.47,1.22,1.22,0,0,1,.18-.36,1,1,0,0,1,.26-.27,1.17,1.17,0,0,1,.3-.19,1.31,1.31,0,0,1,.32-.1h2.14a1.76,1.76,0,0,1,.46.06,2.1,2.1,0,0,1,.42.22,1.27,1.27,0,0,1,.27.25,1.57,1.57,0,0,1,.18.31,1.19,1.19,0,0,1,.1.32.76.76,0,0,1,0,.3Z" transform="translate(0 -0.07)" style="fill: #f0f0f0"/>
    <path id="path5323" d="M29,62.45a.34.34,0,0,1,0,.2.62.62,0,0,1-.11.17l-.16.1H25.83a3.45,3.45,0,0,1-.42-.14,1.63,1.63,0,0,1-.4-.24,1.46,1.46,0,0,1-.34-.36,1.77,1.77,0,0,1-.23-.48,2.16,2.16,0,0,1-.09-.62V58.74h1v2.31a1.13,1.13,0,0,0,.06.36,1,1,0,0,0,.19.27.79.79,0,0,0,.62.23H28v-3.2h1Z" transform="translate(0 -0.07)" style="fill: #f0f0f0"/>
    <path id="path5325" d="M33.81,59.75H32V63H31V59.75h-1.3v-1H31V57.36h1v1.38h1.77Z" transform="translate(0 -0.07)" style="fill: #f0f0f0"/>
  </g>
  <g id="text1405">
    <path id="path1950" d="M14.23,15.72a2.81,2.81,0,0,1-.12.82,2.59,2.59,0,0,1-.31.65,2.24,2.24,0,0,1-.45.47,2.93,2.93,0,0,1-.53.33,2.81,2.81,0,0,1-.56.18,2.48,2.48,0,0,1-.54.06H8.66V16.87h3.06a1.52,1.52,0,0,0,.47-.1,1.24,1.24,0,0,0,.37-.24.89.89,0,0,0,.23-.34,1.27,1.27,0,0,0,.09-.47v-.66a3.57,3.57,0,0,0-.11-.47,1.69,1.69,0,0,0-.23-.36,1.36,1.36,0,0,0-.35-.24,1.09,1.09,0,0,0-.47-.08H8.67a.56.56,0,0,0-.41.14.53.53,0,0,0-.14.4v5.61H6.77V14.49A2.05,2.05,0,0,1,7,13.61a1.75,1.75,0,0,1,.43-.55,1.6,1.6,0,0,1,.62-.32,1.78,1.78,0,0,1,.61-.11h3.06a2.92,2.92,0,0,1,.83.12,2.7,2.7,0,0,1,.64.31,2.51,2.51,0,0,1,.47.45,2.81,2.81,0,0,1,.34.55,2.72,2.72,0,0,1,.25,1.09Z" transform="translate(0 -0.07)" style="fill: #f0f0f0"/>
    <path id="path1952" d="M20.14,15.78h-3a.6.6,0,0,0-.42.14.56.56,0,0,0-.14.41v3.73H15.19V16.33a2,2,0,0,1,.09-.63,1.52,1.52,0,0,1,.23-.48,1.29,1.29,0,0,1,.34-.36,2.06,2.06,0,0,1,.4-.25,1.69,1.69,0,0,1,.42-.13,2,2,0,0,1,.41-.05h3.06Z" transform="translate(0 -0.07)" style="fill: #f0f0f0"/>
    <path id="path1954" d="M22.4,13.27H21V12.06H22.4Zm0,6.79H21V14.43H22.4Z" transform="translate(0 -0.07)" style="fill: #f0f0f0"/>
    <path id="path1956" d="M28.71,20.06H27.36V16.33a.56.56,0,0,0-.14-.41.6.6,0,0,0-.42-.14H25v4.28H23.69v-5a.75.75,0,0,1,0-.26.62.62,0,0,1,.15-.21.8.8,0,0,1,.21-.15.86.86,0,0,1,.27,0h2.44a2.11,2.11,0,0,1,.61.1,2,2,0,0,1,.61.32v-.42h1.84a1.75,1.75,0,0,1,.4,0,1.47,1.47,0,0,1,.42.13,1.55,1.55,0,0,1,.41.25,1.29,1.29,0,0,1,.34.36,1.77,1.77,0,0,1,.23.48,2.28,2.28,0,0,1,.09.63v3.77H30.41V16.33a.56.56,0,0,0-.14-.41.53.53,0,0,0-.4-.14H28.65a2.57,2.57,0,0,1,.06.55Z" transform="translate(0 -0.07)" style="fill: #f0f0f0"/>
    <path id="path1958" d="M39.06,16.29a2.51,2.51,0,0,1-.1.61,2,2,0,0,1-.32.61,1.8,1.8,0,0,1-1.45.65H34.75V16.87h2.44a.58.58,0,0,0,.43-.16.66.66,0,0,0,.15-.43.58.58,0,0,0-.17-.41.63.63,0,0,0-.41-.15H34.75a.54.54,0,0,0-.43.17.61.61,0,0,0-.15.41v1.9a.52.52,0,0,0,.17.42.59.59,0,0,0,.42.15h2.43v1.29H34.75a2.11,2.11,0,0,1-.61-.1,1.52,1.52,0,0,1-.6-.32,2,2,0,0,1-.47-.57,1.86,1.86,0,0,1-.18-.87V16.29a2.08,2.08,0,0,1,.09-.6,1.93,1.93,0,0,1,.32-.6,1.57,1.57,0,0,1,.58-.47,1.76,1.76,0,0,1,.87-.19h2.44a2.11,2.11,0,0,1,.61.1,1.59,1.59,0,0,1,.6.32,1.65,1.65,0,0,1,.47.58A1.83,1.83,0,0,1,39.06,16.29Z" transform="translate(0 -0.07)" style="fill: #f0f0f0"/>
  </g>
  <g id="_2" data-name=" 2">
    <path d="M6.72,77.27H1V75.18a1.93,1.93,0,0,1,0-.34,1.65,1.65,0,0,1,.11-.36,1.68,1.68,0,0,1,.2-.34,2,2,0,0,1,.3-.28,1.2,1.2,0,0,1,.41-.2,1.82,1.82,0,0,1,.52-.08H5.12a.51.51,0,0,0,.35-.11.45.45,0,0,0,.11-.34v-.5a.44.44,0,0,0-.12-.34.45.45,0,0,0-.33-.12H1.51V71H5.13a2.32,2.32,0,0,1,.52.07,3.11,3.11,0,0,1,.41.2,2.06,2.06,0,0,1,.3.29,1.38,1.38,0,0,1,.2.33,1.27,1.27,0,0,1,.12.36,1.82,1.82,0,0,1,0,.33v.51a1.55,1.55,0,0,1-1.07,1.51,1.88,1.88,0,0,1-.52.08H2.58a.41.41,0,0,0-.22,0,.28.28,0,0,0-.13.11.91.91,0,0,0-.07.14v1.17H6.72Z" transform="translate(0 -0.07)" style="fill: #f0f0f0"/>
  </g>
  <g id="_3" data-name=" 3">
    <path d="M6.21,112.19a1.7,1.7,0,0,1-.16.74,1.46,1.46,0,0,1-.4.49,1.26,1.26,0,0,1-.51.27,1.54,1.54,0,0,1-.52.09H1v-1.13H4.62a.44.44,0,0,0,.38-.12.47.47,0,0,0,.11-.34v-1H1V110H5.07v-1a.4.4,0,0,0-.33-.46H1v-1.13H4.62a1.86,1.86,0,0,1,.52.07,2.22,2.22,0,0,1,.41.2,1.51,1.51,0,0,1,.5.62,2.53,2.53,0,0,1,.12.36,1.82,1.82,0,0,1,0,.33Z" transform="translate(0 -0.07)" style="fill: #f0f0f0"/>
  </g>
  <g id="_5" data-name=" 5">
    <path d="M6.72,147.18a1.93,1.93,0,0,1,0,.34,1.12,1.12,0,0,1-.12.35,2.33,2.33,0,0,1-.2.34,1,1,0,0,1-.3.28,1.2,1.2,0,0,1-.41.2,1.81,1.81,0,0,1-.51.08H1v-1.13H5.14a.46.46,0,0,0,.33-.13.57.57,0,0,0,.11-.33v-.5a.48.48,0,0,0-.11-.34.44.44,0,0,0-.34-.12H2.58a1.57,1.57,0,0,1-.74-.16,1.48,1.48,0,0,1-.75-.91,1.54,1.54,0,0,1-.09-.52v-2.09H6.2v1.13H2.13v1a.42.42,0,0,0,.12.34.44.44,0,0,0,.33.11H5.14a1.52,1.52,0,0,1,.51.09,1.67,1.67,0,0,1,.51.27,1.72,1.72,0,0,1,.4.49,1.61,1.61,0,0,1,.16.75Z" transform="translate(0 -0.07)" style="fill: #f0f0f0"/>
  </g>
  <g id="_7" data-name=" 7">
    <path d="M6.13,177.82a.56.56,0,0,1,0,.56L3,183.76H1.69l3-5.1H1v-1.13H5.64a.6.6,0,0,1,.29.08A.58.58,0,0,1,6.13,177.82Z" transform="translate(0 -0.07)" style="fill: #f0f0f0"/>
  </g>
  <g id="_11" data-name=" 11">
    <path d="M3.15,218.75H2v-5.1H1v-1.13H3.15Z" transform="translate(0 -0.07)" style="fill: #f0f0f0"/>
    <path d="M6.31,218.75H5.17v-5.1h-1v-1.13H6.31Z" transform="translate(0 -0.07)" style="fill: #f0f0f0"/>
  </g>
  <g id="_13" data-name=" 13">
    <path d="M3.15,253.74H2v-5.1H1v-1.13H3.15Z" transform="translate(0 -0.07)" style="fill: #f0f0f0"/>
    <path d="M9.63,252.15a1.73,1.73,0,0,1-.16.74,1.44,1.44,0,0,1-.91.76,1.52,1.52,0,0,1-.51.09H4.43v-1.13H8.05a.44.44,0,0,0,.34-.12.48.48,0,0,0,.11-.34v-1H4.43V250H8.5v-1a.4.4,0,0,0-.33-.46H4.43V247.4H8.05a1.86,1.86,0,0,1,.52.07,1.36,1.36,0,0,1,.4.2,1.7,1.7,0,0,1,.31.29,1.38,1.38,0,0,1,.2.33,1.89,1.89,0,0,1,.11.36,1.82,1.82,0,0,1,0,.33Z" transform="translate(0 -0.07)" style="fill: #f0f0f0"/>
  </g>
  <g id="_17" data-name=" 17">
    <path d="M3.15,288.73H2v-5.1H1V282.5H3.15Z" transform="translate(0 -0.07)" style="fill: #f0f0f0"/>
    <path d="M9.27,282.79a.64.64,0,0,1,.07.28.73.73,0,0,1-.07.29l-3.13,5.37H4.83l3-5.1H4.13V282.5H8.78a.57.57,0,0,1,.28.08A.53.53,0,0,1,9.27,282.79Z" transform="translate(0 -0.07)" style="fill: #f0f0f0"/>
  </g>
  <g id="_19" data-name=" 19">
    <path d="M3.15,322.16H2v-5.08H1V316H3.15Z" transform="translate(0 -0.07)" style="fill: #f0f0f0"/>
    <path d="M4.21,318v-.51a1.82,1.82,0,0,1,0-.33,1.37,1.37,0,0,1,.11-.36,1.94,1.94,0,0,1,.21-.34,1.58,1.58,0,0,1,.3-.28,1.2,1.2,0,0,1,.41-.2,1.51,1.51,0,0,1,.56,0H8.25a2,2,0,0,1,.47.16,2.07,2.07,0,0,1,.45.27,2,2,0,0,1,.63.93,2.26,2.26,0,0,1,.1.69v2a2.07,2.07,0,0,1-.36,1.22,2,2,0,0,1-.37.39,2.07,2.07,0,0,1-.45.27,2,2,0,0,1-.47.15,1.38,1.38,0,0,1-.45.05H5V321H7.83a1.8,1.8,0,0,0,.39-.08,2,2,0,0,0,.31-.19,1,1,0,0,0,.19-.29,1.12,1.12,0,0,0,.07-.4v-.45H5.45a1.09,1.09,0,0,1-.36-.12,2.63,2.63,0,0,1-.33-.2,1.64,1.64,0,0,1-.29-.3,2.17,2.17,0,0,1-.19-.41A1.66,1.66,0,0,1,4.21,318Zm4.58,0a1.05,1.05,0,0,0-.07-.4.93.93,0,0,0-.51-.5,1.26,1.26,0,0,0-.38-.06h-2a.4.4,0,0,0-.33.13.39.39,0,0,0-.13.32V318a.44.44,0,0,0,.12.34.49.49,0,0,0,.35.11h3Z" transform="translate(0 -0.07)" style="fill: #f0f0f0"/>
  </g>
</svg>
