<?xml version="1.0" encoding="UTF-8" standalone="no"?>
<svg id="SvgjsSvg1006" xmlns="http://www.w3.org/2000/svg" width="60.12" height="380" viewBox="0 0 60.12 380">
  <title>RotatingClockDivider2</title>
  <path id="SvgjsRect1008" d="M0,0H60V380H0Z" transform="translate(0.12 0)" style="fill: #222"/>
  <rect id="SvgjsRect1009" x="5.12" y="33" width="50" height="32" style="fill: #91b06f"/>
  <rect id="SvgjsRect1010" x="0.12" y="70" width="50" height="30" style="fill: #5373cd"/>
  <polygon id="SvgjsPolygon1011" points="50.12 70 60.12 85 50.12 100 50.12 70" style="fill: #5373cd"/>
  <rect id="SvgjsRect1012" x="0.12" y="105" width="50" height="30" style="fill: #bd7370"/>
  <polygon id="SvgjsPolygon1013" points="50.12 105 60.12 120 50.12 135 50.12 105" style="fill: #bd7370"/>
  <rect id="SvgjsRect1014" x="0.12" y="140" width="50" height="30" style="fill: #4d9270"/>
  <polygon id="SvgjsPolygon1015" points="50.12 140 60.12 155 50.12 170 50.12 140" style="fill: #4d9270"/>
  <path id="SvgjsRect1016" d="M0,175H50v30H0Z" transform="translate(0.12 0)" style="fill: #bd7370"/>
  <polygon id="SvgjsPolygon1017" points="50.12 175 60.12 190 50.12 205 50.12 175" style="fill: #bd7370"/>
  <rect id="SvgjsRect1018" x="0.12" y="210" width="50" height="30" style="fill: #5373cd"/>
  <polygon id="SvgjsPolygon1019" points="50.12 210 60.12 225 50.12 240 50.12 210" style="fill: #5373cd"/>
  <rect id="SvgjsRect1020" x="0.12" y="245" width="50" height="30" style="fill: #4d9270"/>
  <polygon id="SvgjsPolygon1021" points="50.12 245 60.12 260 50.12 275 50.12 245" style="fill: #4d9270"/>
  <rect id="SvgjsRect1022" x="0.12" y="280" width="50" height="30" style="fill: #5373cd"/>
  <polygon id="SvgjsPolygon1023" points="50.12 280 60.12 295 50.12 310 50.12 280" style="fill: #5373cd"/>
  <rect id="SvgjsRect1024" x="0.12" y="315" width="50" height="30" style="fill: #bd7370"/>
  <polygon id="SvgjsPolygon1025" points="50.12 315 60.12 330 50.12 345 50.12 315" style="fill: #bd7370"/>
  <g id="text4650">
    <path id="path5271" d="M28.3,360.8a4.66,4.66,0,0,1-.21,1.45,4.36,4.36,0,0,1-.53,1.13,3.63,3.63,0,0,1-.78.83,4.51,4.51,0,0,1-.93.56,3.88,3.88,0,0,1-1,.32,4.35,4.35,0,0,1-.92.11H13.5v-2.71H24a1.53,1.53,0,0,0,1.2-.46,1.66,1.66,0,0,0,.44-1.23,2.06,2.06,0,0,0-.11-.68,1.64,1.64,0,0,0-.34-.55,1.29,1.29,0,0,0-.52-.35,1.78,1.78,0,0,0-.67-.13H17.72a5,5,0,0,1-1.42-.22,4.38,4.38,0,0,1-1.42-.77,4.12,4.12,0,0,1-1.08-1.36,4.58,4.58,0,0,1-.43-2.06,4.51,4.51,0,0,1,.43-2.05,4.1,4.1,0,0,1,2.5-2.13,4.75,4.75,0,0,1,1.42-.24h9.22V353H17.72a1.57,1.57,0,0,0-1.21.47,2,2,0,0,0,0,2.48,1.6,1.6,0,0,0,1.21.45H24a3.81,3.81,0,0,1,.92.12,4.45,4.45,0,0,1,1,.33,4.56,4.56,0,0,1,.93.59,3.6,3.6,0,0,1,.77.83,3.94,3.94,0,0,1,.54,1.13,4.84,4.84,0,0,1,.2,1.43Z" transform="translate(0.12 0)" style="fill: #f0f0f0"/>
    <path id="path5273" d="M46.23,365.2H42.38l-6.09-6.11H34.38v-2.72h1.91l6.09-6.11h3.85l-7.68,7.47Zm-12.93,0H30.59V350.26H33.3Z" transform="translate(0.12 0)" style="fill: #f0f0f0"/>
  </g>
  <g id="text5241">
    <path id="path5276" d="M4.56,326.9,1,332.5H-.06l3.53-5.6Z" transform="translate(0.12 0)" style="fill: #f0f0f0"/>
    <path id="path5278" d="M10.27,331.07a1.71,1.71,0,0,1,0,.31,1.35,1.35,0,0,1-.11.32,2.38,2.38,0,0,1-.18.3,1.39,1.39,0,0,1-.28.26,1.2,1.2,0,0,1-.36.17,1.35,1.35,0,0,1-.46.07H6.55a1.56,1.56,0,0,1-.46-.07,1.34,1.34,0,0,1-.47-.25,1.29,1.29,0,0,1-.35-.44,1.36,1.36,0,0,1-.14-.67v-.45a1.71,1.71,0,0,1,0-.31,2.07,2.07,0,0,1,.1-.33,2.49,2.49,0,0,1,.19-.3,1.27,1.27,0,0,1,.27-.25,2.07,2.07,0,0,1-.1-.33,1.87,1.87,0,0,1,0-.32v-.46a1.46,1.46,0,0,1,.14-.66,1.35,1.35,0,0,1,.82-.68A1.4,1.4,0,0,1,7,326.9H8.38a1.68,1.68,0,0,1,.47.06,1.82,1.82,0,0,1,.37.18,1.66,1.66,0,0,1,.27.26,1.83,1.83,0,0,1,.18.3,1.31,1.31,0,0,1,.1.32,1.77,1.77,0,0,1,0,.3v.46a1.54,1.54,0,0,1-.14.67,1.37,1.37,0,0,1,.23.19,1.22,1.22,0,0,1,.2.25,1.61,1.61,0,0,1,.12.33,1.29,1.29,0,0,1,0,.4Zm-1.48-2.74a.41.41,0,0,0-.1-.31.43.43,0,0,0-.31-.11H7a.39.39,0,0,0-.3.11.4.4,0,0,0-.1.3v.46a.41.41,0,0,0,.1.31.45.45,0,0,0,.3.1H8.38a.46.46,0,0,0,.31-.1.43.43,0,0,0,.1-.31Zm.45,2.29a.37.37,0,0,0-.11-.3.38.38,0,0,0-.28-.11H6.55a.38.38,0,0,0-.3.12.42.42,0,0,0-.11.29v.45a.41.41,0,0,0,.12.31.39.39,0,0,0,.29.1h2.3a.35.35,0,0,0,.29-.11.44.44,0,0,0,.1-.3Z" transform="translate(0.12 0)" style="fill: #f0f0f0"/>
  </g>
  <g id="text5245">
    <path id="path5281" d="M4.55,292.15,1,297.75H-.08l3.54-5.6Z" transform="translate(0.12 0)" style="fill: #f0f0f0"/>
    <path id="path5283" d="M9.75,292.41a.54.54,0,0,1,.06.25.58.58,0,0,1-.06.26l-2.82,4.83H5.76l2.66-4.59H5.13v-1H9.31a.45.45,0,0,1,.25.07A.5.5,0,0,1,9.75,292.41Z" transform="translate(0.12 0)" style="fill: #f0f0f0"/>
  </g>
  <g id="text5249">
    <path id="path5286" d="M4.6,256l-3.53,5.61H0L3.52,256Z" transform="translate(0.12 0)" style="fill: #f0f0f0"/>
    <path id="path5288" d="M6.31,258.25H9a1.54,1.54,0,0,1,.46.08,1.26,1.26,0,0,1,.47.25,1.29,1.29,0,0,1,.35.44,1.36,1.36,0,0,1,.15.67v.45a1,1,0,0,1,0,.3,1.19,1.19,0,0,1-.1.32,1.49,1.49,0,0,1-.18.3,1.33,1.33,0,0,1-.27.26,1.41,1.41,0,0,1-.37.18,1.68,1.68,0,0,1-.47.06H7.17a1.94,1.94,0,0,1-.4,0,2.25,2.25,0,0,1-.42-.13,2.92,2.92,0,0,1-.4-.25,1.37,1.37,0,0,1-.33-.35,1.72,1.72,0,0,1-.24-.49,1.91,1.91,0,0,1-.09-.61v-1.84a2,2,0,0,1,.09-.62,1.8,1.8,0,0,1,.24-.48,1.42,1.42,0,0,1,.33-.36,2.12,2.12,0,0,1,.4-.24,1.73,1.73,0,0,1,.42-.14,2,2,0,0,1,.4,0H9.72v1H7.17a1.28,1.28,0,0,0-.35.08.75.75,0,0,0-.27.18.68.68,0,0,0-.18.26,1,1,0,0,0-.06.35Zm0,1v.41a.86.86,0,0,0,.07.36,1,1,0,0,0,.18.27.88.88,0,0,0,.28.17.93.93,0,0,0,.34.06H9a.38.38,0,0,0,.3-.12.42.42,0,0,0,.11-.29v-.45a.42.42,0,0,0-.11-.31.39.39,0,0,0-.3-.1Z" transform="translate(0.12 0)" style="fill: #f0f0f0"/>
  </g>
  <g id="text5253">
    <path id="path5291" d="M4.6,221.67l-3.53,5.6H0l3.54-5.6Z" transform="translate(0.12 0)" style="fill: #f0f0f0"/>
    <path id="path5293" d="M10.57,225.85a1.69,1.69,0,0,1,0,.3,1.35,1.35,0,0,1-.11.32,1.49,1.49,0,0,1-.18.3A1.12,1.12,0,0,1,10,227a2,2,0,0,1-.36.18,1.73,1.73,0,0,1-.47.06H5.43v-1H9.15a.34.34,0,0,0,.29-.12.44.44,0,0,0,.11-.29v-.46a.45.45,0,0,0-.1-.3.42.42,0,0,0-.31-.11H6.85a1.34,1.34,0,0,1-.66-.14,1.2,1.2,0,0,1-.44-.36A1.48,1.48,0,0,1,5.5,224a1.62,1.62,0,0,1-.07-.47v-1.88h4.68v1H6.44v.86a.42.42,0,0,0,.11.31.4.4,0,0,0,.3.1h2.3a1.65,1.65,0,0,1,.46.08,1.33,1.33,0,0,1,.82.69,1.46,1.46,0,0,1,.14.66Z" transform="translate(0.12 0)" style="fill: #f0f0f0"/>
  </g>
  <g id="text5257">
    <path id="path5296" d="M4.57,186.22,1,191.82H-.06l3.54-5.6Z" transform="translate(0.12 0)" style="fill: #f0f0f0"/>
    <path id="path5298" d="M10.46,191.82h-1v-2.29H5.82a.64.64,0,0,1-.2,0,.64.64,0,0,1-.16-.11.62.62,0,0,1-.11-.17.65.65,0,0,1,0-.2v-2.8h1v2.29h3.1v-2.29h1Z" transform="translate(0.12 0)" style="fill: #f0f0f0"/>
  </g>
  <g id="text5261">
    <path id="path5302" d="M4.63,151.27,1.1,156.88H0l3.54-5.61Z" transform="translate(0.12 0)" style="fill: #f0f0f0"/>
    <path id="path5304" d="M10.17,155.45a1.41,1.41,0,0,1-.15.67,1.39,1.39,0,0,1-.35.44,1.5,1.5,0,0,1-.47.24,1.59,1.59,0,0,1-.46.08H5.48v-1H8.74a.38.38,0,0,0,.3-.11.41.41,0,0,0,.11-.3v-.86H5.48v-1H9.15v-.85a.37.37,0,0,0-.41-.42H5.48v-1H8.74a1.72,1.72,0,0,1,.47.07,1,1,0,0,1,.36.18,1.09,1.09,0,0,1,.27.25,1.44,1.44,0,0,1,.19.31,1.19,1.19,0,0,1,.1.32,1.77,1.77,0,0,1,0,.3Z" transform="translate(0.12 0)" style="fill: #f0f0f0"/>
  </g>
  <g id="text5265">
    <path id="path5307" d="M4.51,116.15,1,121.75H-.12l3.54-5.6Z" transform="translate(0.12 0)" style="fill: #f0f0f0"/>
    <path id="path5309" d="M10.31,121.75H5.17v-1.88a1.53,1.53,0,0,1,0-.3,1.42,1.42,0,0,1,.11-.33,1,1,0,0,1,.18-.3,1.28,1.28,0,0,1,.26-.26,1.82,1.82,0,0,1,.37-.18,1.73,1.73,0,0,1,.47-.06H8.88a.41.41,0,0,0,.3-.1.43.43,0,0,0,.11-.31v-.45a.42.42,0,0,0-.11-.31.37.37,0,0,0-.29-.11H5.63v-1H8.89a1.65,1.65,0,0,1,.46.06,1.82,1.82,0,0,1,.37.18,1.66,1.66,0,0,1,.27.26,1.33,1.33,0,0,1,.18.3,1.35,1.35,0,0,1,.11.32,1.69,1.69,0,0,1,0,.3V118a1.38,1.38,0,0,1-.14.67,1.2,1.2,0,0,1-.36.44,1.58,1.58,0,0,1-.46.25,1.61,1.61,0,0,1-.46.07H6.59a.4.4,0,0,0-.2,0,.27.27,0,0,0-.12.09.5.5,0,0,0,0,.13.83.83,0,0,0,0,.15v.86h4.13Z" transform="translate(0.12 0)" style="fill: #f0f0f0"/>
  </g>
  <g id="text5269">
    <path id="path5312" d="M4.63,81.65,1.1,87.25H0l3.54-5.6Z" transform="translate(0.12 0)" style="fill: #f0f0f0"/>
    <path id="path5314" d="M7.17,87.25h-1V82.66H5.24v-1H7.17Z" transform="translate(0.12 0)" style="fill: #f0f0f0"/>
  </g>
  <g id="text10188">
    <path id="path10748" d="M11.59,60.76H10.07a.26.26,0,0,0-.21.08.24.24,0,0,0-.07.2V62.9H9.11V61a1.55,1.55,0,0,1,0-.32.9.9,0,0,1,.12-.24,1,1,0,0,1,.17-.18l.2-.12a1.11,1.11,0,0,1,.22-.07l.2,0h1.53Z" transform="translate(0.12 0)" style="fill: #f0f0f0"/>
    <path id="path10750" d="M15.08,62a1.08,1.08,0,0,1,0,.32.9.9,0,0,1-.12.24.73.73,0,0,1-.17.18.82.82,0,0,1-.2.12.86.86,0,0,1-.21.07.75.75,0,0,1-.21,0H12.91a.86.86,0,0,1-.3,0,.71.71,0,0,1-.31-.16.76.76,0,0,1-.24-.29A1,1,0,0,1,12,62V61a1,1,0,0,1,.1-.44.8.8,0,0,1,.24-.3.71.71,0,0,1,.31-.16.86.86,0,0,1,.3,0h1.22a1,1,0,0,1,.45.09.76.76,0,0,1,.29.24.71.71,0,0,1,.16.31.87.87,0,0,1,.05.31ZM14.41,61a.25.25,0,0,0-.28-.28H12.92a.29.29,0,0,0-.21.08.28.28,0,0,0-.07.2V62a.25.25,0,0,0,.28.28h1.21a.31.31,0,0,0,.21-.07.33.33,0,0,0,.07-.21Z" transform="translate(0.12 0)" style="fill: #f0f0f0"/>
    <path id="path10752" d="M18.21,60.76H17V62.9h-.68V60.76h-.88v-.67h.88v-.92H17v.92h1.19Z" transform="translate(0.12 0)" style="fill: #f0f0f0"/>
    <path id="path10754" d="M21.41,62a1.24,1.24,0,0,1-.05.31,1.1,1.1,0,0,1-.16.3,1,1,0,0,1-.29.23.94.94,0,0,1-.43.09H19.25a.86.86,0,0,1-.3,0,.73.73,0,0,1-.3-.16.91.91,0,0,1-.23-.28.87.87,0,0,1-.1-.44,1.17,1.17,0,0,1,.05-.3,1,1,0,0,1,.16-.31.85.85,0,0,1,.29-.23.94.94,0,0,1,.43-.09h1.23v.64H19.25a.26.26,0,0,0-.21.09A.29.29,0,0,0,19,62a.25.25,0,0,0,.09.2.32.32,0,0,0,.21.08h1.22a.26.26,0,0,0,.21-.09.27.27,0,0,0,.07-.2V61a.25.25,0,0,0-.08-.21.28.28,0,0,0-.2-.08H19v-.64h1.49a.86.86,0,0,1,.3,0,.73.73,0,0,1,.3.16.85.85,0,0,1,.23.29.83.83,0,0,1,.1.43Z" transform="translate(0.12 0)" style="fill: #f0f0f0"/>
    <path id="path10756" d="M24.54,60.76H23.36V62.9h-.69V60.76h-.88v-.67h.88v-.92h.69v.92h1.18Z" transform="translate(0.12 0)" style="fill: #f0f0f0"/>
    <path id="path10758" d="M28,61a1.11,1.11,0,0,1-.05.3,1,1,0,0,1-.16.31.85.85,0,0,1-.29.23.94.94,0,0,1-.43.09H25.86v-.64h1.22a.29.29,0,0,0,.21-.08.33.33,0,0,0,.08-.22.25.25,0,0,0-.09-.2.3.3,0,0,0-.2-.08H25.86a.27.27,0,0,0-.22.09.28.28,0,0,0-.07.21V62a.25.25,0,0,0,.08.21.32.32,0,0,0,.21.08h1.22v.64H25.86a.87.87,0,0,1-.31,0,.73.73,0,0,1-.3-.16.91.91,0,0,1-.23-.28.87.87,0,0,1-.1-.44V61a1.17,1.17,0,0,1,0-.3,1.08,1.08,0,0,1,.16-.3.85.85,0,0,1,.29-.24,1,1,0,0,1,.44-.09h1.22a.86.86,0,0,1,.3,0,.73.73,0,0,1,.3.16,1,1,0,0,1,.24.29A.94.94,0,0,1,28,61Z" transform="translate(0.12 0)" style="fill: #f0f0f0"/>
  </g>
  <g id="text10192">
    <path id="path10737" d="M36.31,59.51h-.67V58.9h.67Zm0,3.39h-.67V60.09h.67Z" transform="translate(0.12 0)" style="fill: #f0f0f0"/>
    <path id="path10739" d="M40.08,62.9H39.4V61.34a.61.61,0,0,0,0-.24.46.46,0,0,0-.13-.18.42.42,0,0,0-.18-.11.59.59,0,0,0-.23-.05H37.64V62.9H37V60.42a.31.31,0,0,1,0-.13.23.23,0,0,1,.07-.1l.11-.08.13,0h1.53l.26,0a1.61,1.61,0,0,1,.29.09,1.4,1.4,0,0,1,.26.16,1.05,1.05,0,0,1,.23.24,1.35,1.35,0,0,1,.15.32,1.31,1.31,0,0,1,.06.41Z" transform="translate(0.12 0)" style="fill: #f0f0f0"/>
    <path id="path10741" d="M43.78,62a1.08,1.08,0,0,1,0,.32.9.9,0,0,1-.12.24.73.73,0,0,1-.17.18.82.82,0,0,1-.2.12.86.86,0,0,1-.21.07.75.75,0,0,1-.21,0H41.61v-.67h1.22a.25.25,0,0,0,.28-.28V61a.25.25,0,0,0-.28-.28H41.62a.29.29,0,0,0-.21.08.24.24,0,0,0-.07.2v2.74h-.68V61a1.07,1.07,0,0,1,.05-.32,1.33,1.33,0,0,1,.11-.24A.77.77,0,0,1,41,60.3a.82.82,0,0,1,.2-.12.86.86,0,0,1,.21-.07l.2,0h1.22a1,1,0,0,1,.32,0,.9.9,0,0,1,.24.12.73.73,0,0,1,.18.17.82.82,0,0,1,.12.2.86.86,0,0,1,.07.21,1.49,1.49,0,0,1,0,.21Z" transform="translate(0.12 0)" style="fill: #f0f0f0"/>
    <path id="path10743" d="M47.44,62.56a.32.32,0,0,1,0,.14.28.28,0,0,1-.08.11.26.26,0,0,1-.1.07l-.13,0H45.58a1.24,1.24,0,0,1-.27,0,.92.92,0,0,1-.28-.09,1.28,1.28,0,0,1-.27-.16.85.85,0,0,1-.22-.24,1.07,1.07,0,0,1-.16-.32,1.31,1.31,0,0,1-.06-.41V60.09H45v1.56a.6.6,0,0,0,0,.24.55.55,0,0,0,.3.3.85.85,0,0,0,.23,0h1.19V60.09h.67Z" transform="translate(0.12 0)" style="fill: #f0f0f0"/>
    <path id="path10745" d="M50.64,60.76H49.46V62.9h-.68V60.76H47.9v-.67h.88v-.92h.68v.92h1.18Z" transform="translate(0.12 0)" style="fill: #f0f0f0"/>
  </g>
  <g id="text10767">
    <path id="path10773" d="M22.11,22H18.44l-.3,0a1.21,1.21,0,0,1-.32-.11.92.92,0,0,1-.3-.18,1,1,0,0,1-.26-.27,1.35,1.35,0,0,1-.18-.36,1.75,1.75,0,0,1-.06-.48V17.82a1.69,1.69,0,0,1,0-.3,2,2,0,0,1,.1-.32,1.37,1.37,0,0,1,.19-.3,1.12,1.12,0,0,1,.27-.26,1.51,1.51,0,0,1,.36-.18,1.73,1.73,0,0,1,.47-.06h3.67v1H18.44a.41.41,0,0,0-.3.11.42.42,0,0,0-.11.31v2.74a.43.43,0,0,0,.11.31.4.4,0,0,0,.3.1h3.67Z" transform="translate(0.12 0)" style="fill: #f0f0f0"/>
    <path id="path10775" d="M24.82,22h-.46a1.67,1.67,0,0,1-.47-.07,1.39,1.39,0,0,1-.46-.25,1.29,1.29,0,0,1-.35-.44,1.36,1.36,0,0,1-.14-.67V16h1v4.58a.41.41,0,0,0,.12.31.43.43,0,0,0,.29.1h.46Z" transform="translate(0.12 0)" style="fill: #f0f0f0"/>
    <path id="path10777" d="M30.07,20.57a1.43,1.43,0,0,1-.07.48,1.33,1.33,0,0,1-.17.36,1,1,0,0,1-.26.27.92.92,0,0,1-.3.18A1.21,1.21,0,0,1,29,22l-.31,0H26.81a1.61,1.61,0,0,1-.46-.07,1.22,1.22,0,0,1-.46-.25,1.44,1.44,0,0,1-.36-.44,1.48,1.48,0,0,1-.14-.67V19.2a1.46,1.46,0,0,1,.14-.66,1.44,1.44,0,0,1,.36-.44,1.22,1.22,0,0,1,.46-.25,1.61,1.61,0,0,1,.46-.07h1.83a1.38,1.38,0,0,1,.67.14,1.29,1.29,0,0,1,.44.35,1.45,1.45,0,0,1,.24.46,1.71,1.71,0,0,1,.08.47Zm-1-1.36a.44.44,0,0,0-.1-.32.46.46,0,0,0-.31-.1H26.82a.42.42,0,0,0-.31.11.4.4,0,0,0-.1.3v1.37a.36.36,0,0,0,.41.41h1.82a.4.4,0,0,0,.31-.1.41.41,0,0,0,.1-.31Z" transform="translate(0.12 0)" style="fill: #f0f0f0"/>
    <path id="path10779" d="M35,22H32.27a1.62,1.62,0,0,1-.47-.07,1.3,1.3,0,0,1-.46-.25,1.44,1.44,0,0,1-.36-.44,1.48,1.48,0,0,1-.14-.67V19.2a1.15,1.15,0,0,1,0-.31,1.24,1.24,0,0,1,.1-.31,1.92,1.92,0,0,1,.18-.31,1.6,1.6,0,0,1,.27-.25,1.82,1.82,0,0,1,.37-.18,1.63,1.63,0,0,1,.47-.06H35v1H32.27a.46.46,0,0,0-.31.1.44.44,0,0,0-.1.32v1.36a.41.41,0,0,0,.1.31.45.45,0,0,0,.31.1H35Z" transform="translate(0.12 0)" style="fill: #f0f0f0"/>
    <path id="path10781" d="M40.83,22H39.36l-2-2a.44.44,0,0,1-.16-.39.46.46,0,0,1,.05-.2.36.36,0,0,1,.14-.16l1.85-1.5h1.63L38.44,19.7ZM36.9,22h-1V16h1Z" transform="translate(0.12 0)" style="fill: #f0f0f0"/>
  </g>
  <g id="text10771">
    <path id="path10784" d="M15.94,11a2,2,0,0,1-.09.62,1.84,1.84,0,0,1-.23.49,1.88,1.88,0,0,1-.34.35,2.42,2.42,0,0,1-.4.25,2.3,2.3,0,0,1-.42.14,3,3,0,0,1-.4,0l2.12,1.83H14.61l-2.12-1.83h-.73v-1h2.3a1,1,0,0,0,.35-.08,1,1,0,0,0,.27-.17.68.68,0,0,0,.18-.26,1,1,0,0,0,.06-.36v-.64a.39.39,0,0,0,0-.13.21.21,0,0,0-.13-.09H11.36v4.59h-1V9.66a.45.45,0,0,1,0-.2.44.44,0,0,1,.1-.16.54.54,0,0,1,.37-.15h3.86a1.26,1.26,0,0,1,.57.12,1.17,1.17,0,0,1,.38.31,1.1,1.1,0,0,1,.21.4,1.21,1.21,0,0,1,.07.4Z" transform="translate(0.12 0)" style="fill: #f0f0f0"/>
    <path id="path10786" d="M21.4,13.32a1.43,1.43,0,0,1-.07.48,1.33,1.33,0,0,1-.17.36,1.12,1.12,0,0,1-.26.27,1,1,0,0,1-.3.18,1.35,1.35,0,0,1-.32.11l-.31,0H18.14a1.61,1.61,0,0,1-.46-.07,1.34,1.34,0,0,1-.47-.25,1.42,1.42,0,0,1-.35-.44,1.48,1.48,0,0,1-.14-.67V12a1.46,1.46,0,0,1,.14-.66,1.42,1.42,0,0,1,.35-.44,1.34,1.34,0,0,1,.47-.25,1.61,1.61,0,0,1,.46-.07H20a1.41,1.41,0,0,1,.67.14,1.29,1.29,0,0,1,.44.35,1.45,1.45,0,0,1,.24.46,1.71,1.71,0,0,1,.08.47Zm-1-1.36a.44.44,0,0,0-.1-.32.46.46,0,0,0-.31-.1H18.15a.42.42,0,0,0-.31.11.41.41,0,0,0-.11.3v1.37a.37.37,0,0,0,.42.41H20a.36.36,0,0,0,.41-.41Z" transform="translate(0.12 0)" style="fill: #f0f0f0"/>
    <path id="path10788" d="M26.08,11.54H24.31v3.21h-1V11.54H22v-1h1.32V9.15h1v1.38h1.77Z" transform="translate(0.12 0)" style="fill: #f0f0f0"/>
    <path id="path10790" d="M30.88,13.35a1.61,1.61,0,0,1-.07.46,1.4,1.4,0,0,1-.24.45,1.29,1.29,0,0,1-.44.35,1.39,1.39,0,0,1-.65.14H27.65a1.5,1.5,0,0,1-.45-.07,1.35,1.35,0,0,1-.46-.24,1.35,1.35,0,0,1-.49-1.09,1.65,1.65,0,0,1,.08-.46,1.4,1.4,0,0,1,.24-.45,1.25,1.25,0,0,1,.43-.35,1.45,1.45,0,0,1,.65-.14h1.83v1H27.65a.39.39,0,0,0-.32.13.45.45,0,0,0-.11.31.37.37,0,0,0,.13.31.49.49,0,0,0,.31.11h1.82a.41.41,0,0,0,.32-.12.45.45,0,0,0,.12-.32V11.93a.39.39,0,0,0-.13-.32.41.41,0,0,0-.31-.12H27.25v-1h2.23a1.51,1.51,0,0,1,.46.07,1.4,1.4,0,0,1,.45.24,1.35,1.35,0,0,1,.49,1.09Z" transform="translate(0.12 0)" style="fill: #f0f0f0"/>
    <path id="path10792" d="M35.58,11.54H33.81v3.21h-1V11.54H31.46v-1h1.32V9.15h1v1.38h1.77Z" transform="translate(0.12 0)" style="fill: #f0f0f0"/>
    <path id="path10794" d="M37.29,9.66h-1V8.74h1Zm0,5.09h-1V10.53h1Z" transform="translate(0.12 0)" style="fill: #f0f0f0"/>
    <path id="path10796" d="M42.94,14.75h-1V12.41a.8.8,0,0,0-.07-.36.64.64,0,0,0-.18-.27.62.62,0,0,0-.28-.17.77.77,0,0,0-.34-.07H39.27v3.21h-1V11a.41.41,0,0,1,0-.19.31.31,0,0,1,.11-.16.36.36,0,0,1,.16-.11.45.45,0,0,1,.2,0h2.29a1.87,1.87,0,0,1,.4,0,2.3,2.3,0,0,1,.42.14,1.63,1.63,0,0,1,.4.24,1.67,1.67,0,0,1,.34.36,1.78,1.78,0,0,1,.23.48,2,2,0,0,1,.09.62Z" transform="translate(0.12 0)" style="fill: #f0f0f0"/>
    <path id="path10798" d="M48.43,15.16a1.41,1.41,0,0,1-.07.47,1.2,1.2,0,0,1-.17.36,1.12,1.12,0,0,1-.26.27,1.17,1.17,0,0,1-.3.19,2,2,0,0,1-.32.1l-.31,0H45.17v-1H47a.42.42,0,0,0,.31-.11.4.4,0,0,0,.1-.3V12a.4.4,0,0,0-.1-.3.42.42,0,0,0-.31-.11H45.17a.38.38,0,0,0-.4.41v1.37a.36.36,0,0,0,.41.41H47v1H45.17l-.3,0a1.21,1.21,0,0,1-.32-.11.92.92,0,0,1-.3-.18,1.12,1.12,0,0,1-.26-.27,1.33,1.33,0,0,1-.17-.36,1.43,1.43,0,0,1-.07-.48V12a1.71,1.71,0,0,1,0-.31,1.28,1.28,0,0,1,.11-.31,1.22,1.22,0,0,1,.45-.56,1.31,1.31,0,0,1,.83-.24H47l.31,0a2,2,0,0,1,.32.1,1.17,1.17,0,0,1,.3.19,1.12,1.12,0,0,1,.26.27,1.2,1.2,0,0,1,.17.36,1.37,1.37,0,0,1,.07.47Z" transform="translate(0.12 0)" style="fill: #f0f0f0"/>
  </g>
  <g>
    <path d="M11.09,27.49a3.19,3.19,0,0,1-.25,1.29,2.88,2.88,0,0,1-.67,1,3.07,3.07,0,0,1-1,.67,3.35,3.35,0,0,1-1.28.24H4.1a.78.78,0,0,1-.28-.05.91.91,0,0,1-.23-.15.86.86,0,0,1-.15-.22.87.87,0,0,1,0-.28v-6.3a.86.86,0,0,1,0-.27.91.91,0,0,1,.15-.23.91.91,0,0,1,.23-.15.78.78,0,0,1,.28,0H7.87a3.35,3.35,0,0,1,1.28.24,3.23,3.23,0,0,1,1,.67,3,3,0,0,1,.67,1,3.26,3.26,0,0,1,.25,1.29Zm-1.4-1.26a2,2,0,0,0-.13-.74,1.65,1.65,0,0,0-.37-.58,1.75,1.75,0,0,0-.58-.37,2,2,0,0,0-.74-.13H4.79v4.91H7.87a2,2,0,0,0,.74-.14,1.6,1.6,0,0,0,.58-.37,1.7,1.7,0,0,0,.37-.57,2,2,0,0,0,.13-.75Z" transform="translate(0.12 0)" style="fill: #f0f0f0"/>
    <path d="M13.72,23.71h-1.4V22.45h1.4Zm0,7h-1.4v-5.8h1.4Z" transform="translate(0.12 0)" style="fill: #f0f0f0"/>
    <path d="M22,24.91c-.16.49-.35,1-.56,1.45a9.87,9.87,0,0,1-.73,1.36,9,9,0,0,1-.91,1.2,6.4,6.4,0,0,1-1.13.95,5.58,5.58,0,0,1-1.33.62,5,5,0,0,1-1.57.23.76.76,0,0,1-.27,0,.91.91,0,0,1-.23-.15.71.71,0,0,1-.15-.22.59.59,0,0,1,0-.27V24.91h1.39v4.36a2.23,2.23,0,0,0,1-.22,3.58,3.58,0,0,0,.89-.58,6.08,6.08,0,0,0,.78-.82,9.3,9.3,0,0,0,.64-.95,9.4,9.4,0,0,0,.47-1,6,6,0,0,0,.29-.83Z" transform="translate(0.12 0)" style="fill: #f0f0f0"/>
    <path d="M23.9,23.71H22.51V22.45H23.9Zm0,7H22.51v-5.8H23.9Z" transform="translate(0.12 0)" style="fill: #f0f0f0"/>
    <path d="M31.61,28.75a2.17,2.17,0,0,1-.09.65,1.79,1.79,0,0,1-.24.5,1.55,1.55,0,0,1-.35.37,1.51,1.51,0,0,1-.42.25,1.76,1.76,0,0,1-.44.15,2.12,2.12,0,0,1-.42,0H27.13a2.11,2.11,0,0,1-.64-.09,2,2,0,0,1-.51-.24,2.1,2.1,0,0,1-.37-.36,2,2,0,0,1-.39-.85,2.12,2.12,0,0,1,0-.42V26.86a1.94,1.94,0,0,1,.19-.91,2,2,0,0,1,.49-.61A2.05,2.05,0,0,1,26.5,25a2.16,2.16,0,0,1,.63-.1h2.52V26.3H27.14a.59.59,0,0,0-.42.14.57.57,0,0,0-.15.42v1.88a.58.58,0,0,0,.15.43.53.53,0,0,0,.41.15h2.52a.54.54,0,0,0,.42-.15.56.56,0,0,0,.14-.42v-6.3h1.4Z" transform="translate(0.12 0)" style="fill: #f0f0f0"/>
    <path d="M39.19,26.83a2.05,2.05,0,0,1-.1.62,1.9,1.9,0,0,1-.33.63,1.82,1.82,0,0,1-.6.48,1.86,1.86,0,0,1-.89.19H34.75V27.42h2.52a.55.55,0,0,0,.44-.17.64.64,0,0,0,.15-.43.53.53,0,0,0-.17-.43.6.6,0,0,0-.42-.16H34.75a.54.54,0,0,0-.44.18.59.59,0,0,0-.16.43v1.95a.52.52,0,0,0,.18.43.59.59,0,0,0,.43.16h2.51v1.33H34.75a2.16,2.16,0,0,1-.63-.1,2,2,0,0,1-.62-.33,1.82,1.82,0,0,1-.48-.6,1.86,1.86,0,0,1-.19-.89v-2a2.16,2.16,0,0,1,.1-.63,2,2,0,0,1,.33-.62,1.88,1.88,0,0,1,.59-.48,1.93,1.93,0,0,1,.9-.19h2.52a2.05,2.05,0,0,1,.62.1,2,2,0,0,1,.63.33,1.88,1.88,0,0,1,.48.59A1.93,1.93,0,0,1,39.19,26.83Z" transform="translate(0.12 0)" style="fill: #f0f0f0"/>
    <path d="M45.21,26.3H42.07a.62.62,0,0,0-.43.14.57.57,0,0,0-.15.42v3.85H40.1V26.86a2.11,2.11,0,0,1,.09-.64,2,2,0,0,1,.24-.51,2,2,0,0,1,.35-.37,3.09,3.09,0,0,1,.42-.25,2.49,2.49,0,0,1,.44-.14,2.12,2.12,0,0,1,.42,0h3.15Z" transform="translate(0.12 0)" style="fill: #f0f0f0"/>
    <path d="M56.61,30.71H49.53V28.13a2.18,2.18,0,0,1,0-.42,2.59,2.59,0,0,1,.14-.45,3.09,3.09,0,0,1,.25-.42,1.76,1.76,0,0,1,.37-.35,2,2,0,0,1,.51-.24,2.06,2.06,0,0,1,.64-.09h3.15a.54.54,0,0,0,.42-.15.56.56,0,0,0,.14-.41V25a.62.62,0,0,0-.14-.43.54.54,0,0,0-.41-.14H50.16V23h4.49a2.15,2.15,0,0,1,.64.09,1.67,1.67,0,0,1,.5.25,1.54,1.54,0,0,1,.37.35,2,2,0,0,1,.26.41,2.78,2.78,0,0,1,.14.44,2.18,2.18,0,0,1,0,.42v.63a1.91,1.91,0,0,1-.2.91,1.76,1.76,0,0,1-.49.61,1.89,1.89,0,0,1-.64.34,2.06,2.06,0,0,1-.63.1H51.49a.65.65,0,0,0-.27.05.53.53,0,0,0-.16.13.76.76,0,0,0-.09.18c0,.07,0,.14,0,.21v1.19h5.68Z" transform="translate(0.12 0)" style="fill: #f0f0f0"/>
  </g>
</svg>
