<?xml version="1.0" encoding="UTF-8" standalone="no"?>
<svg
   xmlns:dc="http://purl.org/dc/elements/1.1/"
   xmlns:cc="http://creativecommons.org/ns#"
   xmlns:rdf="http://www.w3.org/1999/02/22-rdf-syntax-ns#"
   xmlns:svg="http://www.w3.org/2000/svg"
   xmlns="http://www.w3.org/2000/svg"
   xmlns:sodipodi="http://sodipodi.sourceforge.net/DTD/sodipodi-0.dtd"
   xmlns:inkscape="http://www.inkscape.org/namespaces/inkscape"
   id="SvgjsSvg1006"
   width="60.12"
   height="380"
   viewBox="0 0 60.12 380"
   version="1.1"
   sodipodi:docname="RotatingClockDivider2.svg"
   inkscape:version="0.92.2 5c3e80d, 2017-08-06">
  <metadata
     id="metadata100">
    <rdf:RDF>
      <cc:Work
         rdf:about="">
        <dc:format>image/svg+xml</dc:format>
        <dc:type
           rdf:resource="http://purl.org/dc/dcmitype/StillImage" />
      </cc:Work>
    </rdf:RDF>
  </metadata>
  <defs
     id="defs98" />
  <sodipodi:namedview
     pagecolor="#ffffff"
     bordercolor="#666666"
     borderopacity="1"
     objecttolerance="10"
     gridtolerance="10"
     guidetolerance="10"
     inkscape:pageopacity="0"
     inkscape:pageshadow="2"
     inkscape:window-width="1142"
     inkscape:window-height="681"
     id="namedview96"
     showgrid="false"
     inkscape:zoom="4"
     inkscape:cx="20.059999"
     inkscape:cy="360.20548"
     inkscape:window-x="0"
     inkscape:window-y="0"
     inkscape:window-maximized="0"
     inkscape:current-layer="SvgjsSvg1006" />
  <title
     id="title2">RotatingClockDivider2</title>
  <path
     id="SvgjsRect1008"
     d="M0,0H60V380H0Z"
     transform="translate(0.12 0)"
     style="fill: #222" />
  <path
     style="fill:#91b06f"
     d="M 5.1199999,33 H 55.12 V 65 H 5.1199999 Z"
     id="SvgjsRect1009" />
  <path
     style="fill:#5373cd"
     d="m 0.12,70 h 50 v 30 h -50 z"
     id="SvgjsRect1010" />
  <path
     style="fill:#5373cd"
     d="m 50.12,70 10,15 -10,15 z"
     id="SvgjsPolygon1011" />
  <path
     style="fill:#bd7370"
     d="m 0.12,105 h 50 v 30 h -50 z"
     id="SvgjsRect1012" />
  <path
     style="fill:#bd7370"
     d="m 50.12,105 10,15 -10,15 z"
     id="SvgjsPolygon1013" />
  <path
     style="fill:#4d9270"
     d="m 0.12,140 h 50 v 30 h -50 z"
     id="SvgjsRect1014" />
  <path
     style="fill:#4d9270"
     d="m 50.12,140 10,15 -10,15 z"
     id="SvgjsPolygon1015" />
  <path
     id="SvgjsRect1016"
     d="M0,175H50v30H0Z"
     transform="translate(0.12 0)"
     style="fill: #bd7370" />
  <path
     style="fill:#bd7370"
     d="m 50.12,175 10,15 -10,15 z"
     id="SvgjsPolygon1017" />
  <path
     style="fill:#5373cd"
     d="m 0.12,210 h 50 v 30 h -50 z"
     id="SvgjsRect1018" />
  <path
     style="fill:#5373cd"
     d="m 50.12,210 10,15 -10,15 z"
     id="SvgjsPolygon1019" />
  <path
     style="fill:#4d9270"
     d="m 0.12,245 h 50 v 30 h -50 z"
     id="SvgjsRect1020" />
  <path
     style="fill:#4d9270"
     d="m 50.12,245 10,15 -10,15 z"
     id="SvgjsPolygon1021" />
  <path
     style="fill:#5373cd"
     d="m 0.12,280 h 50 v 30 h -50 z"
     id="SvgjsRect1022" />
  <path
     style="fill:#5373cd"
     d="m 50.12,280 10,15 -10,15 z"
     id="SvgjsPolygon1023" />
  <path
     style="fill:#bd7370"
     d="m 0.12,315 h 50 v 30 h -50 z"
     id="SvgjsRect1024" />
  <path
     style="fill:#bd7370"
     d="m 50.12,315 10,15 -10,15 z"
     id="SvgjsPolygon1025" />
  <g
     id="text4650">
    <path
       id="path5271"
       d="M28.3,360.8a4.66,4.66,0,0,1-.21,1.45,4.36,4.36,0,0,1-.53,1.13,3.63,3.63,0,0,1-.78.83,4.51,4.51,0,0,1-.93.56,3.88,3.88,0,0,1-1,.32,4.35,4.35,0,0,1-.92.11H13.5v-2.71H24a1.53,1.53,0,0,0,1.2-.46,1.66,1.66,0,0,0,.44-1.23,2.06,2.06,0,0,0-.11-.68,1.64,1.64,0,0,0-.34-.55,1.29,1.29,0,0,0-.52-.35,1.78,1.78,0,0,0-.67-.13H17.72a5,5,0,0,1-1.42-.22,4.38,4.38,0,0,1-1.42-.77,4.12,4.12,0,0,1-1.08-1.36,4.58,4.58,0,0,1-.43-2.06,4.51,4.51,0,0,1,.43-2.05,4.1,4.1,0,0,1,2.5-2.13,4.75,4.75,0,0,1,1.42-.24h9.22V353H17.72a1.57,1.57,0,0,0-1.21.47,2,2,0,0,0,0,2.48,1.6,1.6,0,0,0,1.21.45H24a3.81,3.81,0,0,1,.92.12,4.45,4.45,0,0,1,1,.33,4.56,4.56,0,0,1,.93.59,3.6,3.6,0,0,1,.77.83,3.94,3.94,0,0,1,.54,1.13,4.84,4.84,0,0,1,.2,1.43Z"
       transform="translate(0.12 0)"
       style="fill: #f0f0f0" />
    <path
       id="path5273"
       d="M46.23,365.2H42.38l-6.09-6.11H34.38v-2.72h1.91l6.09-6.11h3.85l-7.68,7.47Zm-12.93,0H30.59V350.26H33.3Z"
       transform="translate(0.12 0)"
       style="fill: #f0f0f0" />
  </g>
  <g
     id="text5241">
    <path
       id="path5276"
       d="M4.56,326.9,1,332.5H-.06l3.53-5.6Z"
       transform="translate(0.12 0)"
       style="fill: #f0f0f0" />
    <path
       id="path5278"
       d="M10.27,331.07a1.71,1.71,0,0,1,0,.31,1.35,1.35,0,0,1-.11.32,2.38,2.38,0,0,1-.18.3,1.39,1.39,0,0,1-.28.26,1.2,1.2,0,0,1-.36.17,1.35,1.35,0,0,1-.46.07H6.55a1.56,1.56,0,0,1-.46-.07,1.34,1.34,0,0,1-.47-.25,1.29,1.29,0,0,1-.35-.44,1.36,1.36,0,0,1-.14-.67v-.45a1.71,1.71,0,0,1,0-.31,2.07,2.07,0,0,1,.1-.33,2.49,2.49,0,0,1,.19-.3,1.27,1.27,0,0,1,.27-.25,2.07,2.07,0,0,1-.1-.33,1.87,1.87,0,0,1,0-.32v-.46a1.46,1.46,0,0,1,.14-.66,1.35,1.35,0,0,1,.82-.68A1.4,1.4,0,0,1,7,326.9H8.38a1.68,1.68,0,0,1,.47.06,1.82,1.82,0,0,1,.37.18,1.66,1.66,0,0,1,.27.26,1.83,1.83,0,0,1,.18.3,1.31,1.31,0,0,1,.1.32,1.77,1.77,0,0,1,0,.3v.46a1.54,1.54,0,0,1-.14.67,1.37,1.37,0,0,1,.23.19,1.22,1.22,0,0,1,.2.25,1.61,1.61,0,0,1,.12.33,1.29,1.29,0,0,1,0,.4Zm-1.48-2.74a.41.41,0,0,0-.1-.31.43.43,0,0,0-.31-.11H7a.39.39,0,0,0-.3.11.4.4,0,0,0-.1.3v.46a.41.41,0,0,0,.1.31.45.45,0,0,0,.3.1H8.38a.46.46,0,0,0,.31-.1.43.43,0,0,0,.1-.31Zm.45,2.29a.37.37,0,0,0-.11-.3.38.38,0,0,0-.28-.11H6.55a.38.38,0,0,0-.3.12.42.42,0,0,0-.11.29v.45a.41.41,0,0,0,.12.31.39.39,0,0,0,.29.1h2.3a.35.35,0,0,0,.29-.11.44.44,0,0,0,.1-.3Z"
       transform="translate(0.12 0)"
       style="fill: #f0f0f0" />
  </g>
  <g
     id="text5245">
    <path
       id="path5281"
       d="M4.55,292.15,1,297.75H-.08l3.54-5.6Z"
       transform="translate(0.12 0)"
       style="fill: #f0f0f0" />
    <path
       id="path5283"
       d="M9.75,292.41a.54.54,0,0,1,.06.25.58.58,0,0,1-.06.26l-2.82,4.83H5.76l2.66-4.59H5.13v-1H9.31a.45.45,0,0,1,.25.07A.5.5,0,0,1,9.75,292.41Z"
       transform="translate(0.12 0)"
       style="fill: #f0f0f0" />
  </g>
  <g
     id="text5249">
    <path
       id="path5286"
       d="M4.6,256l-3.53,5.61H0L3.52,256Z"
       transform="translate(0.12 0)"
       style="fill: #f0f0f0" />
    <path
       id="path5288"
       d="M6.31,258.25H9a1.54,1.54,0,0,1,.46.08,1.26,1.26,0,0,1,.47.25,1.29,1.29,0,0,1,.35.44,1.36,1.36,0,0,1,.15.67v.45a1,1,0,0,1,0,.3,1.19,1.19,0,0,1-.1.32,1.49,1.49,0,0,1-.18.3,1.33,1.33,0,0,1-.27.26,1.41,1.41,0,0,1-.37.18,1.68,1.68,0,0,1-.47.06H7.17a1.94,1.94,0,0,1-.4,0,2.25,2.25,0,0,1-.42-.13,2.92,2.92,0,0,1-.4-.25,1.37,1.37,0,0,1-.33-.35,1.72,1.72,0,0,1-.24-.49,1.91,1.91,0,0,1-.09-.61v-1.84a2,2,0,0,1,.09-.62,1.8,1.8,0,0,1,.24-.48,1.42,1.42,0,0,1,.33-.36,2.12,2.12,0,0,1,.4-.24,1.73,1.73,0,0,1,.42-.14,2,2,0,0,1,.4,0H9.72v1H7.17a1.28,1.28,0,0,0-.35.08.75.75,0,0,0-.27.18.68.68,0,0,0-.18.26,1,1,0,0,0-.06.35Zm0,1v.41a.86.86,0,0,0,.07.36,1,1,0,0,0,.18.27.88.88,0,0,0,.28.17.93.93,0,0,0,.34.06H9a.38.38,0,0,0,.3-.12.42.42,0,0,0,.11-.29v-.45a.42.42,0,0,0-.11-.31.39.39,0,0,0-.3-.1Z"
       transform="translate(0.12 0)"
       style="fill: #f0f0f0" />
  </g>
  <g
     id="text5253">
    <path
       id="path5291"
       d="M4.6,221.67l-3.53,5.6H0l3.54-5.6Z"
       transform="translate(0.12 0)"
       style="fill: #f0f0f0" />
    <path
       id="path5293"
       d="M10.57,225.85a1.69,1.69,0,0,1,0,.3,1.35,1.35,0,0,1-.11.32,1.49,1.49,0,0,1-.18.3A1.12,1.12,0,0,1,10,227a2,2,0,0,1-.36.18,1.73,1.73,0,0,1-.47.06H5.43v-1H9.15a.34.34,0,0,0,.29-.12.44.44,0,0,0,.11-.29v-.46a.45.45,0,0,0-.1-.3.42.42,0,0,0-.31-.11H6.85a1.34,1.34,0,0,1-.66-.14,1.2,1.2,0,0,1-.44-.36A1.48,1.48,0,0,1,5.5,224a1.62,1.62,0,0,1-.07-.47v-1.88h4.68v1H6.44v.86a.42.42,0,0,0,.11.31.4.4,0,0,0,.3.1h2.3a1.65,1.65,0,0,1,.46.08,1.33,1.33,0,0,1,.82.69,1.46,1.46,0,0,1,.14.66Z"
       transform="translate(0.12 0)"
       style="fill: #f0f0f0" />
  </g>
  <g
     id="text5257">
    <path
       id="path5296"
       d="M4.57,186.22,1,191.82H-.06l3.54-5.6Z"
       transform="translate(0.12 0)"
       style="fill: #f0f0f0" />
    <path
       id="path5298"
       d="M10.46,191.82h-1v-2.29H5.82a.64.64,0,0,1-.2,0,.64.64,0,0,1-.16-.11.62.62,0,0,1-.11-.17.65.65,0,0,1,0-.2v-2.8h1v2.29h3.1v-2.29h1Z"
       transform="translate(0.12 0)"
       style="fill: #f0f0f0" />
  </g>
  <g
     id="text5261">
    <path
       id="path5302"
       d="M4.63,151.27,1.1,156.88H0l3.54-5.61Z"
       transform="translate(0.12 0)"
       style="fill: #f0f0f0" />
    <path
       id="path5304"
       d="M10.17,155.45a1.41,1.41,0,0,1-.15.67,1.39,1.39,0,0,1-.35.44,1.5,1.5,0,0,1-.47.24,1.59,1.59,0,0,1-.46.08H5.48v-1H8.74a.38.38,0,0,0,.3-.11.41.41,0,0,0,.11-.3v-.86H5.48v-1H9.15v-.85a.37.37,0,0,0-.41-.42H5.48v-1H8.74a1.72,1.72,0,0,1,.47.07,1,1,0,0,1,.36.18,1.09,1.09,0,0,1,.27.25,1.44,1.44,0,0,1,.19.31,1.19,1.19,0,0,1,.1.32,1.77,1.77,0,0,1,0,.3Z"
       transform="translate(0.12 0)"
       style="fill: #f0f0f0" />
  </g>
  <g
     id="text5265">
    <path
       id="path5307"
       d="M4.51,116.15,1,121.75H-.12l3.54-5.6Z"
       transform="translate(0.12 0)"
       style="fill: #f0f0f0" />
    <path
       id="path5309"
       d="M10.31,121.75H5.17v-1.88a1.53,1.53,0,0,1,0-.3,1.42,1.42,0,0,1,.11-.33,1,1,0,0,1,.18-.3,1.28,1.28,0,0,1,.26-.26,1.82,1.82,0,0,1,.37-.18,1.73,1.73,0,0,1,.47-.06H8.88a.41.41,0,0,0,.3-.1.43.43,0,0,0,.11-.31v-.45a.42.42,0,0,0-.11-.31.37.37,0,0,0-.29-.11H5.63v-1H8.89a1.65,1.65,0,0,1,.46.06,1.82,1.82,0,0,1,.37.18,1.66,1.66,0,0,1,.27.26,1.33,1.33,0,0,1,.18.3,1.35,1.35,0,0,1,.11.32,1.69,1.69,0,0,1,0,.3V118a1.38,1.38,0,0,1-.14.67,1.2,1.2,0,0,1-.36.44,1.58,1.58,0,0,1-.46.25,1.61,1.61,0,0,1-.46.07H6.59a.4.4,0,0,0-.2,0,.27.27,0,0,0-.12.09.5.5,0,0,0,0,.13.83.83,0,0,0,0,.15v.86h4.13Z"
       transform="translate(0.12 0)"
       style="fill: #f0f0f0" />
  </g>
  <g
     id="text5269">
    <path
       id="path5312"
       d="M4.63,81.65,1.1,87.25H0l3.54-5.6Z"
       transform="translate(0.12 0)"
       style="fill: #f0f0f0" />
    <path
       id="path5314"
       d="M7.17,87.25h-1V82.66H5.24v-1H7.17Z"
       transform="translate(0.12 0)"
       style="fill: #f0f0f0" />
  </g>
  <g
     id="text10188">
    <path
       id="path10748"
       d="M11.59,60.76H10.07a.26.26,0,0,0-.21.08.24.24,0,0,0-.07.2V62.9H9.11V61a1.55,1.55,0,0,1,0-.32.9.9,0,0,1,.12-.24,1,1,0,0,1,.17-.18l.2-.12a1.11,1.11,0,0,1,.22-.07l.2,0h1.53Z"
       transform="translate(0.12 0)"
       style="fill: #f0f0f0" />
    <path
       id="path10750"
       d="M15.08,62a1.08,1.08,0,0,1,0,.32.9.9,0,0,1-.12.24.73.73,0,0,1-.17.18.82.82,0,0,1-.2.12.86.86,0,0,1-.21.07.75.75,0,0,1-.21,0H12.91a.86.86,0,0,1-.3,0,.71.71,0,0,1-.31-.16.76.76,0,0,1-.24-.29A1,1,0,0,1,12,62V61a1,1,0,0,1,.1-.44.8.8,0,0,1,.24-.3.71.71,0,0,1,.31-.16.86.86,0,0,1,.3,0h1.22a1,1,0,0,1,.45.09.76.76,0,0,1,.29.24.71.71,0,0,1,.16.31.87.87,0,0,1,.05.31ZM14.41,61a.25.25,0,0,0-.28-.28H12.92a.29.29,0,0,0-.21.08.28.28,0,0,0-.07.2V62a.25.25,0,0,0,.28.28h1.21a.31.31,0,0,0,.21-.07.33.33,0,0,0,.07-.21Z"
       transform="translate(0.12 0)"
       style="fill: #f0f0f0" />
    <path
       id="path10752"
       d="M18.21,60.76H17V62.9h-.68V60.76h-.88v-.67h.88v-.92H17v.92h1.19Z"
       transform="translate(0.12 0)"
       style="fill: #f0f0f0" />
    <path
       id="path10754"
       d="M21.41,62a1.24,1.24,0,0,1-.05.31,1.1,1.1,0,0,1-.16.3,1,1,0,0,1-.29.23.94.94,0,0,1-.43.09H19.25a.86.86,0,0,1-.3,0,.73.73,0,0,1-.3-.16.91.91,0,0,1-.23-.28.87.87,0,0,1-.1-.44,1.17,1.17,0,0,1,.05-.3,1,1,0,0,1,.16-.31.85.85,0,0,1,.29-.23.94.94,0,0,1,.43-.09h1.23v.64H19.25a.26.26,0,0,0-.21.09A.29.29,0,0,0,19,62a.25.25,0,0,0,.09.2.32.32,0,0,0,.21.08h1.22a.26.26,0,0,0,.21-.09.27.27,0,0,0,.07-.2V61a.25.25,0,0,0-.08-.21.28.28,0,0,0-.2-.08H19v-.64h1.49a.86.86,0,0,1,.3,0,.73.73,0,0,1,.3.16.85.85,0,0,1,.23.29.83.83,0,0,1,.1.43Z"
       transform="translate(0.12 0)"
       style="fill: #f0f0f0" />
    <path
       id="path10756"
       d="M24.54,60.76H23.36V62.9h-.69V60.76h-.88v-.67h.88v-.92h.69v.92h1.18Z"
       transform="translate(0.12 0)"
       style="fill: #f0f0f0" />
    <path
       id="path10758"
       d="M28,61a1.11,1.11,0,0,1-.05.3,1,1,0,0,1-.16.31.85.85,0,0,1-.29.23.94.94,0,0,1-.43.09H25.86v-.64h1.22a.29.29,0,0,0,.21-.08.33.33,0,0,0,.08-.22.25.25,0,0,0-.09-.2.3.3,0,0,0-.2-.08H25.86a.27.27,0,0,0-.22.09.28.28,0,0,0-.07.21V62a.25.25,0,0,0,.08.21.32.32,0,0,0,.21.08h1.22v.64H25.86a.87.87,0,0,1-.31,0,.73.73,0,0,1-.3-.16.91.91,0,0,1-.23-.28.87.87,0,0,1-.1-.44V61a1.17,1.17,0,0,1,0-.3,1.08,1.08,0,0,1,.16-.3.85.85,0,0,1,.29-.24,1,1,0,0,1,.44-.09h1.22a.86.86,0,0,1,.3,0,.73.73,0,0,1,.3.16,1,1,0,0,1,.24.29A.94.94,0,0,1,28,61Z"
       transform="translate(0.12 0)"
       style="fill: #f0f0f0" />
  </g>
  <g
     id="text10192">
    <path
       id="path10737"
       d="M36.31,59.51h-.67V58.9h.67Zm0,3.39h-.67V60.09h.67Z"
       transform="translate(0.12 0)"
       style="fill: #f0f0f0" />
    <path
       id="path10739"
       d="M40.08,62.9H39.4V61.34a.61.61,0,0,0,0-.24.46.46,0,0,0-.13-.18.42.42,0,0,0-.18-.11.59.59,0,0,0-.23-.05H37.64V62.9H37V60.42a.31.31,0,0,1,0-.13.23.23,0,0,1,.07-.1l.11-.08.13,0h1.53l.26,0a1.61,1.61,0,0,1,.29.09,1.4,1.4,0,0,1,.26.16,1.05,1.05,0,0,1,.23.24,1.35,1.35,0,0,1,.15.32,1.31,1.31,0,0,1,.06.41Z"
       transform="translate(0.12 0)"
       style="fill: #f0f0f0" />
    <path
       id="path10741"
       d="M43.78,62a1.08,1.08,0,0,1,0,.32.9.9,0,0,1-.12.24.73.73,0,0,1-.17.18.82.82,0,0,1-.2.12.86.86,0,0,1-.21.07.75.75,0,0,1-.21,0H41.61v-.67h1.22a.25.25,0,0,0,.28-.28V61a.25.25,0,0,0-.28-.28H41.62a.29.29,0,0,0-.21.08.24.24,0,0,0-.07.2v2.74h-.68V61a1.07,1.07,0,0,1,.05-.32,1.33,1.33,0,0,1,.11-.24A.77.77,0,0,1,41,60.3a.82.82,0,0,1,.2-.12.86.86,0,0,1,.21-.07l.2,0h1.22a1,1,0,0,1,.32,0,.9.9,0,0,1,.24.12.73.73,0,0,1,.18.17.82.82,0,0,1,.12.2.86.86,0,0,1,.07.21,1.49,1.49,0,0,1,0,.21Z"
       transform="translate(0.12 0)"
       style="fill: #f0f0f0" />
    <path
       id="path10743"
       d="M47.44,62.56a.32.32,0,0,1,0,.14.28.28,0,0,1-.08.11.26.26,0,0,1-.1.07l-.13,0H45.58a1.24,1.24,0,0,1-.27,0,.92.92,0,0,1-.28-.09,1.28,1.28,0,0,1-.27-.16.85.85,0,0,1-.22-.24,1.07,1.07,0,0,1-.16-.32,1.31,1.31,0,0,1-.06-.41V60.09H45v1.56a.6.6,0,0,0,0,.24.55.55,0,0,0,.3.3.85.85,0,0,0,.23,0h1.19V60.09h.67Z"
       transform="translate(0.12 0)"
       style="fill: #f0f0f0" />
    <path
       id="path10745"
       d="M50.64,60.76H49.46V62.9h-.68V60.76H47.9v-.67h.88v-.92h.68v.92h1.18Z"
       transform="translate(0.12 0)"
       style="fill: #f0f0f0" />
  </g>
  <g
     id="text10767">
    <path
       id="path10773"
       d="M22.11,22H18.44l-.3,0a1.21,1.21,0,0,1-.32-.11.92.92,0,0,1-.3-.18,1,1,0,0,1-.26-.27,1.35,1.35,0,0,1-.18-.36,1.75,1.75,0,0,1-.06-.48V17.82a1.69,1.69,0,0,1,0-.3,2,2,0,0,1,.1-.32,1.37,1.37,0,0,1,.19-.3,1.12,1.12,0,0,1,.27-.26,1.51,1.51,0,0,1,.36-.18,1.73,1.73,0,0,1,.47-.06h3.67v1H18.44a.41.41,0,0,0-.3.11.42.42,0,0,0-.11.31v2.74a.43.43,0,0,0,.11.31.4.4,0,0,0,.3.1h3.67Z"
       transform="translate(0.12 0)"
       style="fill: #f0f0f0" />
    <path
       id="path10775"
       d="M24.82,22h-.46a1.67,1.67,0,0,1-.47-.07,1.39,1.39,0,0,1-.46-.25,1.29,1.29,0,0,1-.35-.44,1.36,1.36,0,0,1-.14-.67V16h1v4.58a.41.41,0,0,0,.12.31.43.43,0,0,0,.29.1h.46Z"
       transform="translate(0.12 0)"
       style="fill: #f0f0f0" />
    <path
       id="path10777"
       d="M30.07,20.57a1.43,1.43,0,0,1-.07.48,1.33,1.33,0,0,1-.17.36,1,1,0,0,1-.26.27.92.92,0,0,1-.3.18A1.21,1.21,0,0,1,29,22l-.31,0H26.81a1.61,1.61,0,0,1-.46-.07,1.22,1.22,0,0,1-.46-.25,1.44,1.44,0,0,1-.36-.44,1.48,1.48,0,0,1-.14-.67V19.2a1.46,1.46,0,0,1,.14-.66,1.44,1.44,0,0,1,.36-.44,1.22,1.22,0,0,1,.46-.25,1.61,1.61,0,0,1,.46-.07h1.83a1.38,1.38,0,0,1,.67.14,1.29,1.29,0,0,1,.44.35,1.45,1.45,0,0,1,.24.46,1.71,1.71,0,0,1,.08.47Zm-1-1.36a.44.44,0,0,0-.1-.32.46.46,0,0,0-.31-.1H26.82a.42.42,0,0,0-.31.11.4.4,0,0,0-.1.3v1.37a.36.36,0,0,0,.41.41h1.82a.4.4,0,0,0,.31-.1.41.41,0,0,0,.1-.31Z"
       transform="translate(0.12 0)"
       style="fill: #f0f0f0" />
    <path
       id="path10779"
       d="M35,22H32.27a1.62,1.62,0,0,1-.47-.07,1.3,1.3,0,0,1-.46-.25,1.44,1.44,0,0,1-.36-.44,1.48,1.48,0,0,1-.14-.67V19.2a1.15,1.15,0,0,1,0-.31,1.24,1.24,0,0,1,.1-.31,1.92,1.92,0,0,1,.18-.31,1.6,1.6,0,0,1,.27-.25,1.82,1.82,0,0,1,.37-.18,1.63,1.63,0,0,1,.47-.06H35v1H32.27a.46.46,0,0,0-.31.1.44.44,0,0,0-.1.32v1.36a.41.41,0,0,0,.1.31.45.45,0,0,0,.31.1H35Z"
       transform="translate(0.12 0)"
       style="fill: #f0f0f0" />
    <path
       id="path10781"
       d="M40.83,22H39.36l-2-2a.44.44,0,0,1-.16-.39.46.46,0,0,1,.05-.2.36.36,0,0,1,.14-.16l1.85-1.5h1.63L38.44,19.7ZM36.9,22h-1V16h1Z"
       transform="translate(0.12 0)"
       style="fill: #f0f0f0" />
  </g>
  <g
     id="text10771">
    <path
       id="path10784"
       d="M15.94,11a2,2,0,0,1-.09.62,1.84,1.84,0,0,1-.23.49,1.88,1.88,0,0,1-.34.35,2.42,2.42,0,0,1-.4.25,2.3,2.3,0,0,1-.42.14,3,3,0,0,1-.4,0l2.12,1.83H14.61l-2.12-1.83h-.73v-1h2.3a1,1,0,0,0,.35-.08,1,1,0,0,0,.27-.17.68.68,0,0,0,.18-.26,1,1,0,0,0,.06-.36v-.64a.39.39,0,0,0,0-.13.21.21,0,0,0-.13-.09H11.36v4.59h-1V9.66a.45.45,0,0,1,0-.2.44.44,0,0,1,.1-.16.54.54,0,0,1,.37-.15h3.86a1.26,1.26,0,0,1,.57.12,1.17,1.17,0,0,1,.38.31,1.1,1.1,0,0,1,.21.4,1.21,1.21,0,0,1,.07.4Z"
       transform="translate(0.12 0)"
       style="fill: #f0f0f0" />
    <path
       id="path10786"
       d="M21.4,13.32a1.43,1.43,0,0,1-.07.48,1.33,1.33,0,0,1-.17.36,1.12,1.12,0,0,1-.26.27,1,1,0,0,1-.3.18,1.35,1.35,0,0,1-.32.11l-.31,0H18.14a1.61,1.61,0,0,1-.46-.07,1.34,1.34,0,0,1-.47-.25,1.42,1.42,0,0,1-.35-.44,1.48,1.48,0,0,1-.14-.67V12a1.46,1.46,0,0,1,.14-.66,1.42,1.42,0,0,1,.35-.44,1.34,1.34,0,0,1,.47-.25,1.61,1.61,0,0,1,.46-.07H20a1.41,1.41,0,0,1,.67.14,1.29,1.29,0,0,1,.44.35,1.45,1.45,0,0,1,.24.46,1.71,1.71,0,0,1,.08.47Zm-1-1.36a.44.44,0,0,0-.1-.32.46.46,0,0,0-.31-.1H18.15a.42.42,0,0,0-.31.11.41.41,0,0,0-.11.3v1.37a.37.37,0,0,0,.42.41H20a.36.36,0,0,0,.41-.41Z"
       transform="translate(0.12 0)"
       style="fill: #f0f0f0" />
    <path
       id="path10788"
       d="M26.08,11.54H24.31v3.21h-1V11.54H22v-1h1.32V9.15h1v1.38h1.77Z"
       transform="translate(0.12 0)"
       style="fill: #f0f0f0" />
    <path
       id="path10790"
       d="M30.88,13.35a1.61,1.61,0,0,1-.07.46,1.4,1.4,0,0,1-.24.45,1.29,1.29,0,0,1-.44.35,1.39,1.39,0,0,1-.65.14H27.65a1.5,1.5,0,0,1-.45-.07,1.35,1.35,0,0,1-.46-.24,1.35,1.35,0,0,1-.49-1.09,1.65,1.65,0,0,1,.08-.46,1.4,1.4,0,0,1,.24-.45,1.25,1.25,0,0,1,.43-.35,1.45,1.45,0,0,1,.65-.14h1.83v1H27.65a.39.39,0,0,0-.32.13.45.45,0,0,0-.11.31.37.37,0,0,0,.13.31.49.49,0,0,0,.31.11h1.82a.41.41,0,0,0,.32-.12.45.45,0,0,0,.12-.32V11.93a.39.39,0,0,0-.13-.32.41.41,0,0,0-.31-.12H27.25v-1h2.23a1.51,1.51,0,0,1,.46.07,1.4,1.4,0,0,1,.45.24,1.35,1.35,0,0,1,.49,1.09Z"
       transform="translate(0.12 0)"
       style="fill: #f0f0f0" />
    <path
       id="path10792"
       d="M35.58,11.54H33.81v3.21h-1V11.54H31.46v-1h1.32V9.15h1v1.38h1.77Z"
       transform="translate(0.12 0)"
       style="fill: #f0f0f0" />
    <path
       id="path10794"
       d="M37.29,9.66h-1V8.74h1Zm0,5.09h-1V10.53h1Z"
       transform="translate(0.12 0)"
       style="fill: #f0f0f0" />
    <path
       id="path10796"
       d="M42.94,14.75h-1V12.41a.8.8,0,0,0-.07-.36.64.64,0,0,0-.18-.27.62.62,0,0,0-.28-.17.77.77,0,0,0-.34-.07H39.27v3.21h-1V11a.41.41,0,0,1,0-.19.31.31,0,0,1,.11-.16.36.36,0,0,1,.16-.11.45.45,0,0,1,.2,0h2.29a1.87,1.87,0,0,1,.4,0,2.3,2.3,0,0,1,.42.14,1.63,1.63,0,0,1,.4.24,1.67,1.67,0,0,1,.34.36,1.78,1.78,0,0,1,.23.48,2,2,0,0,1,.09.62Z"
       transform="translate(0.12 0)"
       style="fill: #f0f0f0" />
    <path
       id="path10798"
       d="M48.43,15.16a1.41,1.41,0,0,1-.07.47,1.2,1.2,0,0,1-.17.36,1.12,1.12,0,0,1-.26.27,1.17,1.17,0,0,1-.3.19,2,2,0,0,1-.32.1l-.31,0H45.17v-1H47a.42.42,0,0,0,.31-.11.4.4,0,0,0,.1-.3V12a.4.4,0,0,0-.1-.3.42.42,0,0,0-.31-.11H45.17a.38.38,0,0,0-.4.41v1.37a.36.36,0,0,0,.41.41H47v1H45.17l-.3,0a1.21,1.21,0,0,1-.32-.11.92.92,0,0,1-.3-.18,1.12,1.12,0,0,1-.26-.27,1.33,1.33,0,0,1-.17-.36,1.43,1.43,0,0,1-.07-.48V12a1.71,1.71,0,0,1,0-.31,1.28,1.28,0,0,1,.11-.31,1.22,1.22,0,0,1,.45-.56,1.31,1.31,0,0,1,.83-.24H47l.31,0a2,2,0,0,1,.32.1,1.17,1.17,0,0,1,.3.19,1.12,1.12,0,0,1,.26.27,1.2,1.2,0,0,1,.17.36,1.37,1.37,0,0,1,.07.47Z"
       transform="translate(0.12 0)"
       style="fill: #f0f0f0" />
  </g>
  <g
     aria-label="Divider CV"
     style="font-style:normal;font-variant:normal;font-weight:normal;font-stretch:normal;font-size:8px;line-height:1.25;font-family:Audiowide;-inkscape-font-specification:Audiowide;letter-spacing:0px;word-spacing:0px;fill:#000000;fill-opacity:1;stroke:none"
     id="text909">
    <path
       d="m 7.7395836,27.375 q 0,0.682292 -0.2395834,1.255208 -0.234375,0.572917 -0.6510416,0.989584 Q 6.4322919,30.03125 5.8593752,30.265625 5.2864585,30.5 4.6145835,30.5 H 0.95833338 q -0.14583334,0 -0.27083334,-0.05208 -0.12500001,-0.05208 -0.21875001,-0.140625 -0.0885417,-0.09375 -0.14062501,-0.21875 -0.0520833,-0.125 -0.0520833,-0.270834 v -6.104167 q 0,-0.140625 0.0520833,-0.265625 0.0520833,-0.125 0.14062501,-0.21875 0.09375,-0.09375 0.21875001,-0.145833 0.125,-0.05208 0.27083334,-0.05208 H 4.6145835 q 0.671875,0 1.2447917,0.234375 0.5729167,0.234375 0.9895834,0.651041 0.4166666,0.411459 0.6510416,0.989584 0.2395834,0.572917 0.2395834,1.25 z M 6.3854169,26.15625 q 0,-0.395833 -0.1302084,-0.723958 -0.125,-0.328125 -0.359375,-0.557292 -0.234375,-0.234375 -0.5625,-0.359375 -0.3229167,-0.130209 -0.71875,-0.130209 H 1.6302084 v 4.760417 h 2.9843751 q 0.3958333,0 0.71875,-0.125 0.328125,-0.130208 0.5625,-0.359375 0.234375,-0.234375 0.359375,-0.557291 Q 6.3854169,27.776042 6.3854169,27.375 Z"
       style="font-size:10.66666698px;fill:#f0f0f0;fill-opacity:1"
       id="path927" />
    <path
       d="M 10.302084,23.713541 H 8.947917 v -1.223958 h 1.354167 z m 0,6.786459 H 8.947917 v -5.630209 h 1.354167 z"
       style="font-size:10.66666698px;fill:#f0f0f0;fill-opacity:1"
       id="path929" />
    <path
       d="m 18.312501,24.869791 q -0.229167,0.713542 -0.536458,1.406251 -0.307292,0.692708 -0.708334,1.322916 -0.395833,0.625 -0.890625,1.161459 -0.489583,0.53125 -1.088542,0.921875 -0.59375,0.385416 -1.296875,0.609375 -0.697916,0.21875 -1.515625,0.21875 -0.140625,0 -0.265625,-0.05208 -0.125,-0.05208 -0.21875,-0.140625 -0.09375,-0.09375 -0.145833,-0.213541 -0.05208,-0.125 -0.05208,-0.265625 v -4.968751 h 1.354166 v 4.234376 q 0.494792,0 0.947917,-0.213542 0.458333,-0.213542 0.864583,-0.5625 0.40625,-0.354167 0.75,-0.802083 0.348959,-0.447917 0.619792,-0.916667 0.270833,-0.473958 0.458333,-0.927083 0.192709,-0.453125 0.286459,-0.812501 z"
       style="font-size:10.66666698px;fill:#f0f0f0;fill-opacity:1"
       id="path931" />
    <path
       d="m 20.177085,23.713541 h -1.354167 v -1.223958 h 1.354167 z m 0,6.786459 h -1.354167 v -5.630209 h 1.354167 z"
       style="font-size:10.66666698px;fill:#f0f0f0;fill-opacity:1"
       id="path933" />
    <path
       d="m 27.645834,28.598958 q 0,0.348959 -0.08854,0.630209 -0.08854,0.276041 -0.234376,0.489583 -0.145833,0.208333 -0.338541,0.359375 -0.192709,0.145833 -0.40625,0.239583 -0.208334,0.09375 -0.427084,0.140625 Q 25.937501,30.5 25.744792,30.5 h -2.442708 q -0.348958,0 -0.625,-0.08854 -0.276042,-0.08854 -0.489583,-0.234375 -0.208334,-0.151041 -0.359375,-0.34375 -0.145834,-0.192708 -0.239584,-0.401041 -0.09375,-0.213542 -0.140625,-0.427084 -0.04167,-0.21875 -0.04167,-0.40625 v -1.833333 q 0,-0.520833 0.1875,-0.880208 0.192708,-0.364584 0.473958,-0.588542 0.286458,-0.229167 0.619792,-0.328125 0.333333,-0.09896 0.614583,-0.09896 h 2.442708 v 1.354167 h -2.432291 q -0.270834,0 -0.411459,0.140625 Q 22.760417,26.5 22.760417,26.765625 v 1.822917 q 0,0.276041 0.135417,0.416666 0.140625,0.140625 0.40625,0.140625 h 2.442708 q 0.276042,0 0.411459,-0.140625 0.135416,-0.140625 0.135416,-0.40625 v -6.109375 h 1.354167 z"
       style="font-size:10.66666698px;fill:#f0f0f0;fill-opacity:1"
       id="path935" />
    <path
       d="m 35.005209,26.734375 q 0,0.28125 -0.09896,0.609375 -0.09896,0.322917 -0.322916,0.604167 -0.21875,0.276041 -0.578125,0.463541 -0.354167,0.1875 -0.864584,0.1875 H 30.697917 V 27.3125 h 2.442708 q 0.276042,0 0.427083,-0.166667 0.151042,-0.171875 0.151042,-0.421875 0,-0.265625 -0.171875,-0.416666 -0.166667,-0.151042 -0.40625,-0.151042 h -2.442708 q -0.276042,0 -0.427084,0.171875 -0.151041,0.166667 -0.151041,0.416667 v 1.890625 q 0,0.270833 0.166666,0.421875 0.171875,0.151041 0.421875,0.151041 h 2.432292 V 30.5 h -2.442708 q -0.28125,0 -0.609375,-0.09896 -0.322917,-0.09896 -0.604167,-0.317709 -0.276042,-0.223958 -0.463542,-0.578125 -0.1875,-0.359375 -0.1875,-0.869791 v -1.901042 q 0,-0.28125 0.09896,-0.604167 0.09896,-0.328125 0.317708,-0.604166 0.223958,-0.28125 0.578125,-0.46875 0.359375,-0.187501 0.869792,-0.187501 h 2.442708 q 0.28125,0 0.604167,0.09896 0.328125,0.09896 0.604167,0.322917 0.28125,0.21875 0.46875,0.578125 0.1875,0.354166 0.1875,0.864583 z"
       style="font-size:10.66666698px;fill:#f0f0f0;fill-opacity:1"
       id="path937" />
    <path
       d="m 40.854168,26.223958 h -3.046875 q -0.276042,0 -0.416667,0.140625 Q 37.250001,26.5 37.250001,26.765625 V 30.5 h -1.354166 v -3.734375 q 0,-0.348958 0.08854,-0.625 0.08854,-0.276042 0.234375,-0.484375 0.151042,-0.213542 0.34375,-0.359375 0.192709,-0.151042 0.401042,-0.244792 0.213542,-0.09375 0.427083,-0.135416 0.21875,-0.04688 0.40625,-0.04688 h 3.057292 z"
       style="font-size:10.66666698px;fill:#f0f0f0;fill-opacity:1"
       id="path939" />
    <path
       d="m 51.973959,30.5 h -4.885417 q -0.1875,0 -0.40625,-0.04167 -0.213542,-0.04687 -0.427084,-0.140625 -0.208333,-0.09375 -0.401041,-0.239583 -0.192709,-0.151042 -0.34375,-0.359375 -0.145834,-0.213542 -0.234375,-0.489583 -0.08854,-0.28125 -0.08854,-0.630209 v -3.666666 q 0,-0.187501 0.04167,-0.401042 0.04687,-0.21875 0.140625,-0.427084 0.09375,-0.213541 0.244791,-0.40625 0.151042,-0.192708 0.359375,-0.338541 0.213542,-0.151042 0.489584,-0.239584 0.276041,-0.08854 0.625,-0.08854 h 4.885417 v 1.354166 h -4.885417 q -0.265625,0 -0.40625,0.140625 -0.140625,0.140625 -0.140625,0.416667 v 3.65625 q 0,0.260417 0.140625,0.40625 0.145833,0.140625 0.40625,0.140625 h 4.885417 z"
       style="font-size:10.66666698px;fill:#f0f0f0;fill-opacity:1"
       id="path941" />
    <path
       d="m 60.739585,23.03125 -3.536459,7.203125 q -0.08333,0.166667 -0.25,0.265625 -0.161458,0.104167 -0.359375,0.104167 -0.192708,0 -0.359375,-0.104167 -0.161458,-0.09896 -0.25,-0.265625 l -3.53125,-7.203125 h 1.515625 l 2.625,5.380208 2.635417,-5.380208 z"
       style="font-size:10.66666698px;fill:#f0f0f0;fill-opacity:1"
       id="path943" />
  </g>
</svg>
