<?xml version="1.0" encoding="UTF-8" standalone="no"?><!DOCTYPE svg PUBLIC "-//W3C//DTD SVG 1.1//EN" "http://www.w3.org/Graphics/SVG/1.1/DTD/svg11.dtd"><svg width="45" height="380" viewBox="0 0 45 380" version="1.1" xmlns="http://www.w3.org/2000/svg" xmlns:xlink="http://www.w3.org/1999/xlink" xml:space="preserve" xmlns:serif="http://www.serif.com/" style="fill-rule:evenodd;clip-rule:evenodd;stroke-linecap:round;stroke-linejoin:round;stroke-miterlimit:1.5;"><g transform="matrix(0.75,0,0,1,-75.2046,-179)"><rect x="100.273" y="179" width="60" height="380" style="fill:#262626;"/></g><g transform="matrix(1,0,0,1,-5,10)"><g transform="matrix(0.593219,0,0,0.593219,216.444,254.778)"><g transform="matrix(18.75,0,0,18.75,-350.384,174.851)"><path d="M0.266,0.006C0.215,0.006 0.166,-0.002 0.118,-0.019C0.071,-0.036 0.036,-0.057 0.012,-0.083L0.048,-0.141C0.071,-0.116 0.104,-0.095 0.145,-0.08C0.186,-0.065 0.229,-0.057 0.273,-0.057C0.335,-0.057 0.385,-0.069 0.423,-0.094C0.46,-0.118 0.479,-0.152 0.479,-0.195C0.479,-0.218 0.472,-0.237 0.458,-0.252C0.444,-0.267 0.426,-0.279 0.405,-0.288C0.384,-0.297 0.355,-0.306 0.318,-0.317C0.275,-0.33 0.239,-0.342 0.213,-0.354C0.186,-0.365 0.163,-0.383 0.143,-0.406C0.125,-0.429 0.115,-0.458 0.115,-0.495C0.115,-0.538 0.127,-0.576 0.151,-0.608C0.174,-0.639 0.207,-0.664 0.25,-0.681C0.292,-0.698 0.34,-0.706 0.395,-0.706C0.437,-0.706 0.477,-0.701 0.515,-0.691C0.553,-0.68 0.585,-0.665 0.612,-0.646L0.581,-0.586C0.556,-0.605 0.527,-0.619 0.494,-0.628C0.461,-0.638 0.427,-0.643 0.391,-0.643C0.33,-0.643 0.28,-0.63 0.243,-0.605C0.206,-0.58 0.187,-0.545 0.187,-0.502C0.187,-0.478 0.194,-0.458 0.209,-0.443C0.224,-0.428 0.242,-0.416 0.264,-0.406C0.285,-0.398 0.314,-0.388 0.351,-0.377C0.394,-0.364 0.429,-0.352 0.456,-0.341C0.483,-0.329 0.505,-0.312 0.524,-0.291C0.543,-0.269 0.552,-0.24 0.552,-0.205C0.552,-0.161 0.54,-0.123 0.516,-0.092C0.491,-0.06 0.458,-0.036 0.414,-0.019C0.372,-0.002 0.322,0.006 0.266,0.006Z" style="fill:#c78d00;fill-rule:nonzero;"/></g><g transform="matrix(18.75,0,0,18.75,-338.853,174.851)"><path d="M0.653,0L0.57,0L0.344,-0.33L0.172,-0.183L0.135,0L0.062,0L0.202,-0.7L0.275,-0.7L0.191,-0.282L0.679,-0.7L0.776,-0.7L0.398,-0.375L0.653,0Z" style="fill:#c78d00;fill-rule:nonzero;"/></g></g><g transform="matrix(0.0441525,0,0,0.0441525,-3.04195,337.717)"><path d="M469.724,294.537L481.962,294.537L446.735,470.828L434.498,470.828L469.724,294.537Z" style="fill:#c78d00;"/></g><g transform="matrix(0.0286747,0.0335738,-0.0335738,0.0286747,18.4991,328.912)"><path d="M448.464,235.495L448.464,422.015" style="fill:none;stroke:#c78d00;stroke-width:15px;"/></g><g transform="matrix(0.0432966,0.00865151,-0.00747929,0.0374302,10.458,332.605)"><path d="M448.464,235.495L448.464,422.015" style="fill:none;stroke:#c78d00;stroke-width:18.43px;"/></g><g transform="matrix(0.0363872,-0.0250082,0.0272781,0.0396899,2.49568,357.472)"><path d="M356.691,177.669C356.691,177.669 425.065,220.751 451.006,237.096C457.153,240.969 460.826,247.37 460.826,254.208C460.826,294.131 460.826,429.804 460.826,429.804" style="fill:none;stroke:#c78d00;stroke-width:16.46px;"/></g><g transform="matrix(0.0468726,-0.0322147,0.0322147,0.0468726,-4.7468,370.556)"><path d="M594.035,244.303C607.745,244.303 618.877,255.434 618.877,269.145C618.877,282.855 607.745,293.986 594.035,293.986C580.325,293.986 569.193,282.855 569.193,269.145C569.193,255.434 580.325,244.303 594.035,244.303ZM594.035,257.221C600.616,257.221 605.959,262.564 605.959,269.145C605.959,275.726 600.616,281.069 594.035,281.069C587.454,281.069 582.111,275.726 582.111,269.145C582.111,262.564 587.454,257.221 594.035,257.221Z" style="fill:#c78d00;"/></g><g transform="matrix(0.055773,0.0111445,-0.0111445,0.055773,-1.79204,322.538)"><path d="M594.035,244.303C607.745,244.303 618.877,255.434 618.877,269.145C618.877,282.855 607.745,293.986 594.035,293.986C580.325,293.986 569.193,282.855 569.193,269.145C569.193,255.434 580.325,244.303 594.035,244.303ZM594.035,257.221C600.616,257.221 605.959,262.564 605.959,269.145C605.959,275.726 600.616,281.069 594.035,281.069C587.454,281.069 582.111,275.726 582.111,269.145C582.111,262.564 587.454,257.221 594.035,257.221Z" style="fill:#c78d00;"/></g><g transform="matrix(0.0369377,0.0432485,-0.0432485,0.0369377,14.0235,314.322)"><path d="M594.035,244.303C607.745,244.303 618.877,255.434 618.877,269.145C618.877,282.855 607.745,293.986 594.035,293.986C580.325,293.986 569.193,282.855 569.193,269.145C569.193,255.434 580.325,244.303 594.035,244.303ZM594.035,257.221C600.616,257.221 605.959,262.564 605.959,269.145C605.959,275.726 600.616,281.069 594.035,281.069C587.454,281.069 582.111,275.726 582.111,269.145C582.111,262.564 587.454,257.221 594.035,257.221Z" style="fill:#c78d00;"/></g><g transform="matrix(0.0568755,0,0,0.0568755,1.07831,333.869)"><path d="M594.035,244.303C607.745,244.303 618.877,255.434 618.877,269.145C618.877,282.855 607.745,293.986 594.035,293.986C580.325,293.986 569.193,282.855 569.193,269.145C569.193,255.434 580.325,244.303 594.035,244.303ZM594.035,257.221C600.616,257.221 605.959,262.564 605.959,269.145C605.959,275.726 600.616,281.069 594.035,281.069C587.454,281.069 582.111,275.726 582.111,269.145C582.111,262.564 587.454,257.221 594.035,257.221Z" style="fill:#c78d00;"/></g><g transform="matrix(-0.0364308,0.0249447,-0.0215409,-0.0314598,44.7845,356.392)"><path d="M448.464,235.495L448.464,422.015" style="fill:none;stroke:#c78d00;stroke-width:18.52px;"/></g><g transform="matrix(-0.0469288,0.0321328,-0.0321328,-0.0469288,60.5573,354.661)"><path d="M594.035,244.303C607.745,244.303 618.877,255.434 618.877,269.145C618.877,282.855 607.745,293.986 594.035,293.986C580.325,293.986 569.193,282.855 569.193,269.145C569.193,255.434 580.325,244.303 594.035,244.303ZM594.035,257.221C600.616,257.221 605.959,262.564 605.959,269.145C605.959,275.726 600.616,281.069 594.035,281.069C587.454,281.069 582.111,275.726 582.111,269.145C582.111,262.564 587.454,257.221 594.035,257.221Z" style="fill:#c78d00;"/></g><g transform="matrix(0.0286747,0.0335738,-0.0288435,0.0246347,17.8811,325.914)"><path d="M585.636,407.026L585.636,155.908C585.636,149.63 587.56,143.559 591.062,138.786C603.759,121.481 634.338,79.807 634.338,79.807" style="fill:none;stroke:#c78d00;stroke-width:18.47px;"/></g></g><g transform="matrix(1,0,0,1,-123.894,-138.112)"><g transform="matrix(9.375,0,0,9.375,132.254,270.819)"><path d="M0.27,0.009C0.191,0.009 0.134,-0.014 0.1,-0.059C0.065,-0.103 0.048,-0.169 0.048,-0.254L0.048,-0.561C0.048,-0.645 0.065,-0.709 0.1,-0.752C0.135,-0.795 0.191,-0.817 0.27,-0.817C0.349,-0.817 0.405,-0.795 0.44,-0.751C0.474,-0.708 0.491,-0.644 0.491,-0.561L0.491,-0.253C0.491,-0.169 0.474,-0.104 0.439,-0.059C0.404,-0.014 0.348,0.009 0.27,0.009ZM0.27,-0.08C0.312,-0.08 0.34,-0.092 0.355,-0.117C0.37,-0.142 0.377,-0.179 0.377,-0.229L0.377,-0.584C0.377,-0.633 0.37,-0.67 0.355,-0.694C0.34,-0.717 0.312,-0.729 0.27,-0.729C0.227,-0.729 0.199,-0.717 0.184,-0.694C0.169,-0.67 0.162,-0.633 0.162,-0.584L0.162,-0.229C0.162,-0.179 0.169,-0.142 0.184,-0.117C0.199,-0.092 0.227,-0.08 0.27,-0.08Z" style="fill:#8d8d8d;fill-rule:nonzero;"/></g><g transform="matrix(9.375,0,0,9.375,137.588,270.819)"><path d="M0.266,0.009C0.186,0.009 0.13,-0.015 0.097,-0.063C0.064,-0.11 0.048,-0.176 0.048,-0.26L0.048,-0.546C0.048,-0.635 0.064,-0.702 0.096,-0.748C0.128,-0.794 0.185,-0.817 0.266,-0.817C0.339,-0.817 0.391,-0.797 0.423,-0.758C0.454,-0.719 0.47,-0.661 0.47,-0.584L0.47,-0.52L0.363,-0.52L0.363,-0.577C0.363,-0.614 0.361,-0.643 0.358,-0.663C0.355,-0.683 0.346,-0.699 0.333,-0.711C0.319,-0.723 0.297,-0.729 0.267,-0.729C0.236,-0.729 0.214,-0.723 0.199,-0.71C0.184,-0.697 0.174,-0.679 0.169,-0.656C0.164,-0.632 0.162,-0.602 0.162,-0.563L0.162,-0.242C0.162,-0.201 0.165,-0.168 0.172,-0.145C0.179,-0.122 0.19,-0.105 0.204,-0.095C0.22,-0.085 0.24,-0.08 0.267,-0.08C0.296,-0.08 0.317,-0.086 0.331,-0.099C0.345,-0.112 0.354,-0.129 0.358,-0.151C0.361,-0.173 0.363,-0.203 0.363,-0.241L0.363,-0.301L0.47,-0.301L0.47,-0.241C0.47,-0.16 0.455,-0.099 0.425,-0.056C0.394,-0.013 0.341,0.009 0.266,0.009Z" style="fill:#8d8d8d;fill-rule:nonzero;"/></g><g transform="matrix(9.375,0,0,9.375,142.697,270.819)"><path d="M0.152,-0.726L0.015,-0.726L0.015,-0.81L0.398,-0.81L0.398,-0.726L0.265,-0.726L0.265,0L0.152,0L0.152,-0.726Z" style="fill:#8d8d8d;fill-rule:nonzero;"/></g><g transform="matrix(9.375,0,0,9.375,146.832,270.819)"><path d="M0.191,-0.81L0.3,-0.81L0.473,0L0.366,0L0.329,-0.204L0.164,-0.204L0.125,0L0.019,0L0.191,-0.81ZM0.314,-0.285L0.246,-0.65L0.179,-0.285L0.314,-0.285Z" style="fill:#8d8d8d;fill-rule:nonzero;"/></g><g transform="matrix(9.375,0,0,9.375,151.463,270.819)"><path d="M0.023,-0.81L0.129,-0.81L0.257,-0.213L0.379,-0.81L0.482,-0.81L0.303,0L0.204,0L0.023,-0.81Z" style="fill:#8d8d8d;fill-rule:nonzero;"/></g><g transform="matrix(9.375,0,0,9.375,156.479,270.819)"><path d="M0.063,-0.81L0.377,-0.81L0.377,-0.726L0.176,-0.726L0.176,-0.458L0.339,-0.458L0.339,-0.378L0.176,-0.378L0.176,-0.081L0.379,-0.081L0.379,0L0.063,0L0.063,-0.81Z" style="fill:#8d8d8d;fill-rule:nonzero;"/></g></g><g transform="matrix(0.837495,0,0,0.837495,-86.6027,-140.073)"><circle cx="130.273" cy="296.541" r="13.731" style="fill:none;stroke:#e7b028;stroke-width:1.87px;stroke-linecap:butt;stroke-linejoin:bevel;"/></g><g transform="matrix(0.837495,0,0,0.837495,-86.6652,-180.073)"><circle cx="130.273" cy="296.541" r="13.731" style="fill:none;stroke:#e7b028;stroke-width:1.87px;stroke-linecap:butt;stroke-linejoin:bevel;"/></g><g transform="matrix(1,0,0,1,-123.954,-177.883)"><g transform="matrix(9.375,0,0,9.375,135.31,270.819)"><path d="M0.063,-0.81L0.226,-0.81C0.308,-0.81 0.368,-0.793 0.406,-0.759C0.445,-0.726 0.464,-0.671 0.464,-0.595C0.464,-0.491 0.431,-0.428 0.364,-0.406L0.479,0L0.37,0L0.264,-0.38L0.176,-0.38L0.176,0L0.063,0L0.063,-0.81ZM0.219,-0.461C0.268,-0.461 0.303,-0.471 0.324,-0.49C0.344,-0.509 0.355,-0.544 0.355,-0.595C0.355,-0.628 0.351,-0.655 0.344,-0.674C0.337,-0.693 0.324,-0.707 0.305,-0.716C0.286,-0.725 0.26,-0.729 0.226,-0.729L0.176,-0.729L0.176,-0.461L0.219,-0.461Z" style="fill:#8d8d8d;fill-rule:nonzero;"/></g><g transform="matrix(9.375,0,0,9.375,140.457,270.819)"><path d="M0.063,-0.81L0.377,-0.81L0.377,-0.726L0.176,-0.726L0.176,-0.458L0.339,-0.458L0.339,-0.378L0.176,-0.378L0.176,-0.081L0.379,-0.081L0.379,0L0.063,0L0.063,-0.81Z" style="fill:#8d8d8d;fill-rule:nonzero;"/></g><g transform="matrix(9.375,0,0,9.375,144.554,270.819)"><path d="M0.254,0.009C0.186,0.009 0.134,-0.012 0.099,-0.054C0.063,-0.096 0.043,-0.154 0.039,-0.227L0.139,-0.254C0.142,-0.202 0.153,-0.16 0.17,-0.128C0.187,-0.096 0.215,-0.08 0.254,-0.08C0.283,-0.08 0.306,-0.088 0.321,-0.105C0.336,-0.121 0.343,-0.144 0.343,-0.175C0.343,-0.208 0.336,-0.236 0.322,-0.258C0.308,-0.28 0.286,-0.304 0.255,-0.331L0.119,-0.451C0.092,-0.475 0.072,-0.501 0.059,-0.529C0.047,-0.556 0.041,-0.59 0.041,-0.63C0.041,-0.689 0.058,-0.735 0.092,-0.768C0.126,-0.801 0.172,-0.817 0.231,-0.817C0.295,-0.817 0.343,-0.8 0.376,-0.766C0.409,-0.732 0.428,-0.679 0.435,-0.608L0.339,-0.582C0.336,-0.629 0.327,-0.666 0.312,-0.692C0.297,-0.717 0.27,-0.73 0.231,-0.73C0.202,-0.73 0.18,-0.723 0.165,-0.708C0.15,-0.693 0.142,-0.67 0.142,-0.641C0.142,-0.617 0.146,-0.597 0.154,-0.581C0.162,-0.564 0.176,-0.548 0.195,-0.531L0.332,-0.411C0.367,-0.38 0.396,-0.346 0.417,-0.309C0.438,-0.272 0.448,-0.231 0.448,-0.184C0.448,-0.125 0.43,-0.078 0.394,-0.043C0.358,-0.008 0.311,0.009 0.254,0.009Z" style="fill:#8d8d8d;fill-rule:nonzero;"/></g><g transform="matrix(9.375,0,0,9.375,149.269,270.819)"><path d="M0.063,-0.81L0.377,-0.81L0.377,-0.726L0.176,-0.726L0.176,-0.458L0.339,-0.458L0.339,-0.378L0.176,-0.378L0.176,-0.081L0.379,-0.081L0.379,0L0.063,0L0.063,-0.81Z" style="fill:#8d8d8d;fill-rule:nonzero;"/></g><g transform="matrix(9.375,0,0,9.375,153.366,270.819)"><path d="M0.152,-0.726L0.015,-0.726L0.015,-0.81L0.398,-0.81L0.398,-0.726L0.265,-0.726L0.265,0L0.152,0L0.152,-0.726Z" style="fill:#8d8d8d;fill-rule:nonzero;"/></g></g><g transform="matrix(1,0,0,1,-124.016,-217.883)"><g transform="matrix(9.375,0,0,9.375,134.204,270.819)"><path d="M0.266,0.009C0.186,0.009 0.13,-0.015 0.097,-0.063C0.064,-0.11 0.048,-0.176 0.048,-0.26L0.048,-0.546C0.048,-0.635 0.064,-0.702 0.096,-0.748C0.128,-0.794 0.185,-0.817 0.266,-0.817C0.339,-0.817 0.391,-0.797 0.423,-0.758C0.454,-0.719 0.47,-0.661 0.47,-0.584L0.47,-0.52L0.363,-0.52L0.363,-0.577C0.363,-0.614 0.361,-0.643 0.358,-0.663C0.355,-0.683 0.346,-0.699 0.333,-0.711C0.319,-0.723 0.297,-0.729 0.267,-0.729C0.236,-0.729 0.214,-0.723 0.199,-0.71C0.184,-0.697 0.174,-0.679 0.169,-0.656C0.164,-0.632 0.162,-0.602 0.162,-0.563L0.162,-0.242C0.162,-0.201 0.165,-0.168 0.172,-0.145C0.179,-0.122 0.19,-0.105 0.204,-0.095C0.22,-0.085 0.24,-0.08 0.267,-0.08C0.296,-0.08 0.317,-0.086 0.331,-0.099C0.345,-0.112 0.354,-0.129 0.358,-0.151C0.361,-0.173 0.363,-0.203 0.363,-0.241L0.363,-0.301L0.47,-0.301L0.47,-0.241C0.47,-0.16 0.455,-0.099 0.425,-0.056C0.394,-0.013 0.341,0.009 0.266,0.009Z" style="fill:#8d8d8d;fill-rule:nonzero;"/></g><g transform="matrix(9.375,0,0,9.375,139.313,270.819)"><path d="M0.063,-0.81L0.176,-0.81L0.176,-0.081L0.383,-0.081L0.383,0L0.063,0L0.063,-0.81Z" style="fill:#8d8d8d;fill-rule:nonzero;"/></g><g transform="matrix(9.375,0,0,9.375,143.26,270.819)"><path d="M0.27,0.009C0.191,0.009 0.134,-0.014 0.1,-0.059C0.065,-0.103 0.048,-0.169 0.048,-0.254L0.048,-0.561C0.048,-0.645 0.065,-0.709 0.1,-0.752C0.135,-0.795 0.191,-0.817 0.27,-0.817C0.349,-0.817 0.405,-0.795 0.44,-0.751C0.474,-0.708 0.491,-0.644 0.491,-0.561L0.491,-0.253C0.491,-0.169 0.474,-0.104 0.439,-0.059C0.404,-0.014 0.348,0.009 0.27,0.009ZM0.27,-0.08C0.312,-0.08 0.34,-0.092 0.355,-0.117C0.37,-0.142 0.377,-0.179 0.377,-0.229L0.377,-0.584C0.377,-0.633 0.37,-0.67 0.355,-0.694C0.34,-0.717 0.312,-0.729 0.27,-0.729C0.227,-0.729 0.199,-0.717 0.184,-0.694C0.169,-0.67 0.162,-0.633 0.162,-0.584L0.162,-0.229C0.162,-0.179 0.169,-0.142 0.184,-0.117C0.199,-0.092 0.227,-0.08 0.27,-0.08Z" style="fill:#8d8d8d;fill-rule:nonzero;"/></g><g transform="matrix(9.375,0,0,9.375,148.594,270.819)"><path d="M0.266,0.009C0.186,0.009 0.13,-0.015 0.097,-0.063C0.064,-0.11 0.048,-0.176 0.048,-0.26L0.048,-0.546C0.048,-0.635 0.064,-0.702 0.096,-0.748C0.128,-0.794 0.185,-0.817 0.266,-0.817C0.339,-0.817 0.391,-0.797 0.423,-0.758C0.454,-0.719 0.47,-0.661 0.47,-0.584L0.47,-0.52L0.363,-0.52L0.363,-0.577C0.363,-0.614 0.361,-0.643 0.358,-0.663C0.355,-0.683 0.346,-0.699 0.333,-0.711C0.319,-0.723 0.297,-0.729 0.267,-0.729C0.236,-0.729 0.214,-0.723 0.199,-0.71C0.184,-0.697 0.174,-0.679 0.169,-0.656C0.164,-0.632 0.162,-0.602 0.162,-0.563L0.162,-0.242C0.162,-0.201 0.165,-0.168 0.172,-0.145C0.179,-0.122 0.19,-0.105 0.204,-0.095C0.22,-0.085 0.24,-0.08 0.267,-0.08C0.296,-0.08 0.317,-0.086 0.331,-0.099C0.345,-0.112 0.354,-0.129 0.358,-0.151C0.361,-0.173 0.363,-0.203 0.363,-0.241L0.363,-0.301L0.47,-0.301L0.47,-0.241C0.47,-0.16 0.455,-0.099 0.425,-0.056C0.394,-0.013 0.341,0.009 0.266,0.009Z" style="fill:#8d8d8d;fill-rule:nonzero;"/></g><g transform="matrix(9.375,0,0,9.375,153.704,270.819)"><path d="M0.063,-0.81L0.176,-0.81L0.176,-0.428L0.362,-0.81L0.467,-0.81L0.307,-0.453L0.493,0L0.383,0L0.228,-0.38L0.176,-0.286L0.176,0L0.063,0L0.063,-0.81Z" style="fill:#8d8d8d;fill-rule:nonzero;"/></g></g><g transform="matrix(0.845981,0,0,0.315381,-402.459,225.643)"><path d="M516.512,258.842C516.512,257.16 516.263,255.547 515.819,254.357C515.376,253.168 514.775,252.5 514.148,252.5C508.805,252.5 495.849,252.5 490.506,252.5C489.879,252.5 489.278,253.168 488.835,254.357C488.391,255.547 488.142,257.16 488.142,258.842C488.142,273.173 488.142,307.925 488.142,322.257C488.142,323.939 488.391,325.552 488.835,326.741C489.278,327.93 489.879,328.598 490.506,328.598C495.849,328.598 508.805,328.598 514.148,328.598C514.775,328.598 515.376,327.93 515.819,326.741C516.263,325.552 516.512,323.939 516.512,322.257L516.512,258.842Z" style="fill:#e7b028;"/></g><g transform="matrix(1,0,0,1,-123.894,31.0946)"><g transform="matrix(9.375,0,0,9.375,128.363,270.819)"><path d="M0.063,-0.81L0.14,-0.81L0.37,-0.272L0.37,-0.81L0.464,-0.81L0.464,0L0.392,0L0.159,-0.553L0.159,0L0.063,0L0.063,-0.81Z" style="fill:#8d8d8d;fill-rule:nonzero;"/></g><g transform="matrix(9.375,0,0,9.375,133.594,270.819)"><path d="M0.27,0.009C0.191,0.009 0.134,-0.014 0.1,-0.059C0.065,-0.103 0.048,-0.169 0.048,-0.254L0.048,-0.561C0.048,-0.645 0.065,-0.709 0.1,-0.752C0.135,-0.795 0.191,-0.817 0.27,-0.817C0.349,-0.817 0.405,-0.795 0.44,-0.751C0.474,-0.708 0.491,-0.644 0.491,-0.561L0.491,-0.253C0.491,-0.169 0.474,-0.104 0.439,-0.059C0.404,-0.014 0.348,0.009 0.27,0.009ZM0.27,-0.08C0.312,-0.08 0.34,-0.092 0.355,-0.117C0.37,-0.142 0.377,-0.179 0.377,-0.229L0.377,-0.584C0.377,-0.633 0.37,-0.67 0.355,-0.694C0.34,-0.717 0.312,-0.729 0.27,-0.729C0.227,-0.729 0.199,-0.717 0.184,-0.694C0.169,-0.67 0.162,-0.633 0.162,-0.584L0.162,-0.229C0.162,-0.179 0.169,-0.142 0.184,-0.117C0.199,-0.092 0.227,-0.08 0.27,-0.08Z" style="fill:#8d8d8d;fill-rule:nonzero;"/></g><g transform="matrix(9.375,0,0,9.375,138.929,270.819)"><path d="M0.152,-0.726L0.015,-0.726L0.015,-0.81L0.398,-0.81L0.398,-0.726L0.265,-0.726L0.265,0L0.152,0L0.152,-0.726Z" style="fill:#8d8d8d;fill-rule:nonzero;"/></g><g transform="matrix(9.375,0,0,9.375,143.082,270.819)"><path d="M0.063,-0.81L0.377,-0.81L0.377,-0.726L0.176,-0.726L0.176,-0.458L0.339,-0.458L0.339,-0.378L0.176,-0.378L0.176,-0.081L0.379,-0.081L0.379,0L0.063,0L0.063,-0.81Z" style="fill:#8d8d8d;fill-rule:nonzero;"/></g><g transform="matrix(9.375,0,0,9.375,149.607,270.819)"><path d="M0.27,0.009C0.191,0.009 0.134,-0.014 0.1,-0.059C0.065,-0.103 0.048,-0.169 0.048,-0.254L0.048,-0.561C0.048,-0.645 0.065,-0.709 0.1,-0.752C0.135,-0.795 0.191,-0.817 0.27,-0.817C0.349,-0.817 0.405,-0.795 0.44,-0.751C0.474,-0.708 0.491,-0.644 0.491,-0.561L0.491,-0.253C0.491,-0.169 0.474,-0.104 0.439,-0.059C0.404,-0.014 0.348,0.009 0.27,0.009ZM0.27,-0.08C0.312,-0.08 0.34,-0.092 0.355,-0.117C0.37,-0.142 0.377,-0.179 0.377,-0.229L0.377,-0.584C0.377,-0.633 0.37,-0.67 0.355,-0.694C0.34,-0.717 0.312,-0.729 0.27,-0.729C0.227,-0.729 0.199,-0.717 0.184,-0.694C0.169,-0.67 0.162,-0.633 0.162,-0.584L0.162,-0.229C0.162,-0.179 0.169,-0.142 0.184,-0.117C0.199,-0.092 0.227,-0.08 0.27,-0.08Z" style="fill:#8d8d8d;fill-rule:nonzero;"/></g><g transform="matrix(9.375,0,0,9.375,154.941,270.819)"><path d="M0.272,0.009C0.215,0.009 0.171,-0.002 0.14,-0.025C0.108,-0.048 0.086,-0.079 0.074,-0.12C0.062,-0.161 0.056,-0.212 0.056,-0.273L0.056,-0.81L0.164,-0.81L0.164,-0.268C0.164,-0.207 0.171,-0.16 0.186,-0.128C0.2,-0.096 0.229,-0.08 0.272,-0.08C0.315,-0.08 0.344,-0.096 0.359,-0.128C0.373,-0.16 0.38,-0.207 0.38,-0.268L0.38,-0.81L0.487,-0.81L0.487,-0.273C0.487,-0.212 0.481,-0.161 0.469,-0.12C0.457,-0.079 0.435,-0.048 0.404,-0.025C0.373,-0.002 0.329,0.009 0.272,0.009Z" style="fill:#8d8d8d;fill-rule:nonzero;"/></g><g transform="matrix(9.375,0,0,9.375,160.313,270.819)"><path d="M0.152,-0.726L0.015,-0.726L0.015,-0.81L0.398,-0.81L0.398,-0.726L0.265,-0.726L0.265,0L0.152,0L0.152,-0.726Z" style="fill:#8d8d8d;fill-rule:nonzero;"/></g></g><g transform="matrix(1,0,0,1,-378.663,-271.55)"><g transform="matrix(11.9792,0,0,11.9792,387.789,308.675)"><path d="M0.265,0.011C0.192,0.011 0.137,-0.01 0.101,-0.051C0.064,-0.092 0.044,-0.154 0.041,-0.236L0.168,-0.261C0.17,-0.21 0.178,-0.171 0.193,-0.143C0.207,-0.117 0.229,-0.103 0.26,-0.103C0.283,-0.103 0.3,-0.11 0.311,-0.124C0.322,-0.137 0.327,-0.156 0.327,-0.179C0.327,-0.211 0.32,-0.238 0.306,-0.261C0.291,-0.283 0.269,-0.307 0.238,-0.334L0.136,-0.423C0.105,-0.45 0.081,-0.478 0.066,-0.509C0.05,-0.54 0.042,-0.576 0.042,-0.619C0.042,-0.682 0.061,-0.732 0.098,-0.767C0.135,-0.802 0.186,-0.819 0.251,-0.819C0.321,-0.819 0.371,-0.799 0.402,-0.759C0.432,-0.72 0.449,-0.666 0.454,-0.599L0.327,-0.577C0.325,-0.621 0.319,-0.654 0.309,-0.677C0.298,-0.699 0.278,-0.71 0.248,-0.71C0.227,-0.71 0.21,-0.703 0.198,-0.689C0.186,-0.674 0.18,-0.656 0.18,-0.634C0.18,-0.608 0.185,-0.586 0.196,-0.569C0.206,-0.551 0.223,-0.532 0.246,-0.512L0.347,-0.423C0.385,-0.39 0.415,-0.355 0.436,-0.318C0.457,-0.281 0.468,-0.237 0.468,-0.188C0.468,-0.149 0.46,-0.115 0.443,-0.085C0.426,-0.055 0.402,-0.032 0.371,-0.015C0.34,0.002 0.305,0.011 0.265,0.011Z" style="fill:#c78d00;fill-rule:nonzero;"/></g><g transform="matrix(11.9792,0,0,11.9792,393.706,308.675)"><path d="M0.227,0.009C0.163,0.009 0.116,-0.009 0.086,-0.045C0.056,-0.08 0.041,-0.133 0.041,-0.203L0.041,-0.375C0.041,-0.446 0.056,-0.499 0.086,-0.534C0.117,-0.569 0.164,-0.587 0.227,-0.587C0.292,-0.587 0.339,-0.569 0.366,-0.532C0.393,-0.495 0.406,-0.44 0.406,-0.366L0.406,-0.283L0.176,-0.283L0.176,-0.169C0.176,-0.141 0.18,-0.121 0.189,-0.108C0.197,-0.095 0.21,-0.089 0.228,-0.089C0.245,-0.089 0.258,-0.095 0.266,-0.108C0.273,-0.12 0.277,-0.139 0.277,-0.164L0.277,-0.213L0.405,-0.213L0.405,-0.173C0.405,-0.114 0.39,-0.069 0.36,-0.038C0.33,-0.007 0.286,0.009 0.227,0.009ZM0.277,-0.35L0.277,-0.405C0.277,-0.435 0.273,-0.457 0.266,-0.469C0.259,-0.483 0.246,-0.489 0.227,-0.489C0.208,-0.489 0.194,-0.482 0.187,-0.468C0.18,-0.454 0.176,-0.428 0.176,-0.39L0.176,-0.35L0.277,-0.35Z" style="fill:#c78d00;fill-rule:nonzero;"/></g><g transform="matrix(11.9792,0,0,11.9792,399.049,308.675)"><path d="M0.287,-0.043C0.254,-0.008 0.219,0.009 0.182,0.009C0.135,0.009 0.101,-0.008 0.078,-0.041C0.055,-0.074 0.043,-0.126 0.043,-0.197L0.043,-0.374C0.043,-0.439 0.054,-0.49 0.076,-0.529C0.097,-0.568 0.132,-0.587 0.181,-0.587C0.219,-0.587 0.254,-0.571 0.287,-0.54L0.287,-0.578L0.423,-0.578L0.423,0.19L0.287,0.19L0.287,-0.043ZM0.232,-0.085C0.249,-0.085 0.267,-0.091 0.287,-0.104L0.287,-0.475C0.267,-0.488 0.249,-0.494 0.232,-0.494C0.197,-0.494 0.179,-0.464 0.179,-0.403L0.179,-0.187C0.179,-0.154 0.183,-0.129 0.191,-0.112C0.198,-0.094 0.212,-0.085 0.232,-0.085Z" style="fill:#c78d00;fill-rule:nonzero;"/></g><g transform="matrix(11.9792,0,0,11.9792,404.739,308.675)"><rect x="0.057" y="-0.374" width="0.241" height="0.093" style="fill:#c78d00;fill-rule:nonzero;"/></g><g transform="matrix(11.9792,0,0,11.9792,408.992,308.675)"><path d="M0.275,-0.199L0.032,-0.199L0.032,-0.317L0.243,-0.81L0.404,-0.81L0.404,-0.309L0.487,-0.309L0.487,-0.199L0.404,-0.199L0.404,0L0.275,0L0.275,-0.199ZM0.275,-0.309L0.275,-0.661L0.147,-0.309L0.275,-0.309Z" style="fill:#c78d00;fill-rule:nonzero;"/></g></g><g transform="matrix(1,0,0,1,-123.858,-93.6016)"><g transform="matrix(9.375,0,0,9.375,137.471,270.819)"><path d="M0.254,0.009C0.186,0.009 0.134,-0.012 0.099,-0.054C0.063,-0.096 0.043,-0.154 0.039,-0.227L0.139,-0.254C0.142,-0.202 0.153,-0.16 0.17,-0.128C0.187,-0.096 0.215,-0.08 0.254,-0.08C0.283,-0.08 0.306,-0.088 0.321,-0.105C0.336,-0.121 0.343,-0.144 0.343,-0.175C0.343,-0.208 0.336,-0.236 0.322,-0.258C0.308,-0.28 0.286,-0.304 0.255,-0.331L0.119,-0.451C0.092,-0.475 0.072,-0.501 0.059,-0.529C0.047,-0.556 0.041,-0.59 0.041,-0.63C0.041,-0.689 0.058,-0.735 0.092,-0.768C0.126,-0.801 0.172,-0.817 0.231,-0.817C0.295,-0.817 0.343,-0.8 0.376,-0.766C0.409,-0.732 0.428,-0.679 0.435,-0.608L0.339,-0.582C0.336,-0.629 0.327,-0.666 0.312,-0.692C0.297,-0.717 0.27,-0.73 0.231,-0.73C0.202,-0.73 0.18,-0.723 0.165,-0.708C0.15,-0.693 0.142,-0.67 0.142,-0.641C0.142,-0.617 0.146,-0.597 0.154,-0.581C0.162,-0.564 0.176,-0.548 0.195,-0.531L0.332,-0.411C0.367,-0.38 0.396,-0.346 0.417,-0.309C0.438,-0.272 0.448,-0.231 0.448,-0.184C0.448,-0.125 0.43,-0.078 0.394,-0.043C0.358,-0.008 0.311,0.009 0.254,0.009Z" style="fill:#8d8d8d;fill-rule:nonzero;"/></g><g transform="matrix(9.375,0,0,9.375,142.186,270.819)"><path d="M0.063,-0.81L0.377,-0.81L0.377,-0.726L0.176,-0.726L0.176,-0.458L0.339,-0.458L0.339,-0.378L0.176,-0.378L0.176,-0.081L0.379,-0.081L0.379,0L0.063,0L0.063,-0.81Z" style="fill:#8d8d8d;fill-rule:nonzero;"/></g><g transform="matrix(9.375,0,0,9.375,146.283,270.819)"><path d="M0.076,-0.81L0.187,-0.81L0.33,-0.153L0.474,-0.81L0.584,-0.81L0.599,0L0.508,0L0.499,-0.588L0.362,0L0.298,0L0.162,-0.588L0.153,0L0.061,0L0.076,-0.81Z" style="fill:#8d8d8d;fill-rule:nonzero;"/></g><g transform="matrix(9.375,0,0,9.375,152.752,270.819)"><rect x="0.069" y="-0.81" width="0.111" height="0.81" style="fill:#8d8d8d;fill-rule:nonzero;"/></g></g><g transform="matrix(1.01079,0,0,0.807571,-7.97633e-18,54.7689)"><rect x="0" y="155.79" width="22.26" height="130.851" style="fill:#3b3b3b;"/></g><g transform="matrix(0.845981,0,0,1.38861,-402.459,-170.045)"><path d="M516.512,253.94C516.512,253.558 516.263,253.192 515.819,252.922C515.376,252.652 514.775,252.5 514.148,252.5C507.334,252.5 488.142,252.5 488.142,252.5L488.142,328.598L514.148,328.598C514.775,328.598 515.376,328.447 515.819,328.177C516.263,327.906 516.512,327.54 516.512,327.158C516.512,317.607 516.512,263.492 516.512,253.94Z" style="fill:#e7b028;"/></g><g transform="matrix(1,0,0,1,-1.72085e-15,101.937)"><path d="M7.378,170.563L18.674,170.563" style="fill:none;stroke:#3b3b3b;stroke-width:1.04px;stroke-linecap:butt;stroke-linejoin:miter;"/></g><g transform="matrix(1,0,0,1,-1.72085e-15,75.9366)"><path d="M7.378,170.563L18.674,170.563" style="fill:none;stroke:#3b3b3b;stroke-width:1.04px;stroke-linecap:butt;stroke-linejoin:miter;"/></g><g transform="matrix(1,0,0,1,-1.72085e-15,49.9366)"><path d="M7.378,170.563L18.674,170.563" style="fill:none;stroke:#3b3b3b;stroke-width:1.04px;stroke-linecap:butt;stroke-linejoin:miter;"/></g><g transform="matrix(1,0,0,1,-0.026133,23.9366)"><path d="M7.378,170.563L18.674,170.563" style="fill:none;stroke:#3b3b3b;stroke-width:1.04px;stroke-linecap:butt;stroke-linejoin:miter;"/></g><g transform="matrix(1,0,0,1,-246.519,-109.62)"><circle cx="286.235" cy="382.12" r="3.217" style="fill:#5a5a5a;"/></g><g transform="matrix(1,0,0,1,-246.519,-135.62)"><circle cx="286.235" cy="382.12" r="3.217" style="fill:#5a5a5a;"/></g><g transform="matrix(1,0,0,1,-246.519,-161.62)"><circle cx="286.235" cy="382.12" r="3.217" style="fill:#5a5a5a;"/></g><g transform="matrix(1,0,0,1,-246.519,-187.62)"><circle cx="286.235" cy="382.12" r="3.217" style="fill:#5a5a5a;"/></g><g transform="matrix(1,0,0,1,-148.854,5.47794)"><g transform="matrix(9.375,0,0,9.375,151.648,270.819)"><path d="M0.275,-0.217L0.04,-0.217L0.04,-0.329L0.251,-0.81L0.377,-0.81L0.377,-0.312L0.468,-0.312L0.468,-0.217L0.377,-0.217L0.377,0L0.275,0L0.275,-0.217ZM0.275,-0.312L0.275,-0.68L0.143,-0.312L0.275,-0.312Z" style="fill:#9a9a9a;fill-rule:nonzero;"/></g></g><g transform="matrix(1,0,0,1,-148.854,-20.5314)"><g transform="matrix(9.375,0,0,9.375,151.677,270.819)"><path d="M0.238,0.009C0.173,0.009 0.124,-0.009 0.091,-0.046C0.057,-0.082 0.04,-0.133 0.04,-0.199L0.04,-0.226L0.146,-0.226L0.146,-0.208C0.147,-0.167 0.155,-0.135 0.168,-0.113C0.181,-0.091 0.204,-0.08 0.238,-0.08C0.274,-0.08 0.299,-0.093 0.312,-0.117C0.325,-0.142 0.331,-0.18 0.331,-0.229C0.331,-0.274 0.323,-0.31 0.306,-0.336C0.289,-0.361 0.262,-0.375 0.225,-0.378C0.222,-0.379 0.217,-0.379 0.21,-0.379L0.21,-0.486L0.224,-0.486C0.262,-0.487 0.289,-0.497 0.306,-0.516C0.323,-0.535 0.331,-0.566 0.331,-0.609C0.331,-0.649 0.324,-0.679 0.311,-0.7C0.298,-0.72 0.274,-0.73 0.239,-0.73C0.204,-0.73 0.181,-0.719 0.168,-0.697C0.155,-0.675 0.147,-0.643 0.146,-0.6L0.146,-0.583L0.04,-0.583L0.04,-0.61C0.04,-0.676 0.057,-0.727 0.091,-0.763C0.124,-0.799 0.174,-0.817 0.239,-0.817C0.304,-0.817 0.354,-0.799 0.388,-0.762C0.421,-0.726 0.438,-0.675 0.438,-0.609C0.438,-0.562 0.428,-0.523 0.407,-0.493C0.386,-0.463 0.358,-0.443 0.322,-0.432C0.359,-0.421 0.387,-0.398 0.407,-0.363C0.428,-0.328 0.438,-0.284 0.438,-0.229C0.438,-0.154 0.422,-0.095 0.39,-0.054C0.357,-0.012 0.307,0.009 0.238,0.009Z" style="fill:#9a9a9a;fill-rule:nonzero;"/></g></g><g transform="matrix(1,0,0,1,-148.854,-46.4892)"><g transform="matrix(9.375,0,0,9.375,151.672,270.819)"><path d="M0.041,-0.076L0.247,-0.397C0.257,-0.413 0.264,-0.423 0.267,-0.427C0.29,-0.464 0.307,-0.495 0.318,-0.52C0.329,-0.545 0.334,-0.574 0.334,-0.609C0.334,-0.648 0.328,-0.677 0.315,-0.698C0.302,-0.719 0.282,-0.729 0.253,-0.729C0.189,-0.729 0.157,-0.679 0.157,-0.58L0.157,-0.553L0.05,-0.553L0.05,-0.581C0.05,-0.657 0.066,-0.715 0.097,-0.756C0.128,-0.797 0.179,-0.817 0.248,-0.817C0.312,-0.817 0.36,-0.799 0.393,-0.762C0.426,-0.726 0.442,-0.675 0.442,-0.608C0.442,-0.575 0.438,-0.546 0.431,-0.521C0.423,-0.495 0.414,-0.473 0.403,-0.454C0.392,-0.435 0.376,-0.409 0.353,-0.374L0.167,-0.09L0.423,-0.09L0.423,0L0.041,0L0.041,-0.076Z" style="fill:#9a9a9a;fill-rule:nonzero;"/></g></g><g transform="matrix(1,0,0,1,-148.854,-72.5221)"><g transform="matrix(9.375,0,0,9.375,152.056,270.819)"><path d="M0.171,-0.67C0.17,-0.668 0.15,-0.663 0.111,-0.656C0.071,-0.649 0.045,-0.644 0.03,-0.641L0.03,-0.722C0.111,-0.741 0.167,-0.771 0.197,-0.81L0.278,-0.81L0.278,0L0.171,0L0.171,-0.67Z" style="fill:#9a9a9a;fill-rule:nonzero;"/></g></g></svg>