<?xml version="1.0" encoding="UTF-8" standalone="no"?><!DOCTYPE svg PUBLIC "-//W3C//DTD SVG 1.1//EN" "http://www.w3.org/Graphics/SVG/1.1/DTD/svg11.dtd"><svg width="75" height="380" viewBox="0 0 75 380" version="1.1" xmlns="http://www.w3.org/2000/svg" xmlns:xlink="http://www.w3.org/1999/xlink" xml:space="preserve" xmlns:serif="http://www.serif.com/" style="fill-rule:evenodd;clip-rule:evenodd;stroke-linecap:round;stroke-linejoin:round;stroke-miterlimit:1.5;"><rect x="0" y="0" width="75" height="380" style="fill:#262626;"/><g><path d="M26.548,368.57C25.977,368.57 25.43,368.477 24.907,368.292C24.385,368.106 23.99,367.869 23.723,367.58L24.123,366.935C24.383,367.217 24.742,367.443 25.202,367.613C25.662,367.784 26.136,367.869 26.626,367.869C27.315,367.869 27.87,367.734 28.289,367.463C28.708,367.193 28.917,366.816 28.917,366.334C28.917,366.075 28.839,365.863 28.684,365.7C28.528,365.537 28.331,365.405 28.094,365.305C27.857,365.205 27.534,365.096 27.126,364.977C26.644,364.836 26.253,364.701 25.953,364.571C25.653,364.441 25.397,364.249 25.185,363.993C24.974,363.737 24.868,363.405 24.868,362.997C24.868,362.515 25,362.098 25.263,361.746C25.527,361.394 25.894,361.123 26.364,360.934C26.835,360.745 27.375,360.65 27.983,360.65C28.45,360.65 28.895,360.708 29.318,360.823C29.74,360.938 30.1,361.103 30.396,361.318L30.052,361.985C29.77,361.778 29.447,361.62 29.084,361.512C28.721,361.405 28.339,361.351 27.938,361.351C27.256,361.351 26.707,361.492 26.292,361.774C25.877,362.056 25.669,362.437 25.669,362.919C25.669,363.186 25.751,363.405 25.914,363.576C26.077,363.746 26.279,363.882 26.52,363.982C26.761,364.082 27.086,364.191 27.493,364.31C27.975,364.451 28.365,364.586 28.661,364.716C28.958,364.846 29.21,365.031 29.418,365.272C29.625,365.513 29.729,365.83 29.729,366.223C29.729,366.712 29.594,367.133 29.323,367.485C29.052,367.838 28.678,368.106 28.2,368.292C27.721,368.477 27.171,368.57 26.548,368.57Z" style="fill:#c78d00;fill-rule:nonzero;"/><path d="M37.693,368.503L36.77,368.503L34.256,364.833L32.343,366.468L31.931,368.503L31.119,368.503L32.677,360.717L33.489,360.717L32.554,365.367L37.982,360.717L39.061,360.717L34.857,364.332L37.693,368.503Z" style="fill:#c78d00;fill-rule:nonzero;"/><path d="M32.698,360.721L33.238,360.721L31.683,368.505L31.142,368.505L32.698,360.721Z" style="fill:#c78d00;"/><path d="M38.452,360.721L32.19,366.07" style="fill:none;stroke:#c78d00;stroke-width:0.66px;"/><path d="M43.114,355.3L41.719,362.281" style="fill:none;stroke:#c78d00;stroke-width:0.76px;"/><path d="M35.321,365.603L40.374,365.603C40.703,365.603 41.012,365.765 41.198,366.037C42.287,367.621 45.988,373.006 45.988,373.006" style="fill:none;stroke:#c78d00;stroke-width:0.76px;"/><path d="M45.967,372.871C46.61,372.429 47.49,372.592 47.932,373.235C48.374,373.877 48.21,374.758 47.568,375.199C46.925,375.641 46.045,375.478 45.603,374.835C45.162,374.193 45.325,373.312 45.967,372.871ZM46.383,373.476C46.692,373.264 47.114,373.342 47.326,373.651C47.538,373.959 47.46,374.382 47.152,374.594C46.843,374.806 46.421,374.727 46.209,374.419C45.997,374.111 46.075,373.688 46.383,373.476Z" style="fill:#c78d00;"/><path d="M43.616,352.783C44.381,352.936 44.878,353.681 44.725,354.446C44.572,355.21 43.827,355.707 43.063,355.554C42.298,355.402 41.801,354.657 41.954,353.892C42.107,353.127 42.852,352.631 43.616,352.783ZM43.472,353.504C43.84,353.577 44.078,353.935 44.005,354.302C43.931,354.669 43.574,354.907 43.207,354.834C42.84,354.761 42.601,354.403 42.675,354.036C42.748,353.669 43.105,353.431 43.472,353.504Z" style="fill:#c78d00;"/><path d="M40.4,359.038C40.906,359.63 40.836,360.523 40.243,361.029C39.65,361.536 38.758,361.466 38.251,360.873C37.745,360.28 37.815,359.387 38.408,358.881C39.001,358.374 39.894,358.445 40.4,359.038ZM39.841,359.515C40.084,359.799 40.051,360.228 39.766,360.471C39.481,360.714 39.053,360.68 38.81,360.396C38.567,360.111 38.601,359.683 38.885,359.439C39.17,359.196 39.598,359.23 39.841,359.515Z" style="fill:#c78d00;"/><path d="M49.864,357.764C50.644,357.764 51.277,358.397 51.277,359.177C51.277,359.957 50.644,360.59 49.864,360.59C49.085,360.59 48.451,359.957 48.451,359.177C48.451,358.397 49.085,357.764 49.864,357.764ZM49.864,358.499C50.239,358.499 50.543,358.803 50.543,359.177C50.543,359.552 50.239,359.855 49.864,359.855C49.49,359.855 49.186,359.552 49.186,359.177C49.186,358.803 49.49,358.499 49.864,358.499Z" style="fill:#c78d00;"/><path d="M38.374,370.17L34.356,364.302" style="fill:none;stroke:#c78d00;stroke-width:0.76px;"/><path d="M39.83,372.284C39.186,372.724 38.306,372.56 37.866,371.916C37.425,371.273 37.59,370.393 38.233,369.952C38.877,369.512 39.757,369.676 40.197,370.32C40.638,370.963 40.473,371.843 39.83,372.284ZM39.415,371.678C39.106,371.889 38.683,371.81 38.472,371.501C38.261,371.192 38.34,370.77 38.648,370.559C38.957,370.347 39.38,370.426 39.591,370.735C39.803,371.044 39.724,371.466 39.415,371.678Z" style="fill:#c78d00;"/><path d="M37.934,365.603C37.934,365.603 43.813,360.582 45.177,359.417C45.358,359.262 45.588,359.177 45.827,359.177C46.69,359.177 48.769,359.177 48.769,359.177" style="fill:none;stroke:#c78d00;stroke-width:0.76px;"/></g><path d="M27.036,37.257C26.158,37.257 25.501,37.009 25.066,36.514C24.63,36.019 24.393,35.28 24.353,34.298L25.874,33.998C25.898,34.613 25.996,35.083 26.168,35.406C26.339,35.729 26.609,35.891 26.976,35.891C27.248,35.891 27.449,35.809 27.581,35.646C27.713,35.482 27.779,35.26 27.779,34.981C27.779,34.597 27.693,34.272 27.521,34.004C27.35,33.737 27.08,33.443 26.713,33.124L25.491,32.058C25.116,31.738 24.834,31.395 24.646,31.028C24.459,30.66 24.365,30.221 24.365,29.71C24.365,28.951 24.586,28.362 25.03,27.943C25.473,27.524 26.086,27.314 26.868,27.314C27.707,27.314 28.308,27.552 28.671,28.027C29.035,28.502 29.244,29.143 29.3,29.949L27.779,30.213C27.755,29.686 27.681,29.289 27.557,29.021C27.434,28.754 27.192,28.62 26.833,28.62C26.577,28.62 26.377,28.706 26.234,28.877C26.09,29.049 26.018,29.267 26.018,29.53C26.018,29.842 26.08,30.103 26.204,30.315C26.327,30.526 26.529,30.752 26.809,30.992L28.018,32.058C28.474,32.449 28.829,32.868 29.085,33.316C29.34,33.763 29.468,34.282 29.468,34.873C29.468,35.336 29.366,35.747 29.162,36.107C28.959,36.466 28.673,36.748 28.306,36.951C27.939,37.155 27.515,37.257 27.036,37.257Z" style="fill:#c78d00;fill-rule:nonzero;"/><path d="M32.499,37.233C31.732,37.233 31.169,37.019 30.81,36.592C30.45,36.165 30.271,35.532 30.271,34.693L30.271,32.633C30.271,31.786 30.452,31.151 30.816,30.728C31.179,30.305 31.74,30.093 32.499,30.093C33.281,30.093 33.834,30.313 34.158,30.752C34.481,31.191 34.643,31.854 34.643,32.741L34.643,33.735L31.888,33.735L31.888,35.101C31.888,35.436 31.938,35.68 32.037,35.831C32.137,35.983 32.295,36.059 32.511,36.059C32.718,36.059 32.868,35.985 32.96,35.837C33.052,35.689 33.098,35.464 33.098,35.16L33.098,34.573L34.631,34.573L34.631,35.053C34.631,35.763 34.451,36.304 34.092,36.676C33.733,37.047 33.201,37.233 32.499,37.233ZM33.098,32.932L33.098,32.273C33.098,31.914 33.054,31.657 32.966,31.501C32.878,31.345 32.722,31.267 32.499,31.267C32.267,31.267 32.107,31.351 32.02,31.519C31.932,31.686 31.888,31.998 31.888,32.453L31.888,32.932L33.098,32.932Z" style="fill:#c78d00;fill-rule:nonzero;"/><path d="M38.56,36.61C38.161,37.025 37.742,37.233 37.302,37.233C36.743,37.233 36.326,37.035 36.051,36.64C35.775,36.245 35.637,35.62 35.637,34.765L35.637,32.645C35.637,31.87 35.767,31.251 36.027,30.788C36.286,30.325 36.707,30.093 37.29,30.093C37.746,30.093 38.169,30.281 38.56,30.656L38.56,30.201L40.189,30.201L40.189,39.401L38.56,39.401L38.56,36.61ZM37.901,36.107C38.101,36.107 38.321,36.031 38.56,35.879L38.56,31.435C38.321,31.283 38.101,31.207 37.901,31.207C37.478,31.207 37.266,31.571 37.266,32.297L37.266,34.885C37.266,35.276 37.312,35.578 37.404,35.789C37.496,36.001 37.662,36.107 37.901,36.107Z" style="fill:#c78d00;fill-rule:nonzero;"/><rect x="41.495" y="32.645" width="2.887" height="1.114" style="fill:#c78d00;fill-rule:nonzero;"/><path d="M48.12,37.257C46.434,37.257 45.592,36.29 45.592,34.358C45.592,33.224 45.979,32.441 46.754,32.01C46.442,31.794 46.195,31.505 46.011,31.141C45.828,30.778 45.736,30.333 45.736,29.806C45.736,29.023 45.939,28.412 46.347,27.973C46.754,27.534 47.345,27.314 48.12,27.314C48.902,27.314 49.493,27.534 49.892,27.973C50.292,28.412 50.491,29.023 50.491,29.806C50.491,30.82 50.156,31.555 49.485,32.01C50.26,32.449 50.647,33.244 50.647,34.394C50.647,36.302 49.805,37.257 48.12,37.257ZM48.12,31.363C48.647,31.355 48.91,30.84 48.91,29.818C48.91,29.434 48.846,29.131 48.718,28.907C48.591,28.684 48.391,28.572 48.12,28.572C47.848,28.572 47.644,28.684 47.509,28.907C47.373,29.131 47.305,29.43 47.305,29.806C47.305,30.836 47.576,31.355 48.12,31.363ZM48.12,35.999C48.487,35.999 48.73,35.845 48.85,35.538C48.97,35.23 49.03,34.825 49.03,34.322C49.03,33.859 48.964,33.485 48.832,33.202C48.701,32.918 48.463,32.773 48.12,32.765C47.776,32.773 47.537,32.926 47.401,33.226C47.265,33.525 47.197,33.919 47.197,34.406C47.197,34.877 47.261,35.26 47.389,35.556C47.517,35.851 47.76,35.999 48.12,35.999Z" style="fill:#c78d00;fill-rule:nonzero;"/><circle cx="20.5" cy="85.278" r="11.5" style="fill:none;stroke:#e7b028;stroke-width:1.56px;stroke-linecap:butt;stroke-linejoin:bevel;"/><circle cx="53.207" cy="85.278" r="11.5" style="fill:none;stroke:#e7b028;stroke-width:1.56px;stroke-linecap:butt;stroke-linejoin:bevel;"/><path d="M10.756,70.021C10.006,70.021 9.478,69.797 9.171,69.35C8.865,68.903 8.712,68.286 8.712,67.499L8.712,64.817C8.712,63.986 8.862,63.355 9.162,62.924C9.462,62.493 9.993,62.277 10.756,62.277C11.437,62.277 11.926,62.461 12.223,62.83C12.52,63.199 12.668,63.742 12.668,64.461L12.668,65.061L11.665,65.061L11.665,64.527C11.665,64.177 11.649,63.908 11.618,63.721C11.587,63.533 11.507,63.383 11.379,63.271C11.251,63.158 11.046,63.102 10.765,63.102C10.478,63.102 10.264,63.163 10.123,63.285C9.982,63.407 9.89,63.575 9.846,63.791C9.803,64.007 9.781,64.296 9.781,64.658L9.781,67.668C9.781,68.055 9.812,68.358 9.874,68.577C9.937,68.796 10.039,68.952 10.179,69.046C10.32,69.139 10.515,69.186 10.765,69.186C11.034,69.186 11.234,69.127 11.365,69.008C11.496,68.889 11.579,68.727 11.614,68.521C11.648,68.314 11.665,68.033 11.665,67.677L11.665,67.114L12.668,67.114L12.668,67.677C12.668,68.433 12.526,69.013 12.242,69.416C11.957,69.819 11.462,70.021 10.756,70.021Z" style="fill:#8d8d8d;fill-rule:nonzero;"/><path d="M13.962,62.343L15.021,62.343L15.021,69.177L16.962,69.177L16.962,69.936L13.962,69.936L13.962,62.343Z" style="fill:#8d8d8d;fill-rule:nonzero;"/><path d="M19.849,70.021C19.106,70.021 18.573,69.81 18.251,69.388C17.929,68.966 17.768,68.355 17.768,67.555L17.768,64.677C17.768,63.889 17.931,63.292 18.256,62.886C18.581,62.48 19.112,62.277 19.849,62.277C20.587,62.277 21.117,62.482 21.439,62.891C21.76,63.3 21.921,63.896 21.921,64.677L21.921,67.564C21.921,68.352 21.759,68.958 21.434,69.383C21.109,69.808 20.581,70.021 19.849,70.021ZM19.849,69.186C20.243,69.186 20.509,69.071 20.646,68.839C20.784,68.608 20.853,68.258 20.853,67.789L20.853,64.461C20.853,63.999 20.784,63.657 20.646,63.435C20.509,63.213 20.243,63.102 19.849,63.102C19.449,63.102 19.181,63.213 19.043,63.435C18.906,63.657 18.837,63.999 18.837,64.461L18.837,67.789C18.837,68.258 18.906,68.608 19.043,68.839C19.181,69.071 19.449,69.186 19.849,69.186Z" style="fill:#8d8d8d;fill-rule:nonzero;"/><path d="M25.146,70.021C24.396,70.021 23.868,69.797 23.562,69.35C23.256,68.903 23.103,68.286 23.103,67.499L23.103,64.817C23.103,63.986 23.253,63.355 23.553,62.924C23.853,62.493 24.384,62.277 25.146,62.277C25.828,62.277 26.317,62.461 26.614,62.83C26.91,63.199 27.059,63.742 27.059,64.461L27.059,65.061L26.056,65.061L26.056,64.527C26.056,64.177 26.04,63.908 26.009,63.721C25.978,63.533 25.898,63.383 25.77,63.271C25.642,63.158 25.437,63.102 25.156,63.102C24.868,63.102 24.654,63.163 24.514,63.285C24.373,63.407 24.281,63.575 24.237,63.791C24.193,64.007 24.171,64.296 24.171,64.658L24.171,67.668C24.171,68.055 24.203,68.358 24.265,68.577C24.328,68.796 24.429,68.952 24.57,69.046C24.71,69.139 24.906,69.186 25.156,69.186C25.424,69.186 25.624,69.127 25.756,69.008C25.887,68.889 25.97,68.727 26.004,68.521C26.039,68.314 26.056,68.033 26.056,67.677L26.056,67.114L27.059,67.114L27.059,67.677C27.059,68.433 26.917,69.013 26.632,69.416C26.348,69.819 25.853,70.021 25.146,70.021Z" style="fill:#8d8d8d;fill-rule:nonzero;"/><path d="M28.353,62.343L29.412,62.343L29.412,65.924L31.156,62.343L32.14,62.343L30.64,65.689L32.384,69.936L31.353,69.936L29.899,66.374L29.412,67.255L29.412,69.936L28.353,69.936L28.353,62.343Z" style="fill:#8d8d8d;fill-rule:nonzero;"/><path d="M42.666,62.343L44.194,62.343C44.963,62.343 45.527,62.5 45.886,62.816C46.246,63.132 46.425,63.646 46.425,64.358C46.425,65.333 46.113,65.924 45.488,66.13L46.566,69.936L45.544,69.936L44.55,66.374L43.725,66.374L43.725,69.936L42.666,69.936L42.666,62.343ZM44.128,65.614C44.585,65.614 44.911,65.524 45.108,65.343C45.305,65.161 45.403,64.833 45.403,64.358C45.403,64.046 45.369,63.8 45.3,63.622C45.232,63.444 45.11,63.313 44.935,63.228C44.76,63.144 44.513,63.102 44.194,63.102L43.725,63.102L43.725,65.614L44.128,65.614Z" style="fill:#8d8d8d;fill-rule:nonzero;"/><path d="M47.813,62.343L50.757,62.343L50.757,63.13L48.872,63.13L48.872,65.643L50.4,65.643L50.4,66.393L48.872,66.393L48.872,69.177L50.775,69.177L50.775,69.936L47.813,69.936L47.813,62.343Z" style="fill:#8d8d8d;fill-rule:nonzero;"/><path d="M53.7,70.021C53.063,70.021 52.577,69.824 52.242,69.43C51.908,69.036 51.722,68.496 51.685,67.808L52.622,67.555C52.653,68.043 52.749,68.436 52.908,68.736C53.067,69.036 53.332,69.186 53.7,69.186C53.975,69.186 54.183,69.11 54.324,68.957C54.464,68.803 54.535,68.583 54.535,68.296C54.535,67.983 54.469,67.724 54.338,67.518C54.207,67.311 53.997,67.083 53.71,66.833L52.435,65.708C52.178,65.483 51.992,65.241 51.877,64.982C51.761,64.722 51.703,64.405 51.703,64.03C51.703,63.474 51.863,63.042 52.182,62.736C52.5,62.43 52.935,62.277 53.485,62.277C54.085,62.277 54.538,62.436 54.844,62.755C55.15,63.074 55.335,63.567 55.397,64.236L54.497,64.48C54.466,64.036 54.38,63.694 54.239,63.453C54.099,63.213 53.847,63.093 53.485,63.093C53.216,63.093 53.01,63.163 52.866,63.303C52.722,63.444 52.65,63.652 52.65,63.927C52.65,64.152 52.688,64.341 52.763,64.494C52.838,64.647 52.966,64.802 53.147,64.958L54.432,66.083C54.763,66.377 55.027,66.696 55.224,67.039C55.421,67.383 55.519,67.774 55.519,68.211C55.519,68.767 55.35,69.208 55.013,69.533C54.675,69.858 54.238,70.021 53.7,70.021Z" style="fill:#8d8d8d;fill-rule:nonzero;"/><path d="M56.625,62.343L59.569,62.343L59.569,63.13L57.685,63.13L57.685,65.643L59.213,65.643L59.213,66.393L57.685,66.393L57.685,69.177L59.588,69.177L59.588,69.936L56.625,69.936L56.625,62.343Z" style="fill:#8d8d8d;fill-rule:nonzero;"/><path d="M61.557,63.13L60.272,63.13L60.272,62.343L63.863,62.343L63.863,63.13L62.616,63.13L62.616,69.936L61.557,69.936L61.557,63.13Z" style="fill:#8d8d8d;fill-rule:nonzero;"/><path d="M49.5,307.277C49.5,306.747 49.289,306.238 48.914,305.863C48.539,305.488 48.03,305.277 47.5,305.277C42.98,305.277 32.02,305.277 27.5,305.277C26.97,305.277 26.461,305.488 26.086,305.863C25.711,306.238 25.5,306.747 25.5,307.277C25.5,311.797 25.5,322.757 25.5,327.277C25.5,327.807 25.711,328.316 26.086,328.691C26.461,329.066 26.97,329.277 27.5,329.277C32.02,329.277 42.98,329.277 47.5,329.277C48.03,329.277 48.539,329.066 48.914,328.691C49.289,328.316 49.5,327.807 49.5,327.277L49.5,307.277Z" style="fill:#e7b028;"/><path d="M20.107,294.32L20.829,294.32L22.985,299.363L22.985,294.32L23.866,294.32L23.866,301.913L23.191,301.913L21.007,296.729L21.007,301.913L20.107,301.913L20.107,294.32Z" style="fill:#8d8d8d;fill-rule:nonzero;"/><path d="M27.279,301.998C26.535,301.998 26.002,301.787 25.68,301.365C25.358,300.943 25.197,300.332 25.197,299.532L25.197,296.654C25.197,295.867 25.36,295.27 25.685,294.863C26.01,294.457 26.541,294.254 27.279,294.254C28.016,294.254 28.546,294.459 28.868,294.868C29.19,295.278 29.351,295.873 29.351,296.654L29.351,299.542C29.351,300.329 29.188,300.935 28.863,301.36C28.538,301.785 28.01,301.998 27.279,301.998ZM27.279,301.163C27.672,301.163 27.938,301.048 28.076,300.817C28.213,300.585 28.282,300.235 28.282,299.767L28.282,296.438C28.282,295.976 28.213,295.634 28.076,295.412C27.938,295.19 27.672,295.079 27.279,295.079C26.879,295.079 26.61,295.19 26.472,295.412C26.335,295.634 26.266,295.976 26.266,296.438L26.266,299.767C26.266,300.235 26.335,300.585 26.472,300.817C26.61,301.048 26.879,301.163 27.279,301.163Z" style="fill:#8d8d8d;fill-rule:nonzero;"/><path d="M31.507,295.107L30.222,295.107L30.222,294.32L33.813,294.32L33.813,295.107L32.566,295.107L32.566,301.913L31.507,301.913L31.507,295.107Z" style="fill:#8d8d8d;fill-rule:nonzero;"/><path d="M34.826,294.32L37.769,294.32L37.769,295.107L35.885,295.107L35.885,297.62L37.413,297.62L37.413,298.37L35.885,298.37L35.885,301.154L37.788,301.154L37.788,301.913L34.826,301.913L34.826,294.32Z" style="fill:#8d8d8d;fill-rule:nonzero;"/><path d="M43.291,301.998C42.547,301.998 42.015,301.787 41.693,301.365C41.371,300.943 41.21,300.332 41.21,299.532L41.21,296.654C41.21,295.867 41.372,295.27 41.697,294.863C42.022,294.457 42.554,294.254 43.291,294.254C44.029,294.254 44.558,294.459 44.88,294.868C45.202,295.278 45.363,295.873 45.363,296.654L45.363,299.542C45.363,300.329 45.201,300.935 44.876,301.36C44.551,301.785 44.022,301.998 43.291,301.998ZM43.291,301.163C43.685,301.163 43.951,301.048 44.088,300.817C44.226,300.585 44.294,300.235 44.294,299.767L44.294,296.438C44.294,295.976 44.226,295.634 44.088,295.412C43.951,295.19 43.685,295.079 43.291,295.079C42.891,295.079 42.622,295.19 42.485,295.412C42.347,295.634 42.279,295.976 42.279,296.438L42.279,299.767C42.279,300.235 42.347,300.585 42.485,300.817C42.622,301.048 42.891,301.163 43.291,301.163Z" style="fill:#8d8d8d;fill-rule:nonzero;"/><path d="M48.644,301.998C48.113,301.998 47.699,301.892 47.402,301.679C47.105,301.467 46.901,301.17 46.788,300.788C46.676,300.407 46.619,299.929 46.619,299.354L46.619,294.32L47.632,294.32L47.632,299.401C47.632,299.976 47.699,300.413 47.833,300.713C47.968,301.013 48.238,301.163 48.644,301.163C49.051,301.163 49.321,301.013 49.455,300.713C49.59,300.413 49.657,299.976 49.657,299.401L49.657,294.32L50.66,294.32L50.66,299.354C50.66,299.929 50.604,300.407 50.491,300.788C50.379,301.17 50.176,301.467 49.882,301.679C49.588,301.892 49.176,301.998 48.644,301.998Z" style="fill:#8d8d8d;fill-rule:nonzero;"/><path d="M52.891,295.107L51.607,295.107L51.607,294.32L55.197,294.32L55.197,295.107L53.951,295.107L53.951,301.913L52.891,301.913L52.891,295.107Z" style="fill:#8d8d8d;fill-rule:nonzero;"/><path d="M43.994,111.972C43.357,111.972 42.871,111.775 42.536,111.381C42.202,110.987 42.016,110.447 41.979,109.759L42.916,109.506C42.947,109.994 43.043,110.387 43.202,110.687C43.361,110.987 43.626,111.137 43.994,111.137C44.269,111.137 44.477,111.061 44.618,110.908C44.758,110.754 44.829,110.534 44.829,110.247C44.829,109.934 44.763,109.675 44.632,109.469C44.501,109.262 44.291,109.034 44.004,108.784L42.729,107.659C42.472,107.434 42.286,107.192 42.171,106.933C42.055,106.673 41.997,106.356 41.997,105.981C41.997,105.425 42.157,104.994 42.476,104.687C42.794,104.381 43.229,104.228 43.779,104.228C44.379,104.228 44.832,104.387 45.138,104.706C45.444,105.025 45.629,105.519 45.691,106.187L44.791,106.431C44.76,105.987 44.674,105.645 44.533,105.404C44.393,105.164 44.141,105.044 43.779,105.044C43.51,105.044 43.304,105.114 43.16,105.254C43.016,105.395 42.944,105.603 42.944,105.878C42.944,106.103 42.982,106.292 43.057,106.445C43.132,106.598 43.26,106.753 43.441,106.909L44.726,108.034C45.057,108.328 45.321,108.647 45.518,108.99C45.715,109.334 45.813,109.725 45.813,110.162C45.813,110.719 45.644,111.159 45.307,111.484C44.969,111.809 44.532,111.972 43.994,111.972Z" style="fill:#8d8d8d;fill-rule:nonzero;"/><path d="M46.919,104.294L49.863,104.294L49.863,105.081L47.979,105.081L47.979,107.594L49.507,107.594L49.507,108.344L47.979,108.344L47.979,111.128L49.882,111.128L49.882,111.887L46.919,111.887L46.919,104.294Z" style="fill:#8d8d8d;fill-rule:nonzero;"/><path d="M51.138,104.294L52.179,104.294L53.519,110.453L54.869,104.294L55.901,104.294L56.041,111.887L55.188,111.887L55.104,106.375L53.819,111.887L53.219,111.887L51.944,106.375L51.86,111.887L50.997,111.887L51.138,104.294Z" style="fill:#8d8d8d;fill-rule:nonzero;"/><rect x="57.541" y="104.294" width="1.041" height="7.594" style="fill:#8d8d8d;fill-rule:nonzero;"/><path d="M19.801,111.961C19.057,111.961 18.524,111.75 18.202,111.328C17.88,110.906 17.719,110.295 17.719,109.495L17.719,106.617C17.719,105.829 17.882,105.233 18.207,104.826C18.532,104.42 19.063,104.217 19.801,104.217C20.538,104.217 21.068,104.422 21.39,104.831C21.711,105.24 21.872,105.836 21.872,106.617L21.872,109.504C21.872,110.292 21.71,110.898 21.385,111.323C21.06,111.748 20.532,111.961 19.801,111.961ZM19.801,111.126C20.194,111.126 20.46,111.011 20.597,110.779C20.735,110.548 20.804,110.198 20.804,109.729L20.804,106.401C20.804,105.939 20.735,105.597 20.597,105.375C20.46,105.153 20.194,105.042 19.801,105.042C19.401,105.042 19.132,105.153 18.994,105.375C18.857,105.597 18.788,105.939 18.788,106.401L18.788,109.729C18.788,110.198 18.857,110.548 18.994,110.779C19.132,111.011 19.401,111.126 19.801,111.126Z" style="fill:#8d8d8d;fill-rule:nonzero;"/><path d="M25.097,111.961C24.347,111.961 23.819,111.737 23.513,111.29C23.207,110.844 23.054,110.226 23.054,109.439L23.054,106.758C23.054,105.926 23.204,105.295 23.504,104.864C23.804,104.433 24.335,104.217 25.097,104.217C25.779,104.217 26.268,104.401 26.565,104.77C26.861,105.139 27.01,105.683 27.01,106.401L27.01,107.001L26.007,107.001L26.007,106.467C26.007,106.117 25.991,105.848 25.96,105.661C25.929,105.473 25.849,105.323 25.721,105.211C25.593,105.098 25.388,105.042 25.107,105.042C24.819,105.042 24.605,105.103 24.465,105.225C24.324,105.347 24.232,105.515 24.188,105.731C24.144,105.947 24.122,106.236 24.122,106.598L24.122,109.608C24.122,109.995 24.154,110.298 24.216,110.517C24.279,110.736 24.38,110.892 24.521,110.986C24.661,111.079 24.857,111.126 25.107,111.126C25.376,111.126 25.576,111.067 25.707,110.948C25.838,110.829 25.921,110.667 25.955,110.461C25.99,110.254 26.007,109.973 26.007,109.617L26.007,109.054L27.01,109.054L27.01,109.617C27.01,110.373 26.868,110.953 26.583,111.356C26.299,111.759 25.804,111.961 25.097,111.961Z" style="fill:#8d8d8d;fill-rule:nonzero;"/><path d="M29.138,105.07L27.854,105.07L27.854,104.283L31.444,104.283L31.444,105.07L30.197,105.07L30.197,111.876L29.138,111.876L29.138,105.07Z" style="fill:#8d8d8d;fill-rule:nonzero;"/><rect x="0" y="115.251" width="37.5" height="171" style="fill:#3b3b3b;"/><path d="M64.5,117.251C64.5,116.147 63.605,115.251 62.5,115.251C52.731,115.251 10.5,115.251 10.5,115.251L10.5,286.251L62.5,286.251C63.605,286.251 64.5,285.356 64.5,284.251C64.5,266.428 64.5,135.074 64.5,117.251Z" style="fill:#e7b028;"/><path d="M7.378,274.5L24.537,274.5" style="fill:none;stroke:#3b3b3b;stroke-width:1.04px;stroke-linecap:butt;stroke-linejoin:miter;"/><path d="M7.378,253.5L24.537,253.5" style="fill:none;stroke:#3b3b3b;stroke-width:1.04px;stroke-linecap:butt;stroke-linejoin:miter;"/><path d="M7.378,232.5L24.537,232.5" style="fill:none;stroke:#3b3b3b;stroke-width:1.04px;stroke-linecap:butt;stroke-linejoin:miter;"/><path d="M7.378,211.5L24.537,211.5" style="fill:none;stroke:#3b3b3b;stroke-width:1.04px;stroke-linecap:butt;stroke-linejoin:miter;"/><path d="M7.378,190.5L24.537,190.5" style="fill:none;stroke:#3b3b3b;stroke-width:1.04px;stroke-linecap:butt;stroke-linejoin:miter;"/><path d="M7.378,169.5L24.537,169.5" style="fill:none;stroke:#3b3b3b;stroke-width:1.04px;stroke-linecap:butt;stroke-linejoin:miter;"/><path d="M7.378,148.5L24.537,148.5" style="fill:none;stroke:#3b3b3b;stroke-width:1.04px;stroke-linecap:butt;stroke-linejoin:miter;"/><path d="M7.378,127.5L24.537,127.5" style="fill:none;stroke:#3b3b3b;stroke-width:1.04px;stroke-linecap:butt;stroke-linejoin:miter;"/><g><rect x="33.5" y="127" width="1.25" height="1" style="fill:#3b3b3b;"/><rect x="35.75" y="127" width="1.25" height="1" style="fill:#3b3b3b;"/><rect x="38" y="127" width="1.25" height="1" style="fill:#3b3b3b;"/><rect x="40.25" y="127" width="1.25" height="1" style="fill:#3b3b3b;"/></g><g><rect x="33.5" y="148" width="1.25" height="1" style="fill:#3b3b3b;"/><rect x="35.75" y="148" width="1.25" height="1" style="fill:#3b3b3b;"/><rect x="38" y="148" width="1.25" height="1" style="fill:#3b3b3b;"/><rect x="40.25" y="148" width="1.25" height="1" style="fill:#3b3b3b;"/></g><g><rect x="33.5" y="169" width="1.25" height="1" style="fill:#3b3b3b;"/><rect x="35.75" y="169" width="1.25" height="1" style="fill:#3b3b3b;"/><rect x="38" y="169" width="1.25" height="1" style="fill:#3b3b3b;"/><rect x="40.25" y="169" width="1.25" height="1" style="fill:#3b3b3b;"/></g><g><rect x="33.5" y="190" width="1.25" height="1" style="fill:#3b3b3b;"/><rect x="35.75" y="190" width="1.25" height="1" style="fill:#3b3b3b;"/><rect x="38" y="190" width="1.25" height="1" style="fill:#3b3b3b;"/><rect x="40.25" y="190" width="1.25" height="1" style="fill:#3b3b3b;"/></g><g><rect x="33.5" y="211" width="1.25" height="1" style="fill:#3b3b3b;"/><rect x="35.75" y="211" width="1.25" height="1" style="fill:#3b3b3b;"/><rect x="38" y="211" width="1.25" height="1" style="fill:#3b3b3b;"/><rect x="40.25" y="211" width="1.25" height="1" style="fill:#3b3b3b;"/></g><g><rect x="33.5" y="232" width="1.25" height="1" style="fill:#3b3b3b;"/><rect x="35.75" y="232" width="1.25" height="1" style="fill:#3b3b3b;"/><rect x="38" y="232" width="1.25" height="1" style="fill:#3b3b3b;"/><rect x="40.25" y="232" width="1.25" height="1" style="fill:#3b3b3b;"/></g><g><rect x="33.5" y="253" width="1.25" height="1" style="fill:#3b3b3b;"/><rect x="35.75" y="253" width="1.25" height="1" style="fill:#3b3b3b;"/><rect x="38" y="253" width="1.25" height="1" style="fill:#3b3b3b;"/><rect x="40.25" y="253" width="1.25" height="1" style="fill:#3b3b3b;"/></g><g><rect x="33.5" y="274" width="1.25" height="1" style="fill:#3b3b3b;"/><rect x="35.75" y="274" width="1.25" height="1" style="fill:#3b3b3b;"/><rect x="38" y="274" width="1.25" height="1" style="fill:#3b3b3b;"/><rect x="40.25" y="274" width="1.25" height="1" style="fill:#3b3b3b;"/></g><circle cx="69.717" cy="274.5" r="3.217" style="fill:#5a5a5a;"/><circle cx="69.717" cy="253.5" r="3.217" style="fill:#5a5a5a;"/><circle cx="69.717" cy="232.5" r="3.217" style="fill:#5a5a5a;"/><circle cx="69.717" cy="211.5" r="3.217" style="fill:#5a5a5a;"/><circle cx="69.717" cy="190.5" r="3.217" style="fill:#5a5a5a;"/><circle cx="69.717" cy="169.5" r="3.217" style="fill:#5a5a5a;"/><circle cx="69.717" cy="148.5" r="3.217" style="fill:#5a5a5a;"/><circle cx="69.717" cy="127.5" r="3.217" style="fill:#5a5a5a;"/><path d="M5.064,278.372C4.401,278.372 3.923,278.181 3.629,277.8C3.335,277.419 3.189,276.869 3.189,276.15C3.189,275.669 3.268,275.284 3.428,274.997C3.587,274.709 3.82,274.472 4.126,274.284C3.564,273.909 3.282,273.344 3.282,272.588C3.282,271.969 3.429,271.487 3.723,271.144C4.017,270.8 4.464,270.628 5.064,270.628C5.657,270.628 6.099,270.8 6.39,271.144C6.681,271.487 6.826,271.969 6.826,272.588C6.826,272.994 6.754,273.333 6.61,273.605C6.467,273.877 6.257,274.103 5.982,274.284C6.289,274.478 6.523,274.719 6.685,275.006C6.848,275.294 6.929,275.675 6.929,276.15C6.929,276.863 6.782,277.411 6.489,277.795C6.195,278.18 5.72,278.372 5.064,278.372ZM5.064,273.825C5.582,273.819 5.842,273.387 5.842,272.531C5.842,272.194 5.781,271.922 5.659,271.716C5.537,271.509 5.339,271.406 5.064,271.406C4.789,271.406 4.587,271.509 4.459,271.716C4.331,271.922 4.267,272.194 4.267,272.531C4.267,272.906 4.326,273.214 4.445,273.455C4.564,273.695 4.77,273.819 5.064,273.825ZM5.064,277.575C5.401,277.575 5.635,277.452 5.767,277.205C5.898,276.958 5.964,276.612 5.964,276.169C5.964,275.762 5.893,275.431 5.753,275.175C5.612,274.919 5.382,274.787 5.064,274.781C4.739,274.787 4.504,274.919 4.36,275.175C4.217,275.431 4.145,275.762 4.145,276.169C4.145,276.612 4.212,276.958 4.346,277.205C4.481,277.452 4.72,277.575 5.064,277.575Z" style="fill:#9a9a9a;fill-rule:nonzero;"/><path d="M5.49,250.491L3.456,250.491L3.456,249.703L6.493,249.703L6.493,250.191L5.087,257.297L4.121,257.297L5.49,250.491Z" style="fill:#9a9a9a;fill-rule:nonzero;"/><path d="M5.11,236.372C4.485,236.372 4.018,236.142 3.709,235.683C3.399,235.223 3.245,234.622 3.245,233.878L3.245,231.319C3.245,230.5 3.389,229.847 3.676,229.359C3.964,228.872 4.442,228.628 5.11,228.628C5.698,228.628 6.151,228.788 6.47,229.106C6.789,229.425 6.954,229.881 6.967,230.475L6.976,230.588L5.964,230.588C5.964,230.2 5.901,229.914 5.776,229.73C5.651,229.545 5.429,229.453 5.11,229.453C4.535,229.453 4.248,229.994 4.248,231.075L4.248,232.228C4.348,232.066 4.493,231.938 4.684,231.844C4.874,231.75 5.098,231.703 5.354,231.703C5.948,231.703 6.37,231.892 6.62,232.27C6.87,232.648 6.995,233.191 6.995,233.897C6.995,234.641 6.842,235.239 6.535,235.692C6.229,236.145 5.754,236.372 5.11,236.372ZM5.11,235.538C5.423,235.538 5.646,235.409 5.781,235.153C5.915,234.897 5.982,234.559 5.982,234.141C5.982,233.759 5.967,233.456 5.935,233.231C5.904,233.006 5.826,232.822 5.701,232.678C5.576,232.534 5.379,232.463 5.11,232.463C4.917,232.463 4.746,232.512 4.599,232.612C4.453,232.712 4.335,232.834 4.248,232.978L4.248,234.112C4.248,234.544 4.315,234.889 4.449,235.148C4.584,235.408 4.804,235.538 5.11,235.538Z" style="fill:#9a9a9a;fill-rule:nonzero;"/><path d="M5.106,215.334C4.449,215.334 3.979,215.148 3.695,214.777C3.41,214.405 3.268,213.856 3.268,213.131L4.271,213.131C4.271,213.556 4.329,213.897 4.445,214.153C4.56,214.409 4.787,214.538 5.124,214.538C5.381,214.538 5.571,214.463 5.696,214.313C5.821,214.163 5.901,213.964 5.935,213.717C5.97,213.47 5.987,213.141 5.987,212.728C5.987,212.347 5.967,212.042 5.926,211.814C5.885,211.586 5.804,211.411 5.682,211.289C5.56,211.167 5.378,211.106 5.134,211.106C4.94,211.106 4.77,211.166 4.623,211.284C4.476,211.403 4.365,211.553 4.29,211.734L3.437,211.734L3.437,207.666L6.709,207.666L6.709,208.669L4.346,208.669L4.281,210.769C4.549,210.488 4.915,210.347 5.378,210.347C5.959,210.347 6.373,210.545 6.62,210.942C6.867,211.339 6.99,211.891 6.99,212.597C6.99,213.459 6.849,214.131 6.568,214.613C6.287,215.094 5.799,215.334 5.106,215.334Z" style="fill:#9a9a9a;fill-rule:nonzero;"/><path d="M5.373,192.262L3.17,192.262L3.17,191.213L5.148,186.703L6.329,186.703L6.329,191.372L7.182,191.372L7.182,192.262L6.329,192.262L6.329,194.297L5.373,194.297L5.373,192.262ZM5.373,191.372L5.373,187.922L4.135,191.372L5.373,191.372Z" style="fill:#9a9a9a;fill-rule:nonzero;"/><path d="M5.054,173.372C4.448,173.372 3.987,173.202 3.671,172.861C3.356,172.52 3.198,172.041 3.198,171.422L3.198,171.169L4.192,171.169L4.192,171.338C4.204,171.725 4.271,172.022 4.393,172.228C4.515,172.434 4.735,172.538 5.054,172.538C5.392,172.538 5.621,172.42 5.743,172.186C5.865,171.952 5.926,171.603 5.926,171.141C5.926,170.716 5.848,170.383 5.692,170.142C5.535,169.902 5.282,169.769 4.932,169.744C4.907,169.737 4.86,169.734 4.792,169.734L4.792,168.731L4.923,168.731C5.279,168.719 5.535,168.625 5.692,168.45C5.848,168.275 5.926,167.984 5.926,167.578C5.926,167.203 5.864,166.92 5.739,166.73C5.614,166.539 5.389,166.444 5.064,166.444C4.739,166.444 4.515,166.547 4.393,166.753C4.271,166.959 4.204,167.262 4.192,167.663L4.192,167.822L3.198,167.822L3.198,167.569C3.198,166.95 3.356,166.472 3.671,166.134C3.987,165.797 4.451,165.628 5.064,165.628C5.676,165.628 6.14,165.798 6.456,166.139C6.771,166.48 6.929,166.959 6.929,167.578C6.929,168.022 6.832,168.384 6.639,168.666C6.445,168.947 6.179,169.137 5.842,169.237C6.185,169.344 6.453,169.559 6.643,169.884C6.834,170.209 6.929,170.628 6.929,171.141C6.929,171.847 6.778,172.395 6.474,172.786C6.171,173.177 5.698,173.372 5.054,173.372Z" style="fill:#9a9a9a;fill-rule:nonzero;"/><path d="M3.203,151.617L5.134,148.608C5.228,148.458 5.29,148.364 5.321,148.327C5.54,147.977 5.699,147.686 5.799,147.455C5.899,147.223 5.949,146.945 5.949,146.62C5.949,146.258 5.89,145.98 5.771,145.786C5.653,145.592 5.459,145.495 5.19,145.495C4.59,145.495 4.29,145.961 4.29,146.892L4.29,147.145L3.287,147.145L3.287,146.883C3.287,146.17 3.434,145.623 3.728,145.242C4.021,144.861 4.493,144.67 5.143,144.67C5.743,144.67 6.196,144.841 6.503,145.181C6.809,145.522 6.962,146.005 6.962,146.63C6.962,146.936 6.926,147.209 6.854,147.45C6.782,147.691 6.696,147.898 6.596,148.073C6.496,148.248 6.34,148.498 6.128,148.823L4.384,151.486L6.784,151.486L6.784,152.33L3.203,152.33L3.203,151.617Z" style="fill:#9a9a9a;fill-rule:nonzero;"/><path d="M4.806,125.016C4.793,125.034 4.604,125.078 4.239,125.147C3.873,125.216 3.621,125.262 3.484,125.287L3.484,124.528C4.246,124.347 4.768,124.072 5.049,123.703L5.809,123.703L5.809,131.297L4.806,131.297L4.806,125.016Z" style="fill:#9a9a9a;fill-rule:nonzero;"/></svg>